<svg xmlns="http://www.w3.org/2000/svg" viewBox="0 0 1098 606.64"><defs><style>.a{fill:#1e1e1c;}.b{fill:#db0c15;}.c{fill:#e20613;}.d{fill:#ffdc00;}</style></defs><path class="a" d="M340.13,381.57q13.19,0,22.79,10.47a30.44,30.44,0,0,1,6.84,14.35,41,41,0,0,1,.51,7.5v9.88a5.14,5.14,0,0,1-4.22,5.49,6.64,6.64,0,0,1-1.94.18H353.48q-4.23,0-5.75-3.21a9.83,9.83,0,0,1-.34-2.46v-12.4q0-4-4.47-6.33a10.57,10.57,0,0,0-2.62-.59l-.17.08c-.05,0-.08,0-.08-.08q-4.14,0-6.67,4.38a8.34,8.34,0,0,0-.51,2.54V468q0,4.31,4.73,6.58a9,9,0,0,0,2.2.42h.67q4,0,6.41-4.47a7,7,0,0,0,.51-2.53V455.85q0-4.12,3.55-5.48a6.65,6.65,0,0,1,1.77-.26H365c2.58,0,4.31,1.35,5.15,4.05a5.55,5.55,0,0,1,.17,1.69v9.88q0,9.87-3.38,15.79-1.42,3.28-6.16,8.26a31.81,31.81,0,0,1-11.14,6.5,29.3,29.3,0,0,1-9,1.53h-.84q-11.14,0-20.43-8.28a30.43,30.43,0,0,1-6.33-8.86q-3-5.57-3-15.11V413.89q0-9.11,2.7-14.68a32.07,32.07,0,0,1,6.16-8.78q9.38-8.87,21.27-8.86"/><path class="a" d="M389.18,381.65h10.63a5.37,5.37,0,0,1,5.32,3.47,4.31,4.31,0,0,1,.26,1.35V492.91c0,2.13-1.27,3.71-3.79,4.72a19.22,19.22,0,0,1-2.72.18H388.25a5.34,5.34,0,0,1-5.4-3.64,3.65,3.65,0,0,0-.25-1.18c0-.9.08-1.6.08-2.11V386.55c0-2.08,1.26-3.65,3.8-4.72a20.41,20.41,0,0,1,2.7-.18m-1.69-31h13.17c2,0,3.54,1.2,4.56,3.63a2.83,2.83,0,0,1,.17,1.09v13.17c0,2.14-1.27,3.71-3.79,4.73a20.78,20.78,0,0,1-2.72.16H388.25a5.33,5.33,0,0,1-5.4-3.62,3.67,3.67,0,0,0-.25-1.19c0-.89.08-1.57.08-2V355.49q0-3.12,3.63-4.65a5.07,5.07,0,0,1,1.18-.16"/><path class="a" d="M425.14,363h13.25c2.15,0,3.69,1.3,4.64,3.88a7.52,7.52,0,0,1,.17,1.69v13h6.93a5.21,5.21,0,0,1,5.4,4.05,6.85,6.85,0,0,1,.17,1.61v11.65a5.22,5.22,0,0,1-3.38,5.23,6,6,0,0,1-2.7.42H443.2V468c0,2.76,1.44,4.89,4.31,6.42a10.79,10.79,0,0,0,4.14.67,5.68,5.68,0,0,1,3.29,2.45,5.6,5.6,0,0,1,.76,3.21v11.47a5.27,5.27,0,0,1-3.88,5.41,4.16,4.16,0,0,1-1.1.17h-.67q-11.15,0-20.43-8.28a30.48,30.48,0,0,1-6.33-8.86q-3-5.58-3-15.11v-61h-.16c-3.05,0-5-1.23-5.83-3.71a8,8,0,0,1-.26-1.94V387.23a5.29,5.29,0,0,1,4.31-5.57,11.19,11.19,0,0,1,1.26-.09h.68v-13a5.4,5.4,0,0,1,3.38-5.32,4.79,4.79,0,0,1,1.43-.25"/><path class="a" d="M488.11,411.12v56.64q0,4,4.23,6.33a6.67,6.67,0,0,0,2.87.68h.33c2.88,0,5.07-1.5,6.59-4.48a6.72,6.72,0,0,0,.51-2.53V411.12c0-2.7-1.5-4.81-4.48-6.34a10.84,10.84,0,0,0-2.62-.58l-.17.08c-.05,0-.08,0-.08-.08q-4.14,0-6.67,4.38a8.59,8.59,0,0,0-.51,2.54m7.26-29.8q13.19,0,22.8,10.47A30.48,30.48,0,0,1,525,406.14a40,40,0,0,1,.51,7.5v51.84q0,9.87-3.38,15.79-1.43,3.28-6.15,8.26a32,32,0,0,1-11.15,6.5,28.75,28.75,0,0,1-9,1.52H495q-11,0-20.1-8a30.15,30.15,0,0,1-5.48-6.83A29.6,29.6,0,0,1,465.49,471a45.12,45.12,0,0,1-.25-5.65V413.64q0-9.11,2.71-14.68a31,31,0,0,1,6.5-9.12q9.27-8.52,20.92-8.52"/><path class="a" d="M580.21,381.49h13.25c2.09,0,3.63,1.21,4.66,3.63a4.88,4.88,0,0,1,.15,1.18V512.83q0,7.33-5.06,15.53a35.83,35.83,0,0,1-5.4,6.08,30.72,30.72,0,0,1-19.67,7.26q-12.57,0-22.12-9.71a30.47,30.47,0,0,1-8-20.67,5.25,5.25,0,0,1,2.62-4.31,6.09,6.09,0,0,1,3.29-.76h11.14q6,0,6,6.76c.11,1.12.89,2.47,2.36,4a7.93,7.93,0,0,0,4.56,1.78l.16-.09h.09s.08,0,.08.09q3.72,0,6.25-3.8c.61-.79.93-2.84.93-6.17V497.13a31.62,31.62,0,0,1-7.35.93q-12.66,0-22.28-9.87a29.52,29.52,0,0,1-5.15-7.93C538.9,476.77,538,472,538,466V387.23a5.26,5.26,0,0,1,3.8-5.41,4.94,4.94,0,0,1,1.18-.16h13c2,0,3.49,1.06,4.56,3.2a5.79,5.79,0,0,1,.41,2.37v80.95c0,2.75,1.47,4.9,4.4,6.41a10.2,10.2,0,0,0,2.7.6l.08-.1c.06,0,.09,0,.09.1,2.75,0,4.93-1.39,6.5-4.14.51-.56.76-2.71.76-6.42V388.32c0-.55,0-1.23-.09-2,0-1.4.79-2.73,2.37-4a4.14,4.14,0,0,1,2.44-.84"/><path class="a" d="M635,411.2v20h14.44v-20c0-2.76-1.53-4.92-4.56-6.5a8.13,8.13,0,0,0-2.37-.42h-.67q-4.14,0-6.41,4.56a7.79,7.79,0,0,0-.43,2.36m7.18-29.8q12.41,0,22,9.45a32.78,32.78,0,0,1,4.89,7,29.9,29.9,0,0,1,2.36,5.9,39.73,39.73,0,0,1,1,10v35c0,2.64-1.4,4.42-4.22,5.31-.51.05-.9.09-1.17.09H635V468c0,2.74,1.52,4.88,4.56,6.4a7,7,0,0,0,2.28.43h.67q4.14,0,6.5-4.56a16.35,16.35,0,0,0,.59-4.06,5.42,5.42,0,0,1,5.49-3.79h11.65a5.34,5.34,0,0,1,5.4,3.63c.11.51.19,1,.25,1.43q0,13.33-10.55,23.05a30.71,30.71,0,0,1-19.66,7.25q-13.09,0-22.79-10.46a31.64,31.64,0,0,1-6.84-14.26,43.54,43.54,0,0,1-.51-7.6V413.73q0-10.29,3.46-16,4.9-9.79,16-14.44a34.68,34.68,0,0,1,10.64-1.86"/><path class="a" d="M692.49,381.57h11.06a5.93,5.93,0,0,1,3.8,1.36h.08a31.15,31.15,0,0,1,8.77-1.36q13.51,0,23.22,11a31.15,31.15,0,0,1,6.41,13.59,36.87,36.87,0,0,1,.43,4.3v82.72c0,1.64-1,3-3,4.14a3.67,3.67,0,0,1-1.94.51h-13c-2,0-3.49-1.07-4.56-3.22a6.79,6.79,0,0,1-.35-2.36V411.37c0-2.7-1.48-4.81-4.46-6.33a10.68,10.68,0,0,0-2.62-.59l-.18.08c-.05,0-.07,0-.07-.08-2.77,0-5,1.46-6.68,4.38a8.59,8.59,0,0,0-.5,2.54v81.38c0,2.35-1.35,4-4.06,5a8.91,8.91,0,0,1-1.18.09H691.05q-3,0-4.55-3.29a4.43,4.43,0,0,1-.34-1.69V387c0-2.65,1.34-4.4,4-5.24a12.51,12.51,0,0,1,2.29-.17"/><path class="a" d="M766.52,381.57h11.06a5.91,5.91,0,0,1,3.8,1.36h.08a31.17,31.17,0,0,1,8.78-1.36q13.5,0,23.21,11a31.28,31.28,0,0,1,6.42,13.59,38.52,38.52,0,0,1,.42,4.3v82.72c0,1.64-1,3-2.95,4.14a3.73,3.73,0,0,1-2,.51h-13c-2,0-3.49-1.07-4.56-3.22a6.81,6.81,0,0,1-.34-2.36V411.37q0-4-4.47-6.33a10.57,10.57,0,0,0-2.62-.59l-.17.08c-.06,0-.08,0-.08-.08-2.77,0-5,1.46-6.68,4.38a8.59,8.59,0,0,0-.5,2.54v81.38c0,2.35-1.35,4-4.05,5a9.16,9.16,0,0,1-1.18.09H765.08q-3,0-4.55-3.29a4.43,4.43,0,0,1-.34-1.69V387q0-4,4-5.24a12.32,12.32,0,0,1,2.28-.17"/><path class="a" d="M857.1,411.2v20h14.43v-20c0-2.76-1.52-4.92-4.55-6.5a8.18,8.18,0,0,0-2.37-.42h-.67q-4.14,0-6.43,4.56a8.36,8.36,0,0,0-.41,2.36m7.17-29.8q12.42,0,21.94,9.45a32.28,32.28,0,0,1,4.91,7,31.17,31.17,0,0,1,2.36,5.9,40.2,40.2,0,0,1,1,10v35c0,2.64-1.4,4.42-4.22,5.31-.51.05-.9.09-1.18.09h-32V468c0,2.74,1.52,4.88,4.55,6.4a7.15,7.15,0,0,0,2.29.43h.67c2.76,0,4.92-1.52,6.5-4.56a16.35,16.35,0,0,0,.59-4.06,5.42,5.42,0,0,1,5.49-3.79h11.65a5.34,5.34,0,0,1,5.4,3.63c.11.51.19,1,.25,1.43q0,13.33-10.55,23.05a30.71,30.71,0,0,1-19.67,7.25q-13.08,0-22.79-10.46a31.64,31.64,0,0,1-6.84-14.26,44.55,44.55,0,0,1-.51-7.6V413.73q0-10.29,3.47-16,4.89-9.79,16-14.44a34.62,34.62,0,0,1,10.63-1.86"/><path class="b" d="M457.59,212.84h11.06a6,6,0,0,1,3.8,1.36h.08a31.53,31.53,0,0,1,8.78-1.36,30.44,30.44,0,0,1,18.66,6.5,30.63,30.63,0,0,1,18.65-6.5q13.17,0,22.87,10.48a30.89,30.89,0,0,1,6.76,14.34,41.21,41.21,0,0,1,.5,7.51V323.5a5.26,5.26,0,0,1-3.8,5.41,4.3,4.3,0,0,1-1.17.17H530.86q-3,0-4.56-3.21a5.77,5.77,0,0,1-.43-2.37V242.64c0-2.7-1.45-4.81-4.38-6.33a10.64,10.64,0,0,0-2.7-.59l-.17.09s-.08,0-.08-.09q-4.14,0-6.59,4.38a8.34,8.34,0,0,0-.51,2.54V323.5a5.13,5.13,0,0,1-5,5.58h-13c-2,0-3.49-1.07-4.56-3.21a6.91,6.91,0,0,1-.34-2.37V242.64q0-4-4.47-6.33a10.57,10.57,0,0,0-2.62-.59l-.17.09c-.06,0-.08,0-.08-.09q-4.14,0-6.68,4.38a8.59,8.59,0,0,0-.5,2.54V324c0,2.35-1.35,4-4.05,5a9.16,9.16,0,0,1-1.18.09H456.15q-3,0-4.55-3.29a4.43,4.43,0,0,1-.34-1.69V218.25q0-4,4.05-5.24a12.32,12.32,0,0,1,2.28-.17"/><path class="b" d="M585.81,279.78V299q0,4.31,4.73,6.58a9.54,9.54,0,0,0,2.2.43h.67c2.65,0,4.79-1.5,6.41-4.48.4-.68.6-2.64.6-5.91V283.16c0-3.71-.31-5.92-.93-6.58a7.37,7.37,0,0,0-6.42-3.8c-2.92,0-5.17,1.48-6.75,4.46a7.81,7.81,0,0,0-.51,2.54m7.26-67.19q11.73,0,21,8.61c3,3.27,4.9,5.76,5.58,7.51a27,27,0,0,1,2.61,6.76,33.21,33.21,0,0,1,.93,6.67c-.05,1.4-.09,2.44-.09,3.12v78.92q0,3.21-3.79,4.73a22.39,22.39,0,0,1-2.71.16H605.9a5.62,5.62,0,0,1-4-1.51,32.4,32.4,0,0,1-8.36,1.26h-.85q-11.13,0-20.42-8.27a30.57,30.57,0,0,1-6.34-8.87q-2.94-5.55-2.95-15.1V282q0-10.29,3.8-16.37a28.08,28.08,0,0,1,4.89-6.67q9.38-9,21.44-9a31.62,31.62,0,0,1,7.35.93v-5.07c0-3.76-.31-6-.93-6.57a7.18,7.18,0,0,0-3.72-3.22,8.61,8.61,0,0,0-2.53-.58l-.17.07c-.05,0-.08,0-.08-.07-2.7,0-4.89,1.4-6.58,4.22a14.07,14.07,0,0,0-.77,4.39,5,5,0,0,1-2.53,3.2,6.26,6.26,0,0,1-3.29.68H569q-4.54,0-5.82-3.63c-.16-.85-.25-1.32-.25-1.43q0-13.43,10.55-23.05a30.41,30.41,0,0,1,19.58-7.26"/><path class="b" d="M673.69,212.59h11a5.49,5.49,0,0,1,4,1.52,31.66,31.66,0,0,1,8.36-1.27h.85c1.8,0,3.29,1.12,4.47,3.38a7.62,7.62,0,0,1,.34,2.19V229.9a5.46,5.46,0,0,1-3.55,5.57c-.73.11-1.91.25-3.55.42a7.92,7.92,0,0,0-4,2.7c-1,1-1.52,3.12-1.52,6.5v79.09c0,2.14-1.27,3.71-3.79,4.73a20,20,0,0,1-2.62.17H672.93a5.34,5.34,0,0,1-5.4-3.63,3.67,3.67,0,0,0-.25-1.19c.05-.9.08-1.6.08-2.1v-76c0-1.18,0-2.5-.08-4a25.71,25.71,0,0,0,.08-2.95V217.48c0-2,1.13-3.48,3.38-4.56a9.55,9.55,0,0,1,3-.33"/><path class="b" d="M735.32,242.47v20h14.43v-20q0-4.12-4.56-6.5a8.07,8.07,0,0,0-2.36-.42h-.67q-4.14,0-6.42,4.56a7.8,7.8,0,0,0-.42,2.36m11-81.63H758a5.38,5.38,0,0,1,5.31,3.55,6.06,6.06,0,0,1,.25,1.77q0,1.35-2.11,6.08Q750.86,199,750.26,200.1c-1.07,1.57-2.82,2.36-5.23,2.36h-5a5.25,5.25,0,0,1-5.4-3.8,5.07,5.07,0,0,1-.17-1.18V197q0-.5,6.42-32.5a5.34,5.34,0,0,1,5.4-3.63m-3.8,51.83q12.42,0,22,9.45a32.76,32.76,0,0,1,4.9,7A32.24,32.24,0,0,1,771.7,235a40.15,40.15,0,0,1,1,10v35c0,2.64-1.4,4.42-4.22,5.31-.51,0-.9.09-1.18.09h-32v13.84q0,4.14,4.55,6.41a7.15,7.15,0,0,0,2.29.43h.67q4.14,0,6.51-4.56a17,17,0,0,0,.58-4.06,5.43,5.43,0,0,1,5.49-3.8h11.64a5.36,5.36,0,0,1,5.41,3.64c.11.51.19,1,.25,1.43q0,13.35-10.55,23.05a30.71,30.71,0,0,1-19.67,7.25q-13.1,0-22.79-10.46a31.64,31.64,0,0,1-6.84-14.26,44.55,44.55,0,0,1-.51-7.6V245q0-10.29,3.47-16,4.89-9.79,16-14.44a34.57,34.57,0,0,1,10.63-1.86"/><path class="b" d="M809.35,242.73v56.63q0,4.14,4.39,6.42a10.64,10.64,0,0,0,2.7.59l.08-.08c.06,0,.09,0,.09.08,2.76,0,4.93-1.37,6.5-4.14.51-.56.76-2.69.76-6.42V246.1q0-5.91-1-6.67a6.67,6.67,0,0,0-3.63-3.21,6.59,6.59,0,0,0-2.36-.5h-.6c-2.7,0-4.83,1.47-6.41,4.39a7.66,7.66,0,0,0-.51,2.62m19.24-30.06h13.25q3.13,0,4.65,3.63a4.58,4.58,0,0,1,.16,1.18V344q0,7.35-5.06,15.53a35.83,35.83,0,0,1-5.4,6.08,30.72,30.72,0,0,1-19.67,7.26q-12.57,0-22.11-9.71a30.43,30.43,0,0,1-8-20.68,5.3,5.3,0,0,1,2.62-4.31,6.11,6.11,0,0,1,3.29-.76h11.14q6,0,6,6.76c.11,1.12.89,2.47,2.36,4.05a7.94,7.94,0,0,0,4.56,1.77l.16-.08h.09a.07.07,0,0,1,.08.08c2.48,0,4.56-1.26,6.25-3.8.61-.79.93-2.84.93-6.16V328.31a31.62,31.62,0,0,1-7.35.93q-12.66,0-22.28-9.87a28.83,28.83,0,0,1-5.15-7.93q-2.7-5.24-2.7-14.27V244.92q0-9.79,3.37-15.78,1.44-3.21,6.17-8.19a31.54,31.54,0,0,1,11.14-6.59,29.83,29.83,0,0,1,9.12-1.52h.75a32.53,32.53,0,0,1,8.45,1.27,4.89,4.89,0,0,1,3.2-1.44"/><path class="b" d="M866.58,212.92h10.64a5.39,5.39,0,0,1,5.32,3.47,4.58,4.58,0,0,1,.25,1.35V324.18c0,2.14-1.27,3.71-3.8,4.73a20.39,20.39,0,0,1-2.7.17H865.66a5.35,5.35,0,0,1-5.41-3.63c-.11-.79-.19-1.19-.25-1.19.06-.9.08-1.6.08-2.1V217.83q0-3.12,3.8-4.74a22.24,22.24,0,0,1,2.7-.17m-1.69-31h13.17c2,0,3.55,1.2,4.56,3.63a2.83,2.83,0,0,1,.17,1.09v13.17c0,2.15-1.27,3.71-3.8,4.73a22.23,22.23,0,0,1-2.7.16H865.66a5.34,5.34,0,0,1-5.41-3.62c-.11-.79-.19-1.19-.25-1.19.06-.89.08-1.57.08-2V186.76q0-3.12,3.64-4.65a4.93,4.93,0,0,1,1.17-.16"/><path class="b" d="M919.17,242.39V299q0,4.05,4.23,6.33a6.67,6.67,0,0,0,2.87.68h.33c2.87,0,5.07-1.5,6.59-4.48a6.71,6.71,0,0,0,.5-2.53V242.39q0-4-4.47-6.34a11,11,0,0,0-2.62-.58l-.17.07s-.08,0-.08-.07q-4.14,0-6.67,4.38a8.28,8.28,0,0,0-.51,2.54m7.26-29.8q13.19,0,22.8,10.47a30.48,30.48,0,0,1,6.83,14.35,40.06,40.06,0,0,1,.51,7.51v51.82q0,9.88-3.38,15.8c-1,2.19-3,4.95-6.15,8.26a32.09,32.09,0,0,1-11.15,6.5,28.8,28.8,0,0,1-9,1.52H926q-11,0-20.09-8a30.54,30.54,0,0,1-5.49-6.83,29.75,29.75,0,0,1-3.88-11.73,45.42,45.42,0,0,1-.25-5.66V244.92q0-9.12,2.7-14.69a31.2,31.2,0,0,1,6.49-9.12q9.3-8.52,20.94-8.52"/><path class="b" d="M975.48,212.84h11.06a6,6,0,0,1,3.8,1.36h.08a31.53,31.53,0,0,1,8.78-1.36q13.5,0,23.22,11a31.24,31.24,0,0,1,6.4,13.59,36.87,36.87,0,0,1,.43,4.3v82.72c0,1.64-1,3-3,4.14a3.73,3.73,0,0,1-2,.51h-13c-2,0-3.49-1.07-4.56-3.21a6.91,6.91,0,0,1-.34-2.37V242.64q0-4-4.47-6.33a10.57,10.57,0,0,0-2.62-.59l-.17.09c-.06,0-.08,0-.08-.09q-4.14,0-6.68,4.38a8.59,8.59,0,0,0-.5,2.54V324c0,2.35-1.35,4-4.05,5a9.16,9.16,0,0,1-1.18.09H974q-3,0-4.55-3.29a4.43,4.43,0,0,1-.34-1.69V218.25q0-4,4.06-5.24a12.12,12.12,0,0,1,2.27-.17"/><path class="b" d="M244,174.12a118.58,118.58,0,0,0-74-12.27C105.7,171.93,68.75,229.33,68.75,296c0,109.31,136.09,202.3,136.09,202.3l1.93-86.48a13.31,13.31,0,0,1,9.87-12.74c59.89-14.88,99.71-73.68,90.23-136.21A123.15,123.15,0,0,0,302,242.49a92.59,92.59,0,0,1-58-68.37"/><path class="c" d="M244,174.12a92.59,92.59,0,0,0,58,68.37,120.34,120.34,0,0,0-58-68.37"/><path class="d" d="M349,66.05C298.34,58.24,251,92.53,243.3,142.64a90.89,90.89,0,0,0,.65,31.48,120.3,120.3,0,0,1,58,68.37,90.27,90.27,0,0,0,10.94,3.42,10.14,10.14,0,0,1,7.61,9.66L322,321.14s105-58.65,105-153.38c0-47.88-28.51-94.07-78.07-101.71"/></svg>