<svg xmlns="http://www.w3.org/2000/svg" viewBox="0 0 283.46 283.46"><defs><style>.a{fill:#1d1d1b;}.b{fill:none;}</style></defs><path class="a" d="M112,201.61l0,0,0,0Z"/><path class="a" d="M111.89,201.52Z"/><path class="a" d="M111.89,201.52l.06.09a.25.25,0,0,1,0-.07Z"/><path class="a" d="M104.35,202.25l.05,0h-.05Z"/><path class="a" d="M80.74,215.89H63.86a2.44,2.44,0,1,0,0,4.87H80.74a2.44,2.44,0,1,0,0-4.87Z"/><path class="a" d="M217.62,215.89H200.73a2.44,2.44,0,0,0,0,4.87h16.89a2.44,2.44,0,0,0,0-4.87Z"/><path class="a" d="M75,155.94a25.7,25.7,0,0,1-4.82-5.68,9,9,0,0,1-.81-1.68A15.52,15.52,0,0,1,69,137.7,12.47,12.47,0,0,1,72.12,133a7,7,0,0,1,5.64-1.92,21.71,21.71,0,0,1,6.79,1.55,24.56,24.56,0,0,1,4.13,2.15c2,1.23,3.91,2.56,5.85,3.86,7.33,6.08,9,11.7,10,15.49.63,2.92-.18,5.33-3.2,8.25-2.09,2-6.77,2.66-12.94,1.27a27.22,27.22,0,0,1-11.23-5.88C76.46,157.15,75.74,156.55,75,155.94Zm11-11.8c-1.85-1.36-2.92-2.32-4.48-3.32-.77-.5-3.11-1.59-4.23-.46a2.6,2.6,0,0,0-.5,1.74,3.6,3.6,0,0,0,.57,1.75c2.25,3.65,6.31,7.19,7.46,8.23a18.29,18.29,0,0,0,9,4.74c1.76.24,2.46-.3,2.25-1.15A10,10,0,0,0,94,151.93,40,40,0,0,0,86.06,144.14Z"/><path class="a" d="M93.71,189c-3.4-.34-31.33-4-33.79-4.36-7-1-5.13-10.31-4.73-12.69a39.73,39.73,0,0,1,1.36-4.45c1.82-4.29,2-4.63,5.32-6.93,3.91-2.3,9.75-1.19,11.07-.71a10.68,10.68,0,0,1,5.87,5.08,11.4,11.4,0,0,1,1.47,3.41c.39,1.91.41,2.77.63,4.16.17,1.07.33,2.16.58,3.22a4.15,4.15,0,0,0,2.71,3,21.59,21.59,0,0,0,4.46.91c4.15.56,5,.75,8.88,1.33a2.14,2.14,0,0,1,1.93,2.73,12.44,12.44,0,0,1-.71,2.63C97,189.68,94.68,189.08,93.71,189ZM73,176.57a6.82,6.82,0,0,0-.81-7c-1-1.57-2.27-1.8-3.91-2.07a6.88,6.88,0,0,0-2.49-.07c-1.56.53-2.07,2.45-2.3,3.19a8.51,8.51,0,0,0-.25,4.1,1.67,1.67,0,0,0,1.08,1.39,58.27,58.27,0,0,0,6.32,1.34C72.3,177.8,72.66,177.56,73,176.57Z"/><path class="a" d="M111,139.87c-5.79-.32-8.94-4.46-10.15-5.43-.49-.39-6.24-6.16-8.43-8.58-.42-.46-3.44-3.75-4.32-6.62a3,3,0,0,1-.13-1.37,3.87,3.87,0,0,1,2.84-3.36,4.56,4.56,0,0,1,4,.55,21.94,21.94,0,0,1,4.43,4.1,64.46,64.46,0,0,0,8,8.49c1.13,1,3.18.59,2-2.41-.8-1.69-2.46-5-3.37-6.67-2.66-4.73-6.42-11.34-5.18-14.16a4.16,4.16,0,0,1,2.86-2.2c2.88-.62,5.91,5,6.54,6,.83,1.29,7.36,12.3,7.92,14.23,2.71,5.61,2.32,10.46,1.09,13.18S115.79,139.68,111,139.87Z"/><path class="a" d="M206.66,143.57c-1.12-.69-1.69-1.08-3.17-.33a16.83,16.83,0,0,0-3.52,2.28,1.13,1.13,0,0,0-.36,1.23c.68,1.22,3.58,6.49,3.44,7.89s-.67,1.69-2.47,2.63c-.57.3-2,1.27-3.71-1.19-.38-.49-2.43-3.61-3.29-4.52a1.17,1.17,0,0,0-1.28-.23c-1.62.93-3.25,1.84-4.84,2.81-.66.4-1.24,1-1.87,1.39a3.79,3.79,0,0,0-1.53,3.25,20.25,20.25,0,0,0,.68,5.08,5.54,5.54,0,0,1-.17,2.77,2.83,2.83,0,0,1-2.39,1.94,3.5,3.5,0,0,1-3.14-1.66,8.86,8.86,0,0,1-1-3.08,32,32,0,0,1-.11-10c.54-4.63,5.2-7.14,8.84-9.69,1.8-1.23,3.56-2.51,5.28-3.86a110.65,110.65,0,0,1,12.05-8,2.68,2.68,0,0,1,1.32-.37c.66,0,1.46.78,2.57,1.47,1.73,1.3,6.29,4.88,7.47,5.89A4.88,4.88,0,0,1,216.5,146C215.19,148.07,212.4,147,206.66,143.57Z"/><path class="a" d="M185,183.1a9.51,9.51,0,0,1-1.54-1,5.11,5.11,0,0,1-1.86-3.14c-.23-1.4.57-6,5.16-4.61,3.83,1.15,5.09,2.88,7.49,4.33,2.81,1.93,4.6.56,6.24-1.27a12.07,12.07,0,0,0,2.49-5,24.38,24.38,0,0,1,2.88-7.37,15.25,15.25,0,0,1,4.16-4.38,8.74,8.74,0,0,1,3.43-1.42,11.86,11.86,0,0,1,4.63-.07c6.74,1.51,8.74,4.23,9.8,5.15a3.92,3.92,0,0,1,1,1.57,2.42,2.42,0,0,1,.09,1.38,6.15,6.15,0,0,1-1.51,2.86,3.36,3.36,0,0,1-1.55,1,3.41,3.41,0,0,1-2.86-.49c-1.74-1-2.39-1.29-3.92-2.07a7.23,7.23,0,0,0-3.16-.68c-1.81.1-3,1-4.09,3.09-1.9,4.11-2.63,6-3.54,8.55a18.84,18.84,0,0,1-2.74,4.87,10.37,10.37,0,0,1-3.92,3.26,9.93,9.93,0,0,1-9,0C191.08,186.85,186.05,183.73,185,183.1Z"/><path class="a" d="M161.6,136.2c-.73-1.39-2.83-5.53-1.5-6.88a6.67,6.67,0,0,1,3.72-1.82,2,2,0,0,1,2,.87c.92,1.44,1.32,2.14,2.19,3.61,1,1.64,1.92,1.61,3-.55a30.28,30.28,0,0,0,3.62-9.06c.31-1.54.87-3,1.3-4.47a11.12,11.12,0,0,1,1.68-3.31,8.76,8.76,0,0,1,2.24-2.34,15.89,15.89,0,0,1,8.18-3.09,13,13,0,0,1,6.39,1.45c2.2,1.06,2.59,3.49,2.67,4.71.11,2,.27,3.24-.62,4.61-.49.77-1.49,1.17-2.95.36a26.11,26.11,0,0,1-2.79-2.46,1.94,1.94,0,0,0-1.77-.3,4.39,4.39,0,0,0-2,1.1,6.77,6.77,0,0,0-2,3.1c-.4,1.5-.89,3-1.38,4.46-.49,1.28-2.92,8.84-5.6,11.6a16.85,16.85,0,0,1-6.46,4.46c-1.22.38-4,1.24-6.86-2A20.86,20.86,0,0,1,161.6,136.2Z"/><path class="a" d="M139,94.2A25.11,25.11,0,0,1,146.65,96a2.75,2.75,0,0,1,1.67,2.11c.19,1.22.36,4-2.1,4-.77,0-3.78-.25-5.11-.39a4.36,4.36,0,0,0-3.84,1.25,21.74,21.74,0,0,0-3.27,4c-1.35,2.36-.88,3.73.37,4.78.49.43,5.66,3.25,7.56,4.6,2.09,1.49,4.16,3.21,5,8.22.27,1.64.32,2.89-.63,4.22a5,5,0,0,1-1,.87c-1.44.92-9.32,2.86-11,3.1-1.91.27-4.46,1.09-5.15-2.08a3.24,3.24,0,0,1,.76-2.77,5.13,5.13,0,0,1,2-1.39c1.17-.43,2.38-.75,3.53-1.23,1.84-.77,2.92-2.08-.14-4-1.58-1-3.12-2.06-4.76-2.94a19.09,19.09,0,0,1-4.09-3.1c-2.08-2.12-4-9.9,4.1-16.71a30.19,30.19,0,0,1,4.09-3.11A8.12,8.12,0,0,1,139,94.2Z"/><path class="a" d="M148.82,213.9l.34-.32c1.22-1.34,2.11-3.05,1.56-4.89a8,8,0,0,0-3.12-3.84,7.53,7.53,0,0,0-4.11-1.43,3.93,3.93,0,0,0-4.09,2.8,29.43,29.43,0,0,0-1.51,8.11,40.14,40.14,0,0,0,.47,9,2.47,2.47,0,0,0,0,.38s0,.06,0,.09a2,2,0,0,0,1,1.36h0a2,2,0,0,0,.25.14,2.3,2.3,0,0,0,1.1.28c2.38,0,4.94-.08,7-1.37a6.66,6.66,0,0,0,3.39-5.74A6.29,6.29,0,0,0,148.82,213.9ZM146,219.37a2.44,2.44,0,0,1-1.12.84,7.75,7.75,0,0,1-1.67.39l-.38,0c-.05-.48-.09-1-.12-1.55s-.06-1.38-.06-2.07a9.52,9.52,0,0,1,2.14.12,2.9,2.9,0,0,1,.73.26A1.24,1.24,0,0,1,146,219.37Zm0-8.48a2.5,2.5,0,0,1-1.18.75,8.7,8.7,0,0,1-1.7.26h-.37c0-.49,0-1,0-1.56s.05-1.38.1-2.07a9.44,9.44,0,0,1,2.14.29,2.66,2.66,0,0,1,.69.31A1.24,1.24,0,0,1,146,210.89Z"/><path class="a" d="M162.57,216.87l.17-.08a6.52,6.52,0,0,0,2.69-3.4c1-2.52.54-5.92-1.6-7.72s-5.62-2.09-7.63.2c-1.77,2-1.81,4.75-1.8,7.29,0,3.32.19,6.63.37,10a2.44,2.44,0,0,0,4.88,0c-.05-.81-.09-1.61-.13-2.42,1.4,1.31,2.84,2.58,4.25,3.89a2.43,2.43,0,1,0,3.44-3.44C165.67,219.7,164.09,218.32,162.57,216.87Zm-2.11-4.4Zm-1.12-2.31c.09-.36.35-1.08.85-1.1,1.7,0,1,2.7.84,3.31a.83.83,0,0,1-1.54.19A3.59,3.59,0,0,1,159.34,210.16Zm.59,7.55h0C159.85,217.75,159.87,217.7,159.93,217.71Z"/><path class="a" d="M175.12,208a2.44,2.44,0,0,0-4.87,0,149.52,149.52,0,0,0,.2,15.12,2.44,2.44,0,1,0,4.88,0A146.65,146.65,0,0,1,175.12,208Z"/><path class="a" d="M187.67,215.56a16.51,16.51,0,0,0-2.23-3.09,8,8,0,0,1-1.62-2.18.87.87,0,0,1,.28-1.13,7.58,7.58,0,0,1,3-.95,2.45,2.45,0,0,0,1.7-3,2.48,2.48,0,0,0-3-1.7c-2.4.45-4.82,1.28-6.16,3.48-1.57,2.58-.46,5.48,1.27,7.63,1.33,1.65,2.63,3,3.26,5,.06.2.19.69-.07.74-1.06.18-1.8.19-2.6.28-1.31.14-2.63.35-3,1.7a2.47,2.47,0,0,0,1.7,3c2.66.49,5.79.12,7.89-1.75C190.4,221.48,188.91,217.85,187.67,215.56Z"/><path class="a" d="M132.78,212.69a79.92,79.92,0,0,0-4-7.41,2.43,2.43,0,0,0-2.43-1.16,2.51,2.51,0,0,0-2,1.74,71.1,71.1,0,0,0-4.69,17.47,2.46,2.46,0,0,0,2.44,2.44,2.5,2.5,0,0,0,2.44-2.44c-.06.44.07-.51.08-.6l.18-1c.06-.35.14-.71.21-1.06l5.59.07c.32,1,.63,2,.91,3,.84,3,5.54,1.74,4.69-1.29A77.66,77.66,0,0,0,132.78,212.69Zm-6.61,3.09c0-.16.07-.32.12-.48.28-1,.59-2,.91-3,.45.84.89,1.69,1.27,2.57.12.29.24.6.36.91Z"/><path class="a" d="M111.75,201.34l-.5-.66a20.1,20.1,0,0,0-1.39-1.69,5.82,5.82,0,0,0-4.23-1.88c-3.34-.06-5.92,2.22-8.06,4.51a2.44,2.44,0,1,0,3.45,3.44c.42-.44.84-.89,1.28-1.32a17.25,17.25,0,0,1,2.25-1.71c1.12-.7,2.46,1.09,2.63,1.3l0,0,.17.22c.36.47.71,1,1.09,1.42a2.45,2.45,0,0,0,3.45,0,2.49,2.49,0,0,0,.06-3.35Z"/><path class="a" d="M109.79,209.87a7,7,0,0,0-8.94-1.32,2.54,2.54,0,0,0-.67.45,10.62,10.62,0,0,0-2.73,4.37,11.22,11.22,0,0,0-.67,4.55A8.75,8.75,0,0,0,103,225.6a6.76,6.76,0,0,0,5.53-.73,7.77,7.77,0,0,0,3.26-4.76A11.81,11.81,0,0,0,109.79,209.87Zm-2.51,7.6c-.24,2.86-3,3.86-4.3,2.81a3.25,3.25,0,0,1-1.35-2.64c0-2.24.27-5.72,3.3-5.72C107.14,211.92,107.45,215.52,107.28,217.47Z"/><path class="a" d="M103.52,212.61l0,0Z"/><path class="a" d="M172.89,202.41c3.13,0,3.14-4.88,0-4.88S169.75,202.41,172.89,202.41Z"/><path class="a" d="M230.16,77a26.94,26.94,0,0,0,1.48-2.33,15.18,15.18,0,0,0,1.94-5.52c.68-5.75-4.05-8.51-8.89-9.58,2.36-6,3.91-13.57-2.27-17.87-5.34-3.72-11.65-2.11-17.21.27-1-4.11-3.05-7.86-7.86-8.39-5.79-.65-11.24,2.93-15.13,6.87C178,44.74,174.53,49.92,171.3,55a138.27,138.27,0,0,0-9.05,16.56,144.93,144.93,0,0,0-6.9,18.14,37.06,37.06,0,0,0-1.87,9.9c0,.1,0,.19-.06.29-1.39,13.29-2,26.58-4.59,39.73-.5,2.59-1,5.59-1.73,8.64a52.84,52.84,0,0,0-9.28.27,30.2,30.2,0,0,0-13.77,5,2,2,0,0,0-.34.2c-.18.13-.33.29-.51.42s-.47.34-.7.53a7.51,7.51,0,0,0-2.28,2.12,29.15,29.15,0,0,0-6.08,9c-2.08,4.86-3.7,10.62-3.12,15.95,1.26,11.76,13.56,15.93,23.73,12.81,5.76-1.76,11-5.13,16-8.53a60.11,60.11,0,0,0,13.07-11.58c3.39-4.24,6.27-10,4.51-15.56-1.54-4.84-5.92-7.6-10.57-8.93a46.73,46.73,0,0,0-5.9-1.24,214.62,214.62,0,0,0,4-22.11q.85-6.86,1.27-13.76c.25-4,.7-8.09,1.13-12.14a2.33,2.33,0,0,0,.08-.46c.11-1.23.22-2.47.38-3.71,7.52.23,15,0,22.54.14,4.74.08,9.15.55,13.56,2.51,4.73,2.1,8.87,4.92,14,6,6.49,1.3,13.16,0,17.88-4.9s7.46-12,4-18.32c-.47-.86-1-1.69-1.51-2.53a3.68,3.68,0,0,1-.23-.44l0-.07a.55.55,0,0,1,0-.12l.14-.21C229.41,78,229.8,77.52,230.16,77Zm-84.41,76.1c-2.31,7.06-6.26,13.24-14.36,13.61-2.51.12-5.59-.47-7.07-2.73a4.16,4.16,0,0,1-.18-4.25l0,0a17.11,17.11,0,0,1,1.34-1.23l.19-.16C131.24,153.79,138.62,152.75,145.75,153.1ZM162.34,158c3,3.51,1.19,8.3-1.05,11.7-2.69,4.08-6.66,7.49-10.56,10.39a86.41,86.41,0,0,1-12.31,7.76c-4,2-8.64,3.58-13.19,2.79-3.65-.64-7.22-2.63-8.66-6.2-1.89-4.69-.28-10.49,1.36-15a27.54,27.54,0,0,1,1.8-4,9.47,9.47,0,0,0,3,3.81c5.37,3.91,13.26,2.64,18.47-.9s7.71-9,9.38-14.79l1.79.25C155.84,154.3,160,155.18,162.34,158Zm9.85-95A136.73,136.73,0,0,1,181,49.41c2.82-3.78,6-7.72,10.35-9.83,2-1,5.42-2.07,7.34-.4,1.65,1.44,2,4.26,2.22,6.29a2.48,2.48,0,0,0,3.67,2.1c4.42-2.13,10.25-5,14.94-1.93,4.43,2.86,1.82,9.15.3,13a1.31,1.31,0,0,0-.09.34C212,58.5,204,60.08,196.58,62a83.92,83.92,0,0,0-28.91,13.69c-1,.73-2,1.49-2.93,2.28A135.87,135.87,0,0,1,172.19,62.9Zm56.56,5.92a10.5,10.5,0,0,1-1.32,3.39c-.93,1.66-2.53,3.15-3.16,5s.08,3.64,1,5.25,2,3.06,2.18,5c.3,3.06-1.56,6.25-3.45,8.51-3.71,4.45-9.13,5.65-14.63,4.39-4.5-1-8-3.43-12.19-5.31A39,39,0,0,0,181.9,91.8c-7.36-.18-14.71,0-22.07-.13,0-.17.1-.34.16-.52a14.86,14.86,0,0,1,.69-1.46c2-3.61,5.31-6.59,8.54-9.12a77.65,77.65,0,0,1,23.41-12.34c8.16-2.69,17.2-4.64,25.83-4.45A20.76,20.76,0,0,1,226.27,65C228.14,65.86,229.05,66.89,228.75,68.82Zm.1,9.9v0h0v0Zm0,0h0v0A.09.09,0,0,0,228.86,78.77Zm0-.09v0a.07.07,0,0,0,0,0Z"/><rect class="b" x="28.49" y="32.1" width="226.49" height="219.27"/></svg>