<?xml version="1.0" encoding="utf-8"?>
<!-- Generator: Adobe Illustrator 25.0.1, SVG Export Plug-In . SVG Version: 6.00 Build 0)  -->
<svg version="1.1" id="Calque_1" xmlns="http://www.w3.org/2000/svg" xmlns:xlink="http://www.w3.org/1999/xlink" x="0px" y="0px"
	 viewBox="0 0 150 150" style="enable-background:new 0 0 150 150;" xml:space="preserve">
<style type="text/css">
	.st0{fill:#FFFFFF;}
	.st1{fill:none;stroke:#000000;stroke-miterlimit:10;}
	.st2{fill:#703A58;}
	.st3{fill:#6F3B58;}
	.st4{fill:#6B8F6A;}
	.st5{fill:none;}
</style>
<g>
	<path class="st2" d="M59.04,107.09c0,0.01,0.01,0.01,0.01,0.02c0,0,0.01,0.01,0.01,0.01C59.05,107.1,59.05,107.1,59.04,107.09z"/>
	<path class="st2" d="M59.01,107.04C58.86,106.84,58.95,106.97,59.01,107.04L59.01,107.04z"/>
	<path class="st2" d="M59.01,107.04c0.01,0.01,0.02,0.03,0.03,0.05c-0.01-0.01-0.01-0.02-0.02-0.03
		C59.01,107.05,59.01,107.04,59.01,107.04z"/>
	<path class="st2" d="M54.97,107.43c0.01,0,0.01-0.01,0.02-0.01C54.99,107.42,54.98,107.42,54.97,107.43
		C54.98,107.42,54.97,107.43,54.97,107.43z"/>
	<g>
		<path class="st3" d="M42.32,114.74c-3.02,0-6.03,0-9.05,0c-0.71,0-1.31,0.6-1.31,1.31c0,0.71,0.6,1.31,1.31,1.31
			c3.02,0,6.03,0,9.05,0c0.71,0,1.31-0.6,1.31-1.31C43.62,115.34,43.02,114.74,42.32,114.74L42.32,114.74z"/>
		<path class="st3" d="M115.66,114.74c-3.02,0-6.03,0-9.05,0c-0.71,0-1.31,0.6-1.31,1.31c0,0.71,0.6,1.31,1.31,1.31
			c3.02,0,6.03,0,9.05,0c0.71,0,1.31-0.6,1.31-1.31C116.97,115.34,116.37,114.74,115.66,114.74L115.66,114.74z"/>
		<path class="st2" d="M39.26,82.62c-1-0.89-1.88-1.9-2.58-3.05c-0.17-0.28-0.32-0.59-0.43-0.9c-0.2-0.55-1.24-3-0.23-5.83
			c0.49-1.06,0.67-1.49,1.69-2.51c1.32-1.05,1.93-1.03,3.02-1.03c1.34,0.08,2.39,0.36,3.64,0.83c0.77,0.29,1.51,0.72,2.21,1.15
			c1.07,0.66,2.1,1.37,3.14,2.07c3.93,3.26,4.84,6.27,5.36,8.3c0.34,1.57-0.1,2.86-1.72,4.42c-1.12,1.09-3.63,1.42-6.94,0.68
			c-2.06-0.46-4.45-1.74-6.02-3.15C40.02,83.26,39.64,82.94,39.26,82.62z M45.17,76.29c-0.99-0.73-1.56-1.24-2.4-1.78
			c-0.41-0.27-1.67-0.85-2.26-0.24c-0.21,0.28-0.29,0.59-0.27,0.93c0.02,0.34,0.13,0.66,0.3,0.94c1.21,1.95,3.38,3.85,4,4.41
			c1.74,1.62,3.69,2.37,4.82,2.54c0.94,0.13,1.32-0.16,1.21-0.61c-0.22-0.72-0.63-1.44-1.15-2.01
			C48.64,79.55,47.39,77.88,45.17,76.29z"/>
		<path class="st2" d="M49.27,100.32c-1.83-0.18-16.79-2.13-18.11-2.33c-3.73-0.53-2.75-5.53-2.53-6.8c0.27-1.1,0.6-2.07,0.73-2.38
			c0.98-2.3,1.09-2.48,2.85-3.71c2.09-1.23,5.22-0.64,5.93-0.38c1.4,0.51,2.43,1.43,3.14,2.73c0.12,0.22,0.64,0.99,0.79,1.82
			c0.21,1.02,0.22,1.49,0.34,2.23c0.09,0.58,0.17,1.16,0.31,1.73c0.19,0.79,0.7,1.32,1.45,1.6c0.63,0.24,1.52,0.38,2.39,0.49
			c2.22,0.3,2.7,0.4,4.76,0.71c0.99,0.16,1.14,0.87,1.04,1.46c-0.07,0.42-0.16,0.87-0.38,1.41
			C51.04,100.69,49.78,100.37,49.27,100.32z M38.14,93.67c0.43-1.28,0.55-2.18-0.44-3.73c-0.55-0.85-1.22-0.97-2.09-1.11
			c-0.64-0.09-1.01-0.12-1.34-0.04c-0.83,0.28-1.11,1.31-1.23,1.71c-0.22,0.72-0.27,1.46-0.14,2.2c0.06,0.34,0.24,0.63,0.58,0.74
			c1.34,0.36,2.25,0.54,3.39,0.72C37.79,94.33,37.99,94.2,38.14,93.67z"/>
		<path class="st2" d="M58.51,74c-3.1-0.17-4.79-2.39-5.44-2.91c-0.26-0.21-3.34-3.3-4.52-4.6c-0.22-0.25-1.84-2.01-2.32-3.54
			c-0.07-0.23-0.1-0.5-0.07-0.74c0.14-0.9,0.63-1.53,1.52-1.8c0.76-0.23,1.48-0.16,2.15,0.29c0.91,0.61,1.5,1.21,2.37,2.2
			c1.4,1.71,2.48,2.99,4.27,4.55c0.6,0.55,1.7,0.32,1.06-1.29c-0.43-0.91-1.32-2.69-1.81-3.57c-1.43-2.54-3.44-6.08-2.78-7.59
			c0.31-0.65,0.86-1,1.53-1.18c1.54-0.33,3.17,2.7,3.5,3.22c0.45,0.69,3.94,6.59,4.25,7.63c1.45,3,1.24,5.6,0.58,7.06
			C62.17,73.2,61.1,73.9,58.51,74z"/>
		<path class="st2" d="M109.79,75.98c-0.6-0.37-0.91-0.58-1.7-0.18c-0.67,0.33-1.31,0.73-1.89,1.22c-0.19,0.16-0.3,0.48-0.2,0.66
			c0.37,0.65,1.92,3.48,1.85,4.23c-0.1,0.81-0.36,0.9-1.32,1.41c-0.31,0.16-1.09,0.68-1.99-0.64c-0.21-0.26-1.3-1.93-1.76-2.42
			c-0.16-0.17-0.49-0.23-0.69-0.12c-0.87,0.5-1.74,0.99-2.59,1.51c-0.35,0.22-0.66,0.51-1,0.75c-0.61,0.43-0.79,1.04-0.82,1.74
			c-0.03,0.93,0.16,1.83,0.36,2.72c0.12,0.5,0.04,0.99-0.09,1.48c-0.15,0.54-0.7,0.99-1.28,1.04c-0.63,0.06-1.4-0.35-1.68-0.89
			c-0.28-0.52-0.48-1.06-0.56-1.65c-0.19-1.41-0.38-2.26-0.06-5.34c0.29-2.48,2.79-3.83,4.74-5.19c0.97-0.66,1.91-1.35,2.83-2.07
			c2.04-1.6,4.22-2.99,6.45-4.3c0.22-0.13,0.46-0.19,0.71-0.2c0.35-0.01,0.78,0.42,1.38,0.78c0.92,0.7,3.37,2.62,4,3.16
			c0.48,0.42,1.78,1.68,0.58,3.63C114.36,78.4,112.87,77.84,109.79,75.98z"/>
		<path class="st2" d="M98.17,97.17c-0.29-0.17-0.58-0.35-0.83-0.56c-0.52-0.45-0.88-0.98-1-1.69c-0.12-0.75,0.31-3.23,2.77-2.47
			c2.05,0.62,2.72,1.54,4.01,2.32c1.51,1.04,2.46,0.3,3.34-0.68c0.62-0.8,1.13-1.66,1.33-2.67c0.28-1.41,0.83-2.71,1.54-3.95
			c0.56-0.97,1.37-1.68,2.23-2.34c0.53-0.41,1.19-0.61,1.84-0.76c0.66-0.15,1.6-0.21,2.48-0.04c3.62,0.81,4.69,2.26,5.26,2.76
			c0.25,0.22,0.4,0.53,0.52,0.85c0.1,0.24,0.1,0.49,0.05,0.74c-0.12,0.59-0.42,1.09-0.81,1.53c-0.22,0.26-0.51,0.44-0.83,0.54
			c-0.4,0.13-0.86,0.12-1.54-0.26c-0.93-0.54-1.28-0.69-2.1-1.1c-0.54-0.27-1.11-0.35-1.7-0.37c-0.97,0.06-1.62,0.52-2.19,1.66
			c-1.02,2.2-1.41,3.24-1.9,4.58c-0.35,0.96-0.86,1.81-1.47,2.61c-0.56,0.74-1.26,1.37-2.1,1.75c-1.59,0.71-3.23,0.84-4.83,0
			C101.45,99.18,98.75,97.5,98.17,97.17z"/>
		<path class="st2" d="M85.65,72.03c-0.39-0.74-1.52-2.96-0.8-3.69c0.65-0.56,1.22-0.87,1.99-0.97c0.45-0.06,0.84,0.09,1.09,0.47
			c0.49,0.77,0.71,1.15,1.18,1.93c0.56,0.88,1.03,0.86,1.59-0.29c0.88-1.52,1.59-3.13,1.94-4.86c0.17-0.82,0.47-1.6,0.7-2.4
			c0.19-0.65,0.52-1.22,0.9-1.77c0.34-0.48,0.71-0.92,1.2-1.26c0.48-0.33,2.08-1.51,4.38-1.65c1.57-0.06,2.76,0.44,3.42,0.77
			c1.18,0.57,1.39,1.87,1.43,2.53c0.06,1.09,0.14,1.74-0.33,2.47c-0.26,0.41-0.8,0.63-1.58,0.19c-0.58-0.35-0.98-0.9-1.5-1.32
			c-0.27-0.22-0.61-0.25-0.95-0.16c-0.41,0.1-0.78,0.3-1.09,0.59c-0.48,0.47-0.87,0.99-1.06,1.66c-0.22,0.8-0.48,1.6-0.74,2.39
			c-0.26,0.69-1.57,4.74-3,6.22c-1.29,1.39-2.74,2.17-3.46,2.39c-0.65,0.2-2.16,0.66-3.67-1.07C86.66,73.58,85.96,72.63,85.65,72.03
			z"/>
		<path class="st2" d="M73.54,49.53c1.62,0.06,3.41,0.67,4.1,0.96c0.49,0.2,0.78,0.6,0.89,1.13c0.1,0.66,0.19,2.16-1.12,2.16
			c-0.42,0.02-2.03-0.13-2.74-0.21c-0.79-0.1-1.47,0.09-2.06,0.67c-0.66,0.65-1.27,1.33-1.75,2.12c-0.72,1.27-0.47,2,0.2,2.56
			c0.26,0.23,3.03,1.74,4.05,2.46c1.12,0.79,2.22,1.72,2.66,4.4c0.14,0.88,0.17,1.55-0.34,2.26c-0.1,0.13-0.38,0.38-0.52,0.46
			c-0.77,0.5-4.99,1.54-5.9,1.67c-1.02,0.14-2.39,0.58-2.76-1.12c-0.13-0.58,0.06-1,0.41-1.48c0.2-0.28,0.72-0.63,1.04-0.75
			c0.63-0.23,1.27-0.4,1.89-0.66c0.99-0.41,1.57-1.11-0.07-2.13c-0.85-0.53-1.67-1.11-2.55-1.58c-0.82-0.44-1.52-1.02-2.19-1.66
			c-1.12-1.14-2.15-5.31,2.2-8.96c0.7-0.59,1.39-1.2,2.19-1.67C71.9,49.75,72.68,49.5,73.54,49.53z"/>
		<path class="st2" d="M78.8,113.67c0.06-0.06,0.13-0.11,0.18-0.17c0.65-0.72,1.13-1.63,0.84-2.62c-0.25-0.84-0.98-1.56-1.67-2.06
			c-0.64-0.46-1.42-0.73-2.2-0.76c-1.07-0.04-1.83,0.5-2.19,1.5c-0.5,1.38-0.71,2.89-0.81,4.35c-0.11,1.6-0.01,3.21,0.25,4.8
			c0.01,0.07,0.01,0.14,0.03,0.2c0,0.02,0,0.03,0.01,0.05c0.06,0.32,0.27,0.57,0.53,0.73c0,0,0,0,0,0c0.04,0.03,0.09,0.05,0.14,0.08
			c0.18,0.09,0.38,0.15,0.59,0.15c1.28,0,2.65-0.05,3.77-0.73c1.06-0.65,1.87-1.8,1.82-3.08C80.04,115.14,79.53,114.27,78.8,113.67z
			 M77.31,116.61c-0.27,0.34-0.56,0.43-0.6,0.45c-0.15,0.07-0.65,0.19-0.89,0.21c-0.07,0.01-0.13,0.01-0.2,0.01
			c-0.03-0.26-0.05-0.53-0.07-0.83c-0.02-0.37-0.03-0.74-0.03-1.11c0.39-0.01,0.77-0.02,1.15,0.06c0.14,0.03,0.26,0.07,0.39,0.14
			C77.79,115.91,77.37,116.5,77.31,116.61z M77.28,112.06c-0.29,0.32-0.59,0.38-0.63,0.4c-0.15,0.06-0.67,0.14-0.91,0.14
			c-0.07,0-0.13,0-0.2-0.01c-0.01-0.26-0.01-0.53,0-0.83c0.01-0.37,0.03-0.74,0.05-1.11c0.39,0.02,0.77,0.04,1.14,0.15
			c0.14,0.04,0.25,0.09,0.37,0.17C77.82,111.4,77.35,111.96,77.28,112.06z"/>
		<path class="st2" d="M86.17,115.26c0.03-0.02,0.06-0.02,0.09-0.04c0.7-0.42,1.15-1.08,1.44-1.83c0.52-1.35,0.29-3.17-0.86-4.14
			c-1.18-0.99-3.01-1.12-4.09,0.11c-0.95,1.08-0.97,2.55-0.96,3.9c0,1.78,0.1,3.56,0.2,5.33c0.04,0.68,0.57,1.34,1.31,1.31
			c0.67-0.03,1.35-0.58,1.31-1.31c-0.02-0.43-0.04-0.86-0.07-1.3c0.75,0.7,1.52,1.38,2.28,2.09c0.52,0.48,1.33,0.51,1.85,0
			c0.49-0.49,0.52-1.36,0-1.85C87.83,116.78,86.98,116.04,86.17,115.26z M85.04,112.91C85.04,112.91,85.04,112.91,85.04,112.91
			C85.04,112.91,85.04,112.91,85.04,112.91C85.04,112.91,85.04,112.91,85.04,112.91z M84.44,111.67c0.04-0.19,0.19-0.58,0.45-0.59
			c0.91,0,0.55,1.45,0.45,1.77c-0.09,0.31-0.56,0.52-0.83,0.1C84.25,112.47,84.39,111.86,84.44,111.67z M84.75,115.71
			C84.74,115.72,84.74,115.72,84.75,115.71C84.71,115.74,84.72,115.71,84.75,115.71z"/>
		<path class="st2" d="M92.89,110.51c0.02-0.68-0.62-1.34-1.31-1.31c-0.73,0.03-1.28,0.57-1.31,1.31c-0.1,2.69-0.06,5.41,0.11,8.1
			c0.04,0.68,0.57,1.34,1.31,1.31c0.67-0.03,1.35-0.58,1.31-1.31C92.83,115.92,92.79,113.2,92.89,110.51z"/>
		<path class="st2" d="M99.62,114.56c-0.32-0.6-0.75-1.14-1.2-1.65c-0.35-0.4-0.73-0.78-0.87-1.17c-0.08-0.23-0.09-0.4,0.15-0.61
			c0.42-0.31,1.01-0.4,1.59-0.51c0.69-0.13,1.09-0.97,0.91-1.61c-0.2-0.73-0.91-1.04-1.61-0.91c-1.29,0.24-2.58,0.69-3.3,1.87
			c-0.84,1.38-0.25,2.94,0.68,4.09c0.71,0.88,1.41,1.6,1.75,2.66c0.03,0.11,0.1,0.37-0.03,0.4c-0.57,0.1-0.96,0.1-1.4,0.15
			c-0.7,0.08-1.41,0.19-1.61,0.91c-0.17,0.64,0.22,1.48,0.91,1.61c1.43,0.27,3.1,0.07,4.23-0.94
			C101.08,117.73,100.28,115.79,99.62,114.56z"/>
		<path class="st2" d="M70.2,113.02c-0.59-1.38-1.4-2.66-2.13-3.97c-0.25-0.45-0.8-0.7-1.3-0.62c-0.55,0.08-0.88,0.43-1.09,0.94
			c-1.21,2.99-2.1,6.16-2.51,9.36c-0.09,0.7,0.66,1.31,1.31,1.31c0.78,0,1.22-0.6,1.31-1.31c-0.03,0.23,0.04-0.27,0.05-0.32
			c0.03-0.18,0.06-0.37,0.09-0.55c0.03-0.19,0.08-0.38,0.11-0.57c1,0.01,2,0.03,2.99,0.04c0.17,0.54,0.34,1.09,0.49,1.62
			c0.45,1.62,2.97,0.93,2.52-0.69C71.54,116.47,70.93,114.72,70.2,113.02z M66.66,114.68c0.02-0.09,0.04-0.17,0.06-0.26
			c0.15-0.53,0.32-1.06,0.49-1.58c0.24,0.45,0.48,0.91,0.68,1.37c0.07,0.16,0.13,0.32,0.2,0.49
			C67.61,114.69,67.14,114.69,66.66,114.68z"/>
		<path class="st2" d="M58.93,106.94c-0.09-0.12-0.18-0.23-0.27-0.35c-0.24-0.31-0.47-0.62-0.74-0.91
			c-0.62-0.64-1.37-0.99-2.27-1.01c-1.79-0.03-3.17,1.19-4.31,2.42c-0.47,0.5-0.53,1.36,0,1.85c0.51,0.47,1.35,0.53,1.85,0
			c0.22-0.24,0.45-0.48,0.69-0.71c0.11-0.1,0.61-0.54,1.21-0.91c0.6-0.38,1.32,0.58,1.41,0.69c0,0.01,0,0.01,0.01,0.01
			c0.03,0.04,0.06,0.08,0.09,0.12c0.19,0.26,0.38,0.51,0.59,0.76c0.43,0.53,1.4,0.48,1.85,0c0.5-0.55,0.46-1.24,0.04-1.8
			C59.01,107.05,58.97,107,58.93,106.94z"/>
		<path class="st2" d="M57.88,111.51c-1.12-1.37-3.3-1.65-4.79-0.71c-0.13,0.06-0.25,0.14-0.36,0.24c-0.69,0.65-1.16,1.45-1.47,2.34
			c-0.26,0.76-0.43,1.64-0.36,2.44c0.18,1.9,1.44,3.59,3.31,4.12c0.97,0.27,2.12,0.18,2.97-0.39c0.92-0.63,1.47-1.47,1.75-2.55
			C59.41,115.16,59.1,113.01,57.88,111.51z M56.54,115.59c-0.13,1.53-1.61,2.07-2.31,1.5c-0.57-0.46-0.72-0.96-0.72-1.42
			c0-1.2,0.14-3.06,1.77-3.06C56.46,112.61,56.63,114.54,56.54,115.59z"/>
	</g>
	<path class="st2" d="M54.52,112.98c0.01,0,0.02-0.01,0.03-0.02C54.54,112.97,54.53,112.97,54.52,112.98z"/>
	<path class="st2" d="M91.7,107.51c1.68,0,1.68-2.61,0-2.61C90.02,104.9,90.01,107.51,91.7,107.51z"/>
	<path class="st4" d="M122.39,40.31c0.28-0.4,0.55-0.82,0.79-1.25c0.51-0.92,0.92-1.91,1.04-2.96c0.37-3.08-2.17-4.56-4.77-5.13
		c1.27-3.24,2.1-7.27-1.21-9.58c-2.87-2-6.25-1.13-9.22,0.14c-0.53-2.2-1.64-4.21-4.21-4.5c-3.11-0.34-6.03,1.57-8.11,3.69
		c-2.26,2.3-4.12,5.07-5.85,7.78c-1.82,2.84-3.44,5.81-4.85,8.87c-1.45,3.15-2.68,6.4-3.7,9.72c-0.64,1.68-0.84,3.5-1,5.3
		c-0.01,0.05-0.03,0.1-0.03,0.16c-0.75,7.12-1.09,14.24-2.46,21.29c-0.27,1.39-0.55,3-0.93,4.63c-1.69-0.09-3.37-0.05-4.97,0.15
		c-2.65,0.32-5.22,1.16-7.38,2.67c-0.06,0.03-0.12,0.06-0.18,0.11c-0.1,0.07-0.18,0.16-0.27,0.23c-0.12,0.1-0.26,0.18-0.38,0.28
		c-0.51,0.31-0.92,0.7-1.22,1.13c-1.37,1.39-2.47,3-3.26,4.83c-1.12,2.61-1.98,5.69-1.68,8.55c0.68,6.3,7.27,8.53,12.72,6.86
		c3.09-0.95,5.91-2.75,8.56-4.57c2.56-1.76,5.06-3.76,7.01-6.21c1.81-2.27,3.36-5.38,2.42-8.34c-0.82-2.59-3.17-4.07-5.67-4.78
		c-1.01-0.29-2.08-0.51-3.16-0.66c0.92-3.91,1.63-7.86,2.13-11.85c0.31-2.45,0.54-4.91,0.69-7.37c0.13-2.17,0.37-4.34,0.6-6.51
		c0.02-0.08,0.04-0.16,0.05-0.25c0.06-0.66,0.12-1.32,0.2-1.99c4.03,0.12,8.05,0,12.08,0.07c2.54,0.04,4.91,0.3,7.27,1.35
		c2.53,1.13,4.75,2.63,7.53,3.19c3.48,0.69,7.05-0.01,9.58-2.63c2.55-2.64,4-6.41,2.14-9.81c-0.25-0.46-0.54-0.9-0.81-1.36
		c-0.04-0.08-0.08-0.15-0.12-0.23c-0.01-0.01-0.01-0.02-0.02-0.04c0-0.01-0.01-0.04-0.02-0.07c0.03-0.04,0.07-0.1,0.08-0.11
		C121.99,40.86,122.19,40.59,122.39,40.31z M77.15,81.09c-1.24,3.78-3.35,7.09-7.69,7.29c-1.35,0.06-3-0.25-3.79-1.47
		c-0.43-0.66-0.5-1.61-0.1-2.28c0.01-0.01,0.02-0.01,0.02-0.02c0.23-0.24,0.47-0.45,0.72-0.66c0.03-0.03,0.07-0.05,0.1-0.08
		C69.38,81.46,73.33,80.91,77.15,81.09z M86.04,83.69c1.62,1.88,0.64,4.45-0.56,6.27c-1.44,2.19-3.57,4.02-5.66,5.57
		c-2.08,1.54-4.29,2.99-6.6,4.16c-2.15,1.09-4.63,1.92-7.07,1.49c-1.95-0.34-3.87-1.41-4.64-3.32c-1.01-2.51-0.15-5.62,0.73-8.05
		c0.26-0.73,0.59-1.44,0.96-2.12c0.36,0.8,0.91,1.52,1.63,2.04c2.88,2.09,7.1,1.41,9.89-0.48c2.78-1.89,4.13-4.82,5.03-7.92
		c0.32,0.04,0.64,0.09,0.96,0.13C82.56,81.74,84.77,82.21,86.04,83.69z M91.32,32.75c1.44-2.5,3.02-4.91,4.74-7.23
		c1.51-2.03,3.23-4.14,5.55-5.27c1.08-0.52,2.9-1.11,3.93-0.21c0.89,0.77,1.06,2.28,1.19,3.37c0.12,1.01,1.01,1.59,1.96,1.13
		c2.37-1.14,5.49-2.66,8.01-1.03c2.37,1.53,0.98,4.9,0.16,6.95c-0.02,0.06-0.03,0.12-0.05,0.18c-4.16-0.25-8.45,0.6-12.43,1.63
		c-5.55,1.42-10.89,3.92-15.49,7.33c-0.53,0.39-1.06,0.8-1.57,1.23C88.49,38.06,89.82,35.36,91.32,32.75z M121.63,35.93
		c-0.1,0.64-0.4,1.26-0.71,1.82c-0.5,0.89-1.35,1.69-1.69,2.65c-0.35,1.01,0.04,1.95,0.56,2.81c0.54,0.89,1.07,1.64,1.17,2.66
		c0.16,1.64-0.84,3.35-1.85,4.56c-1.99,2.39-4.9,3.03-7.84,2.35c-2.41-0.55-4.3-1.84-6.53-2.84c-2.62-1.18-5.35-1.63-8.21-1.7
		c-3.94-0.1-7.89,0.02-11.83-0.07c0.03-0.09,0.06-0.18,0.08-0.28c0.11-0.27,0.23-0.53,0.37-0.79c1.09-1.94,2.84-3.53,4.57-4.88
		c3.73-2.91,8.06-5.14,12.54-6.62c4.38-1.44,9.22-2.48,13.84-2.39c1.38,0.03,2.9,0.12,4.18,0.68
		C121.3,34.34,121.79,34.89,121.63,35.93z M121.68,41.23c0-0.01,0-0.02-0.01-0.02c0,0,0,0,0,0
		C121.68,41.22,121.68,41.22,121.68,41.23C121.68,41.23,121.68,41.23,121.68,41.23z M121.69,41.26
		C121.69,41.26,121.69,41.26,121.69,41.26c0,0.01,0,0.01,0.01,0.02C121.69,41.27,121.69,41.27,121.69,41.26z M121.7,41.21
		C121.69,41.21,121.69,41.21,121.7,41.21c0-0.01,0.01-0.02,0.02-0.03C121.7,41.19,121.7,41.2,121.7,41.21z"/>
	<rect x="14.31" y="16.25" class="st5" width="121.37" height="117.5"/>
</g>
</svg>
