<svg xmlns="http://www.w3.org/2000/svg" viewBox="0 0 177.17 141.73"><defs><style>.a{fill:#703c59;}.b{fill:#6c8f6a;}</style></defs><path class="a" d="M164.45,98.2c-3.39-.9-6.79-1.77-10.17-2.7q-10.74-2.94-21.46-6a1.83,1.83,0,0,1-1.07-1q-5.61-14.89-11.12-29.81a1.77,1.77,0,0,1,0-1.32c3.79-5.88,7.58-11.75,11.46-17.56a11.27,11.27,0,0,1,2.75-2.76,3.73,3.73,0,0,1,5.91,1.45c.84,1.69,1.2,3.61,1.91,5.36.85,2.11,1.54,4.4,2.9,6.14,1.09,1.4,3,2.18,4.68,3.08,2,1.08,4.09,1.86,6,3,3.64,2.22,4.76,5.94,3.14,9.93-.77,1.9-1.7,3.73-2.46,5.64a7.47,7.47,0,0,0,1.48,8.06,44.06,44.06,0,0,0,4,4.12,23,23,0,0,1,5,6.76c1,2,.76,3.94.37,5.86-.36,1.7-1.91,1.52-3.34,1.65"/><path class="a" d="M100.93,109.28c1.9-.37,3.56-.58,5.15-1,3.86-1.06,5.49-4.18,3.84-7.78a12.13,12.13,0,0,0-3.52-4.55,40,40,0,0,0-6.88-3.8c-1.61-.78-2.12-2-1.16-3.49.76-1.2,1.62-2.34,2.35-3.55a15.07,15.07,0,0,0,1.43-2.87c1.17-3.46-.34-6.16-3.84-7-2.46-.62-4.92-1.25-7.4-1.84a5.67,5.67,0,0,1-4.37-3.95C85.55,66,85,62.47,84.22,59a.91.91,0,0,1,.24-.78c2.68-1.67,5.17-3.74,8.52-4,2.65-.21,5,.82,7.28,1.9,3.14,1.48,6.3,2.89,9.47,4.31a4.18,4.18,0,0,0,1.67.53c1.72,0,2.33.94,2.89,2.41,2.75,7.22,5.51,14.44,8.54,21.53a12.07,12.07,0,0,1,.68,8.49c-1.58,5.28-3.28,10.53-5.25,15.68a23.68,23.68,0,0,1-3.76,5.88c-2.48,3.12-5.63,3.28-8.45.52-1.36-1.33-2.57-2.81-3.8-4.26a20.37,20.37,0,0,1-1.32-1.92"/><path class="b" d="M103,106.78c.8-.16,1.61-.32,2.41-.51,2.89-.66,3.85-2.68,2.5-5.31a10.72,10.72,0,0,0-2-2.71,7.1,7.1,0,0,0-1-.84c-.59-.41-1.21-.78-1.84-1.14-1.52-.86-3.12-1.62-4.72-2.35A4.83,4.83,0,0,1,97,93a4.19,4.19,0,0,1-1-1.36,4,4,0,0,1-.33-1.28,4.43,4.43,0,0,1,.77-2.72c.94-1.44,1.94-2.86,2.77-4.36.28-.5.54-1,.78-1.52a4.45,4.45,0,0,0,.43-1.63,2.49,2.49,0,0,0-1.26-2.3,5.32,5.32,0,0,0-1.58-.63c-2.42-.59-4.84-1.21-7.26-1.81a7.9,7.9,0,0,1-5.83-5.28,66.17,66.17,0,0,1-2-8.36,63.72,63.72,0,0,0-1.36-6.79A11.62,11.62,0,0,0,80,52.31c-1.18-1.93-2.64-2.31-4.4-1a21,21,0,0,0-2.68,2.45,16.33,16.33,0,0,0-4.37,9.49c-.32,3.18-.49,6.37-.62,9.57-.08,1.83-.14,3.66-.21,5.49,0,1.37-.1,2.74-.16,4.1l.38-.13a4.66,4.66,0,0,1,2-.55,13,13,0,0,1,3,.7,7.65,7.65,0,0,1,5,4.73,12.21,12.21,0,0,0,.54,1.37,9.69,9.69,0,0,0,5,5,14.53,14.53,0,0,0,1.83.72A4,4,0,0,1,87.72,96a3.36,3.36,0,0,1,.46,1.89,7.08,7.08,0,0,1-.39,1.89A7.33,7.33,0,0,1,86.56,102a3.25,3.25,0,0,1-.23.29,41.84,41.84,0,0,1-3.59,3.45l-.65.53c-.8.64-1.67,1.25-2.7,2a21.78,21.78,0,0,0,2.39.15c3.17-.17,6.35-.33,9.53-.52,2.09-.13,4.19-.26,6.28-.43C99.39,107.38,101.19,107.11,103,106.78Z"/><path class="a" d="M168.57,88.35c-1.51-1.91-3-3.84-4.58-5.68-1.18-1.37-2.53-2.58-3.76-3.91A5.76,5.76,0,0,1,159,72.13c.84-1.93,1.78-3.81,2.52-5.78a9.42,9.42,0,0,0-3.68-11.61c-2.07-1.35-4.43-2.24-6.61-3.43-1.51-.83-3.26-1.57-4.32-2.83s-1.55-3.21-2.18-4.89a62,62,0,0,0-2.16-6.05,5.7,5.7,0,0,0-8.68-2.23,15.66,15.66,0,0,0-3.57,3.56c-1.57,2.12-2.9,4.41-4.34,6.63l-6.76,10.43c-.78-.3-1.34-.22-2-.47-.31-5-.68-10.28-1.06-15.2-.05-.56-.15-1.61-1.07-1.54s-1,.8-1,1.56c.27,4.54,1,10,1.36,14.56.06.52-1.73,1.62-2,1.21l-1-1.43c-2-3.07-4-6.14-6-9.2-.42-.63-.91-1.24-1.74-.69s-.26,1.32,0,1.76c2.3,3.64,4.68,7.22,7,10.81a6.09,6.09,0,0,0,.51.71c-.1.14-.19.81-.29,1a24.84,24.84,0,0,1-2.55-.9c-3.71-1.64-7.35-3.42-11.09-5A11.35,11.35,0,0,0,88,53.64c-1.4.79-2.77,1.6-4.2,2.42-.36-1.05-.64-2-1.06-3a14.32,14.32,0,0,0-1.49-2.68,4.21,4.21,0,0,0-6-1.26,18.87,18.87,0,0,0-8.81,14.38c-.64,6.52-.72,13.09-1,19.63a11.11,11.11,0,0,1-1,3.87,17.54,17.54,0,0,0-1.47,6c-.09,3.9.06,7.85,2.14,11.31-1.63,1.77-3.25,3.39-4.72,5.15a62.35,62.35,0,0,1-11.5,10.2c-3,2.18-6,4.32-9,6.59-.47.36-1.07.8-1.1,1.48a4.41,4.41,0,0,0,.92,2.13c1.72,2.23,2.27,2.88,4.49,1.18,4.26-3.26,8.6-6.49,12.56-10.1s7.41-7.65,11.13-11.46a1.56,1.56,0,0,1,1.26-.47c4,1.51,12.48,1.52,12.57,1.51,5.22-.29,10.45-.58,15.67-.9a1.92,1.92,0,0,1,1.91.92,63.6,63.6,0,0,0,5.12,6.2c3.68,3.77,8.24,3.44,11.71-.53A30.74,30.74,0,0,0,122,105.69c1.42-4.08,2.58-8.25,3.89-12.5.91,1.51,1.74,3,2.67,4.39A3.1,3.1,0,0,0,132.5,99c1.24-.55,1.81-1.88,1.44-3.64-.23-1.13-.6-2.24-1-3.6,9.18,2.54,18.06,5.06,27,7.44A30.57,30.57,0,0,0,166,100a3.71,3.71,0,0,0,3.89-3.09C170.45,93.91,170.61,90.94,168.57,88.35ZM42.51,129.82c-1.49-1.41-1.43-1.7,0-2.79,4.66-3.48,9.46-6.81,13.88-10.59,3.21-2.74,5.91-6.1,8.84-9.18.81-.85.83-.83,1.79-.09C60,116.09,51.59,123.31,42.51,129.82ZM73.6,107.87a6,6,0,0,1-3.7-1.12,10.08,10.08,0,0,1-2.59-2.8c-2-3.08-2.09-6.54-2.3-10.87a8.7,8.7,0,0,1,1.35-5.44,15,15,0,0,1,2.44-3A2.65,2.65,0,0,1,70.24,84a1.2,1.2,0,0,1,.27,0,.72.72,0,0,1,.21,0c2.81.7,5,2.28,5.84,5.2a8.55,8.55,0,0,0,6.28,6.34c.28.08.55.21.83.29a4.48,4.48,0,0,1,1.77.88c1.17,1.05.68,2.54-.47,4a21.74,21.74,0,0,1-7.72,6.19A9.09,9.09,0,0,1,73.6,107.87Zm24-.34c-2.09.17-4.19.3-6.28.43-3.18.19-6.36.35-9.53.52a21.78,21.78,0,0,1-2.39-.15h0c1-.78,1.9-1.39,2.7-2l.65-.53a41.84,41.84,0,0,0,3.59-3.45,3.25,3.25,0,0,0,.23-.29,7.33,7.33,0,0,0,1.23-2.22,7.08,7.08,0,0,0,.39-1.89A3.36,3.36,0,0,0,87.72,96a4,4,0,0,0-2.42-1.71,14.53,14.53,0,0,1-1.83-.72,9.69,9.69,0,0,1-5-5,12.21,12.21,0,0,1-.54-1.37,7.65,7.65,0,0,0-5-4.73,13,13,0,0,0-3-.7,4.66,4.66,0,0,0-2,.55l-.38.13h0c.06-1.36.11-2.73.16-4.1.07-1.83.13-3.66.21-5.49.13-3.2.3-6.39.62-9.57a16.33,16.33,0,0,1,4.37-9.49,21,21,0,0,1,2.68-2.45c1.76-1.36,3.22-1,4.4,1a11.62,11.62,0,0,1,1.17,2.63,63.72,63.72,0,0,1,1.36,6.79,66.17,66.17,0,0,0,2,8.36,7.9,7.9,0,0,0,5.83,5.28l7.26,1.81a5.32,5.32,0,0,1,1.58.63,2.49,2.49,0,0,1,1.26,2.3,4.45,4.45,0,0,1-.43,1.63c-.24.52-.5,1-.78,1.52-.83,1.5-1.83,2.92-2.77,4.36a4.43,4.43,0,0,0-.77,2.72,4,4,0,0,0,.33,1.28A4.19,4.19,0,0,0,97,93a4.83,4.83,0,0,0,1.36.94c1.6.73,3.2,1.49,4.72,2.35.63.36,1.25.73,1.84,1.14a7.1,7.1,0,0,1,1,.84,10.72,10.72,0,0,1,2,2.71c1.35,2.63.39,4.65-2.5,5.31-.8.19-1.61.35-2.41.51A52.11,52.11,0,0,1,97.59,107.53Zm25.92-14.15c-1.58,5.28-3.28,10.53-5.25,15.68a23.68,23.68,0,0,1-3.76,5.88c-2.48,3.12-5.63,3.28-8.45.52-1.36-1.33-2.57-2.81-3.8-4.26a20.37,20.37,0,0,1-1.32-1.92c1.9-.37,3.56-.58,5.15-1,3.86-1.06,5.49-4.18,3.84-7.78a12.13,12.13,0,0,0-3.52-4.55,40,40,0,0,0-6.88-3.8c-1.61-.78-2.12-2-1.16-3.49.76-1.2,1.62-2.34,2.35-3.55a15.07,15.07,0,0,0,1.43-2.87c1.17-3.46-.34-6.16-3.84-7-2.46-.62-4.92-1.25-7.4-1.84a5.67,5.67,0,0,1-4.37-3.95C85.55,66,85,62.47,84.22,59a.91.91,0,0,1,.24-.78c2.68-1.67,5.17-3.74,8.52-4,2.65-.21,5,.81,7.28,1.9,3.14,1.48,6.3,2.89,9.47,4.31a4.18,4.18,0,0,0,1.67.53c1.73,0,2.33.93,2.89,2.41,2.75,7.22,5.51,14.44,8.54,21.53A12.07,12.07,0,0,1,123.51,93.38Zm7.87,3.91a6.16,6.16,0,0,1-1.26-1.17,39,39,0,0,1-2.61-4.9c-3.94-9.84-7.8-19.71-11.68-29.57-.31-.77-.57-1.56-.82-2.35a1.66,1.66,0,0,1,1.2-2.08,1.44,1.44,0,0,1,1.78.84c.09.2.28.49.38.77q6.57,17.72,13.12,35.45a15.29,15.29,0,0,1,.47,2.65Zm36.41-.74c-.36,1.7-1.91,1.52-3.34,1.65-3.39-.89-6.79-1.77-10.17-2.7q-10.74-2.94-21.46-6a1.83,1.83,0,0,1-1.07-1q-5.61-14.88-11.12-29.81a1.77,1.77,0,0,1,0-1.32c3.79-5.88,7.58-11.75,11.46-17.56a11.27,11.27,0,0,1,2.75-2.76,3.73,3.73,0,0,1,5.91,1.45c.84,1.69,1.2,3.61,1.91,5.36.85,2.11,1.54,4.4,2.9,6.14,1.09,1.4,3,2.18,4.68,3.08,2,1.08,4.09,1.86,6,3,3.64,2.22,4.76,6,3.14,9.93-.77,1.9-1.7,3.73-2.46,5.64a7.47,7.47,0,0,0,1.48,8.06,44.06,44.06,0,0,0,4,4.12,23.15,23.15,0,0,1,5,6.76C168.44,92.67,168.18,94.63,167.79,96.55Z"/><path class="b" d="M23.12,46.9c-2.61-1.06-5.33-1.82-7.69-3.2A24.11,24.11,0,0,1,9.1,38.6c-4.26-5.09-2-12.21,4.18-13.65a31.74,31.74,0,0,1,3.86-.41c-.25-1.94-.52-3.9-.75-5.87A7.63,7.63,0,0,1,20,10.81c2.84-1.78,5.74-1.39,8.42.56q1.59,1.17,3.06,2.49A77.41,77.41,0,0,1,45.74,32.55l5.48-2.26-1.67-8.77c-.06-.36-.66-2.21.7-2.54.83-.25,1.17.65,1.28,1.09.62,2.66,1.1,5.36,1.63,8,.11.56.26,1.11.39,1.69h2q.86-4.12,1.73-8.27c.1-.46.47-2.77,1.67-2.73s1,1.05.84,1.83c-.17,1.14-.43,2.27-.66,3.4s-.39,2.19-.69,3.25c-.5,1.76-.83,3.33,1,4.73a4.91,4.91,0,0,1,1.33,2.8c.89,4.29,1.14,8.63-.62,12.74a49.5,49.5,0,0,1-4.61,8.77,21.8,21.8,0,0,1-5.69,5.56c-4,2.62-8,5.58-12.9,6a58.7,58.7,0,0,1-12.57-.32c-4.47-.6-7.1-4.35-7.53-9.29-.39-4.43,1.43-7.75,4.88-10.32.5-.37,1-.72,1.45-1m8.11-1.57c.95,0,1.9.06,2.84,0,4-.29,6.08-3.79,4.47-7.47a11.14,11.14,0,0,0-6.36-6c-3.51-1.39-7-2.82-10.66-3.87a22.73,22.73,0,0,0-7-.83c-3.69.11-6.13,4-5,7.51.88,2.85,3,4.69,5.36,6.19a31.91,31.91,0,0,0,16.36,4.52m9.82-7.23c1.92-.5,2.75-1.62,2.36-3.23a14.5,14.5,0,0,0-1.81-5.1c-2.9-4.06-6-8-9.25-11.78a37.06,37.06,0,0,0-5.54-4.9,4.63,4.63,0,0,0-5.48-.39,5,5,0,0,0-2.65,4.87c.16,2.09.44,4.18.8,6.25a2,2,0,0,0,1.13,1.24c2.51.94,5.09,1.68,7.6,2.63,5.42,2,10.91,4,12.84,10.41M55.58,51.46A33.51,33.51,0,0,1,43.64,39.69a2.89,2.89,0,0,0-2.51,2.53c-.27,1.14-1.28,2.09-1.88,3.17a4,4,0,0,0-.77,2c.44,5.32,3.09,9.62,6.5,13.52a1.87,1.87,0,0,0,1.74.21,16.3,16.3,0,0,0,6.16-5c1-1.47,1.78-3.06,2.7-4.65M43.49,62.88c-3.89-4.51-6.66-9.5-7.53-15.24H28.8c0,2.2.15,4.2,0,6.17A21.55,21.55,0,0,0,31,64.65c.21.49.76,1.14,1.21,1.18a17.26,17.26,0,0,0,11.26-2.95M59.1,40.16a37.88,37.88,0,0,0-.59-4.82c-.64-2.5-2-3.62-4.47-3.07a65.41,65.41,0,0,0-7.74,2.54c-.23.09-.34.57-.46.88-.69,1.9.06,3.47,1.17,5a31.93,31.93,0,0,0,8.52,8.11c1,.61,1.53.42,2-.72a21.18,21.18,0,0,0,1.58-7.88m-32.58,8c-4.17.77-8.32,5.61-7.42,10.22,1,5.35,3.75,7.87,9.91,7C25.67,60,26.64,54,26.52,48.16"/><path class="a" d="M31.23,45.33a31.91,31.91,0,0,1-16.36-4.52c-2.39-1.5-4.48-3.34-5.36-6.19-1.09-3.54,1.35-7.4,5-7.51a22.73,22.73,0,0,1,7,.83c3.63,1,7.15,2.48,10.66,3.87a11.08,11.08,0,0,1,6.36,6c1.61,3.68-.45,7.18-4.47,7.47-.94.07-1.89,0-2.84,0"/><path class="a" d="M41.05,38.1c-1.93-6.41-7.42-8.38-12.84-10.42-2.51-.94-5.09-1.68-7.6-2.62a2,2,0,0,1-1.13-1.24c-.36-2.07-.64-4.16-.8-6.25a5,5,0,0,1,2.65-4.87,4.65,4.65,0,0,1,5.48.38A37.7,37.7,0,0,1,32.35,18c3.25,3.79,6.35,7.72,9.25,11.78a14.52,14.52,0,0,1,1.81,5.09c.39,1.62-.44,2.74-2.36,3.24"/></svg>