<svg xmlns="http://www.w3.org/2000/svg" viewBox="0 0 141.73 141.73"><defs><style>.a{fill:#703c59;}.b{fill:#6c8f6a;}</style></defs><path class="a" d="M89.86,92.69a14.06,14.06,0,0,1-12.92,10.85c-4.19.23-8.39.45-12.57.31a18.94,18.94,0,0,1-9.67-3.27c-4.12-2.68-6.87-6.12-6.43-11.46.26-3.12.37-6.22,1.89-9.05,2.71-5,7.19-6.89,12.61-7,1.31,0,2.63.1,4.1.2a25.42,25.42,0,0,1,2.46-3.81,22.2,22.2,0,0,1,9.58-7.18l-1.45-3.46c-1.17-2.78-2.32-5.54-3.49-8.29-.43-1-.85-2-1.27-3C71.53,44.7,70.32,41.8,69,39a33.77,33.77,0,0,0-4.49-6.92,4.84,4.84,0,0,0-4.21-1.87,5.19,5.19,0,0,0-4,2.95c-2.37,4.53-2.55,9.43-2.41,14q.18,5.12.39,10.23l.24,5.83a1.87,1.87,0,0,1,0,.46,3.34,3.34,0,0,1-.53-.6A86.58,86.58,0,0,0,46,54.24c-1.45-1.5-3-3-4.37-4.61a16.87,16.87,0,0,0-6.95-4.83,4.59,4.59,0,0,0-4.09.19,4.25,4.25,0,0,0-1.73,3.41,12.88,12.88,0,0,0,.39,5.28c1.13,3.16,2.42,6.32,3.66,9.38.77,1.89,1.54,3.78,2.28,5.69s1.52,4.11,2.23,6.12l.81,2.32-3.83.73c-3.22.6-6.39,1.2-9.55,1.81-4.13.8-6.75,2.57-8.24,5.57a5.27,5.27,0,0,0-.53,4.23,4.68,4.68,0,0,0,2.83,2.58A47.08,47.08,0,0,0,26,94.17c2,.46,3.94.83,6,1.23l2.05.39-3,2.17c-2.63,1.88-5.14,3.66-7.63,5.46l-1.91,1.37c-2.1,1.49-4.27,3-6.33,4.67a11.84,11.84,0,0,0-4.31,6.32c-.73,2.83-.5,4.88.67,6.08s3.38,1.55,6.45.87a23.16,23.16,0,0,0,7.22-3.29c4.23-2.71,8.45-5.58,12.54-8.37l5-3.37,1.69-1.13.47-.32c-.28,1-.57,2.09-.86,3.13-.76,2.7-1.54,5.48-2.14,8.27a28.4,28.4,0,0,0-.55,7.2,3.81,3.81,0,0,0,1.36,3,4.16,4.16,0,0,0,3.54.45A6.75,6.75,0,0,0,49,127.05l.65-.54c2.41-2,4.9-4.05,7.13-6.3a66.24,66.24,0,0,0,4.35-5l1.52-1.86c.2.34.39.68.58,1,.63,1.11,1.22,2.15,1.77,3.24s1,2,1.44,3c.7,1.49,1.41,3,2.21,4.5a3.94,3.94,0,0,0,2.84,2.29,4.18,4.18,0,0,0,3.45-1.68,8.23,8.23,0,0,0,2-5.63c0-1,0-2,0-3v-.83l5.33,3.54c3.84,2.55,7.68,5.11,11.53,7.64l.54.36a15.7,15.7,0,0,0,3.59,2,7.18,7.18,0,0,0,2.23.39,4.52,4.52,0,0,0,2.36-.62,5.42,5.42,0,0,0,2.34-4,14.06,14.06,0,0,0,0-4.1,43.7,43.7,0,0,0-5.73-16.27c-.19-.33-.36-.67-.56-1.06l-.06-.13,1.48,0a33.34,33.34,0,0,0,4.26-.07,29.07,29.07,0,0,0,6.92-1.34,7.56,7.56,0,0,0,5.26-7c.19-3.63-1.43-6.22-4.7-7.49-2.56-1-5.1-1.9-7.79-2.86l-2.87-1,1-.89c1.11-1,2.27-2.08,3.47-3.1,1.39-1.19,2.8-2.36,4.21-3.54,2.16-1.79,4.38-3.64,6.53-5.53a13.82,13.82,0,0,0,2.76-3.49,3.65,3.65,0,0,0-3.37-5.83,26.27,26.27,0,0,0-5.74.43c-3.44.77-6.91,1.64-10.26,2.48-1.94.49-3.88,1-5.82,1.45-.85.2-1.73.34-2.58.47l-.73.11a25.55,25.55,0,0,1-5.8,12.13C89.89,82.88,91.19,86.6,89.86,92.69Z"/><path class="b" d="M129.74,14.09a29.68,29.68,0,0,0-3.31-2c-1.3-.84-2.21-.54-3.18.63Q103.82,36.36,84.3,59.92A4.46,4.46,0,0,1,82,61.32a23.94,23.94,0,0,0-3.11,1,22.2,22.2,0,0,0-9.58,7.18,25.42,25.42,0,0,0-2.46,3.81c-2.41,4.59-3.26,9.66-3.57,14.93-.08,3.38.4,3.82,3.68,2.72a39.41,39.41,0,0,0,17.45-11.7c.12-.13.22-.27.33-.4a25.55,25.55,0,0,0,5.8-12.13c0-.23.09-.46.13-.7a6.62,6.62,0,0,1,1.41-3.26q18.91-21.51,38-42.92A3.75,3.75,0,0,0,129.74,14.09Zm-41.44,53a20.54,20.54,0,0,1-2,5.59,25.37,25.37,0,0,1-1.95,3.12c-.44.6-.89,1.2-1.37,1.77-4,4.8-9.18,8.09-14.82,10.67a21.2,21.2,0,0,1-2.52.8h0c-.42-11.42,5.39-22.9,16.48-25.48.29-.07.56-.15.85-.21a4,4,0,0,1,1.93.1,11.82,11.82,0,0,1,3.32,2.15.48.48,0,0,1,.14.32A3.85,3.85,0,0,1,88.3,67.09Zm39.86-48.43Q108.87,40.44,89.57,62.21c-.23.26-.5.48-.89.86l-2.57-1.83L90.46,56q16.82-20.4,33.64-40.78c1.08-1.31,2.07-1.25,3.85.2C129.26,16.46,129.33,17.33,128.16,18.66Z"/></svg>