<svg xmlns="http://www.w3.org/2000/svg" viewBox="0 0 184.17 141.73"><defs><style>.a{fill:#703c59;}.b{fill:#6c8f6a;}.c{fill:none;}</style></defs><path class="a" d="M87.45,71a1.43,1.43,0,0,0,.26-.49,2.25,2.25,0,0,0,.13-.59c0-.11,0-.22,0-.34q.23-6.52.44-13.07.39-11.22.77-22.44c.11-3.56.25-7.13.25-10.7a4.18,4.18,0,0,0-.3-1.77,1.83,1.83,0,0,0-.81-.88,4.3,4.3,0,0,0-1.94-.36l-21.79-.19-9.08-.08H53.87c0,.16-.08.29-.11.42a.83.83,0,0,0,0,.15c0,.13-.06.25-.08.36L52,34.07Q50.13,48.4,48.25,62.72a3.46,3.46,0,0,0,0,.43s0,.05,0,.07a1.25,1.25,0,0,0,.05.29.43.43,0,0,0,0,.05,1.47,1.47,0,0,0,.1.22l0,0a.43.43,0,0,0,.09.1,1.21,1.21,0,0,0,.2.19l.11.08.4.21h0c7,3.2,13.92,6.46,20.9,9.64l.08,0,.65.31.15.07.6.31.15.09.56.35.11.09a4.17,4.17,0,0,1,1.68,2.49c3.22-1.61,6.35-3.17,9.46-4.74,1.25-.62,2.49-1.25,3.73-1.88A1,1,0,0,0,87.45,71Zm-9.2-23.43c-2.09,3.89-4.38,7.64-8.35,10.47l3.67.29c1.55.11,1.84.53,1.3,2-1,2.67-2,5.33-2.94,8A1.68,1.68,0,0,1,70,69.63c-1.42-.09-2.85-.15-4.28-.18A1.71,1.71,0,0,1,64,68.12c-1-2.77-1.95-5.52-2.91-8.29-.4-1.18-.08-1.62,1.15-1.74.65-.06,1.31-.09,2.15-.15-.59-.68-1-1.18-1.45-1.69-3.09-3.64-3.34-8-3.13-12.47.09-1.69,1.14-2,2.48-.94,2,1.58,4,3.21,5.06,5.6a25.31,25.31,0,0,1,3-2.62c2.06-1.32,4.32-2.1,6.79-1.15C78.78,45.29,79.08,46,78.25,47.59Z"/><path class="b" d="M61.83,18.21c0,.12,0,.23,0,.34h1.24l23.68.21a3.85,3.85,0,0,1,4.13,3.81,29.48,29.48,0,0,1,0,3.52q-.65,20.31-1.32,40.62c0,.42,0,.85,0,1.56,1.36-1.44,2.52-2.59,3.57-3.84a3.12,3.12,0,0,0,.72-1.76q.72-22.26,1.35-44.52c.06-2.16,0-4.33,0-6.71Z"/><path class="a" d="M93.71,10.11c-4.11.81-8.23,1.61-12.33,2.44Q67.7,15.34,54,18.17c-.93.19-1.74.39-1.9,1.62-1.24,9.94-2.53,19.88-3.81,29.82-.59,4.53-1.18,9.06-1.77,13.66a3.35,3.35,0,0,1-.42,0l-.25-.09.25.09c.06,0,3,1.11,3.11,1.18,7,3.19,13.92,6.45,20.9,9.63l.74.34.13.07.61.31.15.09a6.65,6.65,0,0,1,.56.36l.11.08a3.68,3.68,0,0,1,.6.51,3.68,3.68,0,0,0-.6-.51l-.11-.09-.56-.35-.15-.09-.6-.31-.15-.07-.65-.31-.08,0c-7-3.18-13.93-6.44-20.9-9.64h0l-.4-.21-.11-.08a1.21,1.21,0,0,1-.2-.19.43.43,0,0,1-.09-.1l0,0a1.47,1.47,0,0,1-.1-.22v-.05a1.25,1.25,0,0,1-.05-.29s0,0,0-.07a3.46,3.46,0,0,1,0-.43Q50.13,48.4,52,34.07l1.68-13c0-.11,0-.23.08-.36a.83.83,0,0,1,0-.15c0-.13.07-.26.11-.42h1.52l9.08.08,21.79.19a4.3,4.3,0,0,1,1.94.36,1.83,1.83,0,0,1,.81.88,4.18,4.18,0,0,1,.3,1.77h0c0,3.57-.14,7.14-.25,10.7q-.37,11.22-.77,22.44-.23,6.54-.44,13.07c0,.12,0,.23,0,.34a2.25,2.25,0,0,1-.13.59,1.43,1.43,0,0,1-.26.49,1,1,0,0,1-.15.14c-1.24.63-2.48,1.26-3.73,1.88-.82.42-1.64.84-2.47,1.25,2.08-1,4.14-2.08,6.2-3.13A10.12,10.12,0,0,1,90,70.05c.24,0,.47-.06.7-.08h-.45c1.47-1.58,2.74-3,4.11-4.38a3.87,3.87,0,0,0,1.2-2.91c.1-4.61.26-9.23.38-13.84q.5-18.06,1-36.11C97,10.16,96.25,9.61,93.71,10.11Zm1.54,8Q94.6,40.41,93.9,62.67a3.12,3.12,0,0,1-.72,1.76c-1.05,1.25-2.21,2.4-3.57,3.84,0-.71,0-1.14,0-1.56q.66-20.31,1.32-40.62a29.48,29.48,0,0,0,0-3.52,3.85,3.85,0,0,0-4.13-3.81l-23.68-.21H61.84c0-.11,0-.22,0-.34l33.43-6.77C95.26,13.82,95.31,16,95.25,18.15Z"/><path class="c" d="M110.28,114.24a.94.94,0,0,0,.59.83A1,1,0,0,1,110.28,114.24Z"/><path class="c" d="M138,60.91c1.33,4.67,2.59,9.36,3.87,14q2.19,8,4.39,16-2.21-8-4.39-16c-1.28-4.69-2.54-9.38-3.87-14a3.35,3.35,0,0,0-3.72-2.7l-.79,0,.79,0A3.35,3.35,0,0,1,138,60.91Z"/><path class="c" d="M124.43,118l1.31.23c.51-1.1.9-1.91,1.28-2.56-.38.65-.77,1.46-1.28,2.56Z"/><path class="c" d="M116.66,116.39l-1.18-.26Z"/><path class="c" d="M107.58,61.32h0l4.45-.54Z"/><path class="c" d="M144.27,102.19a4.92,4.92,0,0,1,1-.22,10.5,10.5,0,0,0,1.23-.2,10.5,10.5,0,0,1-1.23.2A4.92,4.92,0,0,0,144.27,102.19Z"/><path class="c" d="M162,105.41l-5.07-1.15-1-.23c-2.46-.6-4.91-1.28-7.47-1-1.66.21-3.57.41-4.87,1.31-.91.64-1.81,1.29-2.7,1.93-2.17,1.57-4.3,3.18-6.41,4.82-1.49,1.16-3,2.32-4.45,3.49a9.61,9.61,0,0,0-2.33,3.2c-.37.71-.35,1.22,0,1.54a2,2,0,0,0,1.06.36,4.34,4.34,0,0,0,2-.21,26.06,26.06,0,0,0,3.79-1.66l.12-.06c1.71-1,3.41-2,5.1-3,1.19-.71,2.37-1.41,3.57-2.09a1.67,1.67,0,0,1,1.15-.28.85.85,0,0,1,.37.3c.22.5-.32,1-.67,1.29h0l-.33.25c-.63.47-1.27.93-1.92,1.36a16.84,16.84,0,0,1-1.52.9q-4.41,2.27-8.92,4.33l-.68.32a3.38,3.38,0,0,1-3.71-.38c-1.14-1.1-2.46-1-3.77-1.33l-2.87-.63-6.8-1.47-2.87-.61a7.26,7.26,0,0,0-2.73-.23,3.7,3.7,0,0,0-2.31,1.19,1.06,1.06,0,0,0-.08,1,3.68,3.68,0,0,0,1.11,1.28l1.41,1.16c1.07.89,2.15,1.77,3.23,2.63,1.32,1.06,2.65,2.09,4,3.07.34.24.7.46,1,.67a17.35,17.35,0,0,0,7.19,2.45,18.16,18.16,0,0,0,3.54.06c.57,0,1.14-.12,1.71-.2a27.15,27.15,0,0,0,7.73-2.42l1.2-.61c2.19-1.18,4.4-2.35,6.61-3.51s4.49-2.35,6.74-3.51a3.43,3.43,0,0,1,1.92-.4c3.27.48,6.53,1,9.79,1.61l5.13,1,4.82.92L177.52,109c-.56-.15-1-.28-1.36-.37Z"/><path class="c" d="M107.59,63.7c0-.24,0-.5,0-.75,0,.25,0,.51,0,.75q.27,5.24.56,10.45Q107.86,68.93,107.59,63.7Z"/><path class="c" d="M116.15,89.2c1.37.09,2.74.13,4.24.2-.32.58-.58,1-.8,1.44a11,11,0,0,0-1.53,5.5c.08,1.45.79,2,2.23,1.84a4,4,0,0,0,3-2c.82-1.44,1.6-2.9,2.44-4.44a10.34,10.34,0,0,0,.88,1.43c1.13,1.35,2.23,2.71,3.47,3.94a2.07,2.07,0,0,0,2.56.41,1.83,1.83,0,0,0,.77-2.21c-.37-1.64-.9-3.23-1.29-4.57a40.67,40.67,0,0,0,4.38.51c1.32,0,1.83-.73,1.78-2.06A3.87,3.87,0,0,0,136.55,86c-1-.67-2.72-1.35-3.88-2.11a20.45,20.45,0,0,0,2.39-.24A13.2,13.2,0,0,0,138.64,82a2.27,2.27,0,0,0-1.08-4.14,16.1,16.1,0,0,0-4-.08c-1.1.07-2.18.32-3.46.51.73-1.42,1.37-2.63,2-3.87a8.62,8.62,0,0,0,.48-5.64,2,2,0,0,0-2-1.77c-1.43-.21-2.34.73-3,1.83a4.35,4.35,0,0,0-.63,1.49c-.33,1.68-.58,3.38-.86,5.07,0,.29-.09.58-.16,1.07-.57-.7-1-1.22-1.42-1.72A10.29,10.29,0,0,0,123,73.17,17.06,17.06,0,0,0,119.67,71a2.11,2.11,0,0,0-3.07,1.63c-.34,2.76.16,5.27,2.57,7.06.56.42,1.1.85,1.64,1.27,0,.12,0,.24-.08.36a24.63,24.63,0,0,0-3.44,0,11.19,11.19,0,0,0-3.59,1,3.34,3.34,0,0,0-1.12,5.06A4.38,4.38,0,0,0,116.15,89.2Z"/><path class="b" d="M108.15,74.15q.16,3.19.34,6.4.89,16.71,1.75,33.43c0,.1,0,.18,0,.26a1,1,0,0,0,.59.83,2,2,0,0,0,.43.13c1.39.29,2.79.61,4.18.93l1.18.26c1.44.33,2.89.66,4.34,1,1.14.25,2.29.44,3.43.63l1.31.23c.51-1.1.9-1.91,1.28-2.56.87-1.51,1.65-2.15,3.57-3.58,3.71-2.75,7.38-5.55,11-8.36a8.79,8.79,0,0,1,2.64-1.53,4.92,4.92,0,0,1,1-.22,10.5,10.5,0,0,0,1.23-.2c.82-.17,1.64-.39,2.5-.57-.07-.3-.14-.62-.22-.93L146.27,91q-2.21-8-4.39-16c-1.28-4.69-2.54-9.38-3.87-14a3.35,3.35,0,0,0-3.72-2.7l-.79,0c-.41,0-.82,0-1.22.09q-9,1.08-18,2.2l-2.25.26-4.45.54V63c0,.25,0,.51,0,.75Q107.86,68.94,108.15,74.15Zm5.55,8.2a11.19,11.19,0,0,1,3.59-1,24.63,24.63,0,0,1,3.44,0c0-.12.06-.24.08-.36-.54-.42-1.08-.85-1.64-1.27-2.41-1.79-2.91-4.3-2.57-7.06A2.11,2.11,0,0,1,119.67,71,17.06,17.06,0,0,1,123,73.17a10.29,10.29,0,0,1,1.44,1.57c.43.5.85,1,1.42,1.72.07-.49.11-.78.16-1.07.28-1.69.53-3.39.86-5.07a4.35,4.35,0,0,1,.63-1.49c.71-1.1,1.62-2,3-1.83a2,2,0,0,1,2,1.77,8.62,8.62,0,0,1-.48,5.64c-.6,1.24-1.24,2.45-2,3.87,1.28-.19,2.36-.44,3.46-.51a16.1,16.1,0,0,1,4,.08A2.27,2.27,0,0,1,138.64,82a13.2,13.2,0,0,1-3.58,1.66,20.45,20.45,0,0,1-2.39.24c1.16.76,2.89,1.44,3.88,2.11a3.87,3.87,0,0,1,1.76,3.18c.05,1.33-.46,2.08-1.78,2.06a40.67,40.67,0,0,1-4.38-.51c.39,1.34.92,2.93,1.29,4.57a1.83,1.83,0,0,1-.77,2.21,2.07,2.07,0,0,1-2.56-.41c-1.24-1.23-2.34-2.59-3.47-3.94a10.34,10.34,0,0,1-.88-1.43c-.84,1.54-1.62,3-2.44,4.44a4,4,0,0,1-3,2c-1.44.19-2.15-.39-2.23-1.84a11,11,0,0,1,1.53-5.5c.22-.44.48-.86.8-1.44-1.5-.07-2.87-.11-4.24-.2a4.38,4.38,0,0,1-3.57-1.79A3.34,3.34,0,0,1,113.7,82.35Z"/><path class="a" d="M177.64,107.32c-5.72-1.32-11.45-2.62-17.15-4a2.06,2.06,0,0,1-1.26-1.12c-.69-1.79-1.26-3.63-1.84-5.46q-5.29-17-10.58-34.07c-.89-2.87-1.7-5.78-2.6-8.65-1.06-3.42-2.83-4.42-6.28-3.62-2,.47-4,.87-6,1.44-8.13,2.36-16.24,4.77-24.36,7.16-1.61.47-1.84.8-1.75,2.53l2.58,48.39c.08,1.58.14,3.16.2,4.69a25.22,25.22,0,0,0-2.73.83c-2.14,1-2.57,2.71-1.19,4.65a5.38,5.38,0,0,0,.89,1.06c3,2.41,6,4.91,9.08,7.15a18.86,18.86,0,0,0,13.12,3.37,28.21,28.21,0,0,0,10.75-3.31c4.43-2.38,8.87-4.73,13.35-7a4.09,4.09,0,0,1,2.4-.25q9,1.62,18.06,3.39a1.63,1.63,0,0,0,2.22-1.31c1.44-4.51,3-9,4.45-13.48C179.59,108,179.41,107.72,177.64,107.32ZM125,55.63q6.78-1.89,13.59-3.67c2.27-.59,3.37.19,4.15,2.78,1.15,3.85,2.24,7.72,3.43,11.55,3.08,10,6.21,19.91,9.32,29.86.64,2.07,1.27,4.15,2,6.46l-6.72-1.33q-5.5-20.28-11-40.64a5.14,5.14,0,0,0-5.49-4c-3,.19-5.91.66-8.86,1l-10.13,1.16c0-.08-.07-.16-.11-.25C118.42,57.55,121.69,56.55,125,55.63ZM107.58,63V61.32h0l4.45-.54,2.25-.26q9-1.11,18-2.2c.4,0,.81-.07,1.22-.09l.79,0a3.35,3.35,0,0,1,3.72,2.7c1.33,4.67,2.59,9.36,3.87,14q2.19,8,4.39,16l2.55,9.31c.08.31.15.63.22.93-.86.18-1.68.4-2.5.57a10.5,10.5,0,0,1-1.23.2,4.92,4.92,0,0,0-1,.22,8.79,8.79,0,0,0-2.64,1.53c-3.66,2.81-7.33,5.61-11,8.36-1.92,1.43-2.7,2.07-3.57,3.58-.38.65-.77,1.46-1.28,2.56l-1.31-.23c-1.14-.19-2.29-.38-3.43-.63-1.45-.31-2.9-.64-4.34-1l-1.18-.26c-1.39-.32-2.79-.64-4.18-.93a2,2,0,0,1-.43-.13.94.94,0,0,1-.59-.83c0-.08,0-.16,0-.26q-.84-16.73-1.75-33.43-.18-3.21-.34-6.4-.29-5.22-.56-10.45C107.58,63.46,107.58,63.2,107.58,63Zm65.33,60-4.82-.92-5.13-1c-3.26-.58-6.52-1.13-9.79-1.61a3.43,3.43,0,0,0-1.92.4q-3.37,1.74-6.74,3.51c-2.21,1.16-4.42,2.33-6.61,3.51l-1.2.61A27.15,27.15,0,0,1,129,129.9c-.57.08-1.14.15-1.71.2a18.16,18.16,0,0,1-3.54-.06,17.35,17.35,0,0,1-7.19-2.45c-.35-.21-.71-.43-1-.67-1.38-1-2.71-2-4-3.07-1.08-.86-2.16-1.74-3.23-2.63l-1.41-1.16a3.68,3.68,0,0,1-1.11-1.28,1.06,1.06,0,0,1,.08-1,3.7,3.7,0,0,1,2.31-1.19,7.26,7.26,0,0,1,2.73.23l2.87.61,6.8,1.47,2.87.63c1.31.28,2.63.23,3.77,1.33a3.38,3.38,0,0,0,3.71.38l.68-.32q4.51-2.07,8.92-4.33a16.84,16.84,0,0,0,1.52-.9c.65-.43,1.29-.89,1.92-1.36l.33-.25h0c.35-.26.89-.79.67-1.29a.85.85,0,0,0-.37-.3,1.67,1.67,0,0,0-1.15.28c-1.2.68-2.38,1.38-3.57,2.09-1.69,1-3.39,2-5.1,3l-.12.06a26.06,26.06,0,0,1-3.79,1.66,4.34,4.34,0,0,1-2,.21,2,2,0,0,1-1.06-.36c-.38-.32-.4-.83,0-1.54a9.61,9.61,0,0,1,2.33-3.2c1.47-1.17,3-2.33,4.45-3.49,2.11-1.64,4.24-3.25,6.41-4.82.89-.64,1.79-1.29,2.7-1.93,1.3-.9,3.21-1.1,4.87-1.31,2.56-.33,5,.35,7.47,1l1,.23,5.07,1.15,14.17,3.23c.41.09.8.22,1.36.37Z"/><path class="a" d="M125.37,57.6c2.95-.35,5.9-.82,8.86-1a5.14,5.14,0,0,1,5.49,4q5.49,20.34,11,40.64l6.72,1.33c-.7-2.31-1.33-4.39-2-6.46-3.11-10-6.24-19.9-9.32-29.86-1.19-3.83-2.28-7.7-3.43-11.55-.78-2.59-1.88-3.37-4.15-2.78q-6.81,1.78-13.59,3.67c-3.3.92-6.57,1.92-9.86,2.88,0,.09.08.17.11.25Z"/><path class="b" d="M57.92,37.27c-1.19,0-1.27-1.56-.09-1.56l22.89,0c1.07,0,.93,1.55,0,1.55-3.44,0-20,0-22.75,0"/><path class="a" d="M140.92,98.49c-4.2,1.45-8.4,2.87-12.6,4.3-2.54.87-5.24,1.85-7.8,2.64-1.49.46-1.88-1-.75-1.43q10.35-3.52,20.69-7c1.52-.49,2.11,1,.46,1.54"/><path class="c" d="M75.13,45.89a3.8,3.8,0,0,1,.73.11A3.8,3.8,0,0,0,75.13,45.89Z"/><path class="c" d="M64.24,63.79c.43,1.2.85,2.4,1.29,3.58a.36.36,0,0,0,.1.15.31.31,0,0,1-.1-.15C65.09,66.19,64.67,65,64.24,63.79Z"/><path class="c" d="M70.32,67.72a.45.45,0,0,0,.11-.14l.45-1.18-.45,1.18A.45.45,0,0,1,70.32,67.72Z"/><path class="c" d="M70.31,67.73a1,1,0,0,1-.17.1A1,1,0,0,0,70.31,67.73Z"/><path class="c" d="M62.82,59.78H73.34c-.24.64-.47,1.27-.69,1.88.22-.61.45-1.24.69-1.88Z"/><path class="c" d="M77.05,46.46h0a55.17,55.17,0,0,1-3.53,5.72A55.17,55.17,0,0,0,77.05,46.46Z"/><path class="c" d="M68.24,51.61h0a48.84,48.84,0,0,0,.33,5.29,16.1,16.1,0,0,0,2.32-1.8,16.1,16.1,0,0,1-2.32,1.8A48.84,48.84,0,0,1,68.24,51.61Z"/><path class="b" d="M78.25,47.59c.83-1.55.53-2.3-1.11-2.92-2.47-1-4.73-.17-6.79,1.15a25.31,25.31,0,0,0-3,2.62c-1.1-2.39-3.05-4-5.06-5.6-1.34-1.07-2.39-.75-2.48.94-.21,4.45,0,8.83,3.13,12.47.42.51.86,1,1.45,1.69-.84.06-1.5.09-2.15.15-1.23.11-1.55.56-1.15,1.73,1,2.78,2,5.53,2.91,8.3a1.71,1.71,0,0,0,1.74,1.33c1.43,0,2.86.09,4.28.18a1.68,1.68,0,0,0,1.89-1.27c1-2.68,2-5.34,2.94-8,.54-1.47.25-1.89-1.3-2l-3.67-.29C73.87,55.23,76.16,51.48,78.25,47.59ZM61.53,44.41c4.94,3.42,5.36,6.38,5.24,12.88C63.53,56.33,60.75,49.58,61.53,44.41ZM73.34,59.78c-.24.64-.47,1.27-.69,1.88-.61,1.65-1.19,3.21-1.77,4.74l-.45,1.18a.45.45,0,0,1-.11.14h0a1,1,0,0,1-.17.1.93.93,0,0,1-.41.11c-1.17,0-2.35-.06-3.52-.15a1.07,1.07,0,0,1-.58-.27.36.36,0,0,1-.1-.15c-.44-1.18-.86-2.38-1.29-3.58l-1.42-4H73.34ZM68.57,56.9a48.84,48.84,0,0,1-.33-5.29h0c.1-2.59,2-4,4-5a6,6,0,0,1,2.85-.72,3.8,3.8,0,0,1,.73.11,4.77,4.77,0,0,1,1.19.46h0a55.17,55.17,0,0,1-3.53,5.72,20.66,20.66,0,0,1-2.63,2.92A16.1,16.1,0,0,1,68.57,56.9Z"/><polygon class="c" points="128.05 78.57 128.05 78.57 128.05 78.57 128.05 78.57"/><path class="c" d="M113.56,85.42a1.59,1.59,0,0,1,0-.58,1.59,1.59,0,0,0,0,.58A2.07,2.07,0,0,0,115,87.31,2.07,2.07,0,0,1,113.56,85.42Z"/><path class="c" d="M122.6,83h0c-2.56,0-5-.46-7.48.42a3.38,3.38,0,0,0-1.07.6,3.17,3.17,0,0,1,1.07-.59C117.55,82.54,120,83,122.6,83Z"/><polygon class="c" points="130.6 68.46 130.59 68.46 130.6 68.46 130.6 68.46"/><path class="c" d="M120.32,93.1a19.4,19.4,0,0,1,1.71-3A14.22,14.22,0,0,0,120.32,93.1Z"/><path class="c" d="M124.93,79.77l.83-.83c-.28-.32-.55-.66-.83-1l.83,1Z"/><path class="c" d="M121.78,74.26c.53.57,1,1.17,1.54,1.76-.51-.59-1-1.19-1.54-1.76a9.46,9.46,0,0,0-2.34-1.64,1.89,1.89,0,0,0-.35-.13,1.89,1.89,0,0,1,.35.13A9.46,9.46,0,0,1,121.78,74.26Z"/><path class="c" d="M121.71,87.78c.18-1,.34-1.82.51-2.72-.17.9-.33,1.77-.51,2.72Z"/><path class="c" d="M128.2,80.79a.86.86,0,0,0-.45-.39A.86.86,0,0,1,128.2,80.79Z"/><path class="c" d="M119.51,77.79a4,4,0,0,1-1.25-2.32,4,4,0,0,0,1.25,2.32c.48.43,1,.84,1.49,1.24C120.49,78.63,120,78.22,119.51,77.79Z"/><path class="c" d="M125.38,81.86l-.27.33a6.29,6.29,0,0,0-.79,1.34,6.29,6.29,0,0,1,.79-1.34Z"/><path class="c" d="M134.26,82.11h0c-1.36.21-2.75.19-4.25.28h0c1.5-.09,2.89-.07,4.26-.28Z"/><polygon class="c" points="128.22 86.91 128.22 86.91 128.22 86.91 128.22 86.91"/><path class="c" d="M128.5,86.24l.75-1.83a14.43,14.43,0,0,1,4.83,1.9,13.21,13.21,0,0,0-4.83-1.9Z"/><path class="c" d="M123.43,88.32c0,1.1,1.21,1,1.54.53h0C124.75,89.12,123.43,89,123.43,88.32Z"/><path class="a" d="M135.88,83.5A8.49,8.49,0,0,0,138.64,82a2.27,2.27,0,0,0-1.08-4.14,16.1,16.1,0,0,0-4-.08c-1.09.07-2.18.31-3.46.51.73-1.42,1.37-2.63,2-3.87a9.16,9.16,0,0,0,.59-5.81c-.33-1.09-.74-1.4-2.1-1.6s-2.34.73-3,1.83a4.35,4.35,0,0,0-.63,1.49c-.33,1.68-.58,3.38-.86,5.07,0,.29-.09.58-.16,1.07-.57-.7-1-1.22-1.42-1.72A10.86,10.86,0,0,0,123,73.16,17.48,17.48,0,0,0,119.67,71a2.11,2.11,0,0,0-3.07,1.63c-.34,2.76.16,5.27,2.57,7.06.56.42,1.1.85,1.64,1.27,0,.12,0,.24-.08.36a24.63,24.63,0,0,0-3.44,0,11.19,11.19,0,0,0-3.59,1,3.34,3.34,0,0,0-1.12,5.06,4.38,4.38,0,0,0,3.57,1.79c1.37.09,2.74.13,4.24.2-.32.58-.58,1-.8,1.44a11,11,0,0,0-1.53,5.5c.08,1.45.79,2,2.23,1.84a4,4,0,0,0,3-2c.82-1.44,1.6-2.9,2.44-4.44a10.34,10.34,0,0,0,.88,1.43c1.13,1.34,2.23,2.71,3.47,3.94a2.07,2.07,0,0,0,2.56.41,1.83,1.83,0,0,0,.77-2.21c-.37-1.64-.9-3.23-1.29-4.57a40.67,40.67,0,0,0,4.38.51c1.32,0,1.83-.73,1.78-2.06A3.87,3.87,0,0,0,136.55,86c-1-.67-2.72-1.35-3.88-2.11A8.79,8.79,0,0,0,135.88,83.5Zm-5.76-15a.9.9,0,0,1,.48-.09h0c1,.1.73,2.66.46,3.52-.73,2.29-1.66,6.59-3,6.59h0C126.27,78.57,127.17,69.86,130.12,68.55Zm-10.61,9.24a4,4,0,0,1-1.25-2.32,9.65,9.65,0,0,1-.1-2.22c0-.68.47-.86.93-.76a1.89,1.89,0,0,1,.35.13,9.46,9.46,0,0,1,2.34,1.64c.53.57,1,1.17,1.54,1.76s1.08,1.28,1.61,1.93c.28.33.55.67.83,1l-.83.83-1.28,1.3c-.86-.67-1.76-1.34-2.65-2C120.49,78.63,120,78.22,119.51,77.79Zm.08,9.89-1.85-.11c-.75,0-1.51-.08-2.26-.15a2.5,2.5,0,0,1-.49-.11,2.07,2.07,0,0,1-1.43-1.89,1.59,1.59,0,0,1,0-.58,1.46,1.46,0,0,1,.46-.82,3.38,3.38,0,0,1,1.07-.6c2.43-.88,4.92-.47,7.48-.42h0c-.13.72-.26,1.4-.38,2.06-.17.9-.33,1.77-.51,2.72h0Zm.12,8.81c-.61-.19-.15-1.75.61-3.39a14.22,14.22,0,0,1,1.71-3l1.83,1.11C123.32,94,121.45,97.26,119.71,96.49ZM125,88.85h0c-.33.45-1.58.57-1.54-.53h0a16.72,16.72,0,0,1,.85-4.63c0-.05,0-.1,0-.15h0a6.29,6.29,0,0,1,.79-1.34l.27-.33a6.34,6.34,0,0,1,1.4-1.34,1,1,0,0,1,1-.12.86.86,0,0,1,.45.39,1,1,0,0,1,.12.73A16.32,16.32,0,0,1,125,88.85Zm7,7.4c-.47.22-1.2-.6-1.47-1-1.26-1.69-2.82-3.55-3.94-5.33-.22-.36-.26-1,.6-1.69.29.2.59.43.88.67l.39.32c.26.23.51.47.77.72v0C131.5,92.31,133.29,95.42,132,96.25Zm2.13-9.94c1.81,1.11,3,2.44,2.56,3.32-.77,1.34-7.45-1.73-8.42-2.72h0l.28-.67.75-1.83A13.21,13.21,0,0,1,134.08,86.31ZM130,82.39h0V79.83c2.25-.18,8.21-1.26,8.47.1.11,1.6-3.24,2-4.21,2.18h0C132.89,82.32,131.5,82.3,130,82.39Z"/><path class="b" d="M96.24,72.21l0-.09h0s0-.05,0-.08a3.05,3.05,0,0,0-1.83-1.7,6.67,6.67,0,0,0-1.7-.35h0a11.54,11.54,0,0,0-1.88,0c-.23,0-.46,0-.7.08a10.12,10.12,0,0,0-2.73,1.11c-2.06,1-4.12,2.09-6.2,3.13l-7,3.49a4.11,4.11,0,0,0-1-1.89l0,0-.06,0A9.27,9.27,0,0,0,70.13,74c-7-3.18-13.93-6.44-20.9-9.63-.14-.07-3-1.17-3.11-1.18l-.25-.09L45.41,63a21.91,21.91,0,0,0-2.57-.56,12.15,12.15,0,0,0-6.78.71c-1.87.79-3.74,1.56-5.62,2.34-4.94,2-9.89,4.06-14.84,6.11-1.14.47-2.27,1-3.41,1.44L9.07,74.36c-1.1.48-2.2,1-3.29,1.44a1.92,1.92,0,0,0-.76.72.8.8,0,0,0-.15.48,11.67,11.67,0,0,0,.36,1.32c.13.39.26.78.42,1.16s.21.54.33.81c.47,1.13,1,2.26,1.45,3.4L9,87.28l1.47,3.4a5.33,5.33,0,0,0,.52,1,.8.8,0,0,0,.89.33,6.93,6.93,0,0,0,1.06-.33l7.41-2.82,1.53-.58c2.5-1,5-1.92,7.49-2.9,2.95-1.16,5.66-1.66,8.71.12.75.43,1.51.83,2.27,1.22,3,1.51,6.14,2.76,9.13,4.28a32,32,0,0,0,5.78,2.22c1.26.36,2.53.64,3.81.89.85.16,1.69.31,2.55.44a19.42,19.42,0,0,0,11.25-1.34,18.64,18.64,0,0,0,4.27-2.75q1.83-1.56,3.74-3c2.67-2.09,5.4-4.1,8.07-6.18,1.61-1.25,3.22-2.52,4.8-3.81.49-.4,1-.8,1.48-1.21A3.44,3.44,0,0,0,96.24,72.21Zm-1.82,2.21v0a2.51,2.51,0,0,1-.29.51l0,0a12.86,12.86,0,0,1-2.35,2C88.18,79.78,84.58,82.5,81,85.27c-1.84,1.43-3.67,2.87-5.47,4.34-.47.38-.94.72-1.42,1a15.66,15.66,0,0,1-8.51,2.52A22.89,22.89,0,0,1,62.44,93c-.95-.12-1.89-.27-2.82-.44a36.44,36.44,0,0,1-9.26-2.94l-.66-.31c-2.29-1.15-4.64-2.19-7-3.27-1.42-.67-2.84-1.35-4.21-2.11h0c-.32-.18-.64-.33-1-.47l-.4-.16a4.56,4.56,0,0,0-.52-.18,9.48,9.48,0,0,0-1.24-.33h0c-.35-.06-.7-.1-1-.13h0a9.2,9.2,0,0,0-1.05,0h0a9.83,9.83,0,0,0-1.06.12h0q-.52.09-1.08.24h0l-.66.2c-.29.1-.59.2-.88.32L26.3,84.84c-2,.78-4,1.56-6,2.32l-1.36.52-3,1.16-2.55,1c-.38.15-.78.25-1.29.41h0c-.55-1.26-1.09-2.52-1.63-3.78q-1.87-4.31-3.74-8.65l-.2-.47.21-.11c.26-.14.51-.27.77-.38L16.64,73l11-4.55.24-.1,8.88-3.7A10.41,10.41,0,0,1,42.52,64a12.26,12.26,0,0,1,2.41.64c4.14,1.6,8.18,3.45,12.23,5.27,4.55,2,9.06,4.17,13.59,6.27h0l.54.28h0c1,.52,1,.82,1.18,1.71a.56.56,0,0,1-.29.48A3,3,0,0,1,71,79h0c-.4,0-.82.06-1.23.08a10,10,0,0,1-1.1,0,5.92,5.92,0,0,1-1.13-.16c-2.07-.52-4.13-1.06-6.2-1.59L56.19,76,50,74.34l-.13,0a.27.27,0,0,0-.12,0c-.14,0-.29-.06-.45-.1-.57-.13-1.17-.26-1.36.52h0a.69.69,0,0,0,.17.72,3.13,3.13,0,0,0,1.18.42l4.12,1.08L59,78.39l3.27.86,1.28.32h0l1,.26.35.09c.41.11.81.23,1.2.37s.69.22,1,.3l.3.06c.25,0,.49.09.74.12l.29,0a7.86,7.86,0,0,0,1,0h.12a7.93,7.93,0,0,0,.84-.07l.33,0,.64-.13.34-.08c.29-.08.59-.17.88-.27h0a16.94,16.94,0,0,0,2.07-.91l.39-.19c2.64-1.35,5.28-2.7,7.93-4l0,0h0c1.64-.81,3.29-1.61,5-2.38l.08,0c.21-.1.45-.17.67-.25h0a16.1,16.1,0,0,1,4.05-.66,1,1,0,0,1,.34,0l.07,0a1.5,1.5,0,0,1,.38.15h0a3,3,0,0,1,.38.24h0a2.41,2.41,0,0,1,.33.3h0l.12.16a1,1,0,0,1,.09.17,1.42,1.42,0,0,1,.05.47,3,3,0,0,1-.06.5h0A4,4,0,0,1,94.42,74.42Z"/></svg>