<svg xmlns="http://www.w3.org/2000/svg" viewBox="0 0 154.61 141.73"><defs><style>.a{fill:#6c8f6a;}.b{fill:#703c59;}.c{fill:none;}</style></defs><path class="a" d="M130.32,86.05c-.76-.37-1.44-.73-2.14-1.1s-1.63-.85-2.68-1.36c-1.23-.6-2-.66-2.87.69-1.14,1.9-2.32,3.76-3.52,5.66-9.46,14.94-21.15,25.54-35.74,32.42a2.27,2.27,0,0,0-1.16,1.92,58.48,58.48,0,0,0,1.19,6.26,2,2,0,0,0,.92,1.28,2.25,2.25,0,0,0,1.11.27,3.15,3.15,0,0,0,.84-.12l1.09-.3a34.91,34.91,0,0,0,4.15-1.3,74.12,74.12,0,0,0,30-22.33,75.78,75.78,0,0,0,11.19-18.15C133.45,88.2,133.21,87.45,130.32,86.05ZM120.87,105c-8,10.11-16.94,17.26-27.31,21.86-1.56.69-3.23,1.25-4.85,1.79-.8.27-1.6.53-2.4.82-.37.13-.51.11-.57.08s-.19-.15-.32-.61c-1.16-3.91-1.16-3.91,2.16-5.74l.38-.22a85.58,85.58,0,0,0,25.89-21.58c2.89-3.64,5.48-7.6,8-11.43.66-1,1.33-2,2-3,.36-.55.61-.77.92-.77a1.67,1.67,0,0,1,.75.27c.25.14.65.31,1.13.51,1.21.51,3.23,1.37,3.57,2.24a.58.58,0,0,1,0,.43A72.42,72.42,0,0,1,120.87,105Z"/><path class="b" d="M20.82,54.51a43.36,43.36,0,0,1,12.26-5.36c8.47-2.27,17-4.21,25.8-3.94,11.55.37,19.33,3.75,27.28,10.41-4.66,2.45-9.23,4.8-14.43,5.84-6.52,1.31-13.08,1.17-19.65,1.36-5.15.15-10.31.22-15.25-1.17A119.47,119.47,0,0,1,24,56.86a16.49,16.49,0,0,1-3.22-2.35"/><path class="a" d="M25.55,80c0,2,0,4,0,6,0,1.36,0,2.71.05,4.07,0,.32.69.79,1.14.91q2.93.8,5.85,1.53c1.1.28,2.2.56,3.31.82a20,20,0,0,0,2.05.36h0c.7.09,1.41.17,2.11.28h0c-.2-3.78-.39-7.3-.55-10.36l-5.38-1.39-5.12-1.33-3.5-.9Z"/><path class="a" d="M25.5,92.77c1.07,3.59,2,6.88,3.06,10.15a1,1,0,0,0,.3.4h0a1.07,1.07,0,0,0,.43.23l4.87,1,6.32,1.27,2.31.47h0c-.6-2.64-1.12-5-1.65-7.28-.2-.82-.39-1.63-.6-2.45a.64.64,0,0,0-.21-.28,2.19,2.19,0,0,0-.89-.44c-1.87-.37-3.77-.58-5.63-1L32,94.44l-2.44-.61c-1.29-.34-2.63-.69-4.1-1.06Z"/><path class="a" d="M43,94.16c3.85,0,7.69,0,11.6,0h0V84.73l-13.12-1.3h0c.24,3.47.46,6.76.75,10a.38.38,0,0,0,0,.12,1.17,1.17,0,0,0,.33.39A.79.79,0,0,0,43,94.16Z"/><path class="a" d="M12.74,85.09a32,32,0,0,0,4.69,2.7,28.9,28.9,0,0,0,2.81,1.13,30.39,30.39,0,0,0,3.47,1h0c0-3.32,0-6.49,0-9.65,0-.29,0-.58,0-.86s-.35-.58-.61-.71l-1.22-.58-6-2.85c-1-.47-2-.95-3.07-1.46h0c-.15,3.49-.32,7-.44,10.57a.55.55,0,0,0,.06.27A1.14,1.14,0,0,0,12.74,85.09Z"/><path class="a" d="M40.43,73.92c.07-1.09.06-1.58-.24-1.86s-.78-.34-1.73-.52c-3-.58-6-1.32-8.94-2l-1.06-.26C27.65,72.1,26.88,74.79,26,78h0l13.8,3.74C40,78.91,40.29,76.42,40.43,73.92Z"/><path class="a" d="M54.7,97c0-.21-.38-.51-.7-.65a.79.79,0,0,0-.31-.08c-3.6,0-7.21,0-11.22,0,.52,2.19.94,4.23,1.47,6.25.1.38.19.71.28,1,.75,2.73,1.12,2.77,4.6,3,2.07.16,4.15.29,6.42.45h0c-.15-3.07-.28-6-.46-8.8C54.75,97.8,54.73,97.4,54.7,97Z"/><path class="a" d="M26.17,103h0a8,8,0,0,0-.1-.93c-.23-1-.45-1.9-.68-2.85-.27-1.11-.55-2.21-.82-3.32-.24-1-.48-1.91-.74-2.86a1.22,1.22,0,0,0-.17-.37,2.54,2.54,0,0,0-1.05-.86c-.84-.34-1.7-.65-2.55-1l-1.55-.56c-.75-.27-1.49-.55-2.23-.85-1.3-.55-2.51-1.33-4-2.11h0c.1,1,.1,2,.21,2.86a5.84,5.84,0,0,0,.24,1.19c.26.79.55,1.56.84,2.34.63,1.6,1.31,3.19,2,4.78l.08.17a2.27,2.27,0,0,0,.19.34l.06.1,0,0a1,1,0,0,0,.43.38c2.13.79,4.28,1.55,6.49,2.32Z"/><path class="a" d="M56.69,96.18h0c.18,3.78.35,7.26.53,10.86h6.13l2.4,0a1.63,1.63,0,0,0,1-.52.43.43,0,0,0,.09-.16c.43-3.37.76-6.74,1.13-10.15Z"/><path class="a" d="M24.23,76.88h0c.69-2.39,1.3-4.66,2-6.9a1.46,1.46,0,0,0-.71-2,2.55,2.55,0,0,0-.33-.17c-.1,0-.19-.1-.29-.15a12.28,12.28,0,0,1-2.21-1.5c-.63-.51-1.25-1-1.88-1.57-1.22-1-2.45-2.07-3.73-3.15h0l-1.25,3.72-1,2.87-1.2,3.56c2.65,1.56,5.08,3.38,8,4.52A15.53,15.53,0,0,0,24.23,76.88Z"/><path class="a" d="M54.4,73.86l-4.15-.52-3.59-.45-4.09-.51h0c-.26,3-.51,6-.78,9.1L54.4,82.73h0Z"/><path class="a" d="M63.59,82.41c1.44-.09,2.89-.17,4.32-.28.36,0,.94-.77.93-1.17,0-.84-.08-1.68-.13-2.51-.11-1.79-.23-3.57-.34-5.26h0l-11.8,1v8.64l4.4-.23Z"/><path class="a" d="M44.41,109.49a3.17,3.17,0,0,0-.17-.37,2.36,2.36,0,0,0-2-1.26c-3.53-.5-7-1.15-10.54-1.74l-.48-.07-1.07-.16h0c.13.28.18.46.25.6a.6.6,0,0,0,.09.13q3.91,4.5,7.86,9a.28.28,0,0,0,.18.09l.24,0,8.92.91h0C46.51,114.11,45.38,111.83,44.41,109.49Z"/><path class="a" d="M57.21,109.13v7.61h0l1.35-.08c1.94-.12,3.85-.24,5.74-.4a1,1,0,0,0,.42-.2,1,1,0,0,0,.38-.49c.12-.53.23-1.06.35-1.6.21-1,.43-2,.63-3,.13-.61.25-1.23.38-1.85Z"/><path class="a" d="M27.59,105.61a1,1,0,0,0-.21-.25,3.21,3.21,0,0,0-1-.49l-1.87-.56c-2.25-.68-4.54-1.35-6.92-2h0a24.48,24.48,0,0,0,9.05,8.82A57.52,57.52,0,0,0,35,115h0a55.89,55.89,0,0,1-5.66-6.48A22.74,22.74,0,0,1,27.59,105.61Z"/><path class="a" d="M46.17,108.3a18.59,18.59,0,0,0,3.66,7.84,2.79,2.79,0,0,0,1.59.6l.4,0c.66,0,1.33,0,2,0h1.29V109l-9-.7Z"/><path class="a" d="M90.1,101.41c-3.13,1.56-6.27,3.11-9.38,4.73a3.44,3.44,0,0,0-1.43,1.37c-1.09,2.13-2.06,4.33-3.22,6.83,6.59-2.71,10.61-8,14.92-12.86l-.25-.34C90.53,101.23,90.31,101.3,90.1,101.41Z"/><path class="a" d="M77.17,107.15c-2.74.54-5.42,1.06-8.09,1.62a1.07,1.07,0,0,0-.67.66c-.44,2-.83,4.07-1.26,6.26,1.64-.22,3.07-.38,4.49-.62a6,6,0,0,0,1.7-.44l.12-.09c.3-.34.57-.69.83-1l.1-.14c.24-.34.47-.69.68-1h0A19.47,19.47,0,0,0,77.17,107.15Z"/><path class="a" d="M74.56,94.54l1.51.12h0c-1.76.29-3.49.58-5.2.89-.36.06-.91.44-.94.72-.14,1.26-.27,2.52-.4,3.8-.09.92-.18,1.86-.28,2.8-.12,1.33-.25,2.67-.38,4.09l5.63-1.22h0c.59-.13,2.07-.51,3.42-.88l.74-.21h0l.58-.17.17,0,.37-.11.13,0,.37-.13.69-.27,1-.39a59.26,59.26,0,0,0,6.78-3.58h0a13.87,13.87,0,0,0,5.9-5.41l.45-.69a41.39,41.39,0,0,0,4-9.41,50.75,50.75,0,0,1-5,3.3l-.18.1c-3.86,2.13-7.21,4-23.5,6.41l.28,0Z"/><path class="a" d="M142.48,58.34c-.13-.33-.24-.71-.37-1.1-.3-1-.72-2.32-1.33-2.6-.08,0-.33-.16-.92.08-3.86,1.54-9.23,4.14-14.43,6.66-5.65,2.74-11.5,5.57-15.73,7.21-2.24,1.13-4.46,2.28-6.6,3.38l-3.61,1.86L97.36,74.9c-8.94,4.5-16.81,7.93-26.23,9.18l-.29,0a.64.64,0,0,0-.21.1,1.2,1.2,0,0,0,0,.47c0,2.34,0,4.7,0,7,0,.83,0,1.66,0,2.49v0l.09,0c16.29-2.44,19.64-4.28,23.5-6.41l.18-.1a50.75,50.75,0,0,0,5-3.3L99.8,84c.8-.61,1.57-1.22,2.32-1.81a56.17,56.17,0,0,1,9.74-6.53c1.27-.66,2.54-1.41,3.76-2.14s2.39-1.41,3.63-2.06,2.22-1.08,3.31-1.57,1.93-.86,2.85-1.33c2.42-1.24,4.86-2.54,7.22-3.8l3-1.61,1.65-.87c1.57-.82,3.19-1.67,4.73-2.57C142.55,59.37,142.82,59.22,142.48,58.34Z"/><path class="a" d="M102.87,69.11c1.49-.62,3-1.26,4.7-1.87a5,5,0,0,0,1-.44c3.53-5.35,7.16-11.09,9.42-17.43.93-2.6,1.73-5.31,2.49-7.94.3-1,.61-2.06.92-3.09a.44.44,0,0,0,0-.1l-.16,0-1.15,0c-.51,0-1-.06-1.47-.06l-.55,0a.78.78,0,0,0-.36.19c-1.11,2.12-2.2,4.3-3.28,6.47l-1.39,2.76c-.77,1.52-1.51,3-2.25,4.57a105.57,105.57,0,0,1-8,14.53c-.84,1.19-1.72,2.38-2.58,3.54C101.13,69.83,102,69.46,102.87,69.11Z"/><path class="c" d="M63.27,71.29c5.44-.35,11-2.23,17.67-5.92a44.72,44.72,0,0,0,9.92-7.07A16.92,16.92,0,0,0,92,56.93l.38-.48-.07-.13c-.4.08-.81.14-1.22.19a8.41,8.41,0,0,0-2.92.75C81.91,60.71,75,64,67.31,64.49c-3.84.25-7.65.2-11.33.16-2.43,0-4.95-.06-7.48,0a56.31,56.31,0,0,1-13.64-1.34c-1.28-.29-2.55-.63-3.79-1a50.27,50.27,0,0,1-6.45-2.49c-1.61-.77-3.42-1.62-4.46-3s-2.38-1.5-4.05-1.37a1.54,1.54,0,0,1,.08.19,5.83,5.83,0,0,0,.56,1.09c4.4,6.23,9.1,9.72,14.77,11a148.87,148.87,0,0,0,15.73,2.88A92,92,0,0,0,63.27,71.29Z"/><path class="c" d="M52.41,36l1.65-.11c1.39-.08,2.74-.13,4.06-.13A42.36,42.36,0,0,1,84.3,44c.44.31.89.62,1.45,1l.21.14c-.06-.29-.11-.58-.17-.85-.21-1.13-.39-2.1-.64-3.06-.19-.69-.36-1.38-.52-2.08-.75-3.1-1.53-6.31-3.62-8.91-.38-.47-.78-.93-1.17-1.38s-.86-1-1.26-1.48a19.71,19.71,0,0,0-11.44-7.1c-5.12-1.15-10.38-.82-15.32-.38a39.46,39.46,0,0,0-11.44,2.59c-3.74,1.5-6.22,3.47-7.8,6.17-1.68,2.88-3.58,6.14-5.36,9.4-.56,1-1,2.16-1.54,3.35l-.38.89.16-.08C36.68,37,46.53,36.39,52.41,36Z"/><path class="c" d="M54.4,73.86l-4.15-.52-3.59-.45-4.09-.51h0c-.26,3-.51,6-.78,9.1L54.4,82.73h0Z"/><path class="c" d="M43,94.16c3.85,0,7.69,0,11.6,0h0V84.73l-13.12-1.3h0c.24,3.47.46,6.76.75,10a.38.38,0,0,0,0,.12,1.17,1.17,0,0,0,.33.39A.79.79,0,0,0,43,94.16Z"/><path class="c" d="M25.5,92.77c1.07,3.59,2,6.88,3.06,10.15a1,1,0,0,0,.3.4h0a1.07,1.07,0,0,0,.43.23l4.87,1,6.32,1.27,2.31.47h0c-.6-2.64-1.12-5-1.65-7.28-.2-.82-.39-1.63-.6-2.45a.64.64,0,0,0-.21-.28,2.19,2.19,0,0,0-.89-.44c-1.87-.37-3.77-.58-5.63-1L32,94.44l-2.44-.61c-1.29-.34-2.63-.69-4.1-1.06Z"/><path class="c" d="M24.23,76.88h0c.69-2.39,1.3-4.66,2-6.9a1.46,1.46,0,0,0-.71-2,2.55,2.55,0,0,0-.33-.17c-.1,0-.19-.1-.29-.15a12.28,12.28,0,0,1-2.21-1.5c-.63-.51-1.25-1-1.88-1.57-1.22-1-2.45-2.07-3.73-3.15h0l-1.25,3.72-1,2.87-1.2,3.56c2.65,1.56,5.08,3.38,8,4.52A15.53,15.53,0,0,0,24.23,76.88Z"/><path class="c" d="M22.13,55.1a8.61,8.61,0,0,0,2.05,1.42l2,.81a94.88,94.88,0,0,0,10.76,4c4.73,1.33,9.66,1.31,15.14,1.15l3.63-.08a90.69,90.69,0,0,0,16-1.26c5-1,9.52-3.29,13.83-5.55-8.19-6.73-15.94-9.63-26.63-10-9.14-.3-18,1.88-25.69,3.92a42.79,42.79,0,0,0-11.7,5C21.7,54.73,21.92,54.91,22.13,55.1Z"/><path class="c" d="M12.74,85.09a32,32,0,0,0,4.69,2.7,28.9,28.9,0,0,0,2.81,1.13,30.39,30.39,0,0,0,3.47,1h0c0-3.32,0-6.49,0-9.65,0-.29,0-.58,0-.86s-.35-.58-.61-.71l-1.22-.58-6-2.85c-1-.47-2-.95-3.07-1.46h0c-.15,3.49-.32,7-.44,10.57a.55.55,0,0,0,.06.27A1.14,1.14,0,0,0,12.74,85.09Z"/><path class="c" d="M19.07,51.5a13.36,13.36,0,0,1,.71-2.75l1-2.35c1.66-4,3.38-8.08,5.36-12a53.35,53.35,0,0,1,6.29-9.79c3.85-4.66,9.68-5.95,14.84-6.8a95.9,95.9,0,0,1,14.32-.93c6-.06,11.06,1.56,15,4.82S85.5,29.9,87,37.21c.14.68.29,1.36.43,2a44.17,44.17,0,0,1,1.42,11.58c0,.73,0,1.49,0,2.22,0,.22,0,.44,0,.66h4.7c-.13-2-.19-3.82-.2-6,.11-4.86-1.15-9.6-2.33-13.67a41.52,41.52,0,0,0-5-10l-.35-.56a15,15,0,0,0-6.78-6.27C70.73,13.5,61.57,12,50.05,12.52a27.87,27.87,0,0,0-7.17,1.08,43.47,43.47,0,0,0-12.34,6.87A31.11,31.11,0,0,0,24.8,26C21.09,30.69,19.53,36.5,18,42.11c-.65,2.44-1.19,4.87-1.76,7.43-.22,1-.44,2-.67,3h3.26C18.94,52.2,19,51.85,19.07,51.5Z"/><path class="c" d="M40.43,73.92c.07-1.09.06-1.58-.24-1.86s-.78-.34-1.73-.52c-3-.58-6-1.32-8.94-2l-1.06-.26C27.65,72.1,26.88,74.79,26,78h0l13.8,3.74C40,78.91,40.29,76.42,40.43,73.92Z"/><path class="c" d="M107.57,67.24a5,5,0,0,0,1-.44c3.53-5.35,7.16-11.09,9.42-17.43.93-2.6,1.73-5.31,2.49-7.94.3-1,.61-2.06.92-3.09a.44.44,0,0,0,0-.1l-.16,0-1.15,0c-.51,0-1-.06-1.47-.06l-.55,0a.78.78,0,0,0-.36.19c-1.11,2.12-2.2,4.3-3.28,6.47l-1.39,2.76c-.77,1.52-1.51,3-2.25,4.57a105.57,105.57,0,0,1-8,14.53c-.84,1.19-1.72,2.38-2.58,3.54.91-.36,1.79-.73,2.65-1.08C104.36,68.49,105.9,67.85,107.57,67.24Z"/><polygon class="c" points="96.68 72.48 96.38 71.55 96.68 72.48 96.68 72.48"/><path class="c" d="M96.82,72.93a.19.19,0,0,1,0-.08.19.19,0,0,0,0,.08Z"/><path class="c" d="M26.17,103h0a8,8,0,0,0-.1-.93c-.23-1-.45-1.9-.68-2.85-.27-1.11-.55-2.21-.82-3.32-.24-1-.48-1.91-.74-2.86a1.22,1.22,0,0,0-.17-.37,2.54,2.54,0,0,0-1.05-.86c-.84-.34-1.7-.65-2.55-1l-1.55-.56c-.75-.27-1.49-.55-2.23-.85-1.3-.55-2.51-1.33-4-2.11h0c.1,1,.1,2,.21,2.86a5.84,5.84,0,0,0,.24,1.19c.26.79.55,1.56.84,2.34.63,1.6,1.31,3.19,2,4.78l.08.17a2.27,2.27,0,0,0,.19.34l.06.1,0,0a1,1,0,0,0,.43.38c2.13.79,4.28,1.55,6.49,2.32Z"/><path class="c" d="M86.62,77.69h0l-.15-.47Z"/><path class="c" d="M25.55,80c0,2,0,4,0,6,0,1.36,0,2.71.05,4.07,0,.32.69.79,1.14.91q2.93.8,5.85,1.53c1.1.28,2.2.56,3.31.82a20,20,0,0,0,2.05.36h0c.7.09,1.41.17,2.11.28h0c-.2-3.78-.39-7.3-.55-10.36l-5.38-1.39-5.12-1.33-3.5-.9Z"/><path class="c" d="M84.48,78.55c0-.17-.09-.34-.14-.52,0,.18.09.35.14.52Z"/><path class="c" d="M22.21,50.07q-.15.54-.33,1.08l.05,0c3.74-2.35,8-3.49,11.71-4.51,7.25-2,15.07-3.75,23.36-3.75.65,0,1.31,0,2,0,7.71.27,13.72,1.69,18.91,4.48,2,1.09,4,2.33,6,3.53l2.24,1.38c.43-2.5-.35-4.14-2.69-5.72-8.54-5.78-17.13-8.38-26.2-7.94-2,.1-4,.26-5.93.41s-3.86.3-5.8.39c-6.38.32-12.79,2.23-20.17,6C23.3,46.45,22.79,48.13,22.21,50.07Z"/><path class="c" d="M77.17,107.15c-2.74.54-5.42,1.06-8.09,1.62a1.07,1.07,0,0,0-.67.66c-.44,2-.83,4.07-1.26,6.26,1.64-.22,3.07-.38,4.49-.62a6,6,0,0,0,1.7-.44l.12-.09c.3-.34.57-.69.83-1l.1-.14c.24-.34.47-.69.68-1h0A19.47,19.47,0,0,0,77.17,107.15Z"/><path class="c" d="M27.59,105.61a1,1,0,0,0-.21-.25,3.21,3.21,0,0,0-1-.49l-1.87-.56c-2.25-.68-4.54-1.35-6.92-2h0a24.48,24.48,0,0,0,9.05,8.82A57.52,57.52,0,0,0,35,115h0a55.89,55.89,0,0,1-5.66-6.48A22.74,22.74,0,0,1,27.59,105.61Z"/><path class="c" d="M90.1,101.41c-3.13,1.56-6.27,3.11-9.38,4.73a3.44,3.44,0,0,0-1.43,1.37c-1.09,2.13-2.06,4.33-3.22,6.83,6.59-2.71,10.61-8,14.92-12.86l-.25-.34C90.53,101.23,90.31,101.3,90.1,101.41Z"/><path class="c" d="M56.69,96.18h0c.18,3.78.35,7.26.53,10.86h6.13l2.4,0a1.63,1.63,0,0,0,1-.52.43.43,0,0,0,.09-.16c.43-3.37.76-6.74,1.13-10.15Z"/><path class="c" d="M95,89.55c-4.1,2.25-7.65,4.21-25.1,6.77-.15,1.24-.27,2.5-.4,3.76-.09.92-.18,1.86-.28,2.8-.12,1.33-.25,2.67-.38,4.09l5.63-1.22h0c.59-.13,2.07-.51,3.42-.88l.74-.21h0l.58-.17.17,0,.37-.11.13,0,.37-.13.69-.27,1-.39a59.26,59.26,0,0,0,6.78-3.58h0a13.87,13.87,0,0,0,5.9-5.41l.45-.69a35.3,35.3,0,0,0,3-6.18c-.88.59-1.82,1.19-2.87,1.81Z"/><path class="c" d="M142.11,57.24c-.3-1-.72-2.32-1.33-2.6-.08,0-.33-.16-.92.08-3.86,1.54-9.23,4.14-14.43,6.66-5.65,2.74-11.5,5.57-15.73,7.21-2.24,1.13-4.46,2.28-6.6,3.38C100,73.58,97,75.09,94.17,76.48l-.25.12c-2.08,1-4.12,1.94-6.15,2.79l-.25.1c-1,.42-2,.82-3,1.19l-.2.07c-2,.75-4.09,1.41-6.2,2l-.28.07q-1.56.41-3.18.72l-.14,0c-1.19.23-2.41.43-3.66.59a.64.64,0,0,0-.21.1,1.2,1.2,0,0,0,0,.47c0,2.34,0,4.7,0,7,0,.84,0,1.68,0,2.52v0c16.37-2.45,19.72-4.3,23.59-6.43l.18-.1a50.75,50.75,0,0,0,5-3.3h0L99.8,84c.8-.61,1.57-1.22,2.32-1.81a56.17,56.17,0,0,1,9.74-6.53c1.27-.66,2.54-1.41,3.76-2.14s2.39-1.41,3.63-2.06,2.22-1.08,3.31-1.57,1.93-.86,2.85-1.33c2.42-1.24,4.86-2.54,7.22-3.8l3-1.61,1.65-.87c1.57-.82,3.19-1.67,4.73-2.57.51-.29.78-.44.44-1.32C142.35,58,142.24,57.63,142.11,57.24Z"/><path class="c" d="M57.21,109.13v7.61h0l1.35-.08c1.94-.12,3.85-.24,5.74-.4a1,1,0,0,0,.42-.2,1,1,0,0,0,.38-.49c.12-.53.23-1.06.35-1.6.21-1,.43-2,.63-3,.13-.61.25-1.23.38-1.85Z"/><path class="c" d="M46.17,108.3a18.59,18.59,0,0,0,3.66,7.84,2.79,2.79,0,0,0,1.59.6l.4,0c.66,0,1.33,0,2,0h1.29V109l-9-.7Z"/><path class="c" d="M44.41,109.49a3.17,3.17,0,0,0-.17-.37,2.36,2.36,0,0,0-2-1.26c-3.53-.5-7-1.15-10.54-1.74l-.48-.07-1.07-.16h0c.13.28.18.46.25.6a.6.6,0,0,0,.09.13q3.91,4.5,7.86,9a.28.28,0,0,0,.18.09l.24,0,8.92.91h0C46.51,114.11,45.38,111.83,44.41,109.49Z"/><path class="c" d="M54.7,97c0-.21-.38-.51-.7-.65a.79.79,0,0,0-.31-.08c-3.6,0-7.21,0-11.22,0,.52,2.19.94,4.23,1.47,6.25.1.38.19.71.28,1,.75,2.73,1.12,2.77,4.6,3,2.07.16,4.15.29,6.42.45h0c-.15-3.07-.28-6-.46-8.8C54.75,97.8,54.73,97.4,54.7,97Z"/><path class="c" d="M63.59,82.41c1.44-.09,2.89-.17,4.32-.28.36,0,.94-.77.93-1.17,0-.84-.08-1.68-.13-2.51-.11-1.79-.23-3.57-.34-5.26h0l-11.8,1v8.64l4.4-.23Z"/><path class="c" d="M68.71,84.5a.34.34,0,0,0-.12-.12c-.35-.24-1-.19-2.26-.07-.25,0-.51,0-.76,0H56.7v9.83h5.88c1.58,0,3.13,0,4.69,0a1.06,1.06,0,0,0,.6-.36l0,0a2.47,2.47,0,0,0,.21-.27h0a1,1,0,0,0,.13-.31c.12-.94.23-1.89.33-2.83l.09-.88c.08-.91.16-1.82.21-2.73l0-.49h0c0-.9,0-1.42-.2-1.7Z"/><path class="a" d="M84.3,80.75l.2-.07Z"/><path class="a" d="M77.82,82.78l.28-.07Z"/><path class="a" d="M91,61.76c-.91.59-1.77,1.18-2.62,1.75-1.4.94-2.76,1.84-4.18,2.61-1.08.6-1.14,1-.78,2.07h0c.89,2.53,2.08,6.09,3,9l.15.47c3.33-1.37,6.68-3,10.2-4.76a.19.19,0,0,1,0-.08h0l-.11-.37-.3-.93-.56-1.72h0a1.29,1.29,0,0,0-.06-.21l0-.08c-1.57-2.66-3.19-5.27-4.73-7.78Z"/><path class="a" d="M74.5,83.53l.14,0Z"/><path class="a" d="M84.34,78h0c-.2-.73-.44-1.48-.48-1.66h0a28.68,28.68,0,0,0-2.26-7.52c-.1-.2-.19-.4-.29-.61l0,0h0c-3.55,1.38-7,2.7-10.4,4.06a.83.83,0,0,0-.43.65v.17c0,.84.07,1.69.11,2.55,0,.17,0,.35,0,.52,0,.85.08,1.7.12,2.58h0v.05c0,.12,0,.24,0,.36,0,.64.07,1.28.1,1.94l0,1h0v.06a59.83,59.83,0,0,0,13.59-3.54C84.43,78.38,84.39,78.21,84.34,78Z"/><path class="a" d="M93.92,76.6l.25-.12Z"/><path class="a" d="M87.52,79.49l.25-.1Z"/><path class="b" d="M144.35,57.63c-.11-.3-.22-.64-.33-1-.44-1.4-1-3.15-2.38-3.81a3.08,3.08,0,0,0-2.52,0c-3.92,1.56-9.33,4.19-14.56,6.72-4.43,2.15-9,4.35-12.78,6A76.87,76.87,0,0,0,119.9,50c.95-2.65,1.75-5.39,2.52-8,.3-1,.6-2.05.91-3.07a2.06,2.06,0,0,0-.21-1.89,2.13,2.13,0,0,0-1.78-.81c-.37,0-.73,0-1.09,0a21,21,0,0,0-2.25,0,2.6,2.6,0,0,0-2,1.23c-1.14,2.17-2.23,4.35-3.32,6.53l-1.39,2.76c-.77,1.53-1.51,3.06-2.26,4.6a104.32,104.32,0,0,1-7.87,14.25c-.92,1.31-1.89,2.62-2.84,3.89l-.11.15A24.86,24.86,0,0,0,95.14,64c-.61-.84-1.2-1.72-1.83-2.66-.23-.36-.48-.73-.74-1.11.22-.13.43-.25.63-.39,2.39-1.7,2.94-3.91,3-6.92,0-1.24,0-2.21,0-3.23,0-.58,0-1.19,0-1.9a55.25,55.25,0,0,0-2.73-15,34.69,34.69,0,0,0-8.94-15c-4.61-4.41-10.61-5.77-17.41-7-6.27-1.12-22-3-32.75,4l-.7.45c-.86.56-1.69,1.1-2.72,1.74a27.69,27.69,0,0,0-11,11.9A86.15,86.15,0,0,0,13,52.52a7,7,0,0,0,1.33,5.42,3.22,3.22,0,0,1,.32,3.41c-.31.92-.63,1.83-.95,2.75a70.67,70.67,0,0,0-3.06,10.51,50.7,50.7,0,0,0-.57,8.52c0,1.41,0,2.87-.1,4.28-.25,4.75,1.76,8.83,3.71,12.78l.46.92A27.81,27.81,0,0,0,28,114.55c.66.3,1.31.62,1.95.94a22,22,0,0,0,6.51,2.38,112.54,112.54,0,0,0,16.35,1.2,109.65,109.65,0,0,0,20.31-1.89L74,117c2.46-.45,5-.92,6.86-2.31a56.7,56.7,0,0,0,10-9.64,53.19,53.19,0,0,0,5.11-8.22c.53-1,1-1.94,1.6-2.89s3-6.23,4-8.81l1.85-1.45a53.3,53.3,0,0,1,9.41-6.33c1.32-.68,2.61-1.45,3.86-2.18s2.35-1.39,3.54-2c1-.55,2.13-1,3.2-1.51s2-.88,2.94-1.38c2.44-1.24,4.89-2.55,7.25-3.82l3-1.61,1.64-.86c1.59-.83,3.23-1.69,4.87-2.65A2.71,2.71,0,0,0,144.35,57.63Zm-41.55,9a105.57,105.57,0,0,0,8-14.53c.74-1.53,1.48-3,2.25-4.57l1.39-2.76c1.08-2.17,2.17-4.35,3.28-6.47a.78.78,0,0,1,.36-.19l.55,0c.47,0,1,0,1.47.06l1.15,0,.16,0a.44.44,0,0,1,0,.1c-.31,1-.62,2.06-.92,3.09-.76,2.63-1.56,5.34-2.49,7.94-2.26,6.34-5.89,12.08-9.42,17.43a5,5,0,0,1-1,.44c-1.67.61-3.21,1.25-4.7,1.87-.86.35-1.74.72-2.65,1.08C101.08,69,102,67.84,102.8,66.65Zm-7.07,2.89,0,.08a1.29,1.29,0,0,1,.06.21h0l.56,1.72.3.93h0l.11.37h0a.19.19,0,0,0,0,.08h0c-3.52,1.78-6.87,3.39-10.2,4.76h0l-.15-.47c-1-2.93-2.15-6.49-3-9h0c-.36-1-.3-1.47.78-2.07,1.42-.77,2.78-1.67,4.18-2.61.85-.57,1.71-1.16,2.62-1.75h0C92.54,64.27,94.16,66.88,95.73,69.54ZM70.89,82.09V82h0l0-1c0-.66-.07-1.3-.1-1.94,0-.12,0-.24,0-.36v-.05h0c0-.88-.08-1.73-.12-2.58,0-.17,0-.35,0-.52,0-.86-.07-1.71-.11-2.55v-.17a.83.83,0,0,1,.43-.65c3.42-1.36,6.85-2.68,10.4-4.06h0l0,0c.1.21.19.41.29.61a28.68,28.68,0,0,1,2.26,7.52h0c0,.18.28.93.48,1.66h0c0,.18.09.35.14.52h0A59.83,59.83,0,0,1,70.89,82.09ZM29.05,80.86l5.12,1.33,5.38,1.39c.16,3.06.35,6.58.55,10.36h0c-.7-.11-1.41-.19-2.11-.28h0a20,20,0,0,1-2.05-.36c-1.11-.26-2.21-.54-3.31-.82q-2.93-.73-5.85-1.53c-.45-.12-1.13-.59-1.14-.91,0-1.36,0-2.71-.05-4.07,0-2,0-4,0-6h0ZM26,78c.91-3.17,1.68-5.86,2.49-8.67l1.06.26c3,.67,5.95,1.41,8.94,2,.95.18,1.46.26,1.73.52s.31.77.24,1.86c-.14,2.5-.42,5-.66,7.78L26,78ZM29.6,93.83l2.44.61,1.79.42c1.86.41,3.76.62,5.63,1a2.19,2.19,0,0,1,.89.44.64.64,0,0,1,.21.28c.21.82.4,1.63.6,2.45.53,2.28,1.05,4.64,1.65,7.28h0l-2.31-.47-6.32-1.27-4.87-1a1.07,1.07,0,0,1-.43-.23h0a1,1,0,0,1-.3-.4c-1-3.27-2-6.56-3.06-10.15h0C27,93.14,28.31,93.49,29.6,93.83Zm12.65-.24a.38.38,0,0,1,0-.12c-.29-3.28-.51-6.57-.75-10h0l13.12,1.3v9.46h0c-3.91,0-7.75,0-11.6,0a.79.79,0,0,1-.39-.18A1.17,1.17,0,0,1,42.25,93.59Zm-.46-12.11c.27-3.13.52-6.06.78-9.1h0l4.09.51,3.59.45,4.15.52v8.87h0Zm5.46-10.91a148.87,148.87,0,0,1-15.73-2.88c-5.67-1.25-10.37-4.74-14.77-11a5.83,5.83,0,0,1-.56-1.09,1.54,1.54,0,0,0-.08-.19c1.67-.13,2.91-.14,4.05,1.37s2.85,2.23,4.46,3a50.27,50.27,0,0,0,6.45,2.49c1.24.38,2.51.72,3.79,1A56.31,56.31,0,0,0,48.5,64.65c2.53-.06,5,0,7.48,0,3.68,0,7.49.09,11.33-.16C75,64,81.91,60.71,88.2,57.26a8.41,8.41,0,0,1,2.92-.75c.41,0,.82-.11,1.22-.19l.07.13-.38.48a16.92,16.92,0,0,1-1.17,1.37,44.72,44.72,0,0,1-9.92,7.07c-6.62,3.69-12.23,5.57-17.67,5.92A92,92,0,0,1,47.25,70.57ZM25.3,45.43c7.38-3.78,13.79-5.69,20.17-6,1.94-.09,3.9-.25,5.8-.39s3.95-.31,5.93-.41c9.07-.44,17.66,2.16,26.2,7.94,2.34,1.58,3.12,3.22,2.69,5.72L83.85,50.9c-1.94-1.2-3.95-2.44-6-3.53-5.19-2.79-11.2-4.21-18.91-4.48-.65,0-1.31,0-2,0-8.29,0-16.11,1.79-23.36,3.75-3.74,1-8,2.16-11.71,4.51l-.05,0q.18-.54.33-1.08C22.79,48.13,23.3,46.45,25.3,45.43Zm0-3.1.38-.89c.5-1.19,1-2.31,1.54-3.35,1.78-3.26,3.68-6.52,5.36-9.4,1.58-2.7,4.06-4.67,7.8-6.17a39.46,39.46,0,0,1,11.44-2.59c4.94-.44,10.2-.77,15.32.38a19.71,19.71,0,0,1,11.44,7.1c.4.51.83,1,1.26,1.48s.79.91,1.17,1.38c2.09,2.6,2.87,5.81,3.62,8.91.16.7.33,1.39.52,2.08.25,1,.43,1.93.64,3.06.06.27.11.56.17.85L85.75,45c-.56-.37-1-.68-1.45-1a42.36,42.36,0,0,0-26.18-8.26c-1.32,0-2.67,0-4.06.13L52.41,36c-5.88.37-15.73,1-26.95,6.23Zm7.87,7.18c7.64-2,16.55-4.22,25.69-3.92,10.69.33,18.44,3.23,26.63,10-4.31,2.26-8.78,4.54-13.83,5.55a90.69,90.69,0,0,1-16,1.26l-3.63.08c-5.48.16-10.41.18-15.14-1.15a94.88,94.88,0,0,1-10.76-4l-2-.81a8.61,8.61,0,0,1-2.05-1.42c-.21-.19-.43-.37-.66-.55A42.79,42.79,0,0,1,33.17,49.51Zm-16.9,0c.57-2.56,1.11-5,1.76-7.43C19.53,36.5,21.09,30.69,24.8,26a31.11,31.11,0,0,1,5.74-5.52A43.47,43.47,0,0,1,42.88,13.6a27.87,27.87,0,0,1,7.17-1.08c11.52-.49,20.68,1,28.84,4.61a15,15,0,0,1,6.78,6.27L86,24a41.52,41.52,0,0,1,5,10c1.18,4.07,2.44,8.81,2.33,13.67,0,2.21.07,4.08.2,6h-4.7c0-.22,0-.44,0-.66,0-.73,0-1.49,0-2.22a44.17,44.17,0,0,0-1.42-11.58c-.14-.68-.29-1.36-.43-2-1.5-7.31-6.36-12.12-10.43-15.49s-9-4.88-15-4.82a95.9,95.9,0,0,0-14.32.93c-5.16.85-11,2.14-14.84,6.8a53.35,53.35,0,0,0-6.29,9.79c-2,3.9-3.7,8-5.36,12l-1,2.35a13.36,13.36,0,0,0-.71,2.75c-.07.35-.13.7-.21,1H15.6C15.83,51.54,16.05,50.54,16.27,49.54ZM14.87,68l1-2.87,1.25-3.72h0c1.28,1.08,2.51,2.13,3.73,3.15.63.53,1.25,1.06,1.88,1.57a12.28,12.28,0,0,0,2.21,1.5c.1.05.19.11.29.15a2.55,2.55,0,0,1,.33.17,1.46,1.46,0,0,1,.71,2c-.7,2.24-1.31,4.51-2,6.9h0a15.53,15.53,0,0,1-2.61-.8c-2.87-1.14-5.3-3-8-4.52Zm-2.1,5.78h0c1.05.51,2.07,1,3.07,1.46l6,2.85,1.22.58c.26.13.61.46.61.71s0,.57,0,.86c0,3.16,0,6.33,0,9.65h0a30.39,30.39,0,0,1-3.47-1,28.9,28.9,0,0,1-2.81-1.13,32,32,0,0,1-4.69-2.7,1.14,1.14,0,0,1-.35-.47.55.55,0,0,1-.06-.27C12.45,80.81,12.62,77.27,12.77,73.78ZM16,99.11l0,0-.06-.1a2.27,2.27,0,0,1-.19-.34l-.08-.17c-.66-1.59-1.34-3.18-2-4.78-.29-.78-.58-1.55-.84-2.34a5.84,5.84,0,0,1-.24-1.19c-.11-.88-.11-1.83-.21-2.86h0c1.44.78,2.65,1.56,4,2.11.74.3,1.48.58,2.23.85l1.55.56c.85.31,1.71.62,2.55,1a2.54,2.54,0,0,1,1.05.86,1.22,1.22,0,0,1,.17.37c.26.95.5,1.91.74,2.86.27,1.11.55,2.21.82,3.32.23,1,.45,1.9.68,2.85a8,8,0,0,1,.1.93h0l-3.3-1.16c-2.21-.77-4.36-1.53-6.49-2.32A1,1,0,0,1,16,99.11ZM35,115a57.52,57.52,0,0,1-8.39-3.94,24.48,24.48,0,0,1-9-8.82h0c2.38.7,4.67,1.37,6.92,2l1.87.56a3.21,3.21,0,0,1,1,.49,1,1,0,0,1,.21.25,22.74,22.74,0,0,0,1.76,2.93A55.89,55.89,0,0,0,35,115Zm3.74.72-.24,0a.28.28,0,0,1-.18-.09q-3.94-4.48-7.86-9a.6.6,0,0,1-.09-.13c-.07-.14-.12-.32-.25-.6h0l1.07.16.48.07c3.51.59,7,1.24,10.54,1.74a2.36,2.36,0,0,1,2,1.26,3.17,3.17,0,0,1,.17.37c1,2.34,2.1,4.62,3.26,7.16h0Zm16.39,1H53.85c-.7,0-1.37,0-2,0l-.4,0a2.79,2.79,0,0,1-1.59-.6,18.59,18.59,0,0,1-3.66-7.84h0l9,.7Zm.1-9.77c-2.27-.16-4.35-.29-6.42-.45-3.48-.27-3.85-.31-4.6-3-.09-.31-.18-.64-.28-1-.53-2-.95-4.06-1.47-6.25,4,0,7.62,0,11.22,0a.79.79,0,0,1,.31.08c.32.14.68.44.7.65,0,.4,0,.8.08,1.2.18,2.85.31,5.73.46,8.8Zm1.33-32.85,11.8-1h0c.11,1.69.23,3.47.34,5.26.05.83.1,1.67.13,2.51,0,.4-.57,1.15-.93,1.17-1.43.11-2.88.19-4.32.28L61,82.56l-4.4.23Zm12.34,12h0l0,.49c0,.91-.13,1.82-.21,2.73l-.09.88c-.1.94-.21,1.89-.33,2.83a1,1,0,0,1-.13.31h0a2.47,2.47,0,0,1-.21.27l0,0a1.06,1.06,0,0,1-.6.36c-1.56,0-3.11,0-4.69,0H56.7V84.36h8.87c.25,0,.51,0,.76,0,1.24-.12,1.91-.17,2.26.07a.34.34,0,0,1,.12.12h0C68.93,84.78,69,85.3,68.91,86.2ZM66.08,111c-.2,1-.42,2-.63,3-.12.54-.23,1.07-.35,1.6a1,1,0,0,1-.38.49,1,1,0,0,1-.42.2c-1.89.16-3.8.28-5.74.4l-1.35.08h0v-7.61h9.25C66.33,109.75,66.21,110.37,66.08,111Zm.66-4.49a1.63,1.63,0,0,1-1,.52l-2.4,0H57.22c-.18-3.6-.35-7.08-.53-10.86H68c-.37,3.41-.7,6.78-1.13,10.15A.43.43,0,0,1,66.74,106.49Zm8.33,5.83c-.21.35-.44.7-.68,1l-.1.14c-.26.35-.53.7-.83,1l-.12.09a6,6,0,0,1-1.7.44c-1.42.24-2.85.4-4.49.62.43-2.19.82-4.23,1.26-6.26a1.07,1.07,0,0,1,.67-.66c2.67-.56,5.35-1.08,8.09-1.62a19.47,19.47,0,0,1-2.1,5.17h0Zm1,2c1.16-2.5,2.13-4.7,3.22-6.83a3.44,3.44,0,0,1,1.43-1.37c3.11-1.62,6.25-3.17,9.38-4.73.21-.11.43-.18.64-.27l.25.34C86.68,106.38,82.66,111.63,76.07,114.34ZM95.16,93.8l-.45.69a13.87,13.87,0,0,1-5.9,5.41h0A59.26,59.26,0,0,1,82,103.49l-1,.39-.69.27-.37.13-.13,0-.37.11-.17,0-.58.17h0l-.74.21c-1.35.37-2.83.75-3.42.88h0L68.87,107c.13-1.42.26-2.76.38-4.09.1-.94.19-1.88.28-2.8.13-1.26.25-2.52.4-3.76,17.45-2.56,21-4.52,25.1-6.77l.21-.12c1.05-.62,2-1.22,2.87-1.81A35.3,35.3,0,0,1,95.16,93.8ZM142,59.66c-1.54.9-3.16,1.75-4.73,2.57l-1.65.87-3,1.61c-2.36,1.26-4.8,2.56-7.22,3.8-.92.47-1.9.91-2.85,1.33s-2.22,1-3.31,1.57-2.45,1.37-3.63,2.06-2.49,1.48-3.76,2.14a56.17,56.17,0,0,0-9.74,6.53c-.75.59-1.52,1.2-2.32,1.81l-.59.44h0a50.75,50.75,0,0,1-5,3.3l-.18.1c-3.87,2.13-7.22,4-23.59,6.43v0c0-.84,0-1.68,0-2.52,0-2.29.08-4.65,0-7a1.2,1.2,0,0,1,0-.47.64.64,0,0,1,.21-.1c1.25-.16,2.47-.36,3.66-.59l.14,0q1.62-.31,3.18-.72l.28-.07c2.11-.55,4.16-1.21,6.2-2l.2-.07c1-.37,2-.77,3-1.19l.25-.1c2-.85,4.07-1.78,6.15-2.79l.25-.12C97,75.09,100,73.58,103.1,72c2.14-1.1,4.36-2.25,6.6-3.38,4.23-1.64,10.08-4.47,15.73-7.21,5.2-2.52,10.57-5.12,14.43-6.66.59-.24.84-.12.92-.08.61.28,1,1.62,1.33,2.6.13.39.24.77.37,1.1C142.82,59.22,142.55,59.37,142,59.66Z"/><path class="a" d="M66.33,84.31c-.25,0-.51,0-.76,0H56.7v9.83h5.88c1.58,0,3.13,0,4.69,0a1.06,1.06,0,0,0,.6-.36l0,0a2.47,2.47,0,0,0,.21-.27h0a1,1,0,0,0,.13-.31c.12-.94.23-1.89.33-2.83l.09-.88c.08-.91.16-1.82.21-2.73C69,84.07,69,84.06,66.33,84.31Z"/></svg>