<svg xmlns="http://www.w3.org/2000/svg" viewBox="0 0 141.73 141.73"><defs><style>.a{fill:#703c59;}.b{fill:#6c8f6a;}</style></defs><path class="a" d="M59.85,129.42l-.34-16c-.35-16.3-.71-33.15-1.09-49.72-.09-3.59-.3-6.83-.66-9.9-.56-4.87-3.52-7.41-8.28-7.14-.72,0-1.42,0-2.23,0h-1a28.43,28.43,0,0,0-.2-4.15c-.24-2.43-.47-4.72.38-7a3.6,3.6,0,0,0,.21-1.05c.34-3.9-.08-5.92-3.43-7.6a9.8,9.8,0,0,0-8.11-.25,5.59,5.59,0,0,0-3,2.78,7.08,7.08,0,0,0-.51,5.76c.07.23.15.45.23.68a7.11,7.11,0,0,1,.56,2.37c0,1.88-.18,3.8-.34,5.65-.05.69-.11,1.38-.16,2.08,0,.29-.06.59-.1.91l0,.26H31c-.69,0-1.33,0-2,0a6.84,6.84,0,0,0-5.29,1.79,5.58,5.58,0,0,0-1.5,4.42c.07,1.1,0,2.22,0,3.31,0,.76,0,1.55,0,2.32q.3,18.95.62,37.88l.33,19.41c.07,4.32.15,8.8.19,13.2,0,1.42.62,2.09,2,2.15.27,0,.54.06.82.1a7.18,7.18,0,0,0,1.05.11q12.66.06,25.33.09l4.92,0h.18c.94,0,1.54,0,1.89-.39S59.87,130.45,59.85,129.42ZM34.31,39.56h9.43l.45,7.23H34ZM54.73,89.39c-.06,3.84-.3,7.73-.53,11.49l-.17,3a34.17,34.17,0,0,1-.51,3.8,3.2,3.2,0,0,1-3.2,2.86H49.1c-3.54,0-10.78-.15-14.1-.22l-1.13,0a4.37,4.37,0,0,1-4.68-3.63,15,15,0,0,1-.54-3.37c-.35-7.91-.64-15.7-.91-22.94a10,10,0,0,1,.2-2.29c.52-2.68,2-3.91,4.81-4,5.45-.11,10.37-.25,15-.41,3.95-.14,5.9,1.45,6.41,5.13A68.42,68.42,0,0,1,54.73,89.39Z"/><path class="b" d="M52.71,79C52.3,76,51,75.05,47.83,75.15c-4.67.16-9.59.3-15,.41-2.1,0-3,.77-3.37,2.76a8.77,8.77,0,0,0-.17,2c.27,7.23.56,15,.9,22.92a13.77,13.77,0,0,0,.5,3c.51,1.85,1.33,2.49,3.26,2.53l1.13,0c3.76.08,12.58.27,15.26.21A1.7,1.7,0,0,0,52,107.37a30.22,30.22,0,0,0,.49-3.63l.17-2.95c.23-3.74.47-7.62.53-11.42A68,68,0,0,0,52.71,79Zm-6.08,13.3c-1.2,3.1-4,5.43-6.91,7a.8.8,0,0,1-.25.49,1.58,1.58,0,0,1-.11.37,10,10,0,0,1-3.91,4.12,1,1,0,0,1-1-1.73c.19-.11.38-.22.56-.34l.27-.19.09-.07h0a8.27,8.27,0,0,0,.92-.85c.15-.16.3-.32.44-.49l.05-.08h0l.19-.27a9.34,9.34,0,0,0,.65-1.1s0,0,0,0c-1.11-3.51-2-7.36-.61-10.91s5-5.31,8.38-6.91a1,1,0,0,1,1.47.59A15.85,15.85,0,0,1,46.63,92.29Z"/><path class="b" d="M38.89,89c-1,2.72-.48,5.59.31,8.31,2.33-1.33,4.69-3.24,5.61-5.8a14.29,14.29,0,0,0,.49-7.94C42.71,84.74,39.91,86.16,38.89,89Z"/><path class="a" d="M62.65,18.33a1.33,1.33,0,0,0-1.24-.83,1,1,0,0,0-.86.17A1.71,1.71,0,0,0,60.21,19v.33A14.4,14.4,0,0,1,59.85,22c-.14.61-.28,1.21-.41,1.82C58.22,29.11,57,34.64,54.13,39.54,53.07,41.38,52,43.38,50.66,46a2.67,2.67,0,0,0-.09,1.65c0,.22.29.37.49.46a1.31,1.31,0,0,0,.48.12.46.46,0,0,0,.23-.06A3.45,3.45,0,0,0,53.09,47l.49-.89c1.51-2.81,3.07-5.7,4.47-8.62,2.43-5,3.41-10.55,4.35-15.89l.23-1.27v0A5.1,5.1,0,0,0,62.65,18.33Z"/><path class="a" d="M79,106.42c-5.31-2.58-9.54-6.43-14.12-10.82a29.52,29.52,0,0,1-3.25-4c-.56-.77-1.13-1.56-1.74-2.3a2,2,0,0,0-1.49-.71c-.32,0-.53.36-.8.77-.11.17-.23.36-.37.54l-.12.14.11.16c.3.45.59.92.87,1.38a12.84,12.84,0,0,0,2,2.78c4.42,4.21,8.41,7.82,12.21,11A22.72,22.72,0,0,0,77,108.22l.84.43A2.9,2.9,0,0,0,79,109a1.08,1.08,0,0,0,.4-.06,1,1,0,0,0,.59-.63C80.28,107.53,79.94,106.86,79,106.42Z"/><path class="a" d="M116.2,67.32a14,14,0,0,1-1.55-1.89,4,4,0,0,1-.73-3.6c.71-2.48.13-4.43-1.73-5.79-2.53-1.85-2.61-2.28-1-5.12a3.66,3.66,0,0,0-3-5.71l-1-.09c-.88-.09-1.8-.18-2.7-.19-4.12-.06-6.69-1.94-7.88-5.73-.14-.44-.31-.88-.48-1.31-.07-.16-.14-.32-.2-.49-.27-.7-.53-1.4-.79-2.1-.57-1.53-1.16-3.11-1.86-4.61C89,21.25,82.09,15.88,72.31,14.27c-.09-.64-.2-1.34-.31-2l-.17-1.1c-.07-.53-.18-1.32-1.31-1.25-1.36.15-1.29.85-1.24,1.41a1.79,1.79,0,0,1,0,.23c0,.6.09,1.21.16,1.76a47.64,47.64,0,0,1-.62,17.45c-.56,2.3-1.16,4.63-1.75,6.89-.86,3.33-1.76,6.77-2.51,10.18-1,4.39-1.85,9.6-1.07,15l.07.47c.51,3.53,1,7.18,4.06,9.81l1.64,1.46c1.12,1,2.28,2,3.46,3s2.57,2.06,3.86,3.09A154.28,154.28,0,0,1,91.27,93.34c5.47,5.62,6.1,12,1.8,18.35l-.3.42a7.39,7.39,0,0,0-1,1.63l0,.1a1.15,1.15,0,0,0,.38,1.63,1.2,1.2,0,0,0,.65.2,1.45,1.45,0,0,0,1.09-.61c2.76-3.58,4.16-6.68,4.54-10,.43-3.77-.61-7.26-3.37-11.33a1.49,1.49,0,0,1-.22-1.06c1.51-2,3-3.92,5.35-4.94l1.68-.76a40.32,40.32,0,0,1,9.22-3.32c4.16-.78,7-3.16,8.07-6.69C120.16,73.62,119.19,70.48,116.2,67.32Zm.64,8.72c-.9,3.08-3.57,4.55-6.51,5.07-4.69.81-8.83,2.89-12.85,5.22-1.55.89-2.66,2.54-4,3.85-.27.27-.53.56-.82.88a5.16,5.16,0,0,1-.63-.47C86.67,84.91,80.3,80.38,74.27,75.45c-1.7-1.4-3.31-2.91-5-4.34-2.23-1.9-2.77-4.53-3.19-7.22a40.54,40.54,0,0,1,.74-15.48c1.18-5.13,2.43-10.26,3.83-15.34a45.94,45.94,0,0,0,1.6-12.49V16.49a24.35,24.35,0,0,1,3.26.61c7.8,2.58,13,7.88,16.13,15.42,1.08,2.63,2.08,5.29,3.08,7.95,1.54,4.1,4.43,6.33,8.85,6.51,1.32.05,2.63.2,4,.3,1.85.14,2.32,1,1.35,2.61-1.9,3.07-1.53,5.25,1.24,7.4,1.73,1.34,2.19,2.61,1.19,4.54a18.12,18.12,0,0,1-2.62,3.29c-.52.6-1.56,1.1-.81,2s1.56.08,2.24-.44,1.11-.93,1.62-1.36a39.42,39.42,0,0,0,2.61,3.25C116.41,70.7,117.69,73.15,116.84,76Z"/><path class="a" d="M85.69,31.36a.89.89,0,0,0-.49-.58,2,2,0,0,0-1.44,0c-6.14,2.36-10.38,5.79-13,10.48-.27.48-.62,1.19-.86,1.72s.22,1.21.77,1.52a1.11,1.11,0,0,0,.56.16.93.93,0,0,0,.78-.44l.4-.51.19-.25.06-.07c.43-.58.83-1.19,1.23-1.79A15.33,15.33,0,0,1,76.82,38a36.63,36.63,0,0,1,5-3.24c1-.54,1.93-1.1,2.86-1.69C85.11,32.8,85.9,32.3,85.69,31.36Z"/><path class="a" d="M102.08,60.56a5.62,5.62,0,0,0-3.53-3.67c-2-.66-5.11-1.35-8,.33a44,44,0,0,0-3.93,2.6c-2.37,1.73-3.58,4.26-3.7,7.74h0a10.49,10.49,0,0,0,2.54,6.29c2,2.51,4.72,4,7.59,5.34a6.73,6.73,0,0,0,2.86.75,3.68,3.68,0,0,0,1.92-.51c1.36-.82,2.23-2.65,2.32-4.91a6.59,6.59,0,0,0-.29-2A8,8,0,0,1,101.17,65,4.77,4.77,0,0,0,102.08,60.56Z"/><path class="a" d="M89.07,46.68A7.54,7.54,0,0,0,91.69,45a2,2,0,0,0,.64-1.57,1.32,1.32,0,0,0-.59-1c-1.66-1.11-3.18-1.2-4.4-.25a1.05,1.05,0,0,1-.26.16c0-1.55-.4-3-2.09-3.43s-2.16.78-2.64,1.75c0,.12-.11.23-.17.35l-.12-.08c-.21-.13-.4-.25-.58-.38a2.25,2.25,0,0,0-3.25.29C77.11,42,77.6,43.17,78,44.15c.11.27.09.37.08.4s-.16.12-.39.19a14.33,14.33,0,0,0-2.22.87,2,2,0,0,0-1.28,2.23c.29,1.59.91,2.24,2.28,2.39.71.08,1.43.17,2.14.28.11,0,.26.05.3.12s0,.16,0,.43a5.65,5.65,0,0,0-.21,2.21A2.25,2.25,0,0,0,80,55.15a1.64,1.64,0,0,0,.65.13,2.36,2.36,0,0,0,1.44-.55A10.22,10.22,0,0,0,83.66,53a15.76,15.76,0,0,1,1.15-1.37c.22.21.55.5.81.72,1.19,1,2.21,1.34,3.34,0a3.61,3.61,0,0,0-.23-4.7,2.82,2.82,0,0,1-.41-.61A2.48,2.48,0,0,1,89,46.7Zm-5-6.15a.33.33,0,0,1,.23-.11h0a1.11,1.11,0,0,1,.69.6,2.08,2.08,0,0,1-.22,2.24.5.5,0,0,1-.38.18,1,1,0,0,1-.58-.42A2.41,2.41,0,0,1,84.11,40.53Zm-4.42,7.55c-.08.16-.12.25-.36.28a26.8,26.8,0,0,1-2.75.13h0c-.44,0-.65-.42-.69-.77a1,1,0,0,1,.63-1.14l.72-.18a6.23,6.23,0,0,1,1.16-.25,1.38,1.38,0,0,1,1.27.5A1.44,1.44,0,0,1,79.69,48.08Zm-.34-5.24a.64.64,0,0,1-.14-.54,1,1,0,0,1,.45-.64.44.44,0,0,1,.26-.08,1.33,1.33,0,0,1,.6.24l.1,0a1.77,1.77,0,0,1,.64.67h0c.36.61.49,1,.42,1.24s-.1.24-.43.4-.3.13-.43.05A6.11,6.11,0,0,1,79.35,42.84Zm3.38,8.53-.22.36a13.7,13.7,0,0,1-1.05,1.49.74.74,0,0,1-.48.3c-.16,0-.35-.17-.54-.47a3,3,0,0,1,0-2.21c.14-.35.33-.57.52-.61a5.28,5.28,0,0,1,1.16-.13,1.5,1.5,0,0,1,.88.18.14.14,0,0,1,0,.14A3,3,0,0,1,82.73,51.37Zm.79-2.78c-.68.38-1.31.12-1.83-.78a2.09,2.09,0,0,1,.66-2.74A1.81,1.81,0,0,1,85,46C85.3,46.58,84.46,48.07,83.52,48.59ZM88.1,51a.73.73,0,0,1-1.28.35c-.3-.28-.57-.58-.85-.88-1.19-1.31-1.2-1.32-.07-2.67a.8.8,0,0,1,.75-.06C88.54,49.26,88.35,50.27,88.1,51Zm-1.37-5.09c-.09-.08-.61-.54-.5-.91a3.16,3.16,0,0,1,2.53-2,1.58,1.58,0,0,1,.81,0,1.85,1.85,0,0,1,.94.8c.09.24-.31.76-.63,1C88.83,45.71,87.23,46.32,86.73,45.89Z"/><path class="b" d="M43,37.52c.37,0,1-.76,1-1.08a24.53,24.53,0,0,0,.61-5,3.92,3.92,0,0,0-1.36-2.47c-1.6-1.42-3.62-1.54-5.67-1.33a4.91,4.91,0,0,0-4.43,6.31c.23.92.61,1.82.82,2.75.16.74.56.88,1.24.85,1.25-.06,6.44.09,7.77,0"/></svg>