<svg xmlns="http://www.w3.org/2000/svg" viewBox="0 0 245.2 141.73"><defs><style>.a{fill:#6c8f6a;}.b{fill:#703c59;}</style></defs><path class="a" d="M165.23,75c-.23.51-.4.87-.55,1.24l-9.4,22.68q-3.54,8.55-7,17.1a1.64,1.64,0,0,0,.16,1.44,22.86,22.86,0,0,0,2.83,1.75c1.27-2.3,2.48-4.49,3.68-6.69.82-1.49,1.17-1.62,2.68-1,5.84,2.59,11.66,5.21,17.52,7.77a1.89,1.89,0,0,1,1.32,2.06c-.08,1.89-.1,3.78-.16,5.67-.09,2.55,0,2.61,2.56,2.66.08,0,.16-.06.39-.15q4-20.77,8-41.5a1.52,1.52,0,0,0-1-2c-6-3.16-12-6.38-18-9.57C167.24,76,166.26,75.49,165.23,75Zm15.35,24.3h0a5.14,5.14,0,0,1-1.63.13c-.38,0-.78,0-1.13-.08a.74.74,0,0,1-.84-.57,1,1,0,0,1,0-.35v0a.92.92,0,0,1,.1-.44c.3-.73,1.25-.56,2.12-.51a5.7,5.7,0,0,1,1.32.1h.08c.39.13,1,.35,1,.84S181,99.12,180.58,99.25ZM177.84,106a21.67,21.67,0,0,1-2.54-2c-.19-.17-.53-.65.26-1.24.94-.58,2.5,1,3.42,2,.3.31.24.7-.15,1.1A.82.82,0,0,1,177.84,106ZM166.71,93c.19.27.42.89,0,1.21a.92.92,0,0,1-1.19-.06,13,13,0,0,1-1.35-1.43,8.83,8.83,0,0,1-.64-.87h0a1.06,1.06,0,0,1,.25-1.61h0c.5-.28.81.28.95.42h0a23,23,0,0,1,2,2.33Zm-.85,13.65a3.19,3.19,0,0,1,.93-1.11c.55-.46,1.42.19,1.19,1.06a9.52,9.52,0,0,1-.83,2.25.78.78,0,0,1-.26.25,1.11,1.11,0,0,1-.81.26h0c-.27-.08-.63-.26-.63-1a4.44,4.44,0,0,1,.41-1.75ZM159.4,98a18.44,18.44,0,0,1,3.32-.37.8.8,0,0,1,.9.69.78.78,0,0,1-.65.95c-.91.21-1.83.4-2.53.54s-1.91.34-1.91-.88C158.53,98.43,158.62,98.13,159.4,98Zm1.07,7.81h0a.91.91,0,0,1-.63-1.69h0a30.42,30.42,0,0,1,2.84-1.32c.24-.1.46-.21.7-.29a1,1,0,0,1,1.18.21.75.75,0,0,1-.23,1.11c-.65.37-1.26.69-1.88,1Zm11.2.68a1.07,1.07,0,0,1,.9-.47.81.81,0,0,1,.79.7,14.11,14.11,0,0,1,.44,2.9.81.81,0,0,1-.67,1c-.61.15-.85-.32-1-.63a9.5,9.5,0,0,1-.54-2.11A2.38,2.38,0,0,1,171.67,106.46Zm3.39-12a1,1,0,0,1,.3-1,31.24,31.24,0,0,1,3.09-1.86l.15,0a1,1,0,0,1,.78.17h0c.36.46.27.92.11,1.05-1.11.87-2,1.42-3.17,2.25C175.78,95.38,175.32,95,175.06,94.5Zm-.2,2.6a3.59,3.59,0,0,1,.2,1.48,7.39,7.39,0,0,1-1.66,4.74l-.09.11-.18.16-.18.16-.1.07a3.86,3.86,0,0,1-2.57.76,4.86,4.86,0,0,1-3.52-1.46,3.75,3.75,0,0,1-.88-2.71c.13-3.06,2.22-5.58,4.51-5.41.56,0,1,.12,1.49.2C173.51,95.51,174.47,96.1,174.86,97.1Zm-3.38-4.56a.37.37,0,0,1-.25.09c-.51,0-.73-.24-.82-.54a4.13,4.13,0,0,1-.09-2.43,1.59,1.59,0,0,1,.07-.38h0c.1-.41.38-1,.82-1h0c.5,0,.74.38.94.74C172.8,90.16,172.23,92.16,171.48,92.54Z"/><path class="a" d="M170.47,97c-1.66-.08-2.68,1.17-2.75,3.39-.05,1.52.8,2.29,2.59,2.36s2.77-1.45,2.91-4.11C173.28,97.39,172.8,97.1,170.47,97Z"/><path class="a" d="M79.08,79.75h.72c1.74,0,1.75,0,2.33-1.45.09-.25.2-.52.33-.84,1.49-3.67,2.81-7.3,2.6-11.24-.1-1.88-.23-3.76-.37-5.64-.06-.73-.11-1.45-.16-2.17l0,0-.44.23a7,7,0,0,0-1.23.71,9.92,9.92,0,0,0-4,8.35c0,2.09.06,4.19.09,6.28,0,1.64,0,3.28.07,4.92A8.55,8.55,0,0,0,79.08,79.75Z"/><path class="a" d="M88.4,66.37a2.3,2.3,0,0,0-.36,1l-.05.24c-.2.87-.39,1.75-.57,2.62-.34,1.6-.69,3.25-1.12,4.87-.27,1-.63,2-1,2.93,2.33-3,5-5.83,7.54-8.56S98,64,100.43,60.91A15.9,15.9,0,0,0,88.4,66.37Z"/><path class="a" d="M88,79.34a8.61,8.61,0,0,0,5.6-1.9,11.76,11.76,0,0,0,4.6-7.22h0c-.93-.33-1.52-.5-2,.05-2.49,2.6-4.94,5.31-7.31,7.94A8.59,8.59,0,0,0,88,79.34Z"/><path class="a" d="M142.68,34.33c-.3,1.4.07,1.86,1.44,1.46,2.57-.75,5.09-1.68,7.25-2.41l-6.85-7.08C143.91,29,143.27,31.64,142.68,34.33Z"/><path class="a" d="M172.26,49.79a7.84,7.84,0,0,0,1.18,1.89,1.4,1.4,0,0,0,2.46.14c2-2.22,4-4.47,6.13-6.89l-12.47-3.07C170.47,44.57,171.32,47.19,172.26,49.79Z"/><path class="a" d="M211.78,52.67c-1.6,3.19-3.46,3.86-6.48,1.95a59.28,59.28,0,0,1-5.91-4.77c-.71-.59-1.35-1.27-2.21-2.09-1.43,2.34-2.79,4.56-4.16,6.77a24.51,24.51,0,0,1-1.84,2.83c-1.39,1.69-3.17,1.77-4.53,0a20.91,20.91,0,0,1-2.55-4.49c-.75-1.7-1.23-3.51-1.87-5.4-.75.91-1.46,1.78-2.18,2.63s-1.4,1.65-2.16,2.42c-2.74,2.76-4.77,2.62-6.7-.79a44.22,44.22,0,0,1-2.39-6.28c-.41-1.09-.85-2.17-1.36-3.49-1.73,1.16-3.35,2.23-5,3.32-1,.71-2.08,1.46-3.15,2.14-1.35.86-2.27.7-3-.7a19.11,19.11,0,0,1-1.44-3.65c-.8-2.62-1.5-5.27-2.29-8.09-.61.2-1.61.51-2.6.85-1.46.49-2.92,1-4.39,1.5a7.13,7.13,0,0,1-1.92.39c-2.48.08-3.41-1-2.91-3.35.69-3.3,1.53-6.57,2.24-9.87a2.57,2.57,0,0,0-.23-1.54c-1-2-2.23-3.94-3.11-6a25.31,25.31,0,0,1-1.22-3.5l-2.82-.15-3.85-.21c-1.27-.06-2.83-.17-4.49-.28-3-.2-6.4-.42-9-.5,1.13.66,2.49,1.38,3.89,2.14a65,65,0,0,1,6.72,3.91c3.26,2.37,5.65,5.82,7.52,10.85,2.83,7.65,3.26,15.77,3.48,24.11.25,9.64.31,19.44.37,28.91,0,4,.05,8,.09,12.06,0,.45,0,.9,0,1.42v.16l.84-.27L145,94.31c3.18-1.12,6.47-2.28,9.75-3.27A3,3,0,0,0,156.91,89c1.9-4.7,3.88-9.46,5.8-14.06l.43-1c.34-.81.64-1.32,1.16-1.51s1.06,0,1.87.44l3.2,1.7c3.43,1.82,6.86,3.64,10.27,5.49A1.2,1.2,0,0,0,181,80q11.27-6.3,22.56-12.55L206,66.08c2.65-1.48,5.38-3,8.14-4.38.85-.42,1-.66.95-1.46-.34-4.78-.61-9-.85-12.78l0,0C213.39,49.24,212.63,51,211.78,52.67Z"/><path class="a" d="M187.64,55.71c1.05,1.32,1.61,1.33,2.55-.13,1.53-2.41,3-4.88,4.46-7.32l.68-1.1-11-1.37C184.09,47.93,185.91,53.52,187.64,55.71Z"/><path class="a" d="M158,46.1l8.22-5.6-11.26-5.3C155,39.18,156.74,42.48,158,46.1Z"/><path class="a" d="M204.1,51.44a18.76,18.76,0,0,0,3.17,2,1.42,1.42,0,0,0,2.09-.49c1.16-2.24,2.24-4.52,3.44-6.95L199,47C200.82,48.57,202.41,50.07,204.1,51.44Z"/><path class="a" d="M213.48,30a6.35,6.35,0,0,0-4.3-6.32l-.22-.09a5.47,5.47,0,0,0-1.08-.4l-1.78-.41c-1.86-.42-3.79-.86-5.69-1.19-5.14-.87-10.37-1.7-15.42-2.51l-4.19-.66-5.16-.86c-4.16-.7-8.46-1.42-12.7-1.92-5.36-.64-11.15-1.21-16.3-1.63-2.1-.16-4.1-.29-6.09-.41a1.89,1.89,0,0,1,.09.21,34.62,34.62,0,0,0,17.14,20.63c8.29,4.42,17.21,6.8,26.23,9.09,8,2,16,1.42,24.08.91,2-.12,4-.34,5.94-.63l-.09-1.64C213.74,38.49,213.52,34.21,213.48,30Z"/><path class="b" d="M237.91,62.24c-.07-2.53-.11-5.81-.21-8.34-.29-7.42-.37-14.21-.68-21.62-.08-1.82-.56-2.25-2.43-2.35l-.42,0c-2.64-.12-2.75,0-2.77,2.54,0,1.92,0,3.53,0,5.32-1,.69-1.36.78-1.85,1.1a30.7,30.7,0,0,1-10.46,4c-.7.16-1.4.29-2.11.43-.24-4.54-.47-9.11-.68-13.63a9,9,0,0,0-6-8.54,22.79,22.79,0,0,0-4.85-1.54c-3.38-.63-6.83-1.18-10.17-1.71l-3.83-.62L183.45,16c-5.31-.89-10.34-1.72-16.34-2.64-2.26-.34-5.62-.63-8.58-.89-1.12-.09-2.16-.18-3-.27C142.44,10.9,95.5,9,88.44,9.84S74.87,14,69,19.43c-6.42,6-9.39,14-11.64,21.88a27.69,27.69,0,0,0-.73,7.4v.65c-.06,5.75.06,11.4.17,15.69a2.2,2.2,0,0,1-1.21,2.39A3.49,3.49,0,0,0,53.69,71c.12,4,.18,8.1.23,12l.14,9.27q.22,13.74.47,27.48V120a1.85,1.85,0,0,0,.91,1.89c.68.34,1.59-.18,2-.61q5.07-4.92,10.12-9.87,5.43-5.33,10.89-10.62a2.48,2.48,0,0,1,1.48-.65q26.19-.34,52.37-.6l3.78,0a14.23,14.23,0,0,0,5.42-.89c3.1-1.24,6.34-2.31,9.47-3.36L154.64,94l.16,0-.12.3c-.29.72-.56,1.38-.83,2L151.93,101c-2.08,5-4.15,10-6.25,15a2.19,2.19,0,0,0,1,3.19c.69.38,1.36.79,2,1.2l1,.6c.91.54,1.55.89,2.18.72s1-.8,1.53-1.73c.84-1.51,1.67-3,2.51-4.55l.92-1.68,2.9,1.28c4.65,2.06,9.25,4.1,13.82,6.18a1.2,1.2,0,0,1,.48.76c0,1.15,0,2.34-.08,3.49l0,.93c-.2,4.79.13,5.17,5,5.7a3.54,3.54,0,0,0,.45,0,1.93,1.93,0,0,0,2.08-1.86c.29-1.62.6-3.25.92-4.87l2.19-11.27.12.24.84,1.66c.95,1.9,1.91,3.8,2.84,5.71a2.36,2.36,0,0,0,1.33,1.36,2.13,2.13,0,0,0,1.73-.3,19.84,19.84,0,0,1,2.13-1,2.14,2.14,0,0,0,1.37-2.6c-.19-1.13-.37-2.26-.55-3.39l-1.11-7.06c-1.12-7.07-2.28-14.38-3.35-21.57A3.23,3.23,0,0,0,188,84.39c-1.22-.61-2.42-1.25-3.68-1.94l-1-.52,5.34-3c9.1-5.07,18.51-10.31,27.79-15.42A2.45,2.45,0,0,0,218,61l-.22-3.81q-.19-3.51-.4-7.1c.3.26.6.51.89.78,2.41,2.23,4.56,1.85,5.77-1.19.79-2,1.36-4.09,2.06-6.13a1.89,1.89,0,0,1,.61-1c1.43-.81,2.89-1.53,4.61-2.41v1.72c0,6.67.29,13.39.21,20.05a1.78,1.78,0,0,0,2.05,2h2.86C237.88,64,238,63.73,237.91,62.24Zm-162,37.05C70.51,104.61,65,110,59.73,115.17l-2.43,2.37c0-.33,0-.63,0-.93l-.06-3.87q-.33-20.83-.63-41.67A1.8,1.8,0,0,1,57,69.88c5.49-4.07,11.11-8.16,16.54-12.12l2.3-1.69v1.81l.11,7.6q.22,16.14.42,32.27A2.46,2.46,0,0,1,75.87,99.29ZM146.64,14c5.15.42,10.94,1,16.3,1.63,4.24.5,8.54,1.22,12.7,1.92l5.16.86,4.19.66c5,.81,10.28,1.64,15.42,2.51,1.9.33,3.83.77,5.69,1.19l1.78.41a5.47,5.47,0,0,1,1.08.4l.22.09a6.35,6.35,0,0,1,4.3,6.32c0,4.21.26,8.49.46,12.17l.09,1.64c-2,.29-4,.51-5.94.63-8,.51-16.05,1.12-24.08-.91-9-2.29-17.94-4.67-26.23-9.09a34.62,34.62,0,0,1-17.14-20.63,1.89,1.89,0,0,0-.09-.21C142.54,13.72,144.54,13.85,146.64,14ZM212.8,46c-1.2,2.43-2.28,4.71-3.44,6.95a1.42,1.42,0,0,1-2.09.49,18.76,18.76,0,0,1-3.17-2c-1.69-1.37-3.28-2.87-5.07-4.45Zm-17.47,1.13-.68,1.1c-1.49,2.44-2.93,4.91-4.46,7.32-.94,1.46-1.5,1.45-2.55.13-1.73-2.19-3.55-7.78-3.3-9.92ZM182,44.93c-2.15,2.42-4.13,4.67-6.13,6.89a1.4,1.4,0,0,1-2.46-.14,7.84,7.84,0,0,1-1.18-1.89c-.94-2.6-1.79-5.22-2.7-7.93ZM166.19,40.5,158,46.1c-1.23-3.62-3-6.92-3-10.9Zm-14.82-7.12c-2.16.73-4.68,1.66-7.25,2.41-1.37.4-1.74-.06-1.44-1.46.59-2.69,1.23-5.37,1.84-8ZM79,78.88c0-1.64,0-3.28-.07-4.92,0-2.09,0-4.19-.09-6.28a9.92,9.92,0,0,1,4-8.35A7,7,0,0,1,84,58.62l.44-.23,0,0c0,.72.1,1.44.16,2.17.14,1.88.27,3.76.37,5.64.21,3.94-1.11,7.57-2.6,11.24-.13.32-.24.59-.33.84-.58,1.48-.59,1.48-2.33,1.45h-.72A8.55,8.55,0,0,1,79,78.88Zm7.26,17.78a1.41,1.41,0,0,1-.3.51c-1.81,0-3.6,0-5.5,0H79.24V82.59h9.93c0,.29-.09.6-.16,1C88.1,87.92,87.2,92.3,86.25,96.66Zm6.6-27.19C90.28,72.2,87.64,75,85.31,78c.36-1,.72-1.94,1-2.93.43-1.62.78-3.27,1.12-4.87.18-.87.37-1.75.57-2.62l.05-.24a2.3,2.3,0,0,1,.36-1,15.9,15.9,0,0,1,12-5.46C98,64,95.41,66.76,92.85,69.47Zm5.3.75a11.76,11.76,0,0,1-4.6,7.22,8.61,8.61,0,0,1-5.6,1.9,8.59,8.59,0,0,1,.83-1.14c2.37-2.63,4.82-5.34,7.31-7.94.53-.55,1.12-.38,2-.05Zm14.39,26.7v0H89.11l.38-1.86c.36-1.75.73-3.53,1.1-5.31l.54-2.58c.34-1.6.69-3.21,1-4.82A1.78,1.78,0,0,1,93.21,81a14.91,14.91,0,0,0,7.76-9.9c.61-2.21.15-3-2.11-3.61l-.22-.06.42-.48c.69-.76,1.35-1.48,2-2.22l.24-.28a16.48,16.48,0,0,0,1.7-2.26,2.84,2.84,0,0,0,.16-2.87,2.79,2.79,0,0,0-2.52-1.22c-3.92.05-6.75.78-9.18,2.35-1,.64-1.94,1.3-2.91,2l-.65.45c-.06-.35-.11-.7-.16-1-.22-1.38-.44-2.8-.72-4.18-.41-2-1.41-2.2-3-1.91a8.27,8.27,0,0,0-4.48,2.93l-.69.75V54.64c.26,0,.53,0,.8,0l8.51,0q11,0,22.06-.11c.8,0,.92,0,.94.7q.51,15.25,1.06,30.49l.37,10.59C112.57,96.45,112.55,96.66,112.54,96.92ZM188,93.49a3.14,3.14,0,0,1,.22-.58l.22,0c1.35,8.57,2.69,17.14,4.07,25.71.26,1.65-1,1.66-2,2-1.2-2.38-2.18-4.76-3.54-6.91a10.32,10.32,0,0,1-1.23-8.67C186.7,101.31,187.25,97.38,188,93.49Zm-1.77-7.41a1.52,1.52,0,0,1,1,2q-4,20.73-8,41.5c-.23.09-.31.16-.39.15-2.59-.05-2.65-.11-2.56-2.66.06-1.89.08-3.78.16-5.67a1.89,1.89,0,0,0-1.32-2.06c-5.86-2.56-11.68-5.18-17.52-7.77-1.51-.67-1.86-.54-2.68,1-1.2,2.2-2.41,4.39-3.68,6.69a22.86,22.86,0,0,1-2.83-1.75,1.64,1.64,0,0,1-.16-1.44q3.48-8.56,7-17.1l9.4-22.68c.15-.37.32-.73.55-1.24,1,.54,2,1,3,1.56C174.21,79.7,180.2,82.92,186.22,86.08ZM214.15,61.7c-2.76,1.37-5.49,2.9-8.14,4.38l-2.44,1.36Q192.27,73.69,181,80a1.2,1.2,0,0,1-1.37,0c-3.41-1.85-6.84-3.67-10.27-5.49l-3.2-1.7c-.81-.43-1.35-.62-1.87-.44s-.82.7-1.16,1.51l-.43,1c-1.92,4.6-3.9,9.36-5.8,14.06A3,3,0,0,1,154.75,91c-3.28,1-6.57,2.15-9.75,3.27l-3.81,1.33-.84.27v-.16c0-.52,0-1,0-1.42,0-4-.06-8-.09-12.06-.06-9.47-.12-19.27-.37-28.91-.22-8.34-.65-16.46-3.48-24.11-1.87-5-4.26-8.48-7.52-10.85a65,65,0,0,0-6.72-3.91c-1.4-.76-2.76-1.48-3.89-2.14,2.59.08,6,.3,9,.5,1.66.11,3.22.22,4.49.28l3.85.21,2.82.15a25.31,25.31,0,0,0,1.22,3.5c.88,2.06,2.1,4,3.11,6a2.57,2.57,0,0,1,.23,1.54c-.71,3.3-1.55,6.57-2.24,9.87-.5,2.4.43,3.43,2.91,3.35a7.13,7.13,0,0,0,1.92-.39c1.47-.47,2.93-1,4.39-1.5,1-.34,2-.65,2.6-.85.79,2.82,1.49,5.47,2.29,8.09a19.11,19.11,0,0,0,1.44,3.65c.76,1.4,1.68,1.56,3,.7,1.07-.68,2.1-1.43,3.15-2.14,1.61-1.09,3.23-2.16,5-3.32.51,1.32.95,2.4,1.36,3.49a44.22,44.22,0,0,0,2.39,6.28c1.93,3.41,4,3.55,6.7.79.76-.77,1.45-1.6,2.16-2.42s1.43-1.72,2.18-2.63c.64,1.89,1.12,3.7,1.87,5.4a20.91,20.91,0,0,0,2.55,4.49c1.36,1.74,3.14,1.66,4.53,0A24.51,24.51,0,0,0,193,54.53c1.37-2.21,2.73-4.43,4.16-6.77.86.82,1.5,1.5,2.21,2.09a59.28,59.28,0,0,0,5.91,4.77c3,1.91,4.88,1.24,6.48-1.95.85-1.7,1.61-3.43,2.45-5.23l0,0c.24,3.83.51,8,.85,12.78C215.15,61,215,61.28,214.15,61.7Zm7.79-12.11a1,1,0,0,1-1.64.37c-1-.81-2.05-1.66-3.09-2.51L215,45.64l2.07-.47,7.08-1.6C223.39,45.68,222.72,47.65,221.94,49.59Zm11.35,12.33V31.82l1.78.09c.41,10.06.81,20,1.22,30Z"/><path class="a" d="M119.38,119.61a29.32,29.32,0,0,0-2.82-6.29l-.68-1.26c-.6-1.12-1.23-2.21-1.86-3.31-.4-.69-.79-1.38-1.18-2.07A3.14,3.14,0,0,0,109.7,105c-4,.12-19.68.18-23.67.09a3.09,3.09,0,0,0-3.13,1.65c-.38.7-.77,1.39-1.16,2.08-.63,1.1-1.25,2.2-1.84,3.32l-.82,1.54c-1.13,2.12-2.29,4.31-3.26,6.55a3.08,3.08,0,0,0-.11,2.9,3.23,3.23,0,0,0,2.72,1.26c5.26.32,19.36.52,19.52.52h1.19c3.46,0,12.65,0,17.18-.33a3.46,3.46,0,0,0,2.73-1.39A4.12,4.12,0,0,0,119.38,119.61Zm-4.19,3.06c-6.68.26-7.72.31-18,.28-8.7-.12-8.63-.09-16.23-.43-1.62-.09-4.55.73-1.86-4,1.82-3.16,3.2-6.57,5-9.73a3.25,3.25,0,0,1,2.45-1.68c2.61,0,12.42,0,15,0,0,0,8.62-.41,9.37.64,1,1.46,3.7,6.61,3.7,6.61C116.14,116.94,119,122.53,115.19,122.67Z"/><path class="a" d="M15.13,56.64a32.76,32.76,0,0,0,12.42-1.39c7.63-2.46,15.36-4.68,22.76-7.71A105.52,105.52,0,0,0,66,39a49.87,49.87,0,0,0,8.67-7.08,42.57,42.57,0,0,0,5.5-7.25,59.1,59.1,0,0,0,3.76-7.08c.65-1.38,1.93-7.27,2.22-7.38s2.2-.37,2.2-.37c-.16.74-.77,3-1,3.67-.86,2.12-1.57,4.26-2.42,6.39a2.27,2.27,0,0,0-.06,1.56c.75,2,1.56,3.91,2.46,5.82a12.53,12.53,0,0,1,1.48,7.05c-.21,1.69-.65,2.24-2.31,2.09-2.66-.24-5.31-.66-8-1-.77-.09-1.55-.14-2.51-.23.25,2.14.51,4.08.67,6,.13,1.63.21,3.27.19,4.91,0,2-.87,2.86-2.83,2.47a54.68,54.68,0,0,1-6.72-1.92A32.26,32.26,0,0,1,63.74,45c0,1,0,1.81,0,2.58-.14,2.85-.2,5.72-.49,8.55-.17,1.68-1.1,2.39-2.64,1.77a22.82,22.82,0,0,1-5-3c-1.42-1.05-2.65-2.35-4.13-3.69-.31,1-.54,1.86-.81,2.69-1,3.2-2.07,6.41-3.16,9.6a6.08,6.08,0,0,1-1,1.81,2,2,0,0,1-2.88.41,17.66,17.66,0,0,1-3-2.71c-1.52-1.77-2.9-3.67-4.48-5.71-.56,1.77-1,3.35-1.55,4.84a50,50,0,0,1-2.37,5.09c-.72,1.35-1.58,1.65-2.91.87a14.26,14.26,0,0,1-3.13-2.56c-1.9-2.07-3.66-4.27-5.53-6.38a1.78,1.78,0,0,0-1.17-.49c-1.39-.06-2.79,0-4.33,0v1.77c0,22.82,0,44.69-.06,67.51,0,2.38-.47,3.31-2.59,3.28-1.05-.06-1.45,0-2.39-.05a2.25,2.25,0,0,1-2.37-2.36c0-8.31-.1-16.62-.15-24.93Q7.42,78.88,7.29,54a8.78,8.78,0,0,1,0-1.54,1.86,1.86,0,0,1,1.84-1.78c1.41-.08,2.81-.23,4.22-.34,1.17-.09,1.77.41,1.75,1.62,0,1.54,0,3.09,0,4.73m-2,72.55V52.24l-3.89.34c0,.56,0,1,0,1.47q.21,36,.43,72c0,3.17,0,3.17,3.46,3.18M36.57,54.73c2,2.51,3.72,4.81,5.52,7.08a20.49,20.49,0,0,0,1.68,1.68c.93.91,1.55.6,1.93-.52,1-3,2-6,3-9,.39-1.22.66-2.47,1-3.83L36.57,54.73M74.2,35.52,63.89,42.84c3.15,1.71,6.24,3.46,9.87,3.91.85.1,1.24-.15,1.17-1-.25-3.35-.48-6.7-.73-10.19M22.72,58.44c1.8,2.15,3.5,4.19,5.23,6.22A10.71,10.71,0,0,0,29.39,66c.63.52,1.1.45,1.55-.34,1.85-3.18,2.66-6.71,3.64-10.35L22.72,58.44m29.36-9.36c3,2.56,5.23,5.8,9.45,7.22V44.22l-9.45,4.86M83.36,23.39q-3.36,5-6.74,9.89l10,1.41c.65-2.92.23-4.3-3.24-11.3"/></svg>