<svg xmlns="http://www.w3.org/2000/svg" viewBox="0 0 163.66 141.73"><defs><style>.a{fill:none;}.b{fill:#703c59;}.c{fill:#6c8f6a;}</style></defs><path class="a" d="M27,94.5h0l-5.89-8.19-2.34,1,2.33-1Z"/><path class="a" d="M19,85.48l-1.67.73Z"/><path class="a" d="M18,76.56c.57,1.76,1.14,3.5,1.72,5.27C19.14,80.06,18.57,78.32,18,76.56Z"/><path class="a" d="M14.73,86.31a21.38,21.38,0,0,1-1.13-2.49,21.38,21.38,0,0,0,1.13,2.49c.16.3.71.68.91.6h0C15.44,87,14.89,86.61,14.73,86.31Z"/><path class="a" d="M11.9,76.45l1.45-.22-1.45.22c.12.78.21,1.44.31,2.1.06.39.14.77.22,1.16-.08-.39-.16-.77-.22-1.16C12.11,77.89,12,77.23,11.9,76.45Z"/><path class="a" d="M17.68,75.58l-1.44.22,1.44-.22Z"/><path class="a" d="M11.17,71.35c-.08-1.14-.16-2.31-.24-3.46C11,69,11.09,70.21,11.17,71.35Z"/><path class="a" d="M10.79,63h0L13,62.84Z"/><path class="a" d="M16.29,66.36c-.08-.71-.16-1.41-.23-2.11l-5.36.44h0l5.36-.44C16.13,65,16.21,65.65,16.29,66.36Z"/><path class="a" d="M43.5,104.93l1.69.69c-.73,1.49-1.43,3-2.19,4.42a.8.8,0,0,1-.54.27A.8.8,0,0,0,43,110c.76-1.45,1.46-2.93,2.19-4.42Z"/><path class="a" d="M55.62,113.77h0c-1.44-.13-2.86-.3-4.28-.54C52.76,113.47,54.18,113.64,55.62,113.77Z"/><path class="a" d="M37,102.29h0l.35.15Z"/><path class="a" d="M16.19,54.41H11.52l-.42,4.85.42-4.85Z"/><path class="a" d="M51.31,113.23l-.09,0Z"/><path class="a" d="M22.94,97.72c-1.16-1.38-2.4-2.67-3.56-4,1.16,1.36,2.4,2.64,3.56,4l1.75-1.37Z"/><path class="a" d="M32.73,105.82h0l-3.87-3.09Z"/><path class="a" d="M27.87,95.93l-.28.22.28-.22Z"/><path class="a" d="M33.86,104.1c.58-.9,1.14-1.75,1.67-2.56l-3.11-2.28,3.11,2.28C35,102.35,34.44,103.2,33.86,104.1Z"/><path class="a" d="M24.44,98.63l-.37.29L28,102l-3.89-3.1Z"/><path class="a" d="M22.82,26.27h0a25.56,25.56,0,0,1,5.2-4.2A25.56,25.56,0,0,0,22.82,26.27Z"/><path class="a" d="M90.19,23.89h0c.94-1.69,1.93-3.44,3.07-5.49l-9.86-4h0l9.86,4C92.12,20.45,91.13,22.2,90.19,23.89Z"/><path class="a" d="M81.42,19.09c.58-1.36,1.2-2.85,1.88-4.46C82.62,16.24,82,17.73,81.42,19.09Z"/><path class="a" d="M91.62,24.71h0l3-5.39h0Z"/><path class="a" d="M65.26,12.44a85.15,85.15,0,0,1,16.6,1.38L80.2,17.74l1.66-3.92a85.15,85.15,0,0,0-16.6-1.38v5.61h0Z"/><path class="a" d="M63.48,12.22,50.34,13.35h0l13.14-1.13Z"/><path class="a" d="M19.06,43.09h0l-4.75-1.68c-.56,2.37-1.11,4.69-1.66,7,.55-2.34,1.1-4.66,1.66-7Z"/><path class="a" d="M106.36,41.11h0l-4.84-8.22Z"/><path class="a" d="M95.7,27.61l4.52,3.21,5.14-3.31h0l-5.14,3.31Z"/><path class="a" d="M101.11,32.2h0L106,29h0Z"/><path class="a" d="M61,18.14l-1.89.15Z"/><path class="a" d="M26.41,31.61l.42-.64L25,29.76,26.83,31Z"/><path class="a" d="M19,31.05c-.56.9-1.09,1.82-1.57,2.76C17.91,32.87,18.44,32,19,31.05Z"/><path class="a" d="M18.23,46.17,17.3,49.6Z"/><path class="a" d="M16.14,36.51c-.47,1.09-.9,2.2-1.29,3.34l1.78.63-1.78-.63C15.24,38.71,15.67,37.6,16.14,36.51Z"/><path class="a" d="M47.59,106.41l-.82-.24-1.62,3.28,1.62-3.28Z"/><path class="a" d="M48.75,13.79h0L35.42,18.21h0Z"/><path class="a" d="M19.79,41.59l1.51-2.28-1.51,2.28Z"/><path class="a" d="M37,21.8l.5,1.11,12.39-4h0l-12.38,4Z"/><path class="a" d="M36.07,23.63l-.13-.29.13.29Z"/><path class="a" d="M16,88.57h0l2.44-1.08Z"/><path class="a" d="M103.39,93.74h0l.91.59Z"/><path class="a" d="M87,105.54l1.16,3.2h0Z"/><path class="a" d="M100.68,96.12,97,99.36l.7,1.16L97,99.36Z"/><path class="a" d="M87,105.54l-.34-.94-8.58,3h0l8.58-3C86.81,104.91,86.92,105.22,87,105.54Z"/><path class="a" d="M95.08,98.35a18.25,18.25,0,0,0,8-8,18.25,18.25,0,0,1-8,8,135.38,135.38,0,0,1-12.77,6.06,30.58,30.58,0,0,1-4.25,1.26,30.58,30.58,0,0,0,4.25-1.26A135.38,135.38,0,0,0,95.08,98.35Z"/><path class="a" d="M48.09,104.89c.41.14.82.29,1.23.41,4.34,1.3,8.63,2.76,13.26,2.73h0c-4.63,0-8.92-1.43-13.26-2.73C48.91,105.18,48.5,105,48.09,104.89Z"/><path class="a" d="M89.75,82c.43-2.73.84-5.42,3.32-7.19a1.37,1.37,0,0,0,.29-.34,3,3,0,0,0-.64-4.35c-.52-.36-1.12-.61-1.65-1-1.39-.88-1.64-1.89-.63-3.18a23.22,23.22,0,0,1,2.47-2.59,33.69,33.69,0,0,0,3-2.7,16.91,16.91,0,0,0,2.73-4.18c.73-1.8-.31-3.29-2.23-3.59-1.51-.24-3-.36-4.58-.49-2.08-.17-2.93-.85-3-2.87a26.31,26.31,0,0,1,.33-5.69,16.44,16.44,0,0,0-1-10.54,4.71,4.71,0,0,0-6-2.7A7,7,0,0,0,78,33.93c-1.28,2.31-2.28,4.77-3.41,7.16a14.9,14.9,0,0,1-.9,1.67,1.3,1.3,0,0,1-1.9.53,3.35,3.35,0,0,0-4.48,1.16,15,15,0,0,0-1.54,3.08c-.42,1-.69,2.1-1,3a23.31,23.31,0,0,0-3.64-1.32C57.81,48.59,54.42,48,51,47.57a3.48,3.48,0,0,1-3-2.2c-.63-1.39-1.18-2.83-1.75-4.25a1.92,1.92,0,0,0-2.38-1.35c-.88.18-1.77.32-2.66.42a1.36,1.36,0,0,0-1.32,1.51c0,.37,0,.75,0,1.12a18.28,18.28,0,0,1-4,11.33,19.08,19.08,0,0,0-3.64,6.72c-1.56,5.62-1.89,11.13.6,16.54,1.77,3.86,4.69,6.82,7.77,9.63a2.84,2.84,0,0,0,1,.57c4.4,1.58,8.56,1.4,12.48-1.45a26.87,26.87,0,0,1,4.81-2.6c1.6-.71,3.3-1.19,5.11-1.82a15.34,15.34,0,0,1-3.44,5.13c-1.74,1.75-3.35,3.64-5,5.49a1.78,1.78,0,0,0-.07,2.38,13.75,13.75,0,0,0,1.38,1.48,1.59,1.59,0,0,0,2.31.12c2.2-1.62,4.44-3.18,6.62-4.83a1.19,1.19,0,0,1,1.57-.12,6.55,6.55,0,0,0,4.87.8c3.69-.83,7.41-1.54,11-2.59A8.78,8.78,0,0,0,89.75,82Z"/><path class="a" d="M79.12,111.56c-.27-1.07-.52-2.1-.77-3.1C78.6,109.46,78.85,110.49,79.12,111.56Z"/><path class="a" d="M107.33,96.34a24.67,24.67,0,0,1-4.27,4.1,24.67,24.67,0,0,0,4.27-4.1l-3-2Z"/><path class="a" d="M116.18,68.22a.32.32,0,0,0-.19-.11l-1.3-.11,1.3.11A.32.32,0,0,1,116.18,68.22Z"/><path class="a" d="M111.86,53.5l-1.71.21c.27,4.21.53,8.3.8,12.46h0c-.27-4.16-.53-8.25-.8-12.46Z"/><path class="a" d="M116.5,66.42h0l-1.77-.08Z"/><path class="a" d="M110.84,82.65l.35.11Z"/><path class="a" d="M114,82l-2.25-.75L114,82c.06-.08.13-.12.16-.18a27.36,27.36,0,0,0,2.2-8.43,27.1,27.1,0,0,1-2.21,8.43C114.14,81.85,114.07,81.89,114,82Z"/><path class="a" d="M29.65,95c-.44-.47-.86-.94-1.28-1.42.42.48.84.95,1.28,1.42a27.82,27.82,0,0,0,7.78,5.67A27.82,27.82,0,0,1,29.65,95Z"/><path class="a" d="M108.56,81.93h0l-4.47,10.3L107,94.12l-2.86-1.89Z"/><path class="a" d="M109.26,78.74q.48-2.79,1-5.59Q109.74,76,109.26,78.74Z"/><path class="a" d="M99.17,103c.66-.37,1.29-.76,1.91-1.15-.62.39-1.25.78-1.91,1.15Z"/><path class="a" d="M57.72,109.38h0l4.06.15Z"/><path class="a" d="M63.2,109.58l4.1.15c0,1.45,0,2.86,0,4.27,0,.15-.21.37-.4.48.19-.11.4-.33.41-.48,0-1.41,0-2.82,0-4.27Z"/><path class="a" d="M18.12,69.17c.07.59.14,1.19.22,1.79a30.15,30.15,0,0,0,1,4.35,30.15,30.15,0,0,1-1-4.35C18.26,70.36,18.19,69.76,18.12,69.17Z"/><path class="a" d="M77.15,110.49c-.22-.86-.43-1.72-.65-2.58l-2.89.6,2.89-.6C76.72,108.77,76.93,109.63,77.15,110.49Z"/><path class="a" d="M81.34,22a17.79,17.79,0,0,1,4,1.35A17.79,17.79,0,0,0,81.34,22Z"/><path class="a" d="M55.68,108.85a1,1,0,0,1,.34.64c0,.74-.11,1.48-.19,2.25.08-.77.15-1.51.19-2.25A1,1,0,0,0,55.68,108.85Z"/><path class="a" d="M57.3,113.6c.09-1,.18-1.85.26-2.67C57.48,111.75,57.39,112.63,57.3,113.6Z"/><path class="a" d="M66.84,114.5h0Z"/><path class="a" d="M69,109.46h0v5c3-.26,6-.32,8.77-1.58h0C75,114.11,72,114.17,69,114.43Z"/><path class="a" d="M31.65,28.57c2.44-2.25,5.51-3.53,8.54-4.84A53.08,53.08,0,0,1,56.64,20c1.83-.17,3.65-.28,5.47-.3-1.82,0-3.64.13-5.47.3a53.08,53.08,0,0,0-16.45,3.78c-3,1.31-6.1,2.59-8.54,4.84a49.06,49.06,0,0,0-5,5.59,47.29,47.29,0,0,0-3.31,4.73,47.29,47.29,0,0,1,3.31-4.73A49.06,49.06,0,0,1,31.65,28.57Z"/><path class="a" d="M109.17,61.88c0-1.09-.1-2.17-.17-3.25a47.47,47.47,0,0,0-7-22,47.47,47.47,0,0,1,7,22C109.07,59.71,109.13,60.79,109.17,61.88Z"/><path class="a" d="M103.93,88.5a56.48,56.48,0,0,0,4.13-12.36c.27-1.46.56-2.91.79-4.37-.23,1.46-.52,2.91-.79,4.37A56.48,56.48,0,0,1,103.93,88.5Z"/><path class="b" d="M117.81,59.76c-.56-7.3-3.15-14.22-5.12-21.23-1-3.52-2.88-6.63-4.74-9.77a21.51,21.51,0,0,0-7-7.6C99.05,20,97,19.08,95,18c-1.62-.86-3.17-1.85-4.83-2.6A52.53,52.53,0,0,0,84,13.05a52.16,52.16,0,0,0-6.44-1.45c-2.17-.35-4.38-.47-6.57-.69-4.5,0-13.92.2-14.13.22A49,49,0,0,0,44.34,13.6C40.46,15,37.9,15.88,34,17.29c-1.16.42-3.5,1.66-4.62,2.23A30.48,30.48,0,0,0,14.77,35.78,78.37,78.37,0,0,0,9.51,59.11a72,72,0,0,0,1.43,21.11c1.5,7.12,5.35,13,10.41,18a76.21,76.21,0,0,0,10.41,8.65,53.53,53.53,0,0,0,14.89,6.74,72.88,72.88,0,0,0,11.8,2.1c8.23,1,16.31.43,24-2.84a162.91,162.91,0,0,0,19.44-9.79,23.34,23.34,0,0,0,8.94-8.94,37.57,37.57,0,0,0,2.65-5.68c1.52-4.34,3.45-8.66,4.09-13.14A71.78,71.78,0,0,0,117.81,59.76Zm-3.08-8.26c-1.63.17-3.1.36-4.58.44-.2,0-.53-.54-.63-.88-.81-2.76-1.58-5.53-2.41-8.47l4.68-1.78C112.76,44.35,113.72,47.82,114.73,51.5ZM106,29a33.54,33.54,0,0,1,5.28,10.2l-5,1.88h0l-4.84-8.22-.41-.69h0L106,29ZM94.63,19.32c4.2,1.94,8,4.28,10.73,8.19h0l-5.14,3.31L95.7,27.61l-4.08-2.9h0l3-5.39ZM83.4,14.38l9.86,4c-1.14,2.05-2.13,3.8-3.07,5.49h0L81.06,20l.36-.86c.58-1.36,1.2-2.85,1.88-4.46l.1-.25ZM65.26,12.44a85.15,85.15,0,0,1,16.6,1.38L80.2,17.74l-.9,2.13-14-1.82h0Zm-14.92.91,13.14-1.13h0V18h0L61,18.14l-1.89.15-7.48.55-1.26-5.49Zm-1.59.44h0c.44,1.9.83,3.62,1.18,5.12h0l-12.39,4L37,21.8l-1.62-3.59h0ZM22.82,26.27a25.56,25.56,0,0,1,5.2-4.2,61.37,61.37,0,0,1,5.91-3.14l2,4.41.13.29h0c-1.84,1.27-3.63,2.46-5.37,3.72-.78.57-1.42,1.33-2.18,1.93a1.1,1.1,0,0,1-1,.16c-1.57-1-3.1-2.07-4.72-3.17ZM21.57,27.4,25,29.76,26.83,31l-.42.64-5.11,7.7-1.51,2.28h0l-3.16-1.11-1.78-.63c.39-1.14.82-2.25,1.29-3.34.39-.92.83-1.82,1.29-2.7s1-1.86,1.57-2.76A38.85,38.85,0,0,1,21.57,27.4Zm-7.26,14,4.75,1.68h0c-.28,1-.56,2.06-.83,3.08L17.3,49.6c-.28,1-.55,2-.83,3.06H11.66c.34-1.42.67-2.82,1-4.22C13.2,46.1,13.75,43.78,14.31,41.41ZM10.79,63c.1-1.26.21-2.5.31-3.73l.42-4.85h4.67v8.2L13,62.84,10.79,63Zm.14,4.9c-.08-1.06-.15-2.12-.23-3.2h0l5.36-.44c.07.7.15,1.4.23,2.11L17.14,74l-5.72.86c-.09-1.18-.17-2.33-.25-3.5S11,69,10.93,67.89Zm4.71,19c-.2.08-.75-.3-.91-.6a21.38,21.38,0,0,1-1.13-2.49,24.13,24.13,0,0,1-1.17-4.11c-.08-.39-.16-.77-.22-1.16-.1-.66-.19-1.32-.31-2.1l1.45-.22,2.89-.43,1.44-.22h0l.32,1c.57,1.76,1.14,3.5,1.72,5.27l.94,2.9L19,85.48l-1.67.73c-.55.24-1.1.48-1.66.7Zm3.74,6.79A19.39,19.39,0,0,1,16,88.57h0l2.44-1.08.33-.15,2.34-1L27,94.5h0l-2.35,1.85-1.75,1.37C21.78,96.34,20.54,95.06,19.38,93.7Zm13.35,12.12-3.87-3.09L28,102l-3.89-3.1.37-.29,3.15-2.48.28-.22h0l4.55,3.33,3.11,2.28c-.53.81-1.09,1.66-1.67,2.56l-1.13,1.72Zm9.73,4.49a.5.5,0,0,1-.18,0c-2.69-1.16-5.37-2.35-8.16-3.59L37,102.29h0l.35.15,6.15,2.49,1.69.69c-.73,1.49-1.43,3-2.19,4.42A.8.8,0,0,1,42.46,110.31Zm13.16,3.46h0c-1.44-.13-2.86-.3-4.28-.54h0l-.09,0a31.81,31.81,0,0,1-6.95-2c.31-.61.59-1.19.88-1.77l1.62-3.28.82.24c2.7.78,5.32,1.53,7.91,2.32a.47.47,0,0,1,.18.12,1,1,0,0,1,.34.64c0,.74-.11,1.48-.19,2.25S55.69,113.06,55.62,113.77Zm11.66.23c0,.15-.22.37-.41.48l0,0h0a.41.41,0,0,1-.17,0c-3.09-.06-6.19-.17-9.42-.27l.07-.69c.09-1,.18-1.85.26-2.67,0-.53.11-1.05.16-1.55h0l4.06.15,1.42,0,4.1.15C67.3,111.18,67.33,112.59,67.28,114Zm10.47-1.15C75,114.11,72,114.17,69,114.43v-5h0l4.63-.95,2.89-.6c.22.86.43,1.72.65,2.58s.39,1.56.6,2.36ZM72.48,107c-3.26,1-6.56,1-9.9,1h0c-4.63,0-8.92-1.43-13.26-2.73-.41-.12-.82-.27-1.23-.41-1.43-.47-2.85-1-4.28-1.52a57.24,57.24,0,0,1-6.38-2.74A27.82,27.82,0,0,1,29.65,95c-.44-.47-.86-.94-1.28-1.42A34.76,34.76,0,0,1,20.3,78.67c-.27-1.13-.61-2.25-.94-3.36a30.15,30.15,0,0,1-1-4.35c-.08-.6-.15-1.2-.22-1.79a60.65,60.65,0,0,1,.25-17.33,36.18,36.18,0,0,1,5-13,47.29,47.29,0,0,1,3.31-4.73,49.06,49.06,0,0,1,5-5.59c2.44-2.25,5.51-3.53,8.54-4.84A53.08,53.08,0,0,1,56.64,20c1.83-.17,3.65-.28,5.47-.3a47.28,47.28,0,0,1,9.09.76c3.19.61,6.44.89,9.63,1.51l.51.11a17.79,17.79,0,0,1,4,1.35c.13.06.26.11.39.18,1,.54,2,1.11,3,1.67,1.33.75,2.65,1.51,4,2.3,1,.59,2,1.17,2.94,1.78A18.69,18.69,0,0,1,101,35c.36.54.68,1.09,1,1.63a47.47,47.47,0,0,1,7,22c.07,1.08.13,2.16.17,3.25s.11,2.47.16,3.71a31.06,31.06,0,0,1-.48,6.18c-.23,1.46-.52,2.91-.79,4.37a56.48,56.48,0,0,1-4.13,12.36c-.14.32-.28.65-.43,1s-.29.58-.43.87a18.25,18.25,0,0,1-8,8,135.38,135.38,0,0,1-12.77,6.06,30.58,30.58,0,0,1-4.25,1.26C76.19,106.1,74.3,106.47,72.48,107Zm15.72,1.71-8.87,3.67-.21-.85c-.27-1.07-.52-2.1-.77-3.1l-.23-.91h0l8.58-3,.34.94,1.16,3.2Zm1.47-.73c-.49-1.37-.93-2.48-1.26-3.63a1.05,1.05,0,0,1,.36-.95c2.17-1.17,4.38-2.28,6.68-3.45l2.35,3.89Zm13.39-7.57q-1,.72-2,1.38c-.62.39-1.25.78-1.91,1.15h0l-1.47-2.45L97,99.36l3.68-3.24,2.7-2.38h0l.9.59,3,2A24.67,24.67,0,0,1,103.06,100.44Zm5.34-5.37L107,94.12l-2.86-1.89,4.47-10.3h0l2.28.72.35.11,2.36.75A37.51,37.51,0,0,1,108.4,95.07Zm5.77-13.28c0,.06-.1.1-.16.18l-2.26-.75L109,80.31c.1-.52.18-1,.27-1.57q.48-2.79,1-5.59c.3-1.76.61-3.54.92-5.37,1.08.07,2.29.13,3.54.22l1.3.11a.32.32,0,0,1,.19.11.91.91,0,0,1,.31.56,31.74,31.74,0,0,1-.12,4.58A27.36,27.36,0,0,1,114.17,81.79Zm2.33-15.37h0l-1.77-.08L111,66.17h0c-.27-4.16-.53-8.25-.8-12.46l1.71-.21c.9-.11,1.82-.22,2.74-.3a.86.86,0,0,1,.69.49A45.92,45.92,0,0,1,116.5,66.42Z"/><path class="c" d="M95.08,98.35a18.25,18.25,0,0,0,8-8c.14-.29.3-.57.43-.87s.29-.65.43-1a56.48,56.48,0,0,0,4.13-12.36c.27-1.46.56-2.91.79-4.37a31.06,31.06,0,0,0,.48-6.18c0-1.24-.1-2.47-.16-3.71s-.1-2.17-.17-3.25a47.47,47.47,0,0,0-7-22c-.34-.54-.66-1.09-1-1.63a18.69,18.69,0,0,0-5.36-5.69c-1-.61-2-1.19-2.94-1.78-1.31-.79-2.63-1.55-4-2.3-1-.56-2-1.13-3-1.67-.13-.07-.26-.12-.39-.18a17.79,17.79,0,0,0-4-1.35l-.51-.11c-3.19-.62-6.44-.9-9.63-1.51a47.28,47.28,0,0,0-9.09-.76c-1.82,0-3.64.13-5.47.3a53.08,53.08,0,0,0-16.45,3.78c-3,1.31-6.1,2.59-8.54,4.84a49.06,49.06,0,0,0-5,5.59,47.29,47.29,0,0,0-3.31,4.73,36.18,36.18,0,0,0-5,13,60.65,60.65,0,0,0-.25,17.33c.07.59.14,1.19.22,1.79a30.15,30.15,0,0,0,1,4.35c.33,1.11.67,2.23.94,3.36a34.76,34.76,0,0,0,8.07,14.87c.42.48.84.95,1.28,1.42a27.82,27.82,0,0,0,7.78,5.67,57.24,57.24,0,0,0,6.38,2.74c1.43.52,2.85,1,4.28,1.52.41.14.82.29,1.23.41,4.34,1.3,8.63,2.76,13.26,2.73h0c3.34,0,6.64,0,9.9-1,1.82-.56,3.71-.93,5.58-1.36a30.58,30.58,0,0,0,4.25-1.26A135.38,135.38,0,0,0,95.08,98.35ZM72.25,92.19a6.55,6.55,0,0,1-4.87-.8,1.19,1.19,0,0,0-1.57.12c-2.18,1.65-4.42,3.21-6.62,4.83a1.59,1.59,0,0,1-2.31-.12,13.75,13.75,0,0,1-1.38-1.48,1.78,1.78,0,0,1,.07-2.38c1.64-1.85,3.25-3.74,5-5.49A15.34,15.34,0,0,0,64,81.74c-1.81.63-3.51,1.11-5.11,1.82a26.87,26.87,0,0,0-4.81,2.6C50.16,89,46,89.19,41.6,87.61a2.84,2.84,0,0,1-1-.57c-3.08-2.81-6-5.77-7.77-9.63-2.49-5.41-2.16-10.92-.6-16.54a19.08,19.08,0,0,1,3.64-6.72,18.28,18.28,0,0,0,4-11.33c0-.37,0-.75,0-1.12a1.36,1.36,0,0,1,1.32-1.51c.89-.1,1.78-.24,2.66-.42a1.92,1.92,0,0,1,2.38,1.35C46.85,42.54,47.4,44,48,45.37a3.48,3.48,0,0,0,3,2.2c3.41.42,6.8,1,10.17,1.68a23.31,23.31,0,0,1,3.64,1.32c.3-.94.57-2,1-3a15,15,0,0,1,1.54-3.08,3.35,3.35,0,0,1,4.48-1.16,1.3,1.3,0,0,0,1.9-.53,14.9,14.9,0,0,0,.9-1.67c1.13-2.39,2.13-4.85,3.41-7.16a7,7,0,0,1,4.14-3.28,4.71,4.71,0,0,1,6,2.7,16.44,16.44,0,0,1,1,10.54,26.31,26.31,0,0,0-.33,5.69c0,2,.89,2.7,3,2.87,1.53.13,3.07.25,4.58.49,1.92.3,3,1.79,2.23,3.59a16.91,16.91,0,0,1-2.73,4.18,33.69,33.69,0,0,1-3,2.7A23.22,23.22,0,0,0,90.44,66c-1,1.29-.76,2.3.63,3.18.53.35,1.13.6,1.65,1a3,3,0,0,1,.64,4.35,1.37,1.37,0,0,1-.29.34c-2.48,1.77-2.89,4.46-3.32,7.19a8.78,8.78,0,0,1-6.47,7.58C79.66,90.65,75.94,91.36,72.25,92.19Z"/><path class="c" d="M154,61.7A11.34,11.34,0,0,0,151.81,60a1.19,1.19,0,0,0-1.91.48,50.81,50.81,0,0,1-2.43,4.7,47.56,47.56,0,0,1-5,7.74c-1.07,1.48-2.27,1.86-2.74,1.36s0-1.06.21-1.48c2.09-4,4.26-7.9,6.32-11.89,1.48-2.85,1.24-2.41-1.17-3.91-1.73-1.09-2.61-.79-3.51,1.05q-3,6.18-6,12.33a6,6,0,0,1-.91,1.41c-.42.48-.9.41-1.07-.24a9.46,9.46,0,0,1-.33-2.11c-.06-2.35,1.09-4.31,2.19-6.27,1.29-2.3,2.6-4.6,3.88-6.91a1.1,1.1,0,0,0-.57-1.76c-.92-.4-1.83-.8-2.77-1.17a1.21,1.21,0,0,0-1.72.62c-1.92,4.23-4.06,8.37-5.64,12.72-1.34,3.68-1.37,7.47,2.07,10.46l-.54,1q-13.49,22.85-27,45.66a5.76,5.76,0,0,0-.67,3.8,4,4,0,0,0,2.92,3.19c1.31.28,2.32-.27,3.32-1.85.26-.4.5-.82.74-1.23Q122.73,105.31,136,82.94a3,3,0,0,1,3.07-1.8,7,7,0,0,0,4.11-.91c2.15-1.63,3.34-2.4,4.72-4.65a120.94,120.94,0,0,0,6.47-12.3A1.82,1.82,0,0,0,154,61.7Zm-1.9,2.3c-1.16,2.46-2.74,5.1-4,7.61a42.09,42.09,0,0,1-2.35,3.75,15.82,15.82,0,0,1-2.94,3.11,5.61,5.61,0,0,1-4.12,1c-2-.17-3.08.67-4,2.3q-13.3,22.59-26.71,45.13c-.27.45-.52.91-.82,1.33-.79,1.11-1.74,1.09-2.47-.07a3,3,0,0,1,0-3.39l14.81-25.06L131.69,79c.18-.31.34-.64.51-1a1.67,1.67,0,0,0-.49-2.37c-2.51-2.13-2.29-5-1.64-7.77,1.06-4.54,3.66-8.41,5.57-12.78l2,.82c-1.2,2.12-2.32,4.14-3.48,6.14-1.32,2.26-2.6,4.55-2.57,7.26a9.46,9.46,0,0,0,.51,3,2.18,2.18,0,0,0,3.84.75,7.16,7.16,0,0,0,1.19-1.79c1.95-4,3.86-7.92,5.79-11.88l.63-1.28,1.7,1c-.94,1.85-1.8,3.65-2.74,5.4-1.44,2.68-2.9,5.36-4.43,8-.6,1-.94,2-.05,3a3.14,3.14,0,0,0,3.69.25,29.21,29.21,0,0,0,3-3.08,96.23,96.23,0,0,0,6.21-10.22c.09-.18.21-.33.31-.5C152.7,62.56,152.74,62.65,152.09,64Z"/><path class="b" d="M96.41,52.94c-1.51-.24-3-.36-4.58-.49-2.08-.17-2.93-.85-3-2.87a25.69,25.69,0,0,1,.33-5.69,16.44,16.44,0,0,0-1-10.54,4.71,4.71,0,0,0-6-2.7A7,7,0,0,0,78,33.93c-1.28,2.31-2.28,4.77-3.41,7.16a16.72,16.72,0,0,1-.9,1.67,1.3,1.3,0,0,1-1.9.53,3.35,3.35,0,0,0-4.48,1.16,15,15,0,0,0-1.54,3.08c-.42,1-.69,2.1-1,3a23.69,23.69,0,0,0-3.64-1.32C57.8,48.59,54.41,48,51,47.57a3.48,3.48,0,0,1-3-2.2c-.63-1.39-1.18-2.83-1.75-4.25a1.92,1.92,0,0,0-2.38-1.35c-.88.18-1.77.32-2.66.42a1.36,1.36,0,0,0-1.32,1.51c0,.37,0,.75,0,1.12a18.34,18.34,0,0,1-4,11.33,19.08,19.08,0,0,0-3.64,6.72c-1.56,5.62-1.89,11.13.6,16.54,1.77,3.86,4.69,6.82,7.77,9.63a2.84,2.84,0,0,0,1,.57c4.4,1.58,8.56,1.4,12.48-1.45a26.87,26.87,0,0,1,4.81-2.6c1.6-.71,3.3-1.19,5.11-1.82a15.34,15.34,0,0,1-3.44,5.13c-1.74,1.75-3.35,3.64-5,5.49a1.78,1.78,0,0,0-.07,2.38,13.75,13.75,0,0,0,1.38,1.48,1.58,1.58,0,0,0,2.3.12c2.21-1.62,4.45-3.18,6.63-4.83a1.19,1.19,0,0,1,1.57-.12,6.54,6.54,0,0,0,4.87.8c3.69-.83,7.41-1.54,11-2.59A8.77,8.77,0,0,0,89.74,82c.44-2.73.85-5.42,3.33-7.19a1.37,1.37,0,0,0,.29-.34,3,3,0,0,0-.64-4.35c-.52-.36-1.12-.61-1.65-1-1.39-.88-1.64-1.89-.63-3.18a22.35,22.35,0,0,1,2.47-2.59,35.32,35.32,0,0,0,3-2.7,16.91,16.91,0,0,0,2.73-4.18C99.37,54.73,98.33,53.24,96.41,52.94ZM39.81,76a15,15,0,0,1-1.28-5.37c-.08-1.09-.09-2.18-.09-3.28a11,11,0,0,1,3.42-8,9.24,9.24,0,0,0,.89-1.06,10.6,10.6,0,0,0,.65-.95c.27-.42.53-.85.77-1.28A2.92,2.92,0,0,1,46,54.52l.34-.1a9.75,9.75,0,0,1,4.1.06c.29.07.58.16.87.25a10.69,10.69,0,0,1,1.06.43c.82.39,1.63.81,2.43,1.24q2.4,1.29,4.71,2.72a1.39,1.39,0,0,1,.19.15,4.06,4.06,0,0,1,.65.66c.3.4.57.84.85,1.23a6.1,6.1,0,0,1,.41.7l.09.18c.1.2.2.4.31.59s.22.43.32.65h0c.06.12.1.25.15.38A11.74,11.74,0,0,1,62,72.41a8.13,8.13,0,0,1-1.35,2,5.82,5.82,0,0,1-5.22,1.72A9.82,9.82,0,0,0,54,76.11a7.61,7.61,0,0,0-2.89.64l-.41.2c-.12.07-.25.12-.36.19l-.09.06a8.62,8.62,0,0,0-1.38,1,4.8,4.8,0,0,1-2.61,1.17A6.59,6.59,0,0,1,39.81,76ZM96.34,57.46a45.41,45.41,0,0,1-4.47,4.63c-.41.39-.83.77-1.23,1.16a8.48,8.48,0,0,0-2.28,3.27,3,3,0,0,0,1.17,3.75h0c.54.39,1.16.69,1.73,1,1.18.72,1.3,1.44.41,2.45a.57.57,0,0,1-.11.11l0,.06c-2.71,2-3.05,4.94-3.5,7.92-.38,2.53-1.7,4.76-4.05,5.57a49.47,49.47,0,0,1-13.5,3.06A9.93,9.93,0,0,1,68.12,90h0a15.39,15.39,0,0,1,1.09-1.79A52.81,52.81,0,0,0,77.84,74c.56-1.36,1.06-2.75,1.54-4.14.86-2.45,1.64-4.92,2.45-7.38a63.15,63.15,0,0,0,2-7.67A62.76,62.76,0,0,0,85,43.63a3.74,3.74,0,0,0-.84-3,1.43,1.43,0,0,0-1.81-.32,4.36,4.36,0,0,0-2,1.71,6.61,6.61,0,0,0-.7,1.55c-.48,1.58-.91,3.18-1.39,4.76-.14.46-.27.92-.42,1.38l-1.29,3.89c-1.09,3.27-2.2,6.53-3.39,9.77a16.38,16.38,0,0,1-.93,2c-.54,1-1.15,2-1.74,3.15h0c0-.29,0-.57,0-.85-.08-1.62-.18-3.13-.24-4.6,0-.76,0-1.52,0-2.27,0-.22,0-.43,0-.64a12,12,0,0,0-1.77-5.52c-.34-.57-.71-1.13-1.11-1.69a.61.61,0,0,0-.07-.1,2.8,2.8,0,0,1-.46-1.23,1,1,0,0,1,0-.16c0-.22,0-.44,0-.66a9.65,9.65,0,0,1,.78-3.15,11.26,11.26,0,0,1,1.15-2,1.86,1.86,0,0,1,2.38-.68c2.13.77,3.14.48,4.34-1.45A6,6,0,0,0,76,42.11c.13-.35.25-.7.39-1,1.26-2.94,2.28-6.06,5-8.07a4.69,4.69,0,0,1,1.6-.77,2.88,2.88,0,0,1,2.18.3,4,4,0,0,1,1.59,1.94,13,13,0,0,1,.64,1.84,15,15,0,0,1,.08,6.95,28.31,28.31,0,0,0-.52,3.3A12.13,12.13,0,0,0,87.31,51c0,.18.11.34.17.5.64,1.77,1.73,2.53,3.79,2.58,1.35,0,2.7,0,4,.11s1.92.72,1.9,1.54a2.07,2.07,0,0,1-.5,1.24Z"/><path class="b" d="M57,64.28c-2.24,1.56-4,3.55-4.15,6.44a2.94,2.94,0,0,0,1,2.06,2,2,0,0,0,1.91.06A10.09,10.09,0,0,0,60,66.39C60,64.25,58.38,63.31,57,64.28Zm-2.23,7c-.48-1.89,1.47-4.92,3.51-5.45A8.24,8.24,0,0,1,54.77,71.26Z"/><path class="b" d="M51.46,59.46c-.38-.15-.77-.28-1.16-.42a2.53,2.53,0,0,0-3.4,1.63,5.51,5.51,0,0,0,1,5.18,2.43,2.43,0,0,0,4.28-.6,8.12,8.12,0,0,0,.94-3.2C53.16,60.48,52.89,60,51.46,59.46Zm-.29,3.09a6.71,6.71,0,0,1-.47,1.81c-.35.81-1.05.91-1.53.17a4.4,4.4,0,0,1-1-2.3,1.2,1.2,0,0,1,.86-1.37,3.41,3.41,0,0,1,1.79.1c.21.08.31.32.35.61v0A3.64,3.64,0,0,1,51.17,62.55Z"/><path class="b" d="M48.91,70.64A5.44,5.44,0,0,0,46,67.12c-1.59-.88-3.41.72-3.4,2.48a4.27,4.27,0,0,0,2.06,3.89c1,.76,2.21,1.36,3.4.6S49.2,71.9,48.91,70.64ZM46,72.3c-1.34-.77-2-1.88-1.55-2.87a1.08,1.08,0,0,1,.85-.58c.81.1,2,1.83,2,2.71C47.34,72.62,47,72.84,46,72.3Z"/></svg>