<svg xmlns="http://www.w3.org/2000/svg" viewBox="0 0 141.73 141.73"><defs><style>.a{fill:#703c59;}.b,.c{fill:none;}.c{stroke:#703c59;stroke-linecap:round;stroke-linejoin:round;stroke-width:0;}.d{fill:#6c8f6a;}</style></defs><path class="a" d="M106.82,80.91a13.12,13.12,0,0,1,0,2c-1.65,9.32-4.75,18-11,25.33-1.24,1.45-2.36,3-3.6,4.45a10.67,10.67,0,0,1-8.35,3.81c-9.26.11-18.52.26-27.78.22a12.65,12.65,0,0,1-5.73-1.32A86.88,86.88,0,0,1,40,108.85c-2.89-2.14-4.83-5.17-6.61-8.33C31,96.31,30.34,91.6,29,87.07c-.39-1.33-.79-2.65-1.27-4.29.63.35,1,.53,1.38.76,1.45.93,3,1.78,4.32,2.82,4.42,3.42,9.85,4.45,14.88,6.42a27.89,27.89,0,0,0,9.37,1.81c7.4.21,14.83.3,22.09-1.28,4-.86,7.78-2.49,11.71-3.6,4.86-1.37,8.65-4.61,12.86-7.13.75-.45,1.45-1,2.47-1.67"/><polygon class="b" points="41.4 81.16 41.39 81.16 41.39 81.16 41.39 81.16 41.4 81.16"/><path class="b" d="M59.2,77.66a.64.64,0,0,0-.14-.15.64.64,0,0,1,.14.15Z"/><path class="b" d="M58.8,77.34a.94.94,0,0,0-.49-.11h0A.94.94,0,0,1,58.8,77.34Z"/><path class="b" d="M35,85.1h0c10.31,6.61,23.69,8.74,36.4,7.5C58.7,93.84,45.32,91.71,35,85.1Z"/><path class="b" d="M59.2,77.66c1.94,3,5,4.53,8.24,5.31.81.19,1.63.4,2.45.61-.82-.21-1.64-.42-2.45-.61-3.28-.78-6.3-2.27-8.24-5.31Z"/><path class="b" d="M80.7,85.19c.46,0,1,.83,1.43,1.31s.73,2.15,1.93,1.38a.86.86,0,0,0,.38-.44.86.86,0,0,1-.38.44c-1.2.77-1.35-.79-1.93-1.38s-1-1.33-1.43-1.31a24,24,0,0,1-2.55-.06A24,24,0,0,0,80.7,85.19Z"/><path class="b" d="M29.65,81.69c1,.64,1.91,1.24,2.86,1.78a2,2,0,0,0,1.56,0c.68-.35,1.35-.72,2-1.09l4.43-2.45c.4-.23,1.26-.61,1.94-1a31.12,31.12,0,0,1,7.35-2.23c2.41-.46,4.78-.69,7.17-1.18l.8-.16A2.11,2.11,0,0,0,59,74.77a4,4,0,0,1,1.08-1.06,2.83,2.83,0,0,1,1.31-.46h.14a2.17,2.17,0,0,1,.44,0c.63.08,1.26.2,1.89.33a18.8,18.8,0,0,1,3.43,1,13.93,13.93,0,0,1,1.68.85c1,.59,2,1.25,3,1.87a2.78,2.78,0,0,0,1.31.45,2.3,2.3,0,0,0,1.9-1c.65-.76,1.29-1.53,2-2.29.43-.51.87-1,1.33-1.5a2.92,2.92,0,0,1,1.94-.92A3,3,0,0,1,83,73.33a3.89,3.89,0,0,1,.34.52c.08.17.13.34.2.51.16.42.29.84.42,1.19l1.94.45.35.08c.63.14,1.25.29,1.86.47A32.93,32.93,0,0,1,92.25,78a69.11,69.11,0,0,1,7.72,4l.09,0a1.41,1.41,0,0,0,.9.18H101c1.25-.71,2.48-1.48,3.86-2.33l1.15-.71c-2.19-1.79-4-3.47-6.07-4.93a28.81,28.81,0,0,0-6.38-3.52,24.72,24.72,0,0,0-3.52-1.08l-1-.22a83,83,0,0,0-18.72-1.94h0c-.34,0-.67,0-1,0-1,0-2,0-3,0-.45,0-.9,0-1.35,0a18.27,18.27,0,0,0-2.67.23c-2.09.34-4.17.76-6.25,1.2l-2.18.46q-3.27.74-6.52,1.51a52,52,0,0,0-5.09,1.47A44.1,44.1,0,0,0,32.7,77c-1.62,1-3.12,2.27-4.86,3.56l.88.57C29,81.29,29.34,81.5,29.65,81.69Z"/><path class="b" d="M83.79,80.06a17.65,17.65,0,0,1-.59,2.17A3.72,3.72,0,0,0,83,83.58a3.72,3.72,0,0,1,.23-1.35A17.65,17.65,0,0,0,83.79,80.06Z"/><path class="b" d="M62.76,78.93C68,82.39,73.94,83,79.94,83.62A1.71,1.71,0,0,0,82,82.05a46.24,46.24,0,0,0,.57-5.67c-.08-.84.11-1.83-1-2.19s-1.93.19-2.54,1.15a35.05,35.05,0,0,1-2.12,3,3.57,3.57,0,0,1-4.82,1.18c-1.15-.53-2.16-1.35-3.31-1.87a58.71,58.71,0,0,0-6.1-2.37c-.58-.19-1.75-.28-2.09.54s.19,1.21.75,1.91A6.25,6.25,0,0,0,62.76,78.93Z"/><path class="b" d="M106.82,80.91c-1,.69-1.72,1.22-2.47,1.67-4.2,2.52-8,5.76-12.86,7.13-3.93,1.11-7.73,2.74-11.7,3.6-7.27,1.58-14.7,1.49-22.1,1.28a27.89,27.89,0,0,1-9.37-1.81c-5-2-10.45-3-14.88-6.42-1.36-1-2.87-1.89-4.32-2.82-.36-.23-.75-.41-1.38-.76.48,1.64.88,3,1.27,4.29,1.33,4.53,2,9.24,4.4,13.45,1.79,3.16,3.72,6.19,6.61,8.33a88.17,88.17,0,0,0,10.32,6.56,12.65,12.65,0,0,0,5.73,1.32c9.26,0,18.52-.11,27.78-.22a10.67,10.67,0,0,0,8.35-3.81c1.24-1.45,2.36-3,3.6-4.45,6.26-7.32,9.36-16,11-25.33A13.12,13.12,0,0,0,106.82,80.91Z"/><path class="b" d="M81.76,118.47c-1.07,0-2.2,0-3.27,0l-22.18.11H54.63c.13,1.08.23,2,.36,3.09H82.93c0-.72,0-1.47,0-2.2C83,118.49,82.68,118.47,81.76,118.47Z"/><path class="b" d="M104.67,101.75c3.08.43,5.49-1.56,4.9-4.19-.39-1.69-1.78-2.61-3.43-3.43l-2.6,5.49C102.79,101.21,103,101.51,104.67,101.75Z"/><path class="b" d="M84.3,77.63c-.1.43-.19.85-.27,1.25.08-.4.17-.82.27-1.25,5.22.83,9.84,3.34,14.44,6.07h0C94.14,81,89.52,78.46,84.3,77.63Z"/><path class="b" d="M109.8,90c-1.61-1.58-2.27-1.35-3,.73-.14.38-.25.77-.28.88,1.32,1.19,2.51,2.21,3.64,3.29,1.51,1.44,1.54,3.22.94,5a4.66,4.66,0,0,1-3.88,3.39,15,15,0,0,1-4,.09,1.85,1.85,0,0,0-2.41,1.52c2.15,1,4.34.82,6.58.69,4.87-.3,7.06-4.91,6.87-8.61C114.05,94,111.82,92,109.8,90Z"/><path class="a" d="M116,96.38c-.71-4.72-4-7.44-7.84-9.91a12.31,12.31,0,0,1,.22-1.28c1-3.71-.15-6.67-3.1-9-1.81-1.45-3.59-3-5.48-4.31a21,21,0,0,0-8.51-4c-3.8-.65-7.58-1.62-11.41-1.9-9.66-.7-19.31-.76-28.8,1.83-8.49,2.31-17,4.58-23.77,10.71-1.46,1.32-2,2.55-1.46,4.37.76,2.73,1.44,5.48,2.16,8.22,2,7.47,4.71,14.51,11.06,19.49.69.54.64,1.06.27,1.81a22.12,22.12,0,0,0-2.6,7.11c-.68,5.23,3.64,14.83,17.91,15.14,25.8.56,33.26,1.36,40.43-2.89a13.79,13.79,0,0,0,4.84-6.56c.87-3.56,1-8.56-1-11.22-.84-1.14-1.79-2.2-2.71-3.31.88-1.14,1.76-2.22,2.56-3.35.46-.64.93-.66,1.67-.54a32.19,32.19,0,0,0,6.45.77A9.81,9.81,0,0,0,116,96.38ZM32.7,77a44.1,44.1,0,0,1,9.52-4.57,52,52,0,0,1,5.09-1.47q3.25-.78,6.52-1.51L56,69c2.08-.44,4.16-.86,6.25-1.2a18.27,18.27,0,0,1,2.67-.23c.45,0,.9,0,1.35,0,1,0,2,0,3,0,.34,0,.67,0,1,0h0a83,83,0,0,1,18.72,1.94l1,.22a24.72,24.72,0,0,1,3.52,1.08A28.81,28.81,0,0,1,100,74.31c2,1.46,3.88,3.14,6.07,4.93L104.9,80c-1.38.85-2.61,1.62-3.86,2.33H101a1.41,1.41,0,0,1-.9-.18l-.09,0a69.11,69.11,0,0,0-7.72-4,32.93,32.93,0,0,0-4.11-1.47c-.61-.18-1.23-.33-1.86-.47L85.93,76,84,75.55c-.13-.35-.26-.77-.42-1.19-.07-.17-.12-.34-.2-.51a3.89,3.89,0,0,0-.34-.52,3,3,0,0,0-2.59-1.23A2.92,2.92,0,0,0,78.5,73c-.46.48-.9,1-1.33,1.5-.66.76-1.3,1.53-2,2.29a2.3,2.3,0,0,1-1.9,1A2.78,2.78,0,0,1,72,77.32c-1-.62-2-1.28-3-1.87a13.93,13.93,0,0,0-1.68-.85,18.8,18.8,0,0,0-3.43-1c-.63-.13-1.26-.25-1.89-.33a2.17,2.17,0,0,0-.44,0h-.14a2.83,2.83,0,0,0-1.31.46A4,4,0,0,0,59,74.77a2.11,2.11,0,0,1-1.24.65l-.8.16c-2.39.49-4.76.72-7.17,1.18A31.12,31.12,0,0,0,42.46,79c-.68.34-1.54.72-1.94,1l-4.43,2.45c-.67.37-1.34.74-2,1.09a2,2,0,0,1-1.56,0c-.95-.54-1.88-1.14-2.86-1.78-.31-.19-.62-.4-.93-.6l-.88-.57C29.58,79.23,31.08,78,32.7,77Zm66,6.74a61.8,61.8,0,0,1-24.69,8.6q-1.32.18-2.64.3C58.7,93.84,45.32,91.71,35,85.1h0c2.22-1.37,4.72-3.07,6.38-3.94h0a36.61,36.61,0,0,1,10-3.11c2.38-.39,4.52-.47,6.9-.82h0a.94.94,0,0,1,.49.11,1.67,1.67,0,0,1,.26.17.64.64,0,0,1,.14.15c1.94,3,5,4.53,8.24,5.31.81.19,1.63.4,2.45.61a48.3,48.3,0,0,0,8.26,1.55,24,24,0,0,0,2.55.06c.46,0,1,.83,1.43,1.31s.73,2.15,1.93,1.38a.86.86,0,0,0,.38-.44.71.71,0,0,0,.06-.38,1.18,1.18,0,0,0-.1-.3,9.15,9.15,0,0,0-.74-1.16,4.28,4.28,0,0,1-.69-2,3.72,3.72,0,0,1,.23-1.35,17.65,17.65,0,0,0,.59-2.17c.08-.38.16-.77.24-1.18s.17-.82.27-1.25c5.22.83,9.84,3.34,14.44,6.07ZM60.57,75.81c.34-.82,1.51-.73,2.09-.54a58.71,58.71,0,0,1,6.1,2.37c1.15.52,2.16,1.34,3.31,1.87a3.57,3.57,0,0,0,4.82-1.18,35.05,35.05,0,0,0,2.12-3c.61-1,1.34-1.54,2.54-1.15s.94,1.35,1,2.19A46.24,46.24,0,0,1,82,82.05a1.71,1.71,0,0,1-2.06,1.57c-6-.59-12-1.23-17.18-4.69a6.25,6.25,0,0,1-1.44-1.21C60.76,77,60.11,76.56,60.57,75.81ZM98.12,123c-.34,1.55-.35,2.78-1.66,4.44-4.59,5.83-9.17,5.53-36.16,5.2-16.82.05-18.9-5.12-20-6.95-2.61-4.26-1.79-8.7,1.22-12.73q3.61,2.06,7.24,4.1a8.94,8.94,0,0,0,1.75.81c1.79.87,2.22,1.23,2.34,2.78.18,2.51.46,2.72,3,2.76l26.78.37c2,0,2.45-.38,2.42-2.43,0-2.65,0-2.63,2.52-3.38a12.16,12.16,0,0,0,5.89-3.8c.52-.59,1-1.21,1.51-1.84C98.21,115.25,98.45,117.09,98.12,123Zm-15.19-1.29H55c-.13-1.12-.23-2-.36-3.09h1.68l22.18-.11c1.07,0,2.2,0,3.27,0,.92,0,1.26,0,1.19,1C82.89,120.2,82.93,121,82.93,121.67ZM95.8,108.25c-1.24,1.45-2.36,3-3.6,4.45a10.67,10.67,0,0,1-8.35,3.81c-9.26.11-18.52.26-27.78.22a12.65,12.65,0,0,1-5.73-1.32A88.17,88.17,0,0,1,40,108.85c-2.89-2.14-4.82-5.17-6.61-8.33C31,96.31,30.34,91.6,29,87.07c-.39-1.33-.79-2.65-1.27-4.29.63.35,1,.53,1.38.76,1.45.93,3,1.78,4.32,2.82,4.43,3.42,9.85,4.45,14.88,6.42a27.89,27.89,0,0,0,9.37,1.81c7.4.21,14.83.3,22.1-1.28,4-.86,7.77-2.49,11.7-3.6,4.86-1.37,8.66-4.61,12.86-7.13.75-.45,1.45-1,2.47-1.67a13.12,13.12,0,0,1,0,2C105.16,92.24,102.06,100.93,95.8,108.25Zm10.34-14.12c1.65.82,3,1.74,3.43,3.43.59,2.63-1.82,4.62-4.9,4.19-1.72-.24-1.88-.54-1.13-2.13Zm1.21,11.51c-2.24.13-4.43.29-6.58-.69a1.85,1.85,0,0,1,2.41-1.52,15,15,0,0,0,4-.09,4.66,4.66,0,0,0,3.88-3.39c.6-1.82.57-3.6-.94-5-1.13-1.08-2.32-2.1-3.64-3.29,0-.11.14-.5.28-.88.75-2.08,1.41-2.31,3-.73,2,2,4.25,3.94,4.42,7C114.41,100.73,112.22,105.34,107.35,105.64Z"/><line class="c" x1="59.2" y1="77.66" x2="59.2" y2="77.66"/><path class="d" d="M84,78.88c-.08.41-.16.8-.24,1.18a17.65,17.65,0,0,1-.59,2.17A3.72,3.72,0,0,0,83,83.58a4.28,4.28,0,0,0,.69,2,9.15,9.15,0,0,1,.74,1.16,1.18,1.18,0,0,1,.1.3.71.71,0,0,1-.06.38.86.86,0,0,1-.38.44c-1.2.77-1.35-.79-1.93-1.38s-1-1.33-1.43-1.31a24,24,0,0,1-2.55-.06,48.3,48.3,0,0,1-8.26-1.55c-.82-.21-1.64-.42-2.45-.61-3.28-.78-6.3-2.27-8.24-5.31h0a.64.64,0,0,0-.14-.15,1.67,1.67,0,0,0-.26-.17.94.94,0,0,0-.49-.11h0c-2.38.35-4.52.43-6.9.82a36.61,36.61,0,0,0-10,3.11h0C39.73,82,37.23,83.73,35,85.1h0c10.31,6.61,23.69,8.74,36.4,7.5q1.32-.12,2.64-.3a61.8,61.8,0,0,0,24.69-8.6h0c-4.6-2.73-9.22-5.24-14.44-6.07C84.2,78.06,84.11,78.48,84,78.88Z"/><path class="d" d="M94.93,112.29c-.51.63-1,1.25-1.51,1.84a12.16,12.16,0,0,1-5.89,3.8c-2.55.75-2.56.73-2.52,3.38,0,2-.37,2.46-2.42,2.43l-26.78-.37c-2.52,0-2.8-.25-3-2.76-.12-1.55-.55-1.91-2.34-2.78a8.94,8.94,0,0,1-1.75-.81q-3.63-2-7.24-4.1c-3,4-3.83,8.47-1.22,12.73,1.12,1.83,3.2,7,20,6.95,27,.33,31.57.63,36.16-5.2,1.31-1.66,1.32-2.89,1.66-4.44C98.45,117.09,98.21,115.25,94.93,112.29Z"/><path class="b" d="M95.11,9.08A5.09,5.09,0,0,0,92,11.81,6.27,6.27,0,0,1,95.11,9.08Z"/><path class="b" d="M100,8.94a3.87,3.87,0,0,1,2.69,4.26A3.78,3.78,0,0,0,100,8.94Z"/><path class="d" d="M103.94,10.11a5.86,5.86,0,0,0-4.81-3.42,8.32,8.32,0,0,0-7.5,2.46,37,37,0,0,0-6.15,12c-2.29,7.17-4.57,14.32-8.06,21-2.08,4-3.9,8.12-5.77,12.21a10.94,10.94,0,0,0-.8,2.94c-.18,1.29.42,1.89,1.69,1.64a7.82,7.82,0,0,0,2.57-1,35.74,35.74,0,0,0,5.13-3.6q6-5.51,11.76-11.3a20,20,0,0,0,3.67-4.89,151.7,151.7,0,0,0,6.56-14C103.54,20.86,106.08,14.09,103.94,10.11ZM99.11,27.33c-1.22,2.9-2.67,5.72-4.13,8.51a28.32,28.32,0,0,1-6,7.62c-2.4,2.19-4.54,4.68-7,6.8s-5.14,3.92-7.75,5.85a3.89,3.89,0,0,1-1,.36l-.32-.26c.56-1.25,1.12-2.5,1.7-3.75,3-6.45,6.07-12.85,8.94-19.35a62.4,62.4,0,0,0,2.69-8.2c1.29-4.65,3.53-8.86,5.75-13.1a5.09,5.09,0,0,1,3.16-2.73,6.87,6.87,0,0,1,3-.52,7,7,0,0,1,1.86.38,3.78,3.78,0,0,1,2.69,4.26A43.53,43.53,0,0,1,99.11,27.33Z"/><path class="d" d="M63.56,52.07l-.22-.17c-3.9-3.69-7.89-7.3-11.67-11.11C49,38.06,46.57,35,44,32.18c-1.41-1.54-3-1.38-4.37.25a12.11,12.11,0,0,0-2.84,7.11,29.88,29.88,0,0,0,1.15,4.25c2.77,6.47,8.12,9.84,14.58,11.67a27.46,27.46,0,0,0,9.22,1c1.3-.07,2.64.35,3.4-1.1C65.68,54.3,65.2,53.35,63.56,52.07Zm-.36,2.61A35.71,35.71,0,0,1,51,53c-5.2-1.76-9.3-4.82-11.49-10a8.23,8.23,0,0,1,1-8.68c1.15-1.53,1.81-1.6,3.08-.2A64.53,64.53,0,0,1,48.72,40c3.56,5,8.34,8.7,12.79,12.77.6.55,1.25,1,1.87,1.57Z"/><path class="b" d="M62.62,17.77c-.73-.27-1.37,0-1.69.95C61.32,17.83,61.92,17.52,62.62,17.77Z"/><path class="b" d="M66.63,42.08c.17.22.33.45.5.68a.46.46,0,0,1,.07.07.46.46,0,0,0-.07-.07C67,42.53,66.8,42.3,66.63,42.08Z"/><path class="b" d="M63.52,18.35l-.15-.14,0,0,0,0Z"/><path class="b" d="M67.94,43.39A.73.73,0,0,0,69,43,.73.73,0,0,1,67.94,43.39Z"/><path class="b" d="M64.69,19.68a.24.24,0,0,1,.06.08C68.08,25.21,70.28,31,70,37.52a16.94,16.94,0,0,1-.3,2.44,16.94,16.94,0,0,0,.3-2.44c.27-6.5-1.93-12.32-5.26-17.76A.24.24,0,0,0,64.69,19.68Z"/><path class="d" d="M69.05,23.33a15.89,15.89,0,0,0-4.32-6.41C62.47,15,60,15.42,58.91,18.13A13.25,13.25,0,0,0,57.47,24a32.08,32.08,0,0,0,8.2,19.83A5.44,5.44,0,0,0,67,44.9c1.56,1,3,.56,3.61-1.15A26.19,26.19,0,0,0,71.74,39C72.68,33.5,71.13,28.35,69.05,23.33Zm1,14.19a16.94,16.94,0,0,1-.3,2.44c-.17.92-.39,1.84-.59,2.74a1.5,1.5,0,0,1-.1.3.73.73,0,0,1-1.08.39,1.46,1.46,0,0,1-.41-.24,2.5,2.5,0,0,1-.33-.32.46.46,0,0,0-.07-.07c-.17-.23-.33-.46-.5-.68-3.26-4.35-5.9-9-6.75-14.49-.35-3.3-.54-5.26,1-8.86h0c.32-.92,1-1.22,1.69-.95a2.63,2.63,0,0,1,.71.41l0,0,.15.14a5.92,5.92,0,0,1,1.17,1.33.24.24,0,0,1,.06.08C68.08,25.2,70.28,31,70,37.52Z"/></svg>