<svg xmlns="http://www.w3.org/2000/svg" viewBox="0 0 1098 1098"><defs><style>.a{fill:#db0c15;}.b{fill:#fff;}.c{fill:#ffdc00;}</style></defs><rect class="a" x="65.45" y="65.45" width="967.1" height="967.1"/><polygon class="b" points="186.56 767.23 186.72 709.35 197.36 709.52 197.19 757.5 221.95 757.66 221.79 767.23 186.56 767.23"/><rect class="b" x="475.3" y="952.8" width="14.89" height="4.78"/><polygon class="b" points="553.2 973.61 553.14 941.96 539.78 969.2 535.11 969.2 521.75 941.96 521.75 973.61 515.04 973.61 515.04 931.27 523.49 931.27 537.48 959.39 551.38 931.27 559.81 931.27 559.81 973.61 553.2 973.61"/><path class="b" d="M242.26,812.36c-21.31,0-38.67,17-38.67,37.89,0,21.08,17.36,38.21,38.67,38.21a38.24,38.24,0,0,0,38.2-38.21c0-21.24-16.77-37.89-38.2-37.89m-.15,91c-31.14,0-55.55-23.34-55.55-53.14,0-30.11,23.89-52.82,55.55-52.82,31.16,0,55.55,23.21,55.55,52.82,0,29.8-24.39,53.14-55.55,53.14"/><path class="b" d="M352,903.25c-23.53,0-40-16.51-40-40.14,0-23.8,16.44-40.43,40-40.43,13.86,0,25.12,4.36,32.54,12.62l-8.83,10.36a31.1,31.1,0,0,0-22.35-8.83h-.59c-14.4,0-24.47,10.82-24.47,26.28s10.07,26.27,24.45,26.27c10.05,0,18.23-3.27,23.76-9.43l8.93,8.93c-7.36,9.4-18.93,14.37-33.44,14.37"/><path class="b" d="M436.86,903.25c-23.53,0-40-16.51-40-40.14,0-23.8,16.44-40.43,40-40.43,13.86,0,25.12,4.36,32.54,12.62l-8.83,10.36a31.07,31.07,0,0,0-22.35-8.83h-.59c-14.4,0-24.47,10.82-24.47,26.28s10.07,26.27,24.45,26.27c10.05,0,18.22-3.27,23.76-9.43l8.93,8.93c-7.36,9.4-18.93,14.37-33.44,14.37"/><path class="b" d="M497.8,809.62a9.51,9.51,0,0,1-9.58-9.87c0-5.73,4.13-10,9.58-10s9.56,4.3,9.56,10a9.5,9.5,0,0,1-9.56,9.87m-8.07,13.67h16.15v79.35H489.73Z"/><path class="b" d="M560.62,903.39c-5.16,0-22-1.63-22-22.87v-42.3H527.3V826.31h11.34V804.23h16.13v22.08h23.74v11.91H554.77v39.11c0,7.93,2.83,11.45,9.18,11.45,3.36,0,7-1,11.77-3.27l4,12.29a37.83,37.83,0,0,1-19.14,5.59"/><path class="b" d="M625.54,867c-11.89,0-17.17,3.48-17.17,11.3,0,7.57,6.33,12.48,16.13,12.48,12.6,0,22.43-6.63,23.38-15.77l0-8Zm-4.67,36.45c-16.34,0-27.75-10-27.75-24.41S604.57,855.5,623,855.35H647.9v-3c0-10.8-7-16.74-19.78-16.74-7.74,0-15.66,2.67-23.57,7.93L598,832.46c11.2-6.63,19.25-9.78,33.87-9.78,20.17,0,31.83,10.11,32,27.75l.14,52.21H648V892.51l-3.56,3.23c-5.54,5-13.72,7.66-23.61,7.66"/><path class="b" d="M750.78,902.64V858c0-12.38-7.63-20.07-19.9-20.07-13.13.14-22.08,8.74-23.4,22.44v42.29H691.2V823.29h16.28V839l3.83-5.07c5.67-7.49,14.51-11.29,26.36-11.29,18.14,0,29.38,11.66,29.38,30.45v49.51Z"/><path class="b" d="M802.3,809.62a9.51,9.51,0,0,1-9.58-9.87c0-5.73,4.13-10,9.58-10s9.57,4.3,9.57,10a9.5,9.5,0,0,1-9.57,9.87m-8.07,13.67h16.13v79.35H794.23Z"/><path class="b" d="M872.69,835.49c-12.31,0-21.2,7.24-23.8,19.4l-.55,2.58h47.39l-.25-2.35c-1.28-12.29-9.81-19.63-22.79-19.63m.29,67.76c-24.26,0-40.57-16.13-40.57-40.12,0-23.67,16.5-40.28,40.13-40.45,12.12,0,21.45,3.44,27.74,10.21,7.34,7.89,10.49,20.05,9.4,36.17H848.57l.8,2.73c3.36,11.41,12.92,18.5,25,18.5A32,32,0,0,0,897,881.16l8.5,9c-8,8.54-19.23,13-32.53,13"/><path class="b" d="M245,748.06c-6,0-8.49,1.56-8.49,5.35s3,6,7.92,6c6.4,0,11.37-3.3,11.85-7.82v-3.34Zm-2.52,19.57c-9.18,0-15.62-5.68-15.62-13.84,0-8.33,6.27-13.34,16.76-13.42h12.47l.19-.86c0-5.41-3.44-8.24-9.9-8.24a22.12,22.12,0,0,0-12.49,4.3l-.55.35-4.19-7.51.46-.08c6.27-3.73,10.67-5.49,18.81-5.49,11.28,0,17.8,5.68,17.89,15.62l.08,28.94-10.21-.17.17-4.15v-.4l-.3.29c-3.12,3-7.82,4.66-13.57,4.66"/><path class="b" d="M310,740.45l13.05.16c8.87,0,13.38-3.71,13.38-11,0-7.05-4.51-10.64-13.38-10.64H310Zm-10.63,26.78.17-57.9,23.51.19c14.82,0,23.34,7.23,23.34,19.83,0,8.85-4,15.44-11.37,18.56l12.73,19.32H335.65l-10.23-17.12c-.88,0-1.64,0-2.41,0H310.13l-.17,17.3Z"/><path class="b" d="M369.1,717.84l9.37-13.08,10.76,4.69-10.86,8.39ZM376,731.18c-6.25,0-10.91,3.88-12.14,10.13l23.5.21C387,735,382.61,731.18,376,731.18m.14,36.38c-13.46,0-22.52-8.95-22.52-22.29,0-13.13,9.17-22.35,22.29-22.44,6.71,0,11.91,1.93,15.44,5.73,4.11,4.42,5.87,11.24,5.2,20.23l0,.57-32.26-.17a12.41,12.41,0,0,0,12.63,9.94,16.37,16.37,0,0,0,11.87-4.91l.44-.44,5.53,6.15-.39.17c-4.45,4.88-10.72,7.46-18.19,7.46"/><path class="b" d="M424.65,731.25c-7.09,0-12.08,5.28-12.16,12.81.08,7.69,5,12.87,12.16,12.87s12-5.28,12-12.87-4.93-12.81-12-12.81m-.74,52a32,32,0,0,1-18.18-5.77l-.48-.31,4.68-7.59.27.46a21.18,21.18,0,0,0,13.32,4.63c8,0,13.12-4.65,13.12-11.85v-4l-.31.38c-3.11,3.88-7.78,5.93-13.55,5.93-11.91,0-19.92-8.55-19.92-21.3,0-12.46,7.86-20.89,19.59-21,6,0,10.67,2,13.88,5.95l.31.4V723l10.3.17-.17,39.42c0,12.54-9,20.66-22.86,20.66"/><path class="b" d="M464,717.28a6.07,6.07,0,1,1,5.87-6,5.81,5.81,0,0,1-5.87,6m-5.24,50,.17-44.24,10.29.16L469,767.23Z"/><path class="b" d="M500.89,731.73c-7.55,0-12.81,5.56-12.81,13.55s5.16,13.61,12.81,13.61c7.49,0,12.73-5.6,12.73-13.61s-5.24-13.55-12.73-13.55m0,35.82c-13.55,0-23-9.18-23-22.35,0-13.38,9.25-22.36,23-22.36,13.48,0,22.92,9.19,22.92,22.36s-9.44,22.35-22.92,22.35"/><path class="b" d="M532.52,767.23l.17-44.23,10.38.17-.17,6.5v.56l.31-.46c3.17-4.61,8.26-6.94,15.16-6.94,10.19,0,16.53,6.55,16.53,17.09v27.31H564.52l.17-24.73c0-6.29-3.74-10-10-10-6.62.08-11.15,4.44-11.82,11.38v23.55Z"/><path class="b" d="M195,954.43h9.44c6.54,0,10.23-2.79,10.23-8.53,0-5.56-3.69-8.22-10.23-8.22H195Zm9.75-23.17c10.66,0,16.76,5.26,16.76,14.45,0,9.56-6.1,15.14-16.76,15.14H195V973.6h-7.13V931.26Z"/><path class="b" d="M242.27,978c-2,5.08-5.62,7.63-10.47,7.63a11,11,0,0,1-7.44-2.72l2.95-5.39a6.87,6.87,0,0,0,4.18,1.57c2.12,0,3.81-1.15,4.9-3.56l1.09-2.41-13.31-31.71h7.21L241,965.8l8.95-24.37h7Z"/><path class="b" d="M269.06,947.84c2.18-4.37,6-6.65,11.13-6.65v6.65c-6.48-.36-10.59,3.43-11.13,8.95v16.82h-7V941.44h7Z"/><path class="b" d="M294.76,936.82l6.42-9,7.13,3-7.39,5.91Zm13.42,18.29c-.23-5.2-3.67-8.37-8.95-8.37-5.08,0-8.64,3.21-9.42,8.37Zm6.06,5.07H289.92a9.81,9.81,0,0,0,10,8.05,12.47,12.47,0,0,0,9.08-3.77l3.69,3.94a17.56,17.56,0,0,1-13.32,5.45c-9.92,0-16.46-6.6-16.46-16.27s6.73-16.34,16.29-16.4c11.31,0,15.92,7.38,15.06,19"/><path class="b" d="M352.28,953.59v20h-7v-18.1c0-4.84-2.89-7.8-7.74-7.8-5.32.07-8.66,3.76-9.14,8.79v17.11H321.5V941.42h6.94v6.17c2.31-4.47,6.42-6.4,11.87-6.4,7.5,0,12,4.72,12,12.4"/><path class="b" d="M370.42,936.82l6.42-9,7.13,3-7.38,5.91Zm13.42,18.29c-.23-5.2-3.67-8.37-8.95-8.37-5.08,0-8.64,3.21-9.42,8.37Zm6.06,5.07H365.58a9.81,9.81,0,0,0,10,8.05,12.47,12.47,0,0,0,9.08-3.77l3.69,3.94A17.56,17.56,0,0,1,375,973.85c-9.91,0-16.46-6.6-16.46-16.27s6.73-16.34,16.3-16.4c11.3,0,15.91,7.38,15,19"/><path class="b" d="M419.42,955.1c-.25-5.2-3.69-8.34-8.95-8.34-5.1,0-8.66,3.2-9.44,8.34Zm6,5.08H401.14a9.83,9.83,0,0,0,10,8.05,12.57,12.57,0,0,0,9.08-3.76l3.67,3.93c-3.15,3.46-7.74,5.45-13.32,5.45-9.9,0-16.44-6.59-16.44-16.27s6.71-16.34,16.27-16.38c11.31,0,15.92,7.36,15.06,19"/><path class="b" d="M453.59,944.39l-2.54,5.14a19.09,19.09,0,0,0-9.25-2.83c-2.72,0-4.74.9-4.74,3.18,0,5.94,17.14,2.73,17.07,14.41,0,6.61-5.87,9.56-12.33,9.56-4.74,0-9.75-1.57-13-4.49l2.48-4.94a17.58,17.58,0,0,0,10.78,4c2.95,0,5.26-1,5.26-3.44,0-6.6-16.94-2.91-16.88-14.53,0-6.52,5.68-9.31,11.85-9.31a20.34,20.34,0,0,1,11.26,3.27"/><path class="b" d="M579.38,936.82l6.42-9,7.13,3-7.38,5.91Zm13.42,18.29c-.23-5.2-3.67-8.37-8.95-8.37-5.08,0-8.64,3.21-9.42,8.37Zm6.06,5.07H574.54a9.81,9.81,0,0,0,10,8.05,12.47,12.47,0,0,0,9.08-3.77l3.69,3.94A17.56,17.56,0,0,1,584,973.85c-9.92,0-16.46-6.6-16.46-16.27s6.73-16.34,16.27-16.4c11.33,0,15.94,7.38,15.08,19"/><path class="b" d="M629.83,957.64c0-6.23-4.07-10.59-9.86-10.59s-9.87,4.41-9.91,10.59,4,10.47,9.91,10.47,9.86-4.36,9.86-10.47m7,16h-7v-5.49c-2.31,3.75-6.17,5.81-11.3,5.81-9.27,0-15.44-6.71-15.44-16.53,0-9.67,6.23-16.27,15.31-16.27,5.2,0,9.08,2.12,11.43,5.87V928.73h7Z"/><path class="b" d="M647.36,941.43h6.9v32.19h-6.9Zm7.51-9.21a4.06,4.06,0,1,1-4-4.23,4,4,0,0,1,4,4.23"/><path class="b" d="M682.75,971.55a15.46,15.46,0,0,1-7.93,2.35c-4.84,0-9-2.77-9-9.38V947.83h-4.53v-5.2h4.53V933.8h6.9v8.83h9.5v5.2h-9.5v15.43c0,3.34,1.28,4.37,3.44,4.37a11.21,11.21,0,0,0,4.87-1.41Z"/><path class="b" d="M711.06,955.1c-.25-5.2-3.69-8.34-8.95-8.34-5.1,0-8.66,3.2-9.44,8.34Zm6,5.08H692.77a9.84,9.84,0,0,0,10,8.05,12.49,12.49,0,0,0,9.06-3.76l3.69,3.93c-3.15,3.46-7.74,5.45-13.32,5.45-9.92,0-16.44-6.59-16.44-16.27s6.71-16.34,16.27-16.38c11.31,0,15.9,7.36,15.06,19"/><path class="b" d="M731.31,947.84c2.18-4.37,6-6.65,11.14-6.65v6.65c-6.48-.36-10.59,3.43-11.14,8.95v16.82h-7V941.44h7Z"/><path class="b" d="M755.14,947.84c2.18-4.37,6-6.65,11.14-6.65v6.65c-6.48-.36-10.59,3.43-11.14,8.95v16.82h-7V941.44h7Z"/><path class="b" d="M790,962.3v-3h-8.71c-4.55,0-6.67,1.22-6.67,4.3,0,2.91,2.37,4.78,6.25,4.78,4.95,0,8.77-2.6,9.13-6.1m.06,7.38c-2.31,2.83-6,4.24-10.65,4.24-6.95,0-11.31-4.3-11.31-10,0-5.87,4.43-9.62,12.17-9.68H790v-1c0-4-2.6-6.48-7.68-6.48a17,17,0,0,0-9.5,3.27L770,945.23c4.49-2.66,7.74-4.05,13.86-4.05,8.28,0,13,4.24,13,11.3l.06,21.12H790Z"/><path class="b" d="M837,953.59v20h-7v-18.1c0-4.84-2.89-7.8-7.74-7.8-5.32.07-8.66,3.76-9.14,8.79v17.11h-6.94V941.42h6.94v6.17c2.31-4.47,6.42-6.4,11.87-6.4,7.51,0,12,4.72,12,12.4"/><path class="b" d="M855.12,936.82l6.41-9,7.13,3-7.38,5.91Zm13.42,18.29c-.23-5.2-3.67-8.37-9-8.37-5.07,0-8.64,3.21-9.41,8.37Zm6.06,5.07H850.27a9.82,9.82,0,0,0,10,8.05,12.45,12.45,0,0,0,9.08-3.77L873,968.4a17.56,17.56,0,0,1-13.31,5.45c-9.92,0-16.46-6.6-16.46-16.27s6.73-16.34,16.29-16.4c11.3,0,15.9,7.38,15.06,19"/><path class="b" d="M904.11,955.1c-.25-5.2-3.69-8.34-9-8.34-5.1,0-8.66,3.2-9.44,8.34Zm6,5.08H885.83a9.82,9.82,0,0,0,10,8.05,12.5,12.5,0,0,0,9.08-3.76l3.69,3.93c-3.15,3.46-7.74,5.45-13.32,5.45-9.89,0-16.44-6.59-16.44-16.27s6.71-16.34,16.28-16.38c11.3,0,15.91,7.36,15,19"/><path class="c" d="M597.89,202.23A15.82,15.82,0,0,0,582.08,218V594.88a15.81,15.81,0,0,0,31.62,0V218a15.82,15.82,0,0,0-15.81-15.81"/><path class="c" d="M667.43,229.76a15.82,15.82,0,0,0-15.81,15.81V567.39a15.81,15.81,0,0,0,31.62,0V245.57a15.82,15.82,0,0,0-15.81-15.81"/><path class="c" d="M737,290.34a15.85,15.85,0,0,0-15.83,15.83V506.6a15.82,15.82,0,0,0,31.64,0V306.17A15.82,15.82,0,0,0,737,290.34"/><path class="c" d="M807.52,381.34a24.88,24.88,0,1,0,24.89,24.87,24.88,24.88,0,0,0-24.89-24.87"/><path class="c" d="M569.58,160.12a24.89,24.89,0,1,0-38.61,2.2c-21.43,25.94-49.55,41.67-60.41,47.14a24.89,24.89,0,1,0-7.91,29.67c27.49,42.32,35.27,92.35,37.45,117.41-25.07-2.16-75.19-9.88-117.55-37.41a24.85,24.85,0,1,0-29.76,8.37c-6.2,12.47-24.09,44.87-49,61.71a24.89,24.89,0,1,0,0,34c24.89,16.86,42.74,49.3,49,61.76a24.92,24.92,0,1,0,29.74,8.36c42.36-27.53,92.52-35.25,117.58-37.41-2.16,25-9.88,75-37.48,117.43A24.85,24.85,0,1,0,470.58,603c10.86,5.43,38.92,21.07,60.41,47.11a24.87,24.87,0,1,0,38.59,2.23c-21.37-36.68-55.72-60.14-75.77-71.49,37.73-64.65,37.67-137.79,37.62-141.1l-.1-15-15-.14c-3.32,0-76.48-.21-141.13,37.45-8.43-15.27-23.3-38.48-43.55-55.84,20.23-17.37,35.1-40.56,43.53-55.78,64.65,37.64,137.81,37.47,141.15,37.43l15-.15.1-15c.05-3.31.11-76.48-37.62-141.13,20.05-11.34,54.4-34.81,75.77-71.48"/></svg>