<?xml version="1.0" encoding="UTF-8"?>
<!-- Generator: Adobe Illustrator 28.1.0, SVG Export Plug-In . SVG Version: 6.00 Build 0) -->
<svg xmlns="http://www.w3.org/2000/svg" xmlns:xlink="http://www.w3.org/1999/xlink" version="1.1" id="CF-logo_court-2024" x="0px" y="0px" viewBox="0 0 171 82" overflow="visible" xml:space="preserve"> <g> <g> <g> <g> <path fill="#451729" d="M107.6,17.8l2.7,0c-1.6-0.3-2.7-1.3-2.7-2.9c0-2,1.7-3.5,4.7-3.5l1.5,0l0,2.1l-0.8,0 c-1.7,0-2.9,0.8-2.9,1.9c0,1.5,1.5,2.4,2.8,2.4l0.8,0l0,2.1l-2.1,0l0,10.8l-2.3,0l0.1-10.8l-1.7,0L107.6,17.8z"/> <path fill="#451729" d="M116.5,22.2c0.4-2.3,2.5-4.2,6-3.6c3.4,0.7,4.6,2.9,4.1,5.5l-1.6,8.3l-2.3-0.4l0.6-3.1 c-0.8,1.4-3,2.9-5.5,2.4c-1.4-0.3-3-1.5-2.6-3.5c0.9-4.7,8.5-1.7,9.1-4.8c0.2-1-0.7-2.2-2.2-2.5c-2-0.4-3.2,0.7-3.5,2.1 L116.5,22.2z M124.1,25.2c-1.9,1.5-6.1,0.5-6.6,2.7c-0.2,0.8,0.3,1.6,1.4,1.8C122,30.2,123.9,26.3,124.1,25.2z"/> <path fill="#451729" d="M132.5,21.8l2.1,0.9l-4.8,11.9l-2.1-0.9L132.5,21.8z M135.5,17.4c0.8,0.3,1.2,1.2,0.8,2 c-0.3,0.8-1.2,1.2-2,0.8c-0.8-0.3-1.2-1.2-0.8-2C133.8,17.5,134.7,17.1,135.5,17.4z"/> <path fill="#451729" d="M143.2,32.5c0.8-1.2,0.7-2.8-1-3.9c-1.3-0.9-2.6-0.8-3.2,0c-1.4,2.1,6,5.5,3.4,9.5 c-1.2,1.8-3.6,1.9-5.4,0.7c-2.2-1.5-3.3-4.1-2-6.6l2.1,1.4c-0.7,1.3-0.1,2.7,1.1,3.5c0.9,0.6,1.8,0.4,2.3-0.4 c1.5-2.3-5.8-5.7-3.4-9.3c1.2-1.8,3.9-2,6.3-0.4c3.1,2.1,3,4.8,1.8,6.7L143.2,32.5z"/> <path fill="#451729" d="M148.4,37c2-1.1,4.8-0.8,6.6,2.3c1.7,3.1,0.7,5.4-1.6,6.7l-7.4,4.1l-1.1-2l2.7-1.5 c-1.6,0.2-4.1-0.4-5.4-2.7c-0.7-1.3-0.8-3.2,1-4.3c4.1-2.3,6.8,5.4,9.5,3.9c0.9-0.5,1.2-1.9,0.5-3.3c-1-1.8-2.6-2-3.8-1.3 L148.4,37z M151,44.7c-2.4-0.5-4.3-4.4-6.3-3.3c-0.7,0.4-1,1.3-0.5,2.2C145.8,46.3,150,45.3,151,44.7z"/> <path fill="#451729" d="M147,58.3c2.3,0.9,5.8,1.8,8.2,1.5c1.7-0.2,2.8-0.9,2.6-2.6c-0.2-1.8-2.3-3.7-6.4-3.3l-4.9,0.5l-0.2-2.3 l12.8-1.3l0.2,2.3l-3.2,0.3c2.3,0.7,3.6,2.5,3.8,4.2c0.3,2.9-1.5,4.3-4.3,4.6c-2.4,0.2-5.5-0.3-8.4-1.4L147,58.3z"/> <path fill="#451729" d="M160,65.2c-0.2,2.3,1,3.2,2.8,3.4l-0.2,2c-1.4-0.2-2.3-0.6-2.9-1.5l-0.4,3.8l-2-0.2l0.3-3.3l-6.6-0.6 c-1.4-0.1-2.1,0.1-2.2,1.6l-0.1,1.5l-2-0.2l0.2-2c0.2-2.5,1.6-3.5,4.4-3.2l6.6,0.6L158,65L160,65.2z"/> </g> </g> </g> <path fill="#451729" d="M166.9,43.4c-3.7-8.7-11.1-17.3-11.4-17.7c-0.3-0.4-8.5-10.1-22.1-15.5C121.5,5.4,106.9,5,103,4.9 c0.1-2.1,0.2-3.6,0.2-3.6S82.1,0.4,66.2,0.6C51.7,0.8,0.7,1.5,0.7,1.5S0.5,39.9,0.5,44.5c0,0,25.8,0,29.8,0c0,0-1.5,6.6-3.1,15.9 c-1.2,7.1-3.6,19.9-3.6,19.9s35.4,1.3,44.2,1.1c9-0.2,45.6-0.5,52.8-0.4c7.6,0,17.5,0,17.5,0l0.2-2.5l31.9,0.9l0-0.9 C170.4,77.5,171.6,54.3,166.9,43.4z M41,7.8h3.9V21h17.7V7.8h3.9V38h-3.9V24.4H44.9V38H41V7.8z M23.3,38.4C14.7,38.4,9,31.5,9,22.9 c0-8.6,5.7-15.5,14.3-15.5c7.5,0,12.8,5.3,14,12.4h-4.1c-0.9-5-4.4-8.9-9.9-8.9c-6.6,0-10.2,5.5-10.2,12c0,6.6,3.6,12,10.2,12 c3,0,5.4-1.1,7.1-3h4.7C32.6,35.9,28.5,38.4,23.3,38.4z M72.1,74l-5.4-26.7H66L59.7,74h-6.2L47,47.3h-0.7L40.9,74H37l6.5-30.1h6.7 l6.2,26H57l6.2-26h6.5L76,74H72.1z M87.4,74h-3.9V43.9h3.9V74z M95,38H73V7.8h21.5v3.4H76.9V21H92v3.4H76.9v10.1H95V38z M122.9,74 h-5l-16.1-24.3h-0.4V74h-3.9V43.9h5l16.1,24.3h0.4V43.9h3.9V74z M168.5,77.5l-29.6-0.9c0.2-1.8,0.7-5.6,0.9-9.7 c0.2-3.9,0.6-9.8-1.1-14.7c-2-6.1-3.9-7.7-7.2-10.5l-0.5-0.4c-4.3-3.7-10.2-5.9-17-6.2l-12.5-1c0.2-7.7,0.7-17.5,1.4-27.3 c3.6,0,18.3,0.5,29.8,5.1c13.1,5.2,21.3,14.9,21.3,15c0.1,0.1,7.5,8.8,11.1,17.2C169.2,53.4,168.7,73.1,168.5,77.5z"/> </g> </svg>