<svg xmlns="http://www.w3.org/2000/svg" xmlns:xlink="http://www.w3.org/1999/xlink" viewBox="0 0 76.08 400.046"><defs><style>.a{fill:url(#a);}.b{fill:#76559f;}.c{fill:none;}</style><linearGradient id="a" x1="38.04" y1="35.046" x2="38.04" y2="369.282" gradientUnits="userSpaceOnUse"><stop offset="0.771" stop-color="#6b8f6a"/><stop offset="0.801" stop-color="#7a9976"/><stop offset="0.858" stop-color="#a2b394"/><stop offset="0.937" stop-color="#e2ddc5"/><stop offset="0.955" stop-color="#f2e8d1"/></linearGradient></defs><path class="a" d="M33.163,370.081a2.444,2.444,0,0,1-.518,2.11c-.073.084-.119.243-.2.261-1.185.272-1.554,1.344-2.2,2.166a6.671,6.671,0,0,1-1.917,1.7,18,18,0,0,0-2.047,1.51,8.631,8.631,0,0,0-2.756,4.676c-.3,1.043-1.126,1.592-1.618,2.426-.1.176-.3.174-.5.15a2.553,2.553,0,0,1-2.07-2.007,3.966,3.966,0,0,1,.02-1.569,12.5,12.5,0,0,1,4.51-7.2,21.052,21.052,0,0,0,5.117-5.158,2.219,2.219,0,0,0,.438-1.464c-.069-.822-.109-1.648-.212-2.467a13.784,13.784,0,0,1,.618-5.861,5.643,5.643,0,0,1,2.127-2.962,4.347,4.347,0,0,0,1.7-2.294,50.378,50.378,0,0,1,3.41-7.455,34.085,34.085,0,0,0,3.42-11,21.494,21.494,0,0,0-.268-6.592q-.946-5.317-1.725-10.661a35.789,35.789,0,0,0-2.474-7.8,45.2,45.2,0,0,1-3.072-11.824,82.643,82.643,0,0,1-.334-11.685c.147-3.712.564-7.405,1.042-11.091.356-2.751.65-5.51.973-8.265.2-1.709.339-3.429.626-5.123a43.322,43.322,0,0,0,.4-6.057c.072-2.513.219-5.023.28-7.536.074-2.995.082-5.994.249-8.984.208-3.716.084-7.429-.033-11.137a93.659,93.659,0,0,0-.783-10.2c-.331-2.339-.5-4.7-.834-7.038a60.611,60.611,0,0,0-1.441-7.157,24.122,24.122,0,0,1-.635-4.221c-.459-5.456-.8-10.92-.9-16.4a2.268,2.268,0,0,0-1.313-1.944,7.8,7.8,0,0,0-3.031-1.147,10.058,10.058,0,0,1-7.32-4.9,7.274,7.274,0,0,1-1.115-3.947,7.908,7.908,0,0,1,.209-2.756,4.041,4.041,0,0,1,2.493-2.713,11.6,11.6,0,0,1,4.8-.409,9.588,9.588,0,0,1,5.46,2.574c.755.685.823.619,1.013-.412a48.189,48.189,0,0,0,.423-5.269c.351-4.713.443-9.435.477-14.159.011-1.61.1-3.216.038-4.831a22.906,22.906,0,0,0-.271-2.793,101.189,101.189,0,0,1-1.285-13.177,91.33,91.33,0,0,1,.092-11.568c.269-2.873.193-5.774.573-8.644.348-2.632.433-5.287.8-7.923.529-3.821.786-7.678,1.26-11.507a76.548,76.548,0,0,0,.636-9.859c-.011-1.911-.172-3.822-.169-5.733.006-2.813-.414-5.6-.439-8.408a16.627,16.627,0,0,0-.827-4.056,38.306,38.306,0,0,0-1.624-4.417c-.836-2.106-2.424-3.669-3.85-5.358a33.936,33.936,0,0,0-9.884-7.5,45.693,45.693,0,0,1-3.948-2.585,41.767,41.767,0,0,1-3.847-2.883,17.5,17.5,0,0,1-3.6-4.281,19.261,19.261,0,0,1-2.743-7.4,14.4,14.4,0,0,1-.012-3.569c.1-.694.183-1.39.259-2.087a7.435,7.435,0,0,1,1.243-3.186,11.776,11.776,0,0,1,6.258-4.968,13.969,13.969,0,0,1,6.061-.911,18.061,18.061,0,0,1,7.817,2.2,2.779,2.779,0,0,1,.623.474,45.559,45.559,0,0,1,3.443,3.952A29.539,29.539,0,0,1,33.827,24c.679,1.745,1.286,3.512,1.89,5.282.121.353.275.7.415,1.043.417-.059.448-.381.515-.661a45.66,45.66,0,0,1,3.8-9.694,30.932,30.932,0,0,1,4.966-6.5,20.009,20.009,0,0,1,4.958-4.022,14.554,14.554,0,0,1,7.189-1.957,16.543,16.543,0,0,1,4.477.253,14.885,14.885,0,0,1,4.895,2.631,10.718,10.718,0,0,1,3.941,5.708,14.669,14.669,0,0,1,.222,8.612,24.062,24.062,0,0,1-3.218,6.487,29.7,29.7,0,0,1-5.315,5.89,36.017,36.017,0,0,1-5.032,3.571c-1.646,1.02-3.307,2.057-4.91,3.122a46.976,46.976,0,0,0-6.569,4.671,22.741,22.741,0,0,0-4.681,5.972,32.53,32.53,0,0,0-1.375,3.06c-.041.1-.03.247-.1.32-1.065,1.121-.759,2.508-.7,3.817.1,2.059.269,4.116.449,6.17a133.343,133.343,0,0,1,.421,14.358c-.032,1.638-.309,3.271-.473,4.907-.059.6-.108,1.192-.176,1.787-.352,3.073-.7,6.146-1.066,9.217-.477,4.011-.982,8.02-1.3,12.047-.271,3.472-.57,6.95-.616,10.428a97.089,97.089,0,0,0,.4,10.753c.142,1.446.233,2.909.334,4.362a27.931,27.931,0,0,0,.786,4.984,3.321,3.321,0,0,1,.151.766,60.033,60.033,0,0,1-.007,7.635c-.058.515.016,1.045,0,1.567-.094,3.294-.1,6.594-.331,9.879-.133,1.9-.172,3.807-.29,5.709-.047.744-.239,1.48-.36,2.22-.31,1.889-.367,3.8-.492,5.7-.068,1.047-.209,2.09-.323,3.13a70.849,70.849,0,0,0-.146,11.45c.144,2.763.212,5.53.525,8.287a40.355,40.355,0,0,0,.7,6.007c.435,1.618.6,3.293,1.12,4.885a22.925,22.925,0,0,1,.683,5c.166,1.68.459,3.341.651,5.017a114.193,114.193,0,0,1,.827,12.12,97.053,97.053,0,0,1-.13,10.219c-.016.166-.1.372.2.544a6,6,0,0,1,2.918-1.868,8.928,8.928,0,0,1,5.4-.179,4.12,4.12,0,0,1,1.534.9,12.324,12.324,0,0,1,2.067,2.5,5.836,5.836,0,0,1,.461,4.678,7.731,7.731,0,0,1-1.946,3.351,12,12,0,0,1-2.445,2.433,19.605,19.605,0,0,0-2.046,1.16c-1.262.935-2.642,1.7-3.843,2.726a6.9,6.9,0,0,0-1.245,1.442c-.246.368-.255.94-1.006.818-.2-.033-.6.543-.635,1.047-.126,1.795-.511,3.554-.775,5.33-.184,1.245-.306,2.519-.366,3.784-.042.9-.121,1.8-.23,2.686-.366,3-.763,6.006-1.122,9.012a84.291,84.291,0,0,0-.447,14.244,42.342,42.342,0,0,0,.771,6.672c.371,1.746.909,3.468,1.435,5.185a45.79,45.79,0,0,0,1.885,4.9,27.209,27.209,0,0,1,1.787,7.37c.269,1.992.709,3.962,1,5.952a76.96,76.96,0,0,1,1.071,7.657,9.877,9.877,0,0,1-.338,1.751,42.93,42.93,0,0,1-.7,4.554,31.1,31.1,0,0,1-2.133,6.258,1.348,1.348,0,0,0,.084,1.534,14.865,14.865,0,0,1,1.356,2.948,3.165,3.165,0,0,0,2.531,2.116,15.775,15.775,0,0,1,5.414,1.78c1.516.946,2.879.658,4.374.366a8.389,8.389,0,0,1,4.989.293,11.561,11.561,0,0,1,5.429,3.992,7.168,7.168,0,0,1,.483.879,1.832,1.832,0,0,0,1,1.023,7.206,7.206,0,0,1,2.6,1.858,1.109,1.109,0,0,1-.5,1.981,3.48,3.48,0,0,1-2.783-.221,9.583,9.583,0,0,1-4.313-4.071,3.724,3.724,0,0,0-3.589-2.06,23.107,23.107,0,0,0-3.892.544,4.086,4.086,0,0,1-3.508-.571,12.07,12.07,0,0,0-5.031-2.051c-3.015-.581-5.691-1.848-7-5.09a20.775,20.775,0,0,0-2.76,7.049,8.75,8.75,0,0,0,.41,4.051,26.926,26.926,0,0,0,3.732,6.726,1.885,1.885,0,0,0,.642.621c1.41.72,1.652,2.163,2.075,3.44.771,2.33-.01,4.508-.941,6.619a18.311,18.311,0,0,0-1.744,6.358,7.935,7.935,0,0,0,.671,3.941,2.262,2.262,0,0,1,.191,1.424c-.072.4-.179.791-.224,1.191-.08.711-.514,1.013-1.081.651a5.159,5.159,0,0,1-2.046-2.143,11.491,11.491,0,0,1-.477-8.444c.447-1.547.984-3.071,1.532-4.586a5.24,5.24,0,0,0-1.091-5.454,29.546,29.546,0,0,1-4.937-8.254c-.094-.235-.138-.515-.388-.67-.361.111-.236.431-.25.659a20.754,20.754,0,0,0,.166,3.257c.1,1.042.171,2.088.254,3.131l-.075.034ZM39.611,48.763a1.578,1.578,0,0,0,.6-.589,14.907,14.907,0,0,1,4.64-4.332A15.519,15.519,0,0,0,47.5,41.965a14.417,14.417,0,0,1,2.207-1.529c1.039-.6,2.065-1.218,3.115-1.8,1.185-.65,2.213-1.545,3.4-2.184a16.817,16.817,0,0,0,6.023-4.912c.455-.64.955-1.248,1.42-1.882a15.81,15.81,0,0,0,3.391-7.728,10.155,10.155,0,0,0-.321-4.009,12.57,12.57,0,0,0-1.78-3.615,6.546,6.546,0,0,0-5.195-2.953,12.682,12.682,0,0,0-9.6,3.656,29.083,29.083,0,0,0-7.535,11.017,72.036,72.036,0,0,0-2.441,7.575c-.26,1.049-.576,2.068-.879,3.1a1.094,1.094,0,0,0,.012,1.1,53.775,53.775,0,0,1,2.3-5.268,21.024,21.024,0,0,1,4.542-6.345c1.482-1.427,3.034-2.785,4.554-4.172a1.539,1.539,0,0,1,1.635-.523,5.208,5.208,0,0,0,1.773.406c.182-.009.3.151.419.314a1.341,1.341,0,0,1-.313,2.179,32.73,32.73,0,0,0-3.685,3.1c-.62.65-1.188,1.357-1.858,1.949a18.454,18.454,0,0,0-3.278,4.1A73.92,73.92,0,0,0,41.622,41.4c-1.03,2.157-1.142,4.619-2.282,6.738C39.246,48.311,39.387,48.566,39.611,48.763Zm-5.829-.5c0-1.465-.1-2.891.036-4.293a5.2,5.2,0,0,0-.458-2.6,26.07,26.07,0,0,0-3.318-5.534,41.756,41.756,0,0,0-5.037-6.113c-.954-.883-1.844-1.842-2.878-2.643A3.11,3.11,0,0,1,21.2,25.97c-.192-.41-.483-.945-.046-1.354.378-.355.754-.915,1.437-.527a.461.461,0,0,0,.527-.053c.37-.273.678-.13,1.026.083a24.749,24.749,0,0,1,2.494,2.2,2.155,2.155,0,0,1,.6.656,6.728,6.728,0,0,0,1.25,1.571,24.561,24.561,0,0,1,2.3,2.6,52.566,52.566,0,0,1,3.067,4.692c.081.147.119.373.373.325.127-.13.068-.273.055-.416A17.493,17.493,0,0,0,33,31.221c-.7-1.9-1.272-3.846-2.105-5.693a31.553,31.553,0,0,0-4.26-6.959,9.24,9.24,0,0,0-2.884-2.6,12.842,12.842,0,0,0-11.9.078,4.211,4.211,0,0,0-2.177,2.612,11.573,11.573,0,0,0-.416,5.769,18.826,18.826,0,0,0,3.34,7.617,24.088,24.088,0,0,0,7.182,6.114c1.849,1.128,3.8,2.1,5.608,3.282a35.174,35.174,0,0,1,4.552,3.242A15.69,15.69,0,0,1,33.027,47.9.653.653,0,0,0,33.782,48.26Zm6.434,205.322a1.767,1.767,0,0,0,1.036-.267c1.835-1.352,3.787-2.534,5.656-3.835a5.142,5.142,0,0,0,2.291-5.14,3.292,3.292,0,0,0-2.258-2.651,3.675,3.675,0,0,0-2.936.794,10.469,10.469,0,0,0-2.649,3.432c-.266.563-1.062.733-.98,1.411a15.156,15.156,0,0,1,.005,1.783c0,.111-.039.222-.045.334A22.771,22.771,0,0,0,40.216,253.582Zm-8.6-75.824a4.635,4.635,0,0,0-.162-3.971c-.368-.648-.782-1.271-1.2-1.888a5.821,5.821,0,0,0-6.747-2.207,1.283,1.283,0,0,0-.944,1.823,15.352,15.352,0,0,0,.566,1.461A6.185,6.185,0,0,0,27.5,176.8,33.5,33.5,0,0,1,31.621,177.758Z"/><path class="b" d="M33.163,370.081l-.064-.119.075-.034A.1.1,0,0,1,33.163,370.081Z"/><path class="c" d="M39.611,48.763c-.224-.2-.365-.452-.271-.626,1.14-2.119,1.252-4.581,2.282-6.738a73.92,73.92,0,0,1,3.788-7.858,18.454,18.454,0,0,1,3.278-4.1c.67-.592,1.238-1.3,1.858-1.949a32.73,32.73,0,0,1,3.685-3.1,1.341,1.341,0,0,0,.313-2.179c-.122-.163-.237-.323-.419-.314a5.208,5.208,0,0,1-1.773-.406,1.539,1.539,0,0,0-1.635.523c-1.52,1.387-3.072,2.745-4.554,4.172a21.024,21.024,0,0,0-4.542,6.345,53.775,53.775,0,0,0-2.3,5.268,1.094,1.094,0,0,1-.012-1.1c.3-1.031.619-2.05.879-3.1a72.036,72.036,0,0,1,2.441-7.575A29.083,29.083,0,0,1,50.16,15.014a12.682,12.682,0,0,1,9.6-3.656,6.546,6.546,0,0,1,5.2,2.953,12.57,12.57,0,0,1,1.78,3.615,10.155,10.155,0,0,1,.321,4.009,15.81,15.81,0,0,1-3.391,7.728c-.465.634-.965,1.242-1.42,1.882a16.817,16.817,0,0,1-6.023,4.912c-1.185.639-2.213,1.534-3.4,2.184-1.05.577-2.076,1.2-3.115,1.8A14.417,14.417,0,0,0,47.5,41.965a15.519,15.519,0,0,1-2.657,1.877,14.907,14.907,0,0,0-4.64,4.332A1.578,1.578,0,0,1,39.611,48.763Z"/><path class="c" d="M33.782,48.26a.653.653,0,0,1-.755-.356,15.69,15.69,0,0,0-3.086-3.217,35.174,35.174,0,0,0-4.552-3.242c-1.81-1.184-3.759-2.154-5.608-3.282A24.088,24.088,0,0,1,12.6,32.049a18.826,18.826,0,0,1-3.34-7.617,11.573,11.573,0,0,1,.416-5.769,4.211,4.211,0,0,1,2.177-2.612,12.842,12.842,0,0,1,11.9-.078,9.24,9.24,0,0,1,2.884,2.6,31.553,31.553,0,0,1,4.26,6.959c.833,1.847,1.4,3.8,2.105,5.693a17.493,17.493,0,0,1,1.289,4.525c.013.143.072.286-.055.416-.254.048-.292-.178-.373-.325A52.566,52.566,0,0,0,30.8,31.145a24.561,24.561,0,0,0-2.3-2.6,6.728,6.728,0,0,1-1.25-1.571,2.155,2.155,0,0,0-.6-.656,24.749,24.749,0,0,0-2.494-2.2c-.348-.213-.656-.356-1.026-.083a.461.461,0,0,1-.527.053c-.683-.388-1.059.172-1.437.527-.437.409-.146.944.046,1.354a3.11,3.11,0,0,0,.925,1.108c1.034.8,1.924,1.76,2.878,2.643a41.756,41.756,0,0,1,5.037,6.113,26.07,26.07,0,0,1,3.318,5.534,5.2,5.2,0,0,1,.458,2.6C33.677,45.369,33.782,46.8,33.782,48.26Z"/><path class="c" d="M40.216,253.582a22.771,22.771,0,0,1,.12-4.139c.006-.112.045-.223.045-.334a15.156,15.156,0,0,0-.005-1.783c-.082-.678.714-.848.98-1.411a10.469,10.469,0,0,1,2.649-3.432,3.675,3.675,0,0,1,2.936-.794A3.292,3.292,0,0,1,49.2,244.34a5.142,5.142,0,0,1-2.291,5.14c-1.869,1.3-3.821,2.483-5.656,3.835A1.767,1.767,0,0,1,40.216,253.582Z"/><path class="c" d="M31.621,177.758A33.5,33.5,0,0,0,27.5,176.8a6.185,6.185,0,0,1-4.371-3.826,15.352,15.352,0,0,1-.566-1.461,1.283,1.283,0,0,1,.944-1.823,5.821,5.821,0,0,1,6.747,2.207c.419.617.833,1.24,1.2,1.888A4.635,4.635,0,0,1,31.621,177.758Z"/></svg>