<svg xmlns="http://www.w3.org/2000/svg" viewBox="0 0 85.04 85.04"><defs><style>.a{fill:#703a58;}.b{fill:none;}.c{fill:#f6c74b;}</style></defs><path class="a" d="M45.13,4.41a4.81,4.81,0,0,1,1.73-.23c4.44,0,7.47,2.38,9.63,6a9.13,9.13,0,0,1,1.17,6c-.22,1.58-.53,3.14-.79,4.72a.85.85,0,0,0,1.21.93,11.23,11.23,0,0,1,7-.5,6.58,6.58,0,0,1,2.2.85,14.72,14.72,0,0,1,6.76,9.49,5.65,5.65,0,0,1-.65,4.17,17.72,17.72,0,0,1-5.7,6.37c-1.06.71-2.14,1.38-3.21,2.08a.91.91,0,0,0-.07,1.24c.74.84,1.48,1.68,2.25,2.49s1.56,1.6,2.37,2.37a18,18,0,0,1,4.51,8.32,4.72,4.72,0,0,1-.13,2.83,7.25,7.25,0,0,1-3.64,4.26A10.56,10.56,0,0,1,66.7,67a19.25,19.25,0,0,1-9-.22,50.61,50.61,0,0,1-5.51-1.61c-2.72-1.21-3-.73-3.76,2.14a25.66,25.66,0,0,1-.83,2.75c-2.11,5.54-6.32,8.24-12,8.75a8.62,8.62,0,0,1-3.29-.44,12.29,12.29,0,0,1-6.09-4.47,9.48,9.48,0,0,1-1.76-7.26c.19-1.26.63-2.47.89-3.71a1,1,0,0,0-.42-.79,5.82,5.82,0,0,0-1.31-.54c-2-.67-3.94-1.32-5.89-2a12.15,12.15,0,0,1-5-3.58,5.62,5.62,0,0,1-1.38-4.9,9,9,0,0,1,3.93-6.31,27,27,0,0,1,11-4.32c.71-.11.88-.84.35-1.42s-1.07-1.19-1.65-1.74a26.07,26.07,0,0,1-5.6-8.28,10.91,10.91,0,0,1-1.05-6.52,3.71,3.71,0,0,1,2.67-3.07c3.6-1.28,6.93-.5,10.11,1.27,1.11.62,2.11,1.43,3.17,2.14a.53.53,0,0,0,.82-.18,8.14,8.14,0,0,0,.84-1.7c.68-2.29,1.28-4.61,1.95-6.91a32.27,32.27,0,0,1,1.23-3.63,11.84,11.84,0,0,1,4.3-5c.09-.07.6-.43.7-.48A11.06,11.06,0,0,1,45.13,4.41ZM63.94,25.94a8.13,8.13,0,0,0-1.92.24c-2.9,1-5.64,2.29-7.5,4.83-1.51,2.05-2.88,4.2-4.24,6.35a1.71,1.71,0,0,0,0,1.35c.56,1.32,1.21,2.6,1.84,3.88a1.33,1.33,0,0,0,1.62.64,45.37,45.37,0,0,0,11.47-5.76,12.39,12.39,0,0,0,4.07-4.63,3.71,3.71,0,0,0,.33-2.77A5.6,5.6,0,0,0,63.94,25.94ZM52.66,13.86c0-.63,0-1.27-.1-1.9A2.62,2.62,0,0,0,51,9.77a3.55,3.55,0,0,0-2.78-.19,8.27,8.27,0,0,0-5.42,5,67.25,67.25,0,0,0-2.15,6.81,19.87,19.87,0,0,0,.22,10.38c.11.39.59.68.91,1a1.23,1.23,0,0,0,.44.17c.3.1.62.17.91.29,2,.83,2.37.29,3-1.06a100.57,100.57,0,0,0,5.27-12.26A21.65,21.65,0,0,0,52.66,13.86Zm3.89,35.63v.24c-1,0-1.91,0-2.87,0s-1.91.16-2.31,1.28a27.72,27.72,0,0,1-1,2.66c-.55,1.15-1.19,2.25-1.79,3.38a1.37,1.37,0,0,0,.61,2A33.66,33.66,0,0,0,59.52,62.5a10.68,10.68,0,0,0,7.78-1.69,3.1,3.1,0,0,0,1.37-4.1c-.26-.59-.56-1.15-.85-1.72a8.87,8.87,0,0,0-7.46-5.23C59.09,49.65,57.82,49.58,56.55,49.49ZM33.62,54.26c.06.59.12,1.55.24,2.49a2.2,2.2,0,0,0,2.46,1.77,9.66,9.66,0,0,0,6.35-2.94,16.47,16.47,0,0,0,5-12.52,5.73,5.73,0,0,0-1.32-3.51,2.64,2.64,0,0,0-3.42-.72C36.87,42,33.81,47.09,33.62,54.26ZM33.54,74c1.54.21,2.81-.55,4.11-1.13,3.92-1.74,5.57-5,6-9.09.07-.65-.59-1.33-1.15-1.18-3.28.93-6.54,1.37-9.79-.15-.41-.19-1.34.33-1.58.84a31,31,0,0,0-1.6,3.47,5.78,5.78,0,0,0,.83,5.46A3.75,3.75,0,0,0,33.54,74ZM26.7,24.43c-.08,0-.4,0-.72,0a2.54,2.54,0,0,0-2.38,2.5,5.74,5.74,0,0,0,.66,3.22,23.34,23.34,0,0,0,6.93,7.76c1.12.76,1.78.7,2.91-.37.69-.65,1.39-1.29,2.1-1.93s.95-1.33.56-2.08a44.84,44.84,0,0,0-2.74-5C32.33,26.1,30.1,24.39,26.7,24.43Zm2.5,26.66c.09-1.18.2-2.62.29-4.05a1.36,1.36,0,0,0-1.26-1.17,16.26,16.26,0,0,0-9.35,3.24,6,6,0,0,0-2.25,3,2.77,2.77,0,0,0,1,3,2.48,2.48,0,0,0,.39.27,24.24,24.24,0,0,0,6.86,2,11.41,11.41,0,0,0,2.84-.21,1.69,1.69,0,0,0,1.52-1.56C29.21,54.22,29.2,52.78,29.2,51.09Z"/><path class="b" d="M63.94,25.94a5.6,5.6,0,0,1,5.65,4.13,3.71,3.71,0,0,1-.33,2.77,12.39,12.39,0,0,1-4.07,4.63,45.37,45.37,0,0,1-11.47,5.76,1.33,1.33,0,0,1-1.62-.64c-.63-1.28-1.28-2.56-1.84-3.88a1.71,1.71,0,0,1,0-1.35c1.36-2.15,2.73-4.3,4.24-6.35,1.86-2.54,4.6-3.85,7.5-4.83A8.13,8.13,0,0,1,63.94,25.94Z"/><path class="b" d="M52.66,13.86a21.65,21.65,0,0,1-1.24,6.05,100.57,100.57,0,0,1-5.27,12.26c-.68,1.35-1.06,1.89-3,1.06-.29-.12-.61-.19-.91-.29a1.23,1.23,0,0,1-.44-.17c-.32-.32-.8-.61-.91-1a19.87,19.87,0,0,1-.22-10.38,67.25,67.25,0,0,1,2.15-6.81,8.27,8.27,0,0,1,5.42-5A3.55,3.55,0,0,1,51,9.77,2.62,2.62,0,0,1,52.56,12C52.63,12.59,52.63,13.23,52.66,13.86Z"/><path class="b" d="M56.55,49.49c1.27.09,2.54.16,3.81.27A8.87,8.87,0,0,1,67.82,55c.29.57.59,1.13.85,1.72a3.1,3.1,0,0,1-1.37,4.1,10.68,10.68,0,0,1-7.78,1.69,33.66,33.66,0,0,1-10.38-3.44,1.37,1.37,0,0,1-.61-2c.6-1.13,1.24-2.23,1.79-3.38a27.72,27.72,0,0,0,1-2.66c.4-1.12,1.34-1.25,2.31-1.28s1.91,0,2.87,0Z"/><path class="c" d="M33.62,54.26c.19-7.17,3.25-12.22,9.27-15.43a2.64,2.64,0,0,1,3.42.72,5.73,5.73,0,0,1,1.32,3.51,16.47,16.47,0,0,1-5,12.52,9.66,9.66,0,0,1-6.35,2.94,2.2,2.2,0,0,1-2.46-1.77C33.74,55.81,33.68,54.85,33.62,54.26Z"/><path class="b" d="M33.54,74a3.75,3.75,0,0,1-3.18-1.78,5.78,5.78,0,0,1-.83-5.46,31,31,0,0,1,1.6-3.47c.24-.51,1.17-1,1.58-.84,3.25,1.52,6.51,1.08,9.79.15.56-.15,1.22.53,1.15,1.18-.43,4.06-2.08,7.35-6,9.09C36.35,73.48,35.08,74.24,33.54,74Z"/><path class="b" d="M26.7,24.43c3.4,0,5.63,1.67,7.32,4.1a44.84,44.84,0,0,1,2.74,5c.39.75.19,1.39-.56,2.08s-1.41,1.28-2.1,1.93c-1.13,1.07-1.79,1.13-2.91.37a23.34,23.34,0,0,1-6.93-7.76,5.74,5.74,0,0,1-.66-3.22A2.54,2.54,0,0,1,26,24.44C26.3,24.42,26.62,24.43,26.7,24.43Z"/><path class="b" d="M29.2,51.09c0,1.69,0,3.13,0,4.57a1.69,1.69,0,0,1-1.52,1.56,11.41,11.41,0,0,1-2.84.21,24.24,24.24,0,0,1-6.86-2,2.48,2.48,0,0,1-.39-.27,2.77,2.77,0,0,1-1-3,6,6,0,0,1,2.25-3,16.26,16.26,0,0,1,9.35-3.24A1.36,1.36,0,0,1,29.49,47C29.4,48.47,29.29,49.91,29.2,51.09Z"/></svg>