<svg xmlns="http://www.w3.org/2000/svg" viewBox="0 0 85.04 85.04"><defs><style>.a{fill:none;}.b{fill:#f6c74b;}.c{fill:#703a58;}</style></defs><path class="a" d="M32.31,36.35a2.3,2.3,0,0,1-.23.41,7.24,7.24,0,0,1-1,1,11.25,11.25,0,0,0-4.46,6.55c-.13.46-.25.92-.4,1.37a1.61,1.61,0,0,1-1.58.78,14.41,14.41,0,0,1-11.35-9.73,3.54,3.54,0,0,1-.1-2.34,14.75,14.75,0,0,1,2-4.3,4.42,4.42,0,0,1,3.12-2c4.29-.53,5-1,8.64,2.36,1.74,1.63,3.38,3.36,5,5.06A2.74,2.74,0,0,1,32.31,36.35Z"/><path class="b" d="M30.79,50.93a11.41,11.41,0,0,1,1.34-6.33,6.68,6.68,0,0,1,3.53-3.07,16.35,16.35,0,0,0,3.09-1.24,6.92,6.92,0,0,1,4.58-.93c.48,0,1,.11,1.43.14a4.87,4.87,0,0,1,4.37,3.23,7,7,0,0,1-1,7.64,11.8,11.8,0,0,1-5.39,3.82,17.43,17.43,0,0,1-8.92,1,3.15,3.15,0,0,1-3-3.16C30.83,51.55,30.8,51.07,30.79,50.93Z"/><path class="a" d="M12.89,64.4a10.88,10.88,0,0,1,2.85-7.71,29,29,0,0,1,4.72-4,7.77,7.77,0,0,1,3.63-1.07A2,2,0,0,1,26.33,53a8.68,8.68,0,0,0,2.87,4.31c2.47,2.1,2,2.13.43,4.14a34.26,34.26,0,0,1-3.58,3.84c-2,1.89-4.22,3.39-7.12,3.5a6.27,6.27,0,0,0-1.39.34c-2.13.61-3.43-.31-4.33-2.64A8,8,0,0,1,12.89,64.4Z"/><path class="a" d="M49.83,56.34c.3.11.67.13.88.33A13.29,13.29,0,0,1,54,61.31,6,6,0,0,1,54,66a14.14,14.14,0,0,1-6.17,7.1,4.54,4.54,0,0,1-.89.34,2.48,2.48,0,0,1-2.58-.83c-1.8-2.83-3.62-5.65-5.34-8.53a14.06,14.06,0,0,1-1-2.67,1.17,1.17,0,0,1,.52-1.21c.15,0,.28-.18.43-.2a35.94,35.94,0,0,0,10-3.26Z"/><path class="a" d="M65.74,25.8a5.76,5.76,0,0,1-1.24,3.06A27.58,27.58,0,0,1,62,31.73a75.24,75.24,0,0,1-8.49,7,1.87,1.87,0,0,1-2.6-.11A13.4,13.4,0,0,1,49.16,37a1.74,1.74,0,0,1-.39-1.29A24.28,24.28,0,0,1,50,31.55a30,30,0,0,1,7.15-10,3.68,3.68,0,0,1,3.55-.91,15,15,0,0,1,3.1,1.16A3.87,3.87,0,0,1,65.74,25.8Z"/><path class="a" d="M40.37,34.45c-3.29,0-3.3.1-4.17-3.23-.4-1.54-.69-3.1-1-4.67A18.12,18.12,0,0,1,37,15a9.25,9.25,0,0,1,1.38-1.92,3.39,3.39,0,0,1,5.57.86,11,11,0,0,1,.72,2.24,17.52,17.52,0,0,1,0,6.17,90.67,90.67,0,0,0-1.08,10.41c0,1.39-.69,1.84-2.23,1.78C41,34.53,40.69,34.48,40.37,34.45Z"/><path class="a" d="M66.86,40.37c2.65.1,4.74.1,6.61,1.23a1.26,1.26,0,0,1,.39,1.65c-4,6.19-12.48,9.55-18.6,9A1.1,1.1,0,0,1,54.2,51c.14-.94.29-1.89.48-2.83s-.46-2.36.43-3.21a14.29,14.29,0,0,1,2.8-1.81C60.85,41.39,63.92,40.12,66.86,40.37Z"/><path class="c" d="M79.56,40.53A13,13,0,0,0,78,39.45a29.6,29.6,0,0,0-9.82-3.66.93.93,0,0,1-.64-1.44c.68-1.08,1.47-2.1,2.06-3.22a9.11,9.11,0,0,0-2-11.33A19.83,19.83,0,0,0,60.42,16a10.32,10.32,0,0,0-2.37-.28,3.59,3.59,0,0,0-2.65.88q-2,1.72-4,3.42a.94.94,0,0,1-1.46-.61c-.25-1.09-.45-2.19-.7-3.28-1.09-4.67-4.29-7.32-8.59-8.86A4.24,4.24,0,0,0,37,7.73a11,11,0,0,0-4.34,4.36,16.23,16.23,0,0,0-2.24,8.23c.05,1.92.21,3.83.27,5.75a1,1,0,0,1-.42.76,1,1,0,0,1-.87,0C28.15,26,27,25.15,25.8,24.39a8.26,8.26,0,0,0-4.49-1.52c-6.25.14-7.82.65-11.17,5.76A17.69,17.69,0,0,0,9,30.74,9,9,0,0,0,9.2,39a22.61,22.61,0,0,0,5.59,7.11,24,24,0,0,1,2.09,1.94.93.93,0,0,1,0,.86A5.5,5.5,0,0,1,16,50c-1.35,1.36-2.82,2.62-4,4.07a14.82,14.82,0,0,0-3.84,11,9.43,9.43,0,0,0,10.35,8.37c.64-.08,1.27-.21,1.86-.31,1.15-.12,2.25-.27,3.36-.33a14.07,14.07,0,0,0,1.71-.48,7.44,7.44,0,0,0,.78-.44,14.63,14.63,0,0,0,1.23-1c1.5-1.19,3.08-2.3,4.49-3.59,2.63-2.4,2.95-1.9,4.68.64a20.29,20.29,0,0,1,2.06,3.77,10,10,0,0,0,6.15,5.66,7.52,7.52,0,0,0,6-.14c4.9-2.21,7.65-6.11,8.87-11.21a5.66,5.66,0,0,0-.26-3.3c-.56-1.5-1.1-3-1.64-4.5a1.15,1.15,0,0,1,.92-1.39c2.05-.36,4.11-.62,6.13-1.1,6.74-1.59,11.56-5.88,15.46-11.37A3.12,3.12,0,0,0,79.56,40.53ZM48.77,35.66A24.28,24.28,0,0,1,50,31.55a30,30,0,0,1,7.15-10,3.68,3.68,0,0,1,3.55-.91,15,15,0,0,1,3.1,1.16,3.87,3.87,0,0,1,1.95,4,5.76,5.76,0,0,1-1.24,3.06A27.58,27.58,0,0,1,62,31.73a75.24,75.24,0,0,1-8.49,7,1.87,1.87,0,0,1-2.6-.11A13.4,13.4,0,0,1,49.16,37,1.75,1.75,0,0,1,48.77,35.66ZM37,15a9.25,9.25,0,0,1,1.38-1.92,3.39,3.39,0,0,1,5.57.86,11,11,0,0,1,.72,2.24,17.52,17.52,0,0,1,0,6.17,90.67,90.67,0,0,0-1.08,10.41c0,1.39-.69,1.84-2.23,1.78-.32,0-.63-.06-1-.09-3.29,0-3.3.1-4.17-3.23-.4-1.54-.69-3.1-1-4.67A18.12,18.12,0,0,1,37,15ZM13.27,36.71a3.54,3.54,0,0,1-.1-2.34,14.75,14.75,0,0,1,2-4.3,4.42,4.42,0,0,1,3.12-2c4.29-.53,5-1,8.64,2.36,1.74,1.63,3.38,3.36,5,5.06a2.74,2.74,0,0,1,.37.85,2.3,2.3,0,0,1-.23.41,7.24,7.24,0,0,1-1,1,11.25,11.25,0,0,0-4.46,6.55c-.13.46-.25.92-.4,1.37a1.61,1.61,0,0,1-1.58.78A14.41,14.41,0,0,1,13.27,36.71ZM29.63,61.4a34.26,34.26,0,0,1-3.58,3.84c-2,1.89-4.22,3.39-7.12,3.5a6.27,6.27,0,0,0-1.39.34c-2.13.61-3.43-.31-4.33-2.64a7.91,7.91,0,0,1-.32-2,10.88,10.88,0,0,1,2.85-7.71,29,29,0,0,1,4.72-4,7.77,7.77,0,0,1,3.63-1.07A2,2,0,0,1,26.33,53a8.68,8.68,0,0,0,2.87,4.31C31.67,59.36,31.2,59.39,29.63,61.4Zm4.23-6.21a3.13,3.13,0,0,1-3-3.16c-.05-.48-.08-1-.09-1.1a11.41,11.41,0,0,1,1.34-6.33,6.68,6.68,0,0,1,3.53-3.07,16.35,16.35,0,0,0,3.09-1.24,6.92,6.92,0,0,1,4.58-.93c.48,0,1,.11,1.43.14a4.87,4.87,0,0,1,4.37,3.23,7,7,0,0,1-1,7.64,11.8,11.8,0,0,1-5.39,3.82A17.43,17.43,0,0,1,33.86,55.19ZM54,66a14.14,14.14,0,0,1-6.17,7.1,4.54,4.54,0,0,1-.89.34,2.48,2.48,0,0,1-2.58-.83c-1.8-2.83-3.62-5.65-5.34-8.53a14.06,14.06,0,0,1-1-2.67,1.17,1.17,0,0,1,.52-1.21c.15,0,.28-.18.43-.2a35.94,35.94,0,0,0,10-3.26l.88-.38c.3.11.67.13.88.33A13.29,13.29,0,0,1,54,61.31,6,6,0,0,1,54,66ZM73.86,43.25c-4,6.19-12.48,9.55-18.6,9A1.1,1.1,0,0,1,54.2,51c.14-1,.29-1.89.48-2.83s-.46-2.36.43-3.21a14.29,14.29,0,0,1,2.8-1.81c2.94-1.71,6-3,9-2.73,2.65.1,4.74.1,6.61,1.23A1.26,1.26,0,0,1,73.86,43.25Z"/></svg>