<svg xmlns="http://www.w3.org/2000/svg" viewBox="0 0 1280 522.96"><defs><style>.a{fill:#703a58;}.b,.c{fill:#fff;}.c{font-size:18.22px;font-family:Asap-BoldItalic, Asap;font-weight:700;font-style:italic;}.d{letter-spacing:-0.01em;}.e{letter-spacing:-0.03em;}.f{letter-spacing:-0.01em;}.g{letter-spacing:-0.01em;}.h{letter-spacing:-0.02em;}.i{letter-spacing:-0.01em;}.j{letter-spacing:0em;}.k{letter-spacing:-0.03em;}</style></defs><rect class="a" width="1280" height="522.96"/><path class="b" d="M1223.93,462.68l.63-.41c.13.73-.42.12-.57.3Z"/><path class="b" d="M697.11,371.87a16.41,16.41,0,0,0-4.64-8.13c-2.36-2.23-5.43-3.25-8.39-4.33a28.62,28.62,0,0,0-8.58-1.53,25.15,25.15,0,0,0-9.4,1,7,7,0,0,0-3.85,3.31c-.66,1.13-1.06,2.33-1.6,3.49a26,26,0,0,0-2.24,9.15c-.27,3.85-.8,7.7-.25,11.61.7,5,2.27,9.61,5.89,13.22,3.35,3.35,7.13,6.08,12.06,5.83a19.78,19.78,0,0,0,7.41-1.26c6.48-2,10.31-6.67,12.55-12.8,1.14-3.11,1.35-6.45,2.2-9.64a4,4,0,0,0,.21-1.51C698.07,377.47,697.79,374.62,697.11,371.87Zm-12,12.76a9.53,9.53,0,0,0-.43,1.69c-.14,2.41-1.68,3.58-3.68,4.48a5.81,5.81,0,0,1-7.52-2.77,39.84,39.84,0,0,0-1.91-3.81c-2.07-3.4-1-9.16,1.24-11.92a2.33,2.33,0,0,1,2.81-.65c2.52.83,5,1.74,7.52,2.58a3,3,0,0,1,2,2.16,13.84,13.84,0,0,1,.46,3.45A14.55,14.55,0,0,1,685.1,384.63Z"/><path class="b" d="M654.12,370.36a23.37,23.37,0,0,0-2-5.25A30.85,30.85,0,0,0,642,354.44c-5-3.46-10.72-4.45-16.65-4.7l-.5-.06a13.91,13.91,0,0,0-5.56.33c-.21.06-.41.14-.62.18-.68.14-.84,0-.69-.73.09-.46.25-.9.35-1.36a5.07,5.07,0,0,0,.37-2c0-.17.08-.34.11-.51a1.43,1.43,0,0,0,.32-1l0-.41a35,35,0,0,1,7.27-1.66c2.76-.43,5.54-.68,8.28-1.27a21.72,21.72,0,0,1,2.67-.38c3.55-.3,7.1-.7,10.65-.94a2.52,2.52,0,0,0,2.53-2.15c.2-.67-.17-1.15-.23-1.72a7.89,7.89,0,0,0-.49-1.57c0-.25-.08-.5-.13-.75a11.6,11.6,0,0,0-1.46-4.21,5.33,5.33,0,0,0-1.7-1.9,1.67,1.67,0,0,0-1.71-.23c-1.12.56-2.39.68-3.49,1.28-.68,0-1.36-.27-2,0a16.63,16.63,0,0,1-3.75.88c-1,.19-2,.34-3,.57a23.57,23.57,0,0,1-5.18,1,1.7,1.7,0,0,0-.62.18,9.51,9.51,0,0,1-3.49.84,1.52,1.52,0,0,0-1.25.55l-2.14.64h0l-.46.12a14.09,14.09,0,0,0-2.58.31,4,4,0,0,0-1.29.15c-1.14,0-2.25.12-2.93,1.25-.16.28-.54.26-.77.42-.62.43-1.44.78-1.56,1.59a32.89,32.89,0,0,1-1.25,4.06,96.05,96.05,0,0,0-2.33,12,5.14,5.14,0,0,1-1.19,3.34,1,1,0,0,0-.07,1.42,1.46,1.46,0,0,1,.19,1.33c-.26,1.3,0,1.76,1.15,2.39.38.21.74.43,1.11.65a1.76,1.76,0,0,0,1.22.34,38.12,38.12,0,0,0,4.14-.91,13.79,13.79,0,0,1,3.79-.67c2.32-.06,4.65,0,7,0a13.27,13.27,0,0,1,3.43.48,12.1,12.1,0,0,1,6.08,3.45,22.89,22.89,0,0,1,3.14,4.25,4.15,4.15,0,0,0,1,1.48h0c.25.64.53,1.27.75,1.92.5,1.49,1.33,2.9,1.39,4.51a21.16,21.16,0,0,1-.61,6.63c-.07.18-.15.35-.22.53a60.26,60.26,0,0,1-3.87,5.12h0a29.77,29.77,0,0,0-2.53,2.11,13.92,13.92,0,0,1-9.73,2,16.06,16.06,0,0,1-5.7-1.43,7.81,7.81,0,0,0-2.1-1.24,3.79,3.79,0,0,1-1-.74c-1.52-1.64-3.33-3-4.24-5.19,0-.11-.18-.18-.26-.28a2.19,2.19,0,0,0-2.9-.87,15.72,15.72,0,0,0-2.91,1.36,5.4,5.4,0,0,0-1.79,1.83,12.9,12.9,0,0,0-2,6.17,5.06,5.06,0,0,0,1.27,4.19,60.8,60.8,0,0,0,5.52,5,31.47,31.47,0,0,0,10.59,5.14,26.27,26.27,0,0,0,6.66.68c1.72,0,3.45,0,5.15-.18a25.11,25.11,0,0,0,8.22-2.38h0a7.15,7.15,0,0,1,3.54-2.25,12.85,12.85,0,0,0,2.86-1.46c3.28-2,5.47-5,7.39-8.26,1.35-2.26,1.94-4.86,2.88-7.31s.83-4.81,1.2-7.22a10.38,10.38,0,0,0,.12-1.93A30.06,30.06,0,0,0,654.12,370.36Zm-17,35.28c-.15,0-.31,0-.41-.12s0-.09.06-.1a.29.29,0,0,1,.44.21Z"/><path class="b" d="M885.7,102.84a18,18,0,0,0-6-7.26,22.85,22.85,0,0,0-8.41-3.47,6.81,6.81,0,0,0-5.88,1.18,15.52,15.52,0,0,0-5,5.78,33.11,33.11,0,0,0-2.82,7.86,19.62,19.62,0,0,0,.3,8.32c.42,1.71,1,3.39,1.42,5.1a10.26,10.26,0,0,0,3.87,5.62,7.37,7.37,0,0,0,3.77,1.82c1.58.14,3.18.25,4.76.25a28.85,28.85,0,0,0,5.61-.87,4.89,4.89,0,0,0,1.43-.58,10.16,10.16,0,0,0,2.56-2.33,15.67,15.67,0,0,0,3-4.76,52,52,0,0,0,2.34-9.57C887.44,107.8,886.8,105.28,885.7,102.84Zm-7.45,6.93c0,.16,0,.34-.08.51a11.71,11.71,0,0,1-3,6.33,5.4,5.4,0,0,1-5.33,1.8,2.1,2.1,0,0,1-1.4-1.06c-.75-1.26-1.45-2.54-1.07-4.11a6.44,6.44,0,0,0,0-1.16,13.94,13.94,0,0,1,2.93-8.61c1.62-2,5.27-1.65,6.62.44A7.41,7.41,0,0,1,878.25,109.77Z"/><path class="b" d="M919.27,103.81A10.92,10.92,0,0,0,917,98a15.31,15.31,0,0,0-5.14-3.61,18.84,18.84,0,0,0-5.51-1.79,16.63,16.63,0,0,0-6.29-.19,4.6,4.6,0,0,0-2.83,1.83,22.26,22.26,0,0,0-1.37,2.15,17.23,17.23,0,0,0-2.31,5.83,36.16,36.16,0,0,0-1.22,7.62c0,3.38.62,6.55,2.68,9.25,1.9,2.51,4.14,4.65,7.41,4.94a13.27,13.27,0,0,0,5-.16c4.46-.75,7.4-3.46,9.44-7.3,1-1.94,1.47-4.12,2.32-6.15a2.68,2.68,0,0,0,.28-1A56.29,56.29,0,0,0,919.27,103.81Zm-9.08,7.32a6.47,6.47,0,0,0-.43,1.07c-.31,1.58-1.44,2.21-2.83,2.62a3.86,3.86,0,0,1-4.7-2.51,27.3,27.3,0,0,0-.92-2.68c-1-2.43.19-6.12,1.9-7.74a1.56,1.56,0,0,1,1.91-.18c1.58.78,3.14,1.61,4.72,2.39a2,2,0,0,1,1.13,1.6,8.9,8.9,0,0,1,0,2.32A9.52,9.52,0,0,1,910.19,111.13Z"/><path class="b" d="M818.77,72.74v-.22c-.6-.61-1.36-.42-2.08-.45L816,72a.94.94,0,0,0-.83-.12,2.76,2.76,0,0,0-1.34,0,1.5,1.5,0,0,0-1.08-.1L811,71.54a8,8,0,0,0-2.18-.1,12.4,12.4,0,0,0-2-.26c-.39-.26-.71,0-1,.14a1.38,1.38,0,0,0-1.22.28c-.36.21-.3.57-.35.9l-.2.43a1,1,0,0,0-.21.62.89.89,0,0,0-.26.55.64.64,0,0,0-.33.48,2.82,2.82,0,0,0-1,1.12c-.21.08-.27.28-.34.46a3.79,3.79,0,0,0-.43.34c-.75.84-1.44,1.75-2.27,2.52a20.79,20.79,0,0,1-4,3.31,1.11,1.11,0,0,0-.64,1.27c.11.42-.08.5-.35.74a2.64,2.64,0,0,0-1,2.59,16.68,16.68,0,0,0,1.79,5.37,5.51,5.51,0,0,0,1,1.54c.75.66.87.7,1.68.17a13,13,0,0,0,2.07-1.78,1,1,0,0,0,.58-.49A11.33,11.33,0,0,0,802.33,90c.25-.23.45-.6.91-.4a2,2,0,0,0-.14.9c-.13.9-.21,1.8-.35,2.7a22.21,22.21,0,0,0-.38,3.9,1.78,1.78,0,0,0-.11.82c-.28,1.32-.3,2.68-.49,4a156.68,156.68,0,0,1-2.86,15.51,10.7,10.7,0,0,1-1.64,3.56c-.18.27-.39.53-.55.81a1.4,1.4,0,0,0,.58,2.11,5,5,0,0,0,2.12.79c.84.08,1.69.12,2.5.28a13.56,13.56,0,0,0,4.67,0c.63-.09,1.31-.14,1.68-.68a5.51,5.51,0,0,0,1-2.44c.21-1.74.22-3.5.33-5.25.24-4.13,1.05-8.18,1.68-12.26.33-2.16,1-4.26,1.26-6.44.14-1.12.33-2.24.5-3.36.35-2.3.85-4.58,1.1-6.91l.18-.92a1.16,1.16,0,0,0,.28-.84,15.5,15.5,0,0,0,.71-3,6.67,6.67,0,0,0,.56-1.91,1.09,1.09,0,0,0,.16-.64c.37-.5.37-1.18.72-1.69A11.94,11.94,0,0,0,818.77,72.74Zm-11.7,43.06h0Zm.18-.09h0a.18.18,0,0,1,.17.21A.18.18,0,0,0,807.25,115.71Zm.55-7.53a.2.2,0,0,0-.18-.22.37.37,0,0,0-.19.08.37.37,0,0,1,.19-.08A.2.2,0,0,1,807.8,108.18Zm.44-5.62h0a.71.71,0,0,0-.1-.14A.71.71,0,0,1,808.24,102.56Z"/><path class="b" d="M850.28,120.21a9.57,9.57,0,0,0-5.24-2.06,36.33,36.33,0,0,0-5.7.22,24.74,24.74,0,0,1-5.56-.25c.09-.25.1-.42.19-.51q1.88-1.85,3.76-3.68c1.3-1.26,2.65-2.47,3.91-3.77s2.35-2.77,3.7-4c2.11-1.85,3.83-4,5.74-6.06A31.88,31.88,0,0,0,856,92.56a11.17,11.17,0,0,0,1.43-5,40.23,40.23,0,0,0-.55-5.8,2.41,2.41,0,0,0-.41-.93,17.92,17.92,0,0,0-2.46-3c-.3-.49-.61-1-1.27-1-.33-1-1.28-1.31-2-1.81-4.24-2.82-8.74-3.75-13.62-1.7a8.14,8.14,0,0,0-4.72,5.1c-.46,1.39-1,2.75-1.41,4.16a8.29,8.29,0,0,0-.54,3.85,14.15,14.15,0,0,0,1.13,2.7A4.46,4.46,0,0,0,837,91.65a1.92,1.92,0,0,0,1.13-.61c1.41-1.86,3-3.59,3.8-5.84.36-1,.71-1.24,1.75-1.1,1.27.17,1.73.78,1.65,2.23a2.6,2.6,0,0,0-.49,1,32.14,32.14,0,0,1-5.78,8.27c-2.71,2.82-5.31,5.75-7.83,8.75a55.72,55.72,0,0,1-4.39,5.31,14.51,14.51,0,0,0-2.72,3.62,8.58,8.58,0,0,0-1,6.78c.23.79.24,1.65.4,2.46.4,2,1.16,3.68,3.23,4.52a19.74,19.74,0,0,0,5.56,1.24,100.07,100.07,0,0,1,10.51,1.09c2.45.51,5.75-.81,6.88-2.65a12.22,12.22,0,0,0,1.46-3.35A3,3,0,0,0,850.28,120.21Zm-12.45,4.26a1.14,1.14,0,0,0-.16-.15,1.14,1.14,0,0,1,.16.15Zm-2.71-3h0l-.18.14Z"/><path class="b" d="M919.34,328.51a14,14,0,0,1-1-2.51,5.37,5.37,0,0,0-1.09-2.17c-1.07-1.46-2.1-2.94-3.14-4.42a17,17,0,0,0-5.08-4.69h0a14.51,14.51,0,0,0-3.35-2,.2.2,0,0,0-.18-.13,3.39,3.39,0,0,0-2-.95,14.17,14.17,0,0,0-2.73-1.67c-.14-.54.28-.72.63-1a12.21,12.21,0,0,0,2.36-2.06,1,1,0,0,0,.48-.45,9.2,9.2,0,0,0,2.42-2.11c.76-.87,1.46-1.79,2.16-2.71a11.48,11.48,0,0,0,2.66-7.48c0-1.28-.06-2.57,0-3.87a12.45,12.45,0,0,0-1-5.53,25.26,25.26,0,0,0-5-7.15,6.91,6.91,0,0,1-1.12-1.22,6.75,6.75,0,0,0-3-2.53,15.14,15.14,0,0,0-3-1.9c-.14-.35-.47-.43-.79-.51a.91.91,0,0,0-.83-.38c-.26-.1-.59,0-.8-.25a3.64,3.64,0,0,0-2.76-1.15c-.65.12-1.12-.68-1.81-.36a2.42,2.42,0,0,0-1.48-.5h0c-.83-.51-1.77-.24-2.66-.36l-.52-.14a13.26,13.26,0,0,0-6.16.45l-.53.17a2,2,0,0,0-1.26.41,1.06,1.06,0,0,0-.8.24,2.79,2.79,0,0,0-1.56.58h0a1.36,1.36,0,0,0-.7.37l-.25.05a1.86,1.86,0,0,0-1,.55,10.87,10.87,0,0,0-2.74,1.91,1.72,1.72,0,0,0-1,.68c-.7.39-1.12,1.11-1.76,1.57a2,2,0,0,0-.87.72,24.09,24.09,0,0,0-2.53,3.95l-.18.22c-.63.65-1,1.34-.35,2.2a.57.57,0,0,0,.08.24c-.1.59-.63,1.1-.34,1.76v.32a.88.88,0,0,0,.27,1.05,35,35,0,0,0,5.64,5.44,6.32,6.32,0,0,0,2.58.62.36.36,0,0,0,.31-.17c.22-.55.82-.73,1.1-1.24a11.19,11.19,0,0,1,4.87-4.61,12.3,12.3,0,0,1,9.28-.8,15.45,15.45,0,0,1,5.34,2.79h0l1.49,2.49a1.2,1.2,0,0,0,.31.78c0,.43,0,.86.05,1.3.29-.32.43-.5.42-.67,0,.17-.13.35-.42.67a1,1,0,0,0-.2.79,4.69,4.69,0,0,0-.57,1.85l-.12.24-.91,1.39v0a.82.82,0,0,0-.42.51c-1.7,1.79-3.27,3.74-5.76,4.52a5.74,5.74,0,0,0-.74.2,28.14,28.14,0,0,1-3.93,1.27,30.65,30.65,0,0,0-4,1.33,2.27,2.27,0,0,0-1.45,2.78,32.56,32.56,0,0,1,.68,5.5,18.91,18.91,0,0,0,.44,4.74c.1.36,0,.85.49,1,1.13.37,1.69,1.47,2.74,2a4.79,4.79,0,0,0,2.74.72c.47,0,.94-.1,1.41-.12,3.16-.09,6.28,0,9,1.87a11.32,11.32,0,0,1,4.25,4.38,19.51,19.51,0,0,1,2,5.53,8.13,8.13,0,0,1-.06,3.44,13.82,13.82,0,0,1-4.36,6.57,3.66,3.66,0,0,1-1.74.77c-2.59.51-5.22.6-7.82.94l-.39,0a14.08,14.08,0,0,0-2.87-.67c-1.86-.19-3.35-1.23-4.91-2.14a14.11,14.11,0,0,1-5.82-5.46,9.4,9.4,0,0,0-2-2.95,4.28,4.28,0,0,0-2.26-3.25c-.26-.41-.46-.7-1.11-.56a18.82,18.82,0,0,0-5.24,2.43,25.15,25.15,0,0,1-3.09,1.61,2.68,2.68,0,0,0-1.9,2.52,33.58,33.58,0,0,0,.32,5,14.67,14.67,0,0,0,3.34,7.12c.68.83,1.52,1.52,2.13,2.4a22.42,22.42,0,0,0,7.42,6.27,26.18,26.18,0,0,0,3.6,1.38c2.24.9,4.51,1.67,6.82,2.36a48.24,48.24,0,0,0,11.2,1.69,13.33,13.33,0,0,0,6.77-1.29c1.54-.76,3.17-1.36,4.65-2.21a23.32,23.32,0,0,0,4.43-2.87c.94-.88,1.88-1.76,2.86-2.61a15.94,15.94,0,0,0,4.77-6.63c1.38-3.84,2.76-7.69,3-11.83C919.57,332.76,920.13,330.64,919.34,328.51Z"/><path class="b" d="M850.52,279.57c-.34-2-2.59-4.08-4.63-4-1.51.09-3,.06-4.52.18-2.56.19-5.09.6-7.64.9a5.3,5.3,0,0,0-3.45,1.77,39.85,39.85,0,0,0-5,7,12.56,12.56,0,0,1-1.68,2.33A23.38,23.38,0,0,0,821,291a8.27,8.27,0,0,1-2.49,2.85c-.72.42-1,1.41-1.89,1.75a.39.39,0,0,0-.2.32c.15.9-.48,1.44-.94,2a2.56,2.56,0,0,0-.18,3.28,13,13,0,0,0,1.27,1.61c1,1.12,1.07,2.53,1.42,3.88-.93.19-1-.69-1.49-.91.27.63.42,1.34,1.37,1.28.41,0,.5.48.75.72a4.27,4.27,0,0,0,4.08,1.46,6.29,6.29,0,0,0,3.7-2.66,4.25,4.25,0,0,1,.75-.94,25.33,25.33,0,0,0,3.36-3.43c.54-.67,1.31-1.17,1.53-2.07h0c.36-.13.83-.53.82.28a12.47,12.47,0,0,0-.08,2.72,11.44,11.44,0,0,1,.21,3.13c-.22,5.08-.26,10.15-.15,15.23,0,1.11-.21,2.17-.22,3.26a65.1,65.1,0,0,1-.16,7.78c-.15,1.24,0,2.48-.17,3.69-.34,2.22-.36,4.46-.58,6.68-.19,2-.42,4-.8,6a35.35,35.35,0,0,0-.53,4.21c0,.31-.1.67.18.9,1.41,1.16,2.53,2.68,4.17,3.54,2.5,1.29,5.21,1.26,7.92,1a3.64,3.64,0,0,0,3-2.17,17.67,17.67,0,0,0,1.34-5.13c.25-1.62.18-3.29.31-4.93.29-3.56.29-7.13.34-10.7,0-1.5.17-3,.11-4.52a27.73,27.73,0,0,1-.16-3c.21-3-.11-6,.09-9.05.05-.82,0-1.66.05-2.47.51-5.29,1.14-10.56,1.44-15.86.23-4.08.94-8.1,1.39-12.14A32.13,32.13,0,0,0,850.52,279.57Z"/><path class="b" d="M565.82,187.16a20.86,20.86,0,0,0-1-5.69,2.66,2.66,0,0,0-.75-1c-.23-.24-.59,0-.9.08a.79.79,0,0,1-.87-.15.65.65,0,0,0-.75-.11,7.62,7.62,0,0,1-1.57.47h-.06a3.63,3.63,0,0,0-2.14.06s0,0-.07,0c-.58,0-.93,0-.91-.8s.11-1.52.17-2.28c.09-1.2,0-2.42.21-3.61a2.51,2.51,0,0,0,0-1,.72.72,0,0,0,.11-.47c.24-1.14-.26-1.87-1.49-2.18l-.29-.12a.1.1,0,0,0-.1,0h0a4.32,4.32,0,0,0-2-.57,6.65,6.65,0,0,0-4.93,1.54.2.2,0,0,0-.19.1,1.18,1.18,0,0,0-.93,1.42c0,.53.11,1.06.12,1.59,0,1.93,0,3.86,0,5.78,0,.4-.07.8-.09,1.19a.71.71,0,0,1-.71.71c-1.44.19-2.89.27-4.34.33-1,.05-2-.09-2.93,0-.53.05-1,.15-1.14.77a.66.66,0,0,1-.33.42,1.79,1.79,0,0,0-.71,1.36,6.53,6.53,0,0,0,.14,3,3,3,0,0,1,.16.94,1.57,1.57,0,0,0,.65,1.22c.32.25.7.6,1.19.37a12.3,12.3,0,0,1,2.59-.72,7.47,7.47,0,0,1,1.7-.29,12,12,0,0,0,1.58-.11c.58-.08,1.15-.14,1.73-.2.32,0,.49.12.5.46,0,.64,0,1.27,0,1.91,0,2.4-.26,4.8.46,7.17a1.7,1.7,0,0,0,1.32,1.3,7.08,7.08,0,0,0,2.6.13c1-.19,2-.39,3-.5a5.12,5.12,0,0,0,1.74-.51c1.11-.54,1.37-1,.95-2.21a17.68,17.68,0,0,1-.73-3.14c-.28-1.63-.1-3.27-.36-4.88-.09-.58,0-.65.59-.66,1,0,2.07,0,3.1,0a19.94,19.94,0,0,1,4.43.12C565.39,188.54,565.85,188,565.82,187.16Z"/><path class="b" d="M657,171.38a5.66,5.66,0,0,0-.27-2,40.46,40.46,0,0,0-1-7.26l-.42-1.21a9.14,9.14,0,0,0-2-4,1.46,1.46,0,0,0-.49-.73,2.52,2.52,0,0,0-1.27-1.22,1.37,1.37,0,0,0-1-.78,5.87,5.87,0,0,0-2-1.79h0a5,5,0,0,0-2.41-1.52,9.86,9.86,0,0,0-3.81-1.81,4.73,4.73,0,0,0-1.37-.42.76.76,0,0,0-.67-.21l-.52-.16a1.31,1.31,0,0,0-.73-.09.74.74,0,0,0-.52-.17l-1.22-.31a.86.86,0,0,0,.11.19.86.86,0,0,1-.11-.19,2.4,2.4,0,0,0-2.49-.51,1.06,1.06,0,0,0-.78.13,5.7,5.7,0,0,0-1.7.58,3.12,3.12,0,0,0-1.29.42l-.53.21a3.73,3.73,0,0,0-1.47.9,2.46,2.46,0,0,0-1.21.76,5.92,5.92,0,0,0-2,1.94,2.37,2.37,0,0,0-1.23,1,1,1,0,0,0-.55.67h0c-.81.48-1.05,1.41-1.66,2a7.3,7.3,0,0,0-2.33,3.7,7.38,7.38,0,0,0-1.17,2.68h0c-.21.11-.24.32-.32.51a46.16,46.16,0,0,0-1.94,5.35,55.43,55.43,0,0,0-1.81,6.95,24.55,24.55,0,0,0-.63,5.73c0,.17-.05.34-.07.52a1.54,1.54,0,0,0-.1,1c0,.16,0,.33.05.49s0,.5,0,.76l0,.49a1.28,1.28,0,0,0,0,.75c0,.17,0,.33,0,.49a3.13,3.13,0,0,0,.19,1.74,7.14,7.14,0,0,0,.22,2c0,.62.11,1.24.15,1.86a22.39,22.39,0,0,0,1.27,6.67c.39,1,.79,2.09,1.18,3.13a30.58,30.58,0,0,0,4.26,7.82,14.17,14.17,0,0,0,6.44,4.48,25.65,25.65,0,0,0,4.57,1.13c1,.18,2,.61,3,0a2.69,2.69,0,0,0,1.28-.25,7,7,0,0,0,3.78-1.54,1.84,1.84,0,0,0,.73-.5,2.68,2.68,0,0,0,1-.85,6.44,6.44,0,0,0,2-1.43,4,4,0,0,0,1.18-.9.64.64,0,0,0,.47-.44l.29-.26h0a.61.61,0,0,0,.44-.49l.29-.3a.94.94,0,0,0,.69-.71l.31-.29a1.33,1.33,0,0,0,.64-.55c.67-1.11,1.32-2.23,2-3.35a8.31,8.31,0,0,0,.89-1.76,1.76,1.76,0,0,0,.46-1.5,21.21,21.21,0,0,0,1.57-4.22.86.86,0,0,0,.12-.76,1.62,1.62,0,0,0,.31-1,6.12,6.12,0,0,0,.69-2.51c.16-1.1.71-2.1.79-3.22,0-.17,0-.35,0-.53a19.47,19.47,0,0,0,.62-3.49.55.55,0,0,0-.06-.45,17.18,17.18,0,0,0,.58-5.48,3.39,3.39,0,0,0,.08-1.55C656.52,174.33,657.14,172.9,657,171.38ZM620.6,201.59c-.05.13,0,.22.15.27s.17-.05.19-.11-.12.08-.19.11S620.55,201.72,620.6,201.59Zm23.52-20.76a12.16,12.16,0,0,1-.53,2.75,1,1,0,0,0-.31.73c-.28.84-.56,1.7-.85,2.54a2,2,0,0,0-.13,1.2,7.57,7.57,0,0,0-.65,2,3.34,3.34,0,0,0-.53,1.49,1.47,1.47,0,0,0-.66.69l-1.3,3.54a14.15,14.15,0,0,0-1.25,2.25,1.53,1.53,0,0,0-.39.7,4.33,4.33,0,0,0-.4.47,6.27,6.27,0,0,1-5,2.92l-1-.19c0-.16,0-.4-.21-.4-.78,0-1.14-.49-1.42-1.11a.89.89,0,0,0-.29-.39c-1.3-.85-1.89-2.23-2.62-3.5a3.6,3.6,0,0,0-.64-1.67,18.62,18.62,0,0,0-.54-2.57,1.86,1.86,0,0,0-.28-1.24,29.7,29.7,0,0,0-.32-3.52h0c0-.48,0-1,0-1.45a9.67,9.67,0,0,0,.08-2c0-.34,0-.67.05-1a.21.21,0,0,0,0-.24,1.19,1.19,0,0,1-.08-.16,1.19,1.19,0,0,0,.08.16l-.06-.26,0-.24a1.29,1.29,0,0,1-.33-.1,1.29,1.29,0,0,0,.33.1,26.46,26.46,0,0,1,.73-5.61,13.26,13.26,0,0,1,1.08-4.06c1.08-2,1.49-4.17,2.24-6.26a11.7,11.7,0,0,0,1.2-2.4h0a.8.8,0,0,0,.31-.58,14.8,14.8,0,0,0,1.48-1.69,7.67,7.67,0,0,1,5.74-.59c3,.81,5.56,2.18,6.68,5.32a12.4,12.4,0,0,1,.49,3.16c.21,2.41,0,4.8-.05,7.2a1,1,0,0,0-.15,1,2.86,2.86,0,0,0-.19,1.5l-.07.74c0,.14,0,.28-.08.42S644.12,180.72,644.12,180.83Zm11.35.75a1.17,1.17,0,0,1-.05-.11,1.17,1.17,0,0,0,.05.11c0,.13-.07.24-.22.2C655.4,181.82,655.45,181.71,655.47,181.58Z"/><path class="b" d="M700.82,170a25,25,0,0,0-1.74-8.72,14.75,14.75,0,0,0-3.44-5.08,14,14,0,0,0-3.52-3.29c-.88-.53-1.8-1-2.69-1.54a13.35,13.35,0,0,0-7.48-1.81,3,3,0,0,1-1.22-.18,5.73,5.73,0,0,0-6.36,1.52,20.27,20.27,0,0,0-4.19,5.65,13.23,13.23,0,0,0-1.95,3.72c-.68,1.82-1.41,3.63-2,5.5-.47,1.59-1,3.16-1.34,4.78a52.87,52.87,0,0,0-.72,6.29,80.39,80.39,0,0,0,0,14.88,44.83,44.83,0,0,0,3,12.25,13.54,13.54,0,0,0,3.14,5,8.28,8.28,0,0,0,3.29,2.14,27.42,27.42,0,0,0,6.85,1.08,15,15,0,0,0,7.49-1.95c1.78-.94,3.21-2.34,4.87-3.42a11,11,0,0,0,2.46-2.69,18.21,18.21,0,0,0,1.46-2.45,4,4,0,0,0,.8-2.66,2.23,2.23,0,0,1,.31-1.07,32,32,0,0,0,2.17-8.64c.14-1.77.2-3.56.44-5.32s.34-3.63.47-5.45A61,61,0,0,0,700.82,170Zm-22.4,29.3c-.52-2.26-1.08-4.51-1.38-6.81a7.68,7.68,0,0,0-.36-1.18,38.22,38.22,0,0,0-.84-6.74,1,1,0,0,0-.08-.72,21.46,21.46,0,0,0,0-3,.81.81,0,0,0,.12-.75c.16-1.84,0-3.7.33-5.54a3.38,3.38,0,0,0,.11-1.7l0-.48h0c.49-.55.2-1.3.49-1.9a21.33,21.33,0,0,0,1.14-3.41,11.11,11.11,0,0,1,4-5.93,13.6,13.6,0,0,0,2.28-2.27c.4-.48.65-.54,1.06-.1.17.18.33.37.51.54,1.48,1.42,2.31,3.33,3.63,4.87a5.07,5.07,0,0,1,1,2.25,20.41,20.41,0,0,1,.15,6.66c-.31,3-.73,5.92-1,8.89a35.22,35.22,0,0,1-2.59,10.51c-.41,1-.93,2-1.4,3-.66.85-1.34,1.68-2,2.56-1,1.43-2.54,1.78-4.08,2.1C678.93,200.34,678.59,200,678.42,199.3Z"/><path class="b" d="M605.47,152.25a3.84,3.84,0,0,0-3.51-3c-1.14.07-2.29.05-3.43.13-1.94.15-3.86.46-5.79.69a4,4,0,0,0-2.61,1.34,30.46,30.46,0,0,0-3.82,5.3,9.09,9.09,0,0,1-1.28,1.77,18.17,18.17,0,0,0-1.92,2.45,6.23,6.23,0,0,1-1.89,2.17c-.54.31-.77,1.07-1.43,1.32a.32.32,0,0,0-.15.25c.11.68-.36,1.09-.71,1.55a1.93,1.93,0,0,0-.14,2.48,10.09,10.09,0,0,0,1,1.22,6.29,6.29,0,0,1,1.08,2.94c-.71.15-.74-.52-1.13-.69.21.48.32,1,1,1,.31,0,.38.36.57.55a3.22,3.22,0,0,0,3.08,1.1,4.73,4.73,0,0,0,2.81-2,3.61,3.61,0,0,1,.57-.72,17.91,17.91,0,0,0,2.55-2.6c.4-.5,1-.88,1.16-1.56h0c.27-.1.62-.4.62.22a8.94,8.94,0,0,0-.06,2.06,9,9,0,0,1,.16,2.37c-.17,3.85-.2,7.69-.12,11.54,0,.84-.16,1.65-.16,2.47a50.43,50.43,0,0,1-.12,5.9c-.12.94,0,1.88-.13,2.8-.26,1.67-.27,3.37-.44,5.06-.15,1.52-.32,3-.61,4.52a28.66,28.66,0,0,0-.4,3.19c0,.24-.08.51.14.69a20.19,20.19,0,0,0,3.16,2.68,10.28,10.28,0,0,0,6,.73,2.75,2.75,0,0,0,2.25-1.64,13.55,13.55,0,0,0,1-3.89c.18-1.23.13-2.49.23-3.74.22-2.69.22-5.4.26-8.1,0-1.14.13-2.28.08-3.43a21.91,21.91,0,0,1-.12-2.28c.16-2.29-.08-4.58.06-6.86,0-.62,0-1.26,0-1.87.4-4,.87-8,1.09-12,.18-3.08.72-6.13,1.06-9.2A24.49,24.49,0,0,0,605.47,152.25Z"/><path class="b" d="M395.53,306.52a17.63,17.63,0,0,0-4.78-5.49,22.18,22.18,0,0,0-4.63-2.75,16.35,16.35,0,0,0-5-1.61,66.55,66.55,0,0,0-6.91-.87,42.46,42.46,0,0,0-5.41-.14,4,4,0,0,0-2.4.76.87.87,0,0,0-.51.43,12.6,12.6,0,0,0-1.78,1.4,17.82,17.82,0,0,0-2.34,1.81l-.42.05a2,2,0,0,0,.11-1.1c.93-1.36,1.53-2.89,2.32-4.32a59.35,59.35,0,0,1,3.2-5.51,25.57,25.57,0,0,1,5-5.47c2.94-2.35,6-4.56,9.78-5.24,1.14-.21,2.29-.38,3.42-.64a4.52,4.52,0,0,1,3.79.8,3.41,3.41,0,0,0,1.82.52,20,20,0,0,1,2.3-.1,1.16,1.16,0,0,0,1.36-.68,29.49,29.49,0,0,0,2.81-5.37,24.29,24.29,0,0,1,1.2-3.13c.4-.82.88-1.66-.33-2.25-.66-1.56-2.11-2.16-3.49-2.83a5.38,5.38,0,0,0-2.61-.63l-.77,0c-.66.07-1.33-.4-2,0l-.64,0a32.78,32.78,0,0,0-4.64-.41.28.28,0,0,0-.25,0c-.88.12-1.89-.28-2.55.7-.05.09-.32,0-.49.05a3.77,3.77,0,0,0-2.14.77,3.18,3.18,0,0,1-1.87.81,4.15,4.15,0,0,0-2.55,1l-.24.13a12.38,12.38,0,0,0-1.35.41c-.46.2-1.05.16-1.39.59-.75,1-1.89,1.45-2.73,2.29-.48.4-1.14.52-1.51,1.06-.43.12-.92.18-1,.78l-.88.71c-.74.84-1.79,1.32-2.49,2.27a11.34,11.34,0,0,0-1.51,2c-.09.18-.24.43-.4.48-.91.24-1.12,1-1.35,1.73a1.22,1.22,0,0,0-.45.74c-.35.49-1.07.53-1.36,1.1-.36.72-1,1.25-1.17,2.1s-1,1.27-1.37,2c-.78,1.33-1.17,2.83-2,4.14a3.4,3.4,0,0,0-.69,1.63.13.13,0,0,0-.07.15,7.6,7.6,0,0,0-.46.78,47.24,47.24,0,0,0-2.65,8.6,50.53,50.53,0,0,0-1.06,10.91,80.14,80.14,0,0,0,.46,12.77,17.2,17.2,0,0,0,2.59,7.5,54.44,54.44,0,0,0,6.22,7.57,21.29,21.29,0,0,0,9.54,5.9c5.06,1.32,10,1.5,15-.34a5.75,5.75,0,0,0,3.09-2.08c.92-1.34,2.21-2.4,3.11-3.78a3.75,3.75,0,0,1,.81-.83c2.6-2.09,4.23-4.92,5.83-7.76h0a2.33,2.33,0,0,0,.9-1.21c.5-1.32,1-2.66,1.43-4,1.23-3.47,2.2-6.93,1.58-10.79A27.79,27.79,0,0,0,395.53,306.52Zm-33.25,16.07a20,20,0,0,1,6.54-14.4,15,15,0,0,1,4.69-2.67,2.76,2.76,0,0,1,1.66,0,15.06,15.06,0,0,1,6.73,2.74,19.69,19.69,0,0,1,3.26,3.81c1.56,2.1,1.87,4.64,2,7.09a9.29,9.29,0,0,1-.8,4.91c-1.2,2.38-2.19,4.86-4.07,6.85a12.84,12.84,0,0,1-5.55,3.62,1.74,1.74,0,0,1-.63.14c-2-.05-4,0-5.91-1.05a27.73,27.73,0,0,0-3-1.24,4.64,4.64,0,0,1-2.11-1.63,10.74,10.74,0,0,0-1.85-2.14,2.28,2.28,0,0,1-.79-1.84A40.7,40.7,0,0,1,362.28,322.59ZM354,309.67c0,.11-.06.24-.21.25a.25.25,0,0,1-.2-.26c0-.2-.1-.48.17-.51S354,309.44,354,309.67Z"/><path class="b" d="M448.7,297.92a28.33,28.33,0,0,0-2-9.88,16.58,16.58,0,0,0-3.89-5.76,15.69,15.69,0,0,0-4-3.72c-1-.6-2-1.15-3-1.75a15,15,0,0,0-8.48-2.05,3.59,3.59,0,0,1-1.38-.21c-2.79-1.06-5.18-.21-7.21,1.72a22.89,22.89,0,0,0-4.75,6.41,15.15,15.15,0,0,0-2.21,4.21c-.77,2.07-1.59,4.12-2.22,6.24-.54,1.8-1.13,3.58-1.51,5.41a56.8,56.8,0,0,0-.82,7.13,90.54,90.54,0,0,0,0,16.87,50.93,50.93,0,0,0,3.46,13.88,15.27,15.27,0,0,0,3.56,5.68,9.4,9.4,0,0,0,3.72,2.43,31.55,31.55,0,0,0,7.77,1.22,17,17,0,0,0,8.49-2.22c2-1,3.63-2.64,5.52-3.87a12.6,12.6,0,0,0,2.79-3,20.89,20.89,0,0,0,1.65-2.79,4.42,4.42,0,0,0,.91-3,2.51,2.51,0,0,1,.35-1.21,36.18,36.18,0,0,0,2.46-9.79c.16-2,.23-4,.5-6s.38-4.12.53-6.17A69.79,69.79,0,0,0,448.7,297.92Zm-25.39,33.21c-.6-2.56-1.22-5.11-1.57-7.72a9,9,0,0,0-.4-1.34,43.49,43.49,0,0,0-.95-7.63,1.07,1.07,0,0,0-.1-.82,25.72,25.72,0,0,0,0-3.4,1,1,0,0,0,.12-.85c.19-2.09.06-4.19.38-6.28a3.82,3.82,0,0,0,.12-1.93c0-.18,0-.36,0-.54h0c.56-.62.23-1.47.56-2.15a25.35,25.35,0,0,0,1.29-3.86,12.55,12.55,0,0,1,4.58-6.73,15.68,15.68,0,0,0,2.58-2.57c.46-.55.74-.62,1.2-.12.19.21.37.42.58.62,1.67,1.61,2.62,3.77,4.12,5.52a5.69,5.69,0,0,1,1.1,2.54,23.12,23.12,0,0,1,.17,7.56c-.34,3.35-.82,6.7-1.08,10.07a40.15,40.15,0,0,1-2.94,11.92c-.47,1.17-1.05,2.29-1.58,3.44-.75,1-1.53,1.9-2.22,2.9-1.14,1.62-2.88,2-4.63,2.38C423.89,332.31,423.5,332,423.31,331.13Z"/><path class="b" d="M497.67,306.85a1.27,1.27,0,0,1-.13-.55,29.16,29.16,0,0,0-1.73-7.92c-.38-1.2-.82-2.38-1.13-3.61a13.77,13.77,0,0,0-2.6-5.42,34.42,34.42,0,0,1-2.3-3.36,30.77,30.77,0,0,0-5.93-7.27,7.11,7.11,0,0,0-2.4-1.45c-1.11-.37-2.23-.73-3.35-1.08a18.46,18.46,0,0,0-4.53-.95l-.06,0a5.93,5.93,0,0,0-4.18.42,1.81,1.81,0,0,1-1.2.22c.08-.4,0-.67-.47-.41l-1.57.53a3.49,3.49,0,0,0-.88.38,20.2,20.2,0,0,0-4.36,4.77,8.42,8.42,0,0,0-1.29,2.51l0,.1a2.28,2.28,0,0,0-.71,1.44l0,.08a2.36,2.36,0,0,0-.42,1.13v.07a17.91,17.91,0,0,0-1.46,5.26,55.89,55.89,0,0,0-.69,9c-.08,3.27.61,6.44,1,9.65.33,2.89,1,5.74,1.52,8.6.4,2.17.72,4.36,1.15,6.51a31.67,31.67,0,0,0,4.58,11,12.54,12.54,0,0,0,5.89,5.28,30.88,30.88,0,0,0,12.06,2.34,11.84,11.84,0,0,0,9.11-4.31,44,44,0,0,0,4.64-7.2,20.84,20.84,0,0,0,2.67-9.83c.07-3.08.1-6.18,0-9.27C498.7,311.22,498.86,308.91,497.67,306.85Zm-29.42,2.32a38.94,38.94,0,0,1,.25-10.51,61.63,61.63,0,0,1,1.21-6.34,9,9,0,0,1-.4-1.34,9,9,0,0,0,.4,1.34c.27-.24.27-.6.41-.88,1-1.94,1.67-4.13,4.16-4.76a5.87,5.87,0,0,1,3-.27,7.72,7.72,0,0,0,3.29.51c.92-.14,1.24.28,1.54,1.36a1.82,1.82,0,0,0,.53.81,7.3,7.3,0,0,1,1.4,2.27,50.12,50.12,0,0,0,2.33,5,2.75,2.75,0,0,1,.36.91c.63,3.41,1.54,6.77,2,10.22.28,2,0,4,.27,6a19.74,19.74,0,0,1-.15,2.51c0,2.28.21,4.6-1.1,6.68a1.83,1.83,0,0,0-.13.68,45.14,45.14,0,0,1-1.42,6.32c-.06.15-.11.29-.16.43h0c.19.3,0,.76.42,1-.38-.2-.23-.66-.42-1-.7,1-1.32,2-2.1,3a3.61,3.61,0,0,1-3.65,1.26,5.6,5.6,0,0,1-3.29-1.74,24,24,0,0,1-5.07-8.2c-.86-2.28-1.63-4.6-2.34-6.92A54.39,54.39,0,0,1,468.25,309.17Z"/><path class="b" d="M366.79,117a2.21,2.21,0,0,1-.18-2.35,2.34,2.34,0,0,0-.27-2.22c-.58-1-1.42-1.71-2-2.64-.8-1.3-2-1.38-3.23-1.17a6.05,6.05,0,0,0-1.45.43,29.54,29.54,0,0,1-5,1.53c-3.72.83-7.39,1.85-11.08,2.81a14.91,14.91,0,0,1-1.61.35c-.48.07-.72-.23-.54-.67a8.86,8.86,0,0,1,.9-1.86,17.83,17.83,0,0,0,1.91-3,36.8,36.8,0,0,1,2.56-4.5c1.42-2.4,2.81-4.83,4.36-7.17.63-.94,1.3-1.88,1.84-2.89a38.51,38.51,0,0,0,2.57-7,11.34,11.34,0,0,0-.5-7.43,15.21,15.21,0,0,0-4.65-6.37,15.74,15.74,0,0,0-4.77-3,18,18,0,0,0-8.51-1.18,33.69,33.69,0,0,0-4.37.56,21.37,21.37,0,0,0-8.6,4.67,10.33,10.33,0,0,0-3.11,5.92c-.73,3.37-.72,6.84-1.09,9.86a13.28,13.28,0,0,0,.44,4.36,2.1,2.1,0,0,0,1.88,1.75,6.23,6.23,0,0,1,1.34.32,3.25,3.25,0,0,0,2.28.07,3.84,3.84,0,0,1,1.85-.42c1.05.28,1.47-.61,2.2-.86,1.05-.35,1-1.28,1.08-2.16a33.22,33.22,0,0,1,1.89-9.13,3.52,3.52,0,0,1,1.49-1.92c1.67-.93,5-.22,6.15,1.38a6.38,6.38,0,0,1,1.26,4.28,18.17,18.17,0,0,1-1,4.83c-1.29,3.48-2.37,7-4.29,10.28-.37.63-.75,1.25-1.15,1.87-2.62,4.09-4.83,8.46-8.27,12a3.82,3.82,0,0,0-1.15,3.67,25.37,25.37,0,0,0,4,10.32c.32.47.74.87,1.18.81.77-.09,1.48-.32,2.17.23.08.06.44-.13.6-.27a27.19,27.19,0,0,1,6.63-3.9,88.49,88.49,0,0,1,10.69-4c2-.64,4-1.18,5.88-1.93a20.18,20.18,0,0,1,6.64-1.64,21.16,21.16,0,0,0,2.7-.46c.24,0,.52-.07.51-.35C366.9,118.26,367.27,117.64,366.79,117Z"/><path class="b" d="M517.8,106.84a57.9,57.9,0,0,0,1.06-12.32A10.65,10.65,0,0,0,515,86.15a10.82,10.82,0,0,0-6.77-2.74,12.33,12.33,0,0,0-8,2.78c-.78.6-.92.62-1.59-.14a8.62,8.62,0,0,0-2.46-2,13.59,13.59,0,0,0-6.4-1.35,7.77,7.77,0,0,0-4.71,1.65c-1,.76-2.08,1.49-3.13,2.23a4.56,4.56,0,0,0-4.46-2.72c-1.28.09-2.55.35-3.83.43a4.72,4.72,0,0,0-2.34.63c-.85.52-1.64,1.62-1.23,2.41s.08,1.22,0,1.82a3.77,3.77,0,0,0-.19,1.07,30.76,30.76,0,0,1,.08,6.29c-.06,1.61-.27,3.2-.34,4.8s.25,2.93-.09,4.38a.85.85,0,0,0,.56,1.11,3.16,3.16,0,0,1,1.15,1,3.45,3.45,0,0,0,3,1,47.45,47.45,0,0,0,5.39-1,2.18,2.18,0,0,0,1.9-2.48,50.56,50.56,0,0,0-.28-5.9,2.42,2.42,0,0,1,1.12-2.72,14.15,14.15,0,0,0,1.79-1.49A28.39,28.39,0,0,1,487,93c1.69-1.15,3.13-.16,3.13,1.75a25.06,25.06,0,0,1-.2,3.57c-.27,2.14-.51,4.29-.75,6.43a1.6,1.6,0,0,0,.16,1.2,4.14,4.14,0,0,1,.69,1.49c.1.39.33.66.8.53a3.56,3.56,0,0,1,2.54.31,1.65,1.65,0,0,0,1.07.09,9.4,9.4,0,0,1,2-.16c2,0,2.68-.79,2.63-2.78a8,8,0,0,1,.31-2.17,39.29,39.29,0,0,0,1.1-5.68,1.74,1.74,0,0,1,.79-1.36,34,34,0,0,0,3.65-2.7,3.61,3.61,0,0,1,1.34-.68,1.67,1.67,0,0,1,2.11,1,22.08,22.08,0,0,1,.35,6c-.13,1.68-.35,3.36-.45,5.06a4.54,4.54,0,0,0,.68,2.58,1.37,1.37,0,0,0,1.19.74,37.34,37.34,0,0,1,5.06.48A2.18,2.18,0,0,0,517.8,106.84Z"/><path class="b" d="M427.58,84.79A19.28,19.28,0,0,0,420.21,78a24.48,24.48,0,0,0-9.38-2.44,7.25,7.25,0,0,0-6.05,2.1,16.73,16.73,0,0,0-4.42,6.83,35.86,35.86,0,0,0-1.83,8.71,20.86,20.86,0,0,0,1.53,8.74c.69,1.75,1.52,3.45,2.24,5.18a11.06,11.06,0,0,0,4.91,5.38,7.86,7.86,0,0,0,4.25,1.37c1.69-.08,3.39-.2,5.06-.43a30.12,30.12,0,0,0,5.79-1.73,5.14,5.14,0,0,0,1.43-.83,10.76,10.76,0,0,0,2.37-2.83,16.7,16.7,0,0,0,2.48-5.47,54.4,54.4,0,0,0,1.07-10.44C430.14,89.79,429.09,87.21,427.58,84.79Zm-6.86,8.41a5,5,0,0,0,0,.55,12.61,12.61,0,0,1-2.22,7.12,5.79,5.79,0,0,1-5.37,2.68,2.21,2.21,0,0,1-1.63-.92c-1-1.22-1.9-2.47-1.74-4.19a5.78,5.78,0,0,0-.17-1.22,14.82,14.82,0,0,1,1.84-9.52c1.41-2.39,5.32-2.51,7.05-.49A7.87,7.87,0,0,1,420.72,93.2Z"/><path class="b" d="M463,87.75A11.65,11.65,0,0,0,459.75,82c-1.67-1.58-3.85-2.31-5.95-3.07a20.51,20.51,0,0,0-6.08-1.08,17.73,17.73,0,0,0-6.67.71,4.94,4.94,0,0,0-2.73,2.34c-.46.8-.75,1.65-1.13,2.48a18.52,18.52,0,0,0-1.59,6.49,39.68,39.68,0,0,0-.18,8.23c.5,3.56,1.62,6.82,4.18,9.38,2.37,2.37,5,4.31,8.55,4.13a14.2,14.2,0,0,0,5.25-.89c4.6-1.45,7.32-4.73,8.91-9.08.8-2.21.95-4.58,1.55-6.84a2.67,2.67,0,0,0,.15-1.07A59.67,59.67,0,0,0,463,87.75Zm-8.52,9a7.41,7.41,0,0,0-.3,1.19c-.1,1.71-1.19,2.55-2.61,3.18a4.11,4.11,0,0,1-5.33-2,29.63,29.63,0,0,0-1.36-2.7c-1.46-2.41-.69-6.49.88-8.44a1.65,1.65,0,0,1,2-.47c1.78.59,3.54,1.24,5.33,1.83A2.09,2.09,0,0,1,454.55,91a9.87,9.87,0,0,1,.33,2.45A10,10,0,0,1,454.52,96.8Z"/><path class="b" d="M529.94,82.24A2.86,2.86,0,0,0,528.43,80c-.37-.25-.85-.32-1.15-.69a1.46,1.46,0,0,0,.61-.36,11.25,11.25,0,0,0,2.61-1.93,1.91,1.91,0,0,0,.25-.33A21.05,21.05,0,0,0,533,72.37a3.45,3.45,0,0,0-.16-2.57,4.41,4.41,0,0,0-1.92-2.23c-.43-.25-.8-.6-1.23-.85a4.43,4.43,0,0,0-2.79-.93,6.53,6.53,0,0,0-1,.18,8.15,8.15,0,0,0-3.45,1.53,9.84,9.84,0,0,0-1.6,1.93,2.41,2.41,0,0,0-.41,1.68,1,1,0,0,0,.31.65c.35.34.8.54,1.12.87a2.05,2.05,0,0,0,1.42.54c.25,0,.49-.07.74,0a.46.46,0,0,0,.53-.33,7.84,7.84,0,0,1,.92-1.35.7.7,0,0,0,.29-.3,2.31,2.31,0,0,1,1-.17l.27.09a.53.53,0,0,1-.15.53.5.5,0,0,0-.09.6l-.06.37a3.62,3.62,0,0,1-.69,1.08.1.1,0,0,0-.1.06,1.14,1.14,0,0,0-.44.34l0,0a.93.93,0,0,0-.43.22h0c-.24,0-.35.22-.47.39h0a.46.46,0,0,0-.31.23.65.65,0,0,0-.39.28,2.11,2.11,0,0,0-.91.59.39.39,0,0,0-.32.2.3.3,0,0,0-.22.17,7.37,7.37,0,0,0-2,1.42,4.38,4.38,0,0,0-1.38,2,3.09,3.09,0,0,0,1.8,4,34.86,34.86,0,0,0,5.65,1.58,2.52,2.52,0,0,0,2.3-.67c.21-.2.38-.45.57-.67A2.22,2.22,0,0,0,529.94,82.24Z"/><path class="b" d="M395.56,97.36a11.7,11.7,0,0,0-3.17-7.68c-.79-.89-1.67-1.69-2.52-2.49-1.16-1.09-2.09-2.45-3.55-3.22a4.62,4.62,0,0,1-2.23-1.77,1.12,1.12,0,0,0-.68-.44,11.49,11.49,0,0,0-4.82-.64,10.28,10.28,0,0,0-8.45,6,31.33,31.33,0,0,0-2.76,8.48,6.35,6.35,0,0,0-.3,2.2c.07.8.1,1.35.18,1.89a50.69,50.69,0,0,0,2.44,9.87,6.78,6.78,0,0,0,1.54,2.88,19.68,19.68,0,0,0,2.62,2.18,27.62,27.62,0,0,0,3.75,2,7.09,7.09,0,0,0,3.67,1,26.88,26.88,0,0,0,7.68-2,5.75,5.75,0,0,0,2.47-1.7,20,20,0,0,0,2.32-4.5,29.79,29.79,0,0,0,1.75-7.6c.11-1-.16-2,.38-2.91C396.21,98.33,395.57,97.91,395.56,97.36Zm-10.55,7c-.37,1.44-1.55,2.08-2.67,2.79-.27.17-.53,0-.76-.15a5,5,0,0,1-2.15-2.25c-.81-2.13-1.75-4.24-1.63-6.61a6.7,6.7,0,0,1,.1-1.09c.44-1.92,1.65-2.68,3.54-2.15.88.25,1.73.61,2.59.91A1.89,1.89,0,0,1,385.22,97a8.83,8.83,0,0,1,.45,2.65A28.74,28.74,0,0,1,385,104.32Z"/><text class="c" transform="translate(352.56 147.23)">de <tspan class="d" x="24.49" y="0">t</tspan><tspan x="30.54" y="0">er</tspan><tspan class="e" x="47.03" y="0">r</tspan><tspan x="53.15" y="0">ain </tspan><tspan class="e" x="82.43" y="0">r</tspan><tspan x="88.56" y="0">es</tspan><tspan class="d" x="105.9" y="0">t</tspan><tspan x="111.95" y="0">au</tspan><tspan class="e" x="132.03" y="0">r</tspan><tspan x="138.16" y="0">é</tspan></text><text class="c" transform="translate(801.06 156.7)">p<tspan class="f" x="10.44" y="0">l</tspan><tspan x="15.58" y="0">ants </tspan><tspan class="g" x="53.79" y="0">v</tspan><tspan x="62.44" y="0">endus</tspan></text><text class="c" transform="translate(519.14 239.53)"><tspan class="d">v</tspan><tspan x="8.66" y="0">arié</tspan><tspan class="g" x="39.91" y="0">t</tspan><tspan x="45.95" y="0">és de p</tspan><tspan class="h" x="102.6" y="0">l</tspan><tspan x="107.74" y="0">an</tspan><tspan class="d" x="127.82" y="0">t</tspan><tspan x="133.87" y="0">es p</tspan><tspan class="e" x="166.03" y="0">r</tspan><tspan x="172.16" y="0">odui</tspan><tspan class="g" x="207.8" y="0">t</tspan><tspan x="213.85" y="0">es</tspan><tspan class="f" x="42.63" y="21.87">l</tspan><tspan x="47.77" y="21.87">a p</tspan><tspan class="e" x="72.51" y="21.87">r</tspan><tspan x="78.63" y="21.87">emiè</tspan><tspan class="e" x="118.56" y="21.87">r</tspan><tspan x="124.68" y="21.87">e ann</tspan><tspan class="d" x="169.1" y="21.87">é</tspan><tspan x="178.74" y="21.87">e</tspan></text><text class="c" transform="translate(330.14 374.39)">personnes sensibilis<tspan class="d" x="159.66" y="0">é</tspan><tspan x="169.29" y="0">es</tspan></text><text class="c" transform="translate(569.59 433.45)">a<tspan class="d" x="9.93" y="0">t</tspan><tspan x="15.98" y="0">eliers et chantiers</tspan><tspan x="17.36" y="21.87">sur </tspan><tspan class="f" x="46.07" y="21.87">l</tspan><tspan x="51.21" y="21.87">a pépiniè</tspan><tspan class="e" x="125.85" y="21.87">r</tspan><tspan x="131.97" y="21.87">e</tspan></text><text class="c" transform="translate(756.82 386.35)"><tspan class="d">év</tspan><tspan x="18.29" y="0">ènements sur </tspan><tspan class="h" x="130.36" y="0">l</tspan><tspan x="135.49" y="0">e </tspan><tspan class="i" x="149.69" y="0">t</tspan><tspan x="155.74" y="0">erri</tspan><tspan class="i" x="183.73" y="0">t</tspan><tspan class="j" x="189.78" y="0">oi</tspan><tspan class="k" x="204.97" y="0">r</tspan><tspan x="211.09" y="0">e</tspan></text></svg>