<svg xmlns="http://www.w3.org/2000/svg" viewBox="0 0 141.73 141.73"><defs><style>.a{fill:#703c59;}.b{fill:#6c8f6a;}</style></defs><path class="a" d="M79.84,79.31c-.51-.65-.65-1.79-2-1.37A47.71,47.71,0,0,1,73,79c-4,.81-8,2-12.05,2.31-6.36.46-12.77.35-19.16.4a41.34,41.34,0,0,1-16.89-3.16c-.36-.16-1.11-.23-1.2-.07-.6,1-1.41,2.14-1.44,3.24,0,.63.54,1.52,2,1.92a5.79,5.79,0,0,0,.77.18c7,1.23,13.89,2.46,19.55,2.07C57.88,86.27,66.33,85.5,76,83a11.89,11.89,0,0,0,3.43-1.6A1.51,1.51,0,0,0,79.84,79.31Z"/><path class="b" d="M81.47,78.71a11.4,11.4,0,0,0-3.64-3.85c-4.89-3.47-12-4.47-26.61-4.76-12.56-.24-18.81,1.78-25.16,4.5a9.71,9.71,0,0,0-4.64,4c-2,3.25-1,5.58,2.66,6.78a2.07,2.07,0,0,1,1.51,1.39q5.57,14.7,11.18,29.38c.17.44.32.88.46,1.29a22.35,22.35,0,0,1-1.89,1.24c-3.28,1.75-5.63,8.09-2.65,10.64,2.28,1.94,6.62,2.79,9.56,2.79,7.76,0,15.53.08,23.29,0a16,16,0,0,0,4.68-.63c2.53-.81,3.85-2.8,4.36-5.36.54-2.72.11-5.07-2.35-6.77a10.18,10.18,0,0,0-5-2c.11-.34.64-2.1.78-2.47l7.7-20.39c1.12-3,2.37-5.89,3.32-8.91a7.49,7.49,0,0,1,2.15-3.68A2.46,2.46,0,0,0,81.47,78.71Zm-2.06,2.73A11.89,11.89,0,0,1,76,83c-9.65,2.46-18.1,3.23-31.32,2.86-5.66.39-12.6-.84-19.55-2.07a5.79,5.79,0,0,1-.77-.18c-1.5-.4-2.05-1.29-2-1.92,0-1.1.84-2.2,1.44-3.24.09-.16.84-.09,1.2.07a41.34,41.34,0,0,0,16.89,3.16c6.39,0,12.8.06,19.16-.4C65,81,69,79.82,73,79a47.71,47.71,0,0,0,4.77-1.07c1.38-.42,1.52.72,2,1.37A1.51,1.51,0,0,1,79.41,81.44Zm-53.7-4.82c1.5-.61,9.56-3.87,14.08-4.31,7.29-.71,24.62-1.53,36.82,3.68v.45c-.94.22-1.88.45-2.83.65C69.85,77.92,66,79,62,79.51a85.93,85.93,0,0,1-12,.65c-5.32-.06-10.66-.29-16-.83-2.84-.28-5.6-1.37-8.4-2.09C25.66,77,25.68,76.83,25.71,76.62ZM72.6,122.24c1.5,2,0,6.42-2.56,7.47a8.85,8.85,0,0,1-3.33.68c-8.07,0-16.15,0-24.22,0-2,0-5.67-.43-7.37-1.67-2.43-1.77-2.15-3.58-.52-6.54a8.27,8.27,0,0,1,3.29-3c.47,1.2.92,2.29,1.31,3.4a1.8,1.8,0,0,0,1.88,1.34q11,.15,22.1.34A1.67,1.67,0,0,0,65,122.92c.62-1.69.79-2.11,1.5-4C70.17,119.75,71.17,120.29,72.6,122.24Zm4.55-36.48q-6.68,17.67-13.33,35.34a1.74,1.74,0,0,1-2,1.35c-6.57-.16-13.14-.24-19.71-.33-.77,0-1.28-.1-1.61-1Q34,104,27.45,86.85a5.92,5.92,0,0,1-.22-.75c16.83,2.32,33.55,2.65,50.26-1.49C77.37,85,77.28,85.41,77.15,85.76Z"/><path class="a" d="M46.38,61.94a7.22,7.22,0,0,1,6.55-6.89,2.75,2.75,0,0,1,3,2.83c0,2.63-2.94,6.42-5.49,7.07s-4.11-.62-4.07-3m2-.12C48.18,63,49,63.11,49.89,63c1.59-.28,4.07-3.26,4-4.9,0-.35-.6-1-.9-1a5.38,5.38,0,0,0-4.61,4.73"/><path class="a" d="M121.24,30.26a1.2,1.2,0,0,0-.59-.8,1.79,1.79,0,0,0-1.43.11l-.37.13a13.6,13.6,0,0,1-2,.37l-.38.05c-4,.52-7.93,1-11.9,1.5l-3.61.45a18.3,18.3,0,0,0-7.48,2.1L89,36.86c-3.87,2.34-7.86,4.77-11.88,7-2.35,1.31-4.78,2.38-7.35,3.52-1,.46-2.06.91-3.1,1.39-2.34-2.62-3.94-2.27-6.52-1.42a10.18,10.18,0,0,0-1.95.86c-.27.14-.55.3-1,.51l-.78.48c-.46.28-.89.54-1.39.87a7.76,7.76,0,0,1-.54-.57l.11-.09a7.42,7.42,0,0,1,.62-.49A127,127,0,0,1,74,38.08c1.56-.73,2.13-1.81,1.74-3.29-1.1-4.14-4-8.74-9.08-9.23-6.16-.6-7-.13-9.35,5a39,39,0,0,0-2.45,9.52c-.19,1.08-.37,2.16-.58,3.23l0,.17c-.44-1.82-1.29-3.52-4-4l.2-1.3c0-.21,0-.46.08-.71a8,8,0,0,1,.27-1.6A56.44,56.44,0,0,1,62.09,16.57a11.85,11.85,0,0,1,10.27-4l4.35.25c2.66.14,5.41.29,8.1.51l.14,0c4.25.35,8.63.72,12.89,1.38,5.8.9,10.45.71,14.64-.62,1.86-.59,3.45-1.71,3.84-2.73a1.21,1.21,0,0,0,0-1.1c-.28-.49-.87-.3-2.29.21l-.42.15-.83.25-1.25.38a25.61,25.61,0,0,1-10.09.89c-1.59-.19-3.18-.41-4.76-.63-2.67-.37-5.43-.76-8.16-1-6-.48-12.11-.81-18-1a12.11,12.11,0,0,0-9.78,4.18l-.36.41a69.36,69.36,0,0,0-5.5,6.88c-4.74,7.05-7.36,13.77-8,20.53a27.84,27.84,0,0,0,0,5.63c.27,2.39,2,3.85,4.65,3.9a1.94,1.94,0,0,1,1.16.51A8.71,8.71,0,0,0,62.63,53.9c2.78-1.11,5.54-2.37,8.22-3.59l.8-.37a204.61,204.61,0,0,0,22-12.27l.81-.5A10.75,10.75,0,0,1,98.3,35.6c2.43-.36,4.92-.65,7.33-.92,2.19-.25,4.46-.51,6.68-.83a66.07,66.07,0,0,0,7.47-1.65,2.29,2.29,0,0,0,1.38-1A1.22,1.22,0,0,0,121.24,30.26ZM67,28.7c2.26.24,4.84,3.24,5.61,6.56l-8.81,4.62Zm-6.32.65c.85-1.45,1.58-1.72,3.86-1.31-.45,1.64-.87,3.27-1.33,4.89-.65,2.26-1.33,4.51-2,6.77,0,0,0,.09,0,.13-.68,3.31-1.54,3.11-3.05,4.11l-1.67,1C57.65,39.42,57.94,34.06,60.72,29.35Zm-10.59,19a2.71,2.71,0,0,1-.91-2,31.84,31.84,0,0,1-.06-4.26c1.74-.08,2.29.35,2.53,2,.18,1.21.31,2.42.51,4C51.71,48.22,50.56,48.62,50.13,48.35Zm14.47,2c-2.54,1.23-5.08,2.47-8.26,1A13.41,13.41,0,0,1,62.7,49c.66,0,1.76,0,2.06.74C64.81,50,65,50.23,64.6,50.35Z"/><path class="b" d="M27.23,86.1c16.83,2.32,33.55,2.65,50.26-1.49-.12.43-.21.8-.34,1.15q-6.68,17.67-13.33,35.34a1.74,1.74,0,0,1-2,1.35c-6.57-.16-13.14-.25-19.71-.33-.77,0-1.28-.1-1.61-1Q34,104,27.45,86.85a5.92,5.92,0,0,1-.22-.75"/></svg>