<svg xmlns="http://www.w3.org/2000/svg" viewBox="0 0 141.73 141.73"><defs><style>.a{fill:none;}.b{fill:#703b59;}.c{fill:#6b8e6a;}</style></defs><path class="a" d="M96.67,96.73a.9.9,0,0,1-.57.8A.9.9,0,0,0,96.67,96.73Z"/><path class="a" d="M69.72,44.88C68.43,49.42,67.2,54,66,58.54L61.69,74.09,66,58.54c1.25-4.56,2.48-9.12,3.77-13.66a3.24,3.24,0,0,1,3.62-2.62l.77,0-.77,0A3.24,3.24,0,0,0,69.72,44.88Z"/><path class="a" d="M82.92,100.37l-1.28.23c-.49-1.08-.87-1.86-1.24-2.5.37.63.75,1.42,1.24,2.49Z"/><path class="a" d="M90.48,98.81l1.14-.25Z"/><path class="a" d="M99.29,45.28h0L95,44.76Z"/><path class="a" d="M63.63,85a4.64,4.64,0,0,0-1-.21c-.4,0-.79-.11-1.19-.19.4.08.79.15,1.19.19A4.64,4.64,0,0,1,63.63,85Z"/><path class="a" d="M46.4,88.14,51.34,87l.93-.22c2.39-.59,4.78-1.25,7.26-.93,1.62.22,3.47.4,4.74,1.28.88.62,1.75,1.25,2.62,1.88,2.11,1.52,4.18,3.09,6.23,4.68C74.57,94.84,76,96,77.45,97.1a9.63,9.63,0,0,1,2.26,3.12c.36.69.34,1.18,0,1.49a1.94,1.94,0,0,1-1,.35,4.13,4.13,0,0,1-1.91-.2,27.34,27.34,0,0,1-3.68-1.61l-.11-.06c-1.67-.94-3.32-1.92-5-2.9-1.15-.69-2.3-1.37-3.46-2A1.6,1.6,0,0,0,63.4,95a.8.8,0,0,0-.36.29c-.22.48.31,1,.65,1.25h0l.33.24c.6.46,1.22.91,1.86,1.33.48.31,1,.61,1.47.87,2.86,1.47,5.76,2.86,8.67,4.21l.67.31a3.31,3.31,0,0,0,3.61-.36c1.11-1.07,2.39-1,3.65-1.31l2.8-.6c2.2-.49,4.41-1,6.61-1.43l2.78-.6A7.32,7.32,0,0,1,98.8,99a3.54,3.54,0,0,1,2.25,1.16,1,1,0,0,1,.07,1,3.53,3.53,0,0,1-1.07,1.24l-1.37,1.13c-1,.86-2.09,1.72-3.14,2.56-1.29,1-2.58,2-3.92,3-.33.23-.68.44-1,.65a17,17,0,0,1-7,2.39,17.94,17.94,0,0,1-3.44,0c-.56,0-1.11-.11-1.67-.2A26.13,26.13,0,0,1,71,109.59c-.39-.18-.78-.38-1.16-.59-2.14-1.15-4.28-2.28-6.43-3.41s-4.36-2.28-6.55-3.41a3.42,3.42,0,0,0-1.87-.39c-3.18.47-6.35,1-9.51,1.57-1.67.29-3.33.6-5,.92s-3.1.6-4.68.89c-1.5-4.52-3-9-4.48-13.53.54-.15.93-.27,1.32-.36Z"/><path class="a" d="M99.29,47.6c0-.24,0-.49,0-.74,0,.25,0,.5,0,.74l-.54,10.15Z"/><path class="a" d="M82.92,100.37l-1.28.23c-.49-1.08-.87-1.86-1.24-2.5.37.63.75,1.42,1.24,2.49Z"/><path class="a" d="M69.72,44.88C68.43,49.42,67.2,54,66,58.54L61.69,74.09,66,58.54c1.25-4.56,2.48-9.12,3.77-13.66a3.24,3.24,0,0,1,3.62-2.62l.77,0-.77,0A3.24,3.24,0,0,0,69.72,44.88Z"/><path class="a" d="M96.67,96.73a.9.9,0,0,1-.57.8A.9.9,0,0,0,96.67,96.73Z"/><path class="a" d="M63.63,85a4.64,4.64,0,0,0-1-.21c-.4,0-.79-.11-1.19-.19.4.08.79.15,1.19.19A4.64,4.64,0,0,1,63.63,85Z"/><path class="a" d="M99.29,45.28h0L95,44.76Z"/><path class="a" d="M82,41.66c-2.88-.33-5.74-.79-8.62-1a5,5,0,0,0-5.34,3.94Q62.71,64.39,57.36,84.13l-6.54,1.29c.68-2.25,1.29-4.27,1.92-6.28q4.53-14.52,9.06-29C63,46.39,64,42.63,65.13,38.89c.76-2.53,1.82-3.28,4-2.7q6.61,1.73,13.2,3.56c3.21.89,6.39,1.87,9.59,2.8l-.11.24Z"/><path class="a" d="M99.3,46.86c0,.25,0,.5,0,.74l-.54,10.15.54-10.15C99.3,47.36,99.3,47.11,99.3,46.86Z"/><path class="a" d="M46.4,88.14,51.34,87l.93-.22c2.39-.59,4.78-1.25,7.26-.93,1.62.22,3.47.4,4.74,1.28.88.62,1.75,1.25,2.62,1.88,2.11,1.52,4.18,3.09,6.23,4.68C74.57,94.84,76,96,77.45,97.1a9.63,9.63,0,0,1,2.26,3.12c.36.69.34,1.18,0,1.49a1.94,1.94,0,0,1-1,.35,4.13,4.13,0,0,1-1.91-.2,27.34,27.34,0,0,1-3.68-1.61l-.11-.06c-1.67-.94-3.32-1.92-5-2.9-1.15-.69-2.3-1.37-3.46-2A1.6,1.6,0,0,0,63.4,95a.8.8,0,0,0-.36.29c-.22.48.31,1,.65,1.25h0l.33.24c.6.46,1.22.91,1.86,1.33.48.31,1,.61,1.47.87,2.86,1.47,5.76,2.86,8.67,4.21l.67.31a3.31,3.31,0,0,0,3.61-.36c1.11-1.07,2.39-1,3.65-1.31l2.8-.6c2.2-.49,4.41-1,6.61-1.43l2.78-.6A7.32,7.32,0,0,1,98.8,99a3.54,3.54,0,0,1,2.25,1.16,1,1,0,0,1,.07,1,3.53,3.53,0,0,1-1.07,1.24l-1.37,1.13c-1,.86-2.09,1.72-3.14,2.56-1.29,1-2.58,2-3.92,3-.33.23-.68.44-1,.65a17,17,0,0,1-7,2.39,17.94,17.94,0,0,1-3.44,0c-.56,0-1.11-.11-1.67-.2A26.13,26.13,0,0,1,71,109.59c-.39-.18-.78-.38-1.16-.59-2.14-1.15-4.28-2.28-6.43-3.41s-4.36-2.28-6.55-3.41a3.42,3.42,0,0,0-1.87-.39c-3.18.47-6.35,1-9.51,1.57-1.67.29-3.33.6-5,.92s-3.1.6-4.68.89c-1.5-4.52-3-9-4.48-13.53.54-.15.93-.27,1.32-.36Z"/><path class="b" d="M31.2,90c5.56-1.27,11.12-2.53,16.67-3.87A2,2,0,0,0,49.09,85c.67-1.74,1.23-3.53,1.78-5.31Q56,63.17,61.16,46.62c.87-2.8,1.65-5.62,2.53-8.42,1-3.32,2.75-4.29,6.11-3.51,1.94.45,3.9.84,5.81,1.39,7.9,2.29,15.79,4.64,23.68,7,1.56.46,1.79.78,1.7,2.47q-1.24,23.52-2.5,47c-.09,1.54-.14,3.08-.2,4.57a22.45,22.45,0,0,1,2.65.8c2.08.93,2.5,2.63,1.16,4.52a5.11,5.11,0,0,1-.87,1c-2.92,2.34-5.78,4.77-8.82,7a18.43,18.43,0,0,1-12.75,3.27,27.4,27.4,0,0,1-10.46-3.22c-4.3-2.31-8.62-4.6-13-6.82a4,4,0,0,0-2.33-.24Q45.1,105,36.34,106.7a1.57,1.57,0,0,1-2.16-1.27c-1.4-4.38-2.88-8.73-4.33-13.1C29.3,90.67,29.47,90.39,31.2,90ZM82.37,39.75q-6.59-1.83-13.2-3.56c-2.22-.58-3.28.17-4,2.7C64,42.63,63,46.39,61.8,50.12q-4.5,14.52-9.06,29c-.63,2-1.24,4-1.92,6.28l6.54-1.29Q62.7,64.42,68.05,44.62a5,5,0,0,1,5.34-3.94c2.88.19,5.74.65,8.62,1l9.84,1.13.11-.24C88.76,41.62,85.58,40.64,82.37,39.75ZM98.42,64l.33-6.22.54-10.15c0-.24,0-.49,0-.74,0-.49,0-1,0-1.58h0L95,44.76l-2.19-.26L75.29,42.37a11.71,11.71,0,0,0-1.18-.09l-.77,0a3.24,3.24,0,0,0-3.62,2.62C68.43,49.42,67.2,54,66,58.54L61.69,74.09q-1.23,4.53-2.48,9.06c-.08.3-.14.61-.21.9.83.18,1.63.39,2.43.56.4.08.79.15,1.19.19a4.64,4.64,0,0,1,1,.21A8.54,8.54,0,0,1,66.2,86.5c3.56,2.73,7.12,5.46,10.73,8.13,1.87,1.39,2.63,2,3.47,3.47.37.64.75,1.42,1.24,2.5l1.28-.23c1.11-.18,2.23-.37,3.34-.61l4.22-1,1.14-.25c1.35-.31,2.71-.62,4.07-.9a2,2,0,0,0,.41-.13.9.9,0,0,0,.57-.8,1.09,1.09,0,0,0,0-.26Q97.54,80.22,98.42,64Zm-62.63,41.2c1.58-.29,3.14-.59,4.68-.89s3.33-.63,5-.92c3.16-.57,6.33-1.1,9.51-1.57a3.42,3.42,0,0,1,1.87.39c2.19,1.13,4.37,2.26,6.55,3.41s4.29,2.26,6.43,3.41c.38.21.77.41,1.16.59a26.13,26.13,0,0,0,7.51,2.35c.56.09,1.11.16,1.67.2a17.94,17.94,0,0,0,3.44,0,17,17,0,0,0,7-2.39c.34-.21.69-.42,1-.65,1.34-1,2.63-2,3.92-3,1-.84,2.1-1.7,3.14-2.56l1.37-1.13a3.53,3.53,0,0,0,1.07-1.24,1,1,0,0,0-.07-1A3.54,3.54,0,0,0,98.8,99a7.32,7.32,0,0,0-2.66.22l-2.78.6c-2.2.47-4.41.94-6.61,1.43l-2.8.6c-1.26.28-2.54.24-3.65,1.31a3.31,3.31,0,0,1-3.61.36l-.67-.31c-2.91-1.35-5.81-2.74-8.67-4.21-.5-.26-1-.56-1.47-.87-.64-.42-1.26-.87-1.86-1.33l-.33-.24h0c-.34-.25-.87-.77-.65-1.25A.8.8,0,0,1,63.4,95a1.6,1.6,0,0,1,1.12.27c1.16.66,2.31,1.34,3.46,2,1.65,1,3.3,2,5,2.9l.11.06a27.34,27.34,0,0,0,3.68,1.61,4.13,4.13,0,0,0,1.91.2,1.94,1.94,0,0,0,1-.35c.37-.31.39-.8,0-1.49a9.63,9.63,0,0,0-2.26-3.12C76,96,74.57,94.84,73.12,93.71,71.07,92.12,69,90.55,66.89,89c-.87-.63-1.74-1.26-2.62-1.88-1.27-.88-3.12-1.06-4.74-1.28-2.48-.32-4.87.34-7.26.93l-.93.22L46.4,88.14,32.63,91.28c-.39.09-.78.21-1.32.36C32.82,96.22,34.29,100.65,35.79,105.17Z"/><path class="b" d="M82,41.66c-2.88-.33-5.74-.79-8.62-1a5,5,0,0,0-5.34,3.94Q62.71,64.39,57.36,84.13l-6.54,1.29c.68-2.25,1.29-4.27,1.92-6.28q4.53-14.52,9.06-29C63,46.39,64,42.63,65.13,38.89c.76-2.53,1.82-3.28,4-2.7q6.61,1.73,13.2,3.56c3.21.89,6.39,1.87,9.59,2.8l-.11.24Z"/><path class="a" d="M81.52,60l.43-.53-.43.53Z"/><path class="a" d="M73.11,61.23l.92.05c.32,0,.63,0,1,.09-.32,0-.63-.08-1-.09Z"/><path class="a" d="M86.51,64.73h0a23.37,23.37,0,0,1,3.35,0l.26,0-.26,0A23.37,23.37,0,0,0,86.51,64.73Z"/><path class="a" d="M88.83,80.44a1.57,1.57,0,0,1-1.65.69A1.57,1.57,0,0,0,88.83,80.44Z"/><path class="a" d="M93.93,71.23a4.56,4.56,0,0,1-3,1.15c-.65.05-1.31.08-2,.11.68,0,1.34-.06,2-.11A4.54,4.54,0,0,0,93.93,71.23Z"/><path class="a" d="M92.43,65.34a6.83,6.83,0,0,1,.92.38,3.22,3.22,0,0,1,.64.42,3.22,3.22,0,0,0-.64-.42A6.83,6.83,0,0,0,92.43,65.34Z"/><path class="a" d="M78,79.41c.75-.79,1.47-1.62,2.17-2.46C79.47,77.79,78.75,78.62,78,79.41Z"/><path class="a" d="M69.1,65.37,69,65.31a.34.34,0,0,1,.06.06Z"/><path class="a" d="M69.82,73.88a1.1,1.1,0,0,0,.22.21A1.1,1.1,0,0,1,69.82,73.88Z"/><path class="a" d="M89.11,79.18A9.94,9.94,0,0,0,88,74.64,9.94,9.94,0,0,1,89.11,79.18Z"/><path class="a" d="M94.85,67.24l-.13-.2Z"/><path class="a" d="M68.57,64.79a2.18,2.18,0,0,1,1.58-3.44l.29,0-.29,0A2.18,2.18,0,0,0,68.57,64.79Z"/><path class="a" d="M82.75,76.91c-.37-.67-.74-1.36-1.12-2.06h0C82,75.55,82.38,76.24,82.75,76.91Z"/><path class="a" d="M77,50.8h0a2.41,2.41,0,0,1,1.83.48A2.41,2.41,0,0,0,77,50.8Z"/><path class="a" d="M78.3,73.15c.25-.24.5-.48.75-.7l.38-.31a8.44,8.44,0,0,1,.86-.65c.83.68.79,1.3.58,1.64-1.09,1.74-2.6,3.54-3.84,5.19-.25.34-1,1.13-1.42.92-1.3-.81.44-3.83,2.68-6.07Z"/><path class="a" d="M79.25,64.21a.86.86,0,0,1,.44-.38,1,1,0,0,1,.94.12A6.69,6.69,0,0,1,82,65.24l.25.33a5.78,5.78,0,0,1,.77,1.3h0a1.21,1.21,0,0,1,0,.14,15.94,15.94,0,0,1,.83,4.51h0c0,1.08-1.18,1-1.51.53h0a16,16,0,0,1-3.25-7.12A1,1,0,0,1,79.25,64.21Z"/><path class="a" d="M83.47,74.35l1.79-1.08a13.18,13.18,0,0,1,1.65,2.91c.74,1.59,1.19,3.11.6,3.29C85.82,80.22,84,77,83.47,74.35Z"/><path class="a" d="M73.37,65.5c-1-.15-4.21-.57-4.1-2.13.26-1.32,6-.27,8.24-.09v2.48h0c-1.46-.08-2.82-.07-4.14-.26Z"/><path class="a" d="M77.16,80.27a2,2,0,0,1-1.82.37A2,2,0,0,0,77.16,80.27Z"/><path class="a" d="M79,69.51c.09.2.18.42.27.65h0c-.94,1-7.43,4-8.18,2.65-.44-.86.73-2.16,2.49-3.24a12.5,12.5,0,0,1,4.7-1.84Z"/><path class="a" d="M85.56,71h0l-.49-2.64-.37-2h0c2.49,0,4.91-.44,7.27.42a3,3,0,0,1,1,.58,1.52,1.52,0,0,1,.45.8,1.7,1.7,0,0,1,0,.56,2,2,0,0,1-1.39,1.84,1.86,1.86,0,0,1-.48.1c-.73.07-1.47.11-2.2.15l-1.79.11Z"/><path class="a" d="M83.68,64.48l-1.25-1.26-.8-.81.8-1L84,59.57c.49-.57,1-1.15,1.49-1.71a9.14,9.14,0,0,1,2.28-1.59,1.58,1.58,0,0,1,.34-.13c.45-.1.86.08.9.74A9,9,0,0,1,88.92,59a3.91,3.91,0,0,1-1.21,2.26c-.47.42-1,.82-1.45,1.21C85.39,63.18,84.51,63.83,83.68,64.48Z"/><path class="a" d="M74.16,78.31a2.24,2.24,0,0,0,.08,1.47,2.24,2.24,0,0,1-.08-1.47c.36-1.59.88-3.14,1.26-4.44h0C75,75.17,74.52,76.72,74.16,78.31Z"/><path class="a" d="M74.91,80.47h0a1.65,1.65,0,0,1-.61-.59A1.65,1.65,0,0,0,74.91,80.47Z"/><path class="a" d="M71.14,69.28a3.75,3.75,0,0,0-1.71,3.08,2.18,2.18,0,0,0,.36,1.5,2.18,2.18,0,0,1-.36-1.5,3.75,3.75,0,0,1,1.71-3.08c1-.66,2.64-1.32,3.77-2.06h0C73.78,68,72.1,68.62,71.14,69.28Z"/><path class="c" d="M59.21,83.15q1.24-4.53,2.48-9.06L66,58.54c1.25-4.56,2.48-9.12,3.77-13.66a3.24,3.24,0,0,1,3.62-2.62l.77,0a11.71,11.71,0,0,1,1.18.09L92.78,44.5l2.19.26,4.32.52c0,.58,0,1.09,0,1.58,0,.25,0,.5,0,.74l-.54,10.15L98.42,64q-.87,16.25-1.71,32.5a1.09,1.09,0,0,1,0,.26.9.9,0,0,1-.57.8,2,2,0,0,1-.41.13c-1.36.28-2.72.59-4.07.9l-1.14.25-4.22,1c-1.11.24-2.23.43-3.34.61l-1.28.22c-.49-1.07-.87-1.86-1.24-2.49-.84-1.46-1.6-2.08-3.47-3.47C73.32,92,69.76,89.23,66.2,86.5A8.54,8.54,0,0,0,63.63,85a4.64,4.64,0,0,0-1-.21c-.4,0-.79-.11-1.19-.19-.8-.17-1.6-.38-2.43-.56C59.07,83.76,59.13,83.45,59.21,83.15ZM69.1,65.37h0a8.08,8.08,0,0,0,2.69,1.47,8.39,8.39,0,0,0,3.12.38c-1.13.74-2.81,1.4-3.77,2.06a3.75,3.75,0,0,0-1.71,3.08,2.18,2.18,0,0,0,.36,1.5l0,0a1.1,1.1,0,0,0,.22.21,1.83,1.83,0,0,0,1.11.28,38.91,38.91,0,0,0,4.27-.5c-.38,1.3-.9,2.85-1.26,4.44a2.24,2.24,0,0,0,.08,1.47l.06.1a1.65,1.65,0,0,0,.61.59h0a1.75,1.75,0,0,0,.43.17,2,2,0,0,0,1.82-.37l.24-.21c.2-.2.39-.43.6-.65.75-.79,1.47-1.62,2.17-2.46l.6-.71a11.07,11.07,0,0,0,.86-1.39c.38.7.75,1.39,1.12,2.06s.83,1.51,1.25,2.25a3.81,3.81,0,0,0,3,2l.23,0a1.57,1.57,0,0,0,1.65-.69,2.62,2.62,0,0,0,.28-1.11v-.15A9.94,9.94,0,0,0,88,74.64L87.62,74c-.21-.43-.46-.84-.77-1.4L89,72.49c.68,0,1.34-.06,2-.11a4.56,4.56,0,0,0,3-1.15,2.93,2.93,0,0,0,.51-.59,3.44,3.44,0,0,0,.41-3.4l-.13-.2a3.11,3.11,0,0,0-.73-.9,3.22,3.22,0,0,0-.64-.42,6.83,6.83,0,0,0-.92-.38,12.93,12.93,0,0,0-2.31-.54l-.26,0a23.37,23.37,0,0,0-3.35,0c0-.12-.05-.24-.08-.36.54-.41,1.06-.83,1.6-1.23,2.35-1.74,2.83-4.18,2.5-6.86a2.05,2.05,0,0,0-3-1.59A16.36,16.36,0,0,0,84.3,56.8a9.75,9.75,0,0,0-1.4,1.53c-.3.35-.6.71-1,1.14l-.43.53c-.07-.48-.1-.76-.15-1-.27-1.65-.52-3.29-.84-4.93a4.4,4.4,0,0,0-.61-1.45,5.33,5.33,0,0,0-1.14-1.3A2.41,2.41,0,0,0,77,50.8h0c-1.32.2-1.72.5-2,1.56A9,9,0,0,0,75.46,58s0,0,0,0c.59,1.2,1.21,2.38,1.92,3.76l-.11,0c-.83-.13-1.58-.28-2.31-.38-.32,0-.63-.08-1-.09l-.92-.05a13.19,13.19,0,0,0-2.67.08l-.29,0a2.18,2.18,0,0,0-1.58,3.44,3.2,3.2,0,0,0,.47.52A.34.34,0,0,1,69.1,65.37Z"/><path class="b" d="M70.15,61.35l.29,0a13.19,13.19,0,0,1,2.67-.08l.92.05c.32,0,.63,0,1,.09.73.1,1.48.25,2.31.38l.11,0c-.71-1.38-1.33-2.56-1.92-3.76,0,0,0,0,0,0a9,9,0,0,1-.55-5.61c.32-1.06.72-1.36,2-1.56h0a2.41,2.41,0,0,1,1.83.48,5.33,5.33,0,0,1,1.14,1.3A4.4,4.4,0,0,1,80.53,54c.32,1.64.57,3.28.84,4.93,0,.28.08.56.15,1h0l.43-.53c.35-.43.65-.79,1-1.14a9.75,9.75,0,0,1,1.4-1.53,16.36,16.36,0,0,1,3.24-2.11,2.05,2.05,0,0,1,3,1.59c.33,2.68-.15,5.12-2.5,6.86-.54.4-1.06.82-1.6,1.23,0,.12.06.24.08.36h0a23.37,23.37,0,0,1,3.35,0l.26,0a12.93,12.93,0,0,1,2.31.54,6.83,6.83,0,0,1,.92.38,3.22,3.22,0,0,1,.64.42,3.11,3.11,0,0,1,.73.9l.13.2a3.44,3.44,0,0,1-.41,3.4,2.93,2.93,0,0,1-.51.59,4.54,4.54,0,0,1-3,1.15c-.65.05-1.31.08-2,.11l-2.12.09c.31.56.56,1,.77,1.4l.33.66a9.94,9.94,0,0,1,1.16,4.54v.15a2.62,2.62,0,0,1-.28,1.11,1.57,1.57,0,0,1-1.65.69l-.23,0a3.81,3.81,0,0,1-3-2c-.42-.74-.83-1.49-1.25-2.25s-.74-1.36-1.12-2.06h0a11.07,11.07,0,0,1-.86,1.39l-.6.71c-.7.84-1.42,1.67-2.17,2.46-.21.22-.4.45-.6.65l-.24.21a2,2,0,0,1-1.82.37,1.75,1.75,0,0,1-.43-.17h0a1.65,1.65,0,0,1-.61-.59l-.06-.1a2.24,2.24,0,0,1-.08-1.47c.36-1.59.88-3.14,1.26-4.44h0a38.91,38.91,0,0,1-4.27.5A1.83,1.83,0,0,1,70,74.09a1.1,1.1,0,0,1-.22-.21l0,0a2.18,2.18,0,0,1-.36-1.5,3.75,3.75,0,0,1,1.71-3.08c1-.66,2.64-1.32,3.77-2.06h0a8.39,8.39,0,0,1-3.12-.38,8.08,8.08,0,0,1-2.69-1.47h0L69,65.31a3.2,3.2,0,0,1-.47-.52A2.18,2.18,0,0,1,70.15,61.35Zm7.23-9a.88.88,0,0,0-.45-.09h0c-1,.1-.71,2.59-.45,3.42.71,2.23,1.62,6.41,2.93,6.41h0C81.13,62.05,80.25,53.59,77.38,52.31Zm10.33,9A3.91,3.91,0,0,0,88.92,59,9,9,0,0,0,89,56.88c0-.66-.45-.84-.9-.74a1.58,1.58,0,0,0-.34.13,9.14,9.14,0,0,0-2.28,1.59c-.51.56-1,1.14-1.49,1.71l-1.57,1.88-.8,1,.8.81,1.25,1.26c.83-.65,1.71-1.3,2.58-2C86.75,62.11,87.24,61.71,87.71,61.29Zm3.91,9.36a1.86,1.86,0,0,0,.48-.1,2,2,0,0,0,1.39-1.84,1.7,1.7,0,0,0,0-.56,1.52,1.52,0,0,0-.45-.8,3,3,0,0,0-1-.58c-2.36-.86-4.78-.46-7.27-.42h0l.37,2L85.56,71h0l2.07-.09,1.79-.11C90.15,70.76,90.89,70.72,91.62,70.65Zm-4.11,8.82c.59-.18.14-1.7-.6-3.29a13.18,13.18,0,0,0-1.65-2.91l-1.79,1.08C84,77,85.82,80.22,87.51,79.47ZM82.39,72h0c.33.43,1.54.55,1.51-.53h0A15.94,15.94,0,0,0,83.07,67a1.21,1.21,0,0,0,0-.14h0a5.78,5.78,0,0,0-.77-1.3L82,65.24A6.69,6.69,0,0,0,80.63,64a1,1,0,0,0-.94-.12.86.86,0,0,0-.44.38,1,1,0,0,0-.11.71A16,16,0,0,0,82.39,72Zm-6.78,7.2c.46.21,1.17-.58,1.42-.92,1.24-1.65,2.75-3.45,3.84-5.19.21-.34.25-1-.58-1.64a8.44,8.44,0,0,0-.86.65l-.38.31c-.25.22-.5.46-.75.7v0C76.05,75.41,74.31,78.43,75.61,79.24Zm-2.07-9.67c-1.76,1.08-2.93,2.38-2.49,3.24.75,1.3,7.24-1.69,8.18-2.65h0c-.09-.23-.18-.45-.27-.65l-.72-1.78A12.5,12.5,0,0,0,73.54,69.57Zm4-3.81h0V63.28c-2.2-.18-8-1.23-8.24.09-.11,1.56,3.15,2,4.1,2.13h0C74.69,65.69,76.05,65.68,77.51,65.76Z"/><path class="b" d="M66.89,81.41c4.08,1.42,8.16,2.8,12.25,4.19,2.46.84,5.09,1.79,7.58,2.56,1.45.45,1.83-.94.73-1.39L67.33,79.91c-1.47-.47-2,.93-.44,1.5"/><path class="b" d="M107.14,30.41a.72.72,0,0,0-.93.23A32,32,0,0,0,103.48,35a.65.65,0,0,0,.24.89h0s0,0,.05,0a1,1,0,0,0,1.2.28,1.76,1.76,0,0,0,.64-.76q.53-.85,1.08-1.68a7.77,7.77,0,0,0,1-1.63A1.37,1.37,0,0,0,107.14,30.41Zm-.66,1.12h0S106.47,31.51,106.48,31.53Z"/><path class="b" d="M99.29,29.21a1,1,0,0,0,0-.17,1.24,1.24,0,0,0-.11-.45,1,1,0,0,0-.54-.51,1,1,0,0,0-1.51.84c-.07.39-.13.79-.18,1.18s-.12,1-.18,1.45a7.43,7.43,0,0,0-.09,1.15,1.58,1.58,0,0,0,.41,1.09.84.84,0,0,0,1.12.07,2.25,2.25,0,0,0,.68-1.19,7,7,0,0,0,.19-1.11c.06-.42.1-.83.14-1.25s.05-.77.08-1.16Z"/><path class="b" d="M111.78,42.45c-.5-.35-1.16-.14-1.72-.06l-1.42.21a1.6,1.6,0,0,0-.8.25.88.88,0,0,0-.16,1.25.76.76,0,0,0,.21.19h0l.09.06a1.23,1.23,0,0,0,.41.13,5,5,0,0,0,2.85-.24,1.85,1.85,0,0,0,.71-.52A.93.93,0,0,0,111.78,42.45Z"/></svg>