<svg xmlns="http://www.w3.org/2000/svg" xmlns:xlink="http://www.w3.org/1999/xlink" viewBox="0 0 216 1136.68"><defs><style>.a{fill:url(#a);}.b{fill:#8354b9;}.c{fill:none;}</style><linearGradient id="a" x1="108" y1="91.83" x2="108" y2="1057.22" gradientUnits="userSpaceOnUse"><stop offset="0.77" stop-color="#6b8f6a"/><stop offset="0.8" stop-color="#7a9976"/><stop offset="0.86" stop-color="#a2b394"/><stop offset="0.94" stop-color="#e2ddc5"/><stop offset="0.96" stop-color="#f2e8d1"/></linearGradient></defs><path class="a" d="M93.91,1059.52a7.06,7.06,0,0,1-1.49,6.1c-.21.24-.35.7-.59.75-3.42.79-4.49,3.89-6.34,6.26a19.26,19.26,0,0,1-5.54,4.9,53.91,53.91,0,0,0-5.91,4.36c-4.42,3.45-6.49,8.43-8,13.51-.87,3-3.25,4.6-4.67,7-.3.5-.87.5-1.45.43a7.37,7.37,0,0,1-6-5.8,11.52,11.52,0,0,1,.05-4.53c2.16-8.3,6-15.54,13-20.79,5.67-4.24,10.84-8.93,14.78-14.89a6.38,6.38,0,0,0,1.26-4.23c-.19-2.38-.31-4.76-.61-7.13a39.69,39.69,0,0,1,1.79-16.92,16.27,16.27,0,0,1,6.14-8.56,12.58,12.58,0,0,0,4.93-6.63c2.36-7.57,6.3-14.48,9.85-21.53a98.4,98.4,0,0,0,9.87-31.77,61.94,61.94,0,0,0-.77-19c-1.82-10.24-3.5-20.5-5-30.79-1.15-7.93-4.28-15.16-7.15-22.53-4.28-11-7.66-22.27-8.87-34.16a239.35,239.35,0,0,1-1-33.75c.43-10.72,1.63-21.39,3-32,1-8,1.88-15.91,2.81-23.87.58-4.94,1-9.91,1.81-14.8,1-5.81,1-11.67,1.15-17.5.21-7.25.63-14.5.81-21.76.21-8.65.24-17.31.72-26,.6-10.73.24-21.46-.1-32.17a269.11,269.11,0,0,0-2.26-29.45c-1-6.76-1.45-13.58-2.41-20.33a175.47,175.47,0,0,0-4.16-20.67,69,69,0,0,1-1.83-12.19c-1.33-15.76-2.31-31.54-2.61-47.36,0-2.77-1.73-4.37-3.79-5.61a22.58,22.58,0,0,0-8.75-3.32c-9.43-1.18-16.2-6.56-21.15-14.16a21.05,21.05,0,0,1-3.22-11.4c0-2.68-.32-5.34.61-8,1.3-3.66,3.59-6.71,7.2-7.83A33.47,33.47,0,0,1,74,470.24a27.71,27.71,0,0,1,15.78,7.44c2.18,2,2.37,1.79,2.92-1.19.93-5,.85-10.15,1.22-15.22,1-13.61,1.28-27.25,1.38-40.9,0-4.65.31-9.29.11-13.95a65.62,65.62,0,0,0-.78-8.07A291,291,0,0,1,91,360.29c-.37-11.12-.78-22.26.26-33.41.78-8.3.56-16.68,1.66-25,1-7.61,1.25-15.28,2.3-22.89,1.53-11,2.27-22.17,3.64-33.23a222.53,222.53,0,0,0,1.84-28.48c0-5.52-.5-11-.49-16.56,0-8.13-1.2-16.18-1.27-24.29,0-4.11-1.39-7.85-2.39-11.71A110.2,110.2,0,0,0,91.81,152c-2.41-6.08-7-10.6-11.12-15.47-7.91-9.37-18-15.8-28.55-21.65a131.39,131.39,0,0,1-11.4-7.47,117.82,117.82,0,0,1-11.11-8.33,50.51,50.51,0,0,1-10.4-12.36c-3.8-6.6-7.07-13.67-7.92-21.36a41.35,41.35,0,0,1,0-10.31c.28-2,.52-4,.74-6a21.55,21.55,0,0,1,3.59-9.2A34,34,0,0,1,33.69,25.47c5.74-2,11.68-3.22,17.51-2.63,7.77.79,15.66,2.1,22.57,6.35a7.59,7.59,0,0,1,1.8,1.37c3.37,3.76,7.05,7.31,10,11.41,4,5.64,7.77,11.44,10.31,18,2,5,3.71,10.14,5.46,15.25.35,1,.8,2,1.2,3,1.2-.17,1.29-1.11,1.49-1.91,2.35-9.85,6.48-19,11-28,3.56-7.14,9.09-12.88,14.34-18.79A58,58,0,0,1,143.6,17.9a42.16,42.16,0,0,1,20.77-5.66c4.32-.05,8.64-.39,12.93.74,5.35,1.4,9.72,4.4,14.14,7.6a30.91,30.91,0,0,1,11.38,16.48,42.36,42.36,0,0,1,.64,24.87c-2,6.94-5.5,12.91-9.29,18.74-4.19,6.43-9.59,11.9-15.35,17A104.23,104.23,0,0,1,164.28,108c-4.75,2.94-9.55,5.94-14.18,9-6.44,4.28-13.29,8.11-19,13.49a65.5,65.5,0,0,0-13.52,17.25,93.62,93.62,0,0,0-4,8.83c-.11.31-.08.72-.28.93-3.07,3.24-2.19,7.24-2,11,.28,6,.77,11.89,1.29,17.82a388,388,0,0,1,1.22,41.47c-.1,4.74-.89,9.45-1.37,14.18-.17,1.72-.31,3.44-.51,5.16-1,8.87-2,17.75-3.08,26.62-1.37,11.59-2.83,23.17-3.74,34.8-.78,10-1.65,20.07-1.78,30.12a282.79,282.79,0,0,0,1.16,31.06c.41,4.17.67,8.4,1,12.59a80.2,80.2,0,0,0,2.26,14.4,9.41,9.41,0,0,1,.44,2.21c.11,7.35.81,14.7,0,22-.17,1.49,0,3,0,4.53-.27,9.51-.29,19.05-1,28.53-.39,5.5-.5,11-.84,16.49a64.49,64.49,0,0,1-1,6.42c-.89,5.45-1.06,11-1.42,16.47-.2,3-.6,6-.93,9-1.21,11-1,22.06-.43,33.07.42,8,.62,16,1.52,23.94.66,5.79.51,11.7,2,17.35,1.26,4.67,1.72,9.51,3.23,14.11s1.5,9.6,2,14.43,1.32,9.65,1.88,14.49a331.12,331.12,0,0,1,2.39,35c.07,9.82.58,19.69-.38,29.51,0,.48-.28,1.08.57,1.58a17.27,17.27,0,0,1,8.43-5.4c5.13-1.33,10.3-2.42,15.6-.52a12.07,12.07,0,0,1,4.44,2.59,35.49,35.49,0,0,1,6,7.23c2.53,4.31,2.6,8.83,1.34,13.51a22.35,22.35,0,0,1-5.62,9.67c-2.3,2.39-4.11,5.34-7.07,7a58.28,58.28,0,0,0-5.91,3.35c-3.64,2.7-7.63,4.92-11.1,7.88a19.51,19.51,0,0,0-3.59,4.16c-.71,1.06-.74,2.72-2.91,2.36-.58-.09-1.73,1.57-1.83,3-.37,5.18-1.48,10.26-2.24,15.39-.53,3.6-.88,7.28-1.06,10.93-.12,2.6-.35,5.19-.66,7.76-1.06,8.68-2.21,17.35-3.24,26A242.63,242.63,0,0,0,105,842.13a121.5,121.5,0,0,0,2.22,19.27c1.07,5.05,2.63,10,4.15,15a134,134,0,0,0,5.44,14.14c3,6.82,4.18,14,5.16,21.29.78,5.75,2,11.44,2.9,17.19,1.09,7.36,2.75,14.64,3.1,22.12.08,1.83-.77,3.34-1,5a123.28,123.28,0,0,1-2,13.16,89.81,89.81,0,0,1-6.16,18.07,3.89,3.89,0,0,0,.24,4.43,42.54,42.54,0,0,1,3.92,8.52,9.15,9.15,0,0,0,7.31,6.11c5.44,1,11,2.26,15.64,5.14,4.38,2.73,8.31,1.9,12.63,1.06,4.86-.95,9.85-1.12,14.41.85,6,2.6,11.86,5.75,15.68,11.53a20.15,20.15,0,0,1,1.39,2.53,5.32,5.32,0,0,0,2.89,3c3,1.06,5.29,3.19,7.51,5.37s1.46,4.86-1.45,5.72a10.08,10.08,0,0,1-8-.64c-5.28-2.8-9.57-6.24-12.46-11.76a10.76,10.76,0,0,0-10.37-6,66.84,66.84,0,0,0-11.24,1.57c-3.49.8-7,.67-10.13-1.65a34.85,34.85,0,0,0-14.53-5.92c-8.71-1.68-16.44-5.34-20.21-14.7-3.64,6.71-6.94,13-8,20.36a25.2,25.2,0,0,0,1.19,11.7c2.33,7.23,6.61,13.27,10.78,19.42a5.4,5.4,0,0,0,1.85,1.8c4.07,2.08,4.77,6.25,6,9.93,2.23,6.73,0,13-2.72,19.12-2.59,5.89-4.67,11.92-5,18.36a22.85,22.85,0,0,0,1.94,11.39,6.56,6.56,0,0,1,.55,4.11c-.21,1.15-.52,2.28-.65,3.44-.23,2-1.48,2.93-3.12,1.88a14.85,14.85,0,0,1-5.91-6.19c-3.83-8-3.76-16.13-1.38-24.39,1.29-4.47,2.84-8.87,4.42-13.24,2.14-5.93.72-11.21-3.15-15.75a85.23,85.23,0,0,1-14.25-23.85c-.28-.68-.4-1.48-1.13-1.93-1,.32-.68,1.24-.72,1.9a60.44,60.44,0,0,0,.48,9.41c.3,3,.49,6,.73,9l-.21.1Zm18.63-928.07a4.6,4.6,0,0,0,1.72-1.7c3.75-4.93,7.82-9.47,13.4-12.51a45.11,45.11,0,0,0,7.67-5.42,41.22,41.22,0,0,1,6.38-4.42c3-1.73,6-3.52,9-5.18,3.43-1.88,6.4-4.47,9.82-6.31,6.72-3.62,12.9-7.86,17.4-14.19,1.31-1.85,2.75-3.61,4.1-5.43,4.92-6.71,8.89-13.81,9.79-22.33a29.12,29.12,0,0,0-.93-11.57,36.21,36.21,0,0,0-5.14-10.45c-3.59-5-8.56-8.29-15-8.53A36.64,36.64,0,0,0,143,34c-9.5,9.09-17.16,19.3-21.77,31.83a210.07,210.07,0,0,0-7,21.87c-.75,3-1.66,6-2.54,9a3.17,3.17,0,0,0,0,3.17,155.41,155.41,0,0,1,6.65-15.22,60.94,60.94,0,0,1,13.12-18.32c4.28-4.12,8.76-8,13.16-12,1.6-1.46,2.84-2.07,4.72-1.51,1.68.5,3.28,1.26,5.12,1.17.52,0,.86.44,1.21.91,1.86,2.5,1.62,4.32-.91,6.29A95.54,95.54,0,0,0,144.12,70c-1.79,1.88-3.43,3.92-5.37,5.63a53.26,53.26,0,0,0-9.46,11.86c-4.51,7.13-7.32,15.11-10.95,22.69-3,6.23-3.29,13.34-6.59,19.46C111.48,130.15,111.89,130.88,112.54,131.45ZM95.7,130c0-4.23-.3-8.35.1-12.4a15,15,0,0,0-1.32-7.51c-2.38-5.82-5.86-10.93-9.58-16C80.36,88,76,81.72,70.35,76.45,67.59,73.9,65,71.13,62,68.82a8.87,8.87,0,0,1-2.67-3.2c-.56-1.19-1.4-2.73-.14-3.91,1.1-1,2.18-2.64,4.15-1.52A1.37,1.37,0,0,0,64.91,60c1.06-.79,2-.37,3,.24,2.79,1.7,4.71,4.35,7.2,6.37a6,6,0,0,1,1.74,1.89,19.62,19.62,0,0,0,3.61,4.54,70.21,70.21,0,0,1,6.66,7.49,151.72,151.72,0,0,1,8.86,13.56c.23.42.34,1.07,1.08.93.36-.37.19-.78.15-1.2C96.77,89.26,95,85,93.45,80.78c-2-5.47-3.67-11.1-6.08-16.44a91,91,0,0,0-12.3-20.1c-2.37-2.91-4.93-5.79-8.33-7.5-11.47-5.75-23-5.28-34.38.23a12.17,12.17,0,0,0-6.29,7.54,33.47,33.47,0,0,0-1.2,16.67,54.43,54.43,0,0,0,9.65,22c5.55,7.55,12.9,12.88,20.74,17.66,5.34,3.25,11,6,16.2,9.48,4.49,2.94,9.14,5.71,13.15,9.36,3.18,2.9,6.61,5.54,8.91,9.29A1.89,1.89,0,0,0,95.7,130Zm18.58,593a5.12,5.12,0,0,0,3-.77c5.3-3.91,10.93-7.32,16.33-11.08a14.85,14.85,0,0,0,6.62-14.85c-.39-3.33-3.7-7.36-6.52-7.65a10.62,10.62,0,0,0-8.48,2.29,30.27,30.27,0,0,0-7.65,9.91c-.77,1.63-3.07,2.12-2.83,4.08a46.58,46.58,0,0,1,0,5.15c0,.32-.11.64-.13,1C114.44,715,113.76,718.81,114.28,723ZM89.46,504A13.37,13.37,0,0,0,89,492.56c-1.06-1.87-2.26-3.67-3.47-5.45A16.8,16.8,0,0,0,66,480.74c-2.68.94-3.53,2.47-2.72,5.26.42,1.44,1.07,2.82,1.63,4.22a17.88,17.88,0,0,0,12.63,11C81.51,502.34,85.65,502.47,89.46,504Z"/><path class="b" d="M93.91,1059.52l-.18-.34.21-.1A.27.27,0,0,1,93.91,1059.52Z"/><path class="c" d="M112.54,131.45c-.65-.57-1.06-1.3-.79-1.81,3.3-6.12,3.62-13.23,6.59-19.46,3.63-7.58,6.44-15.56,10.95-22.69a53.26,53.26,0,0,1,9.46-11.86c1.94-1.71,3.58-3.75,5.37-5.63a95.54,95.54,0,0,1,10.64-8.94c2.53-2,2.77-3.79.91-6.29-.35-.47-.69-.94-1.21-.91-1.84.09-3.44-.67-5.12-1.17-1.88-.56-3.12.05-4.72,1.51-4.4,4-8.88,7.93-13.16,12a60.94,60.94,0,0,0-13.12,18.32,155.41,155.41,0,0,0-6.65,15.22,3.17,3.17,0,0,1,0-3.17c.88-3,1.79-5.92,2.54-9a210.07,210.07,0,0,1,7-21.87C125.85,53.27,133.51,43.06,143,34a36.64,36.64,0,0,1,27.73-10.56c6.44.24,11.41,3.52,15,8.53a36.21,36.21,0,0,1,5.14,10.45A29.12,29.12,0,0,1,191.81,54c-.9,8.52-4.87,15.62-9.79,22.33-1.35,1.82-2.79,3.58-4.1,5.43-4.5,6.33-10.68,10.57-17.4,14.19-3.42,1.84-6.39,4.43-9.82,6.31-3,1.66-6,3.45-9,5.18a41.22,41.22,0,0,0-6.38,4.42,45.11,45.11,0,0,1-7.67,5.42c-5.58,3-9.65,7.58-13.4,12.51A4.6,4.6,0,0,1,112.54,131.45Z"/><path class="c" d="M95.7,130a1.89,1.89,0,0,1-2.18-1c-2.3-3.75-5.73-6.39-8.91-9.29-4-3.65-8.66-6.42-13.15-9.36-5.23-3.43-10.86-6.23-16.2-9.48-7.84-4.78-15.19-10.11-20.74-17.66a54.43,54.43,0,0,1-9.65-22,33.47,33.47,0,0,1,1.2-16.67A12.17,12.17,0,0,1,32.36,37c11.42-5.51,22.91-6,34.38-.23,3.4,1.71,6,4.59,8.33,7.5a91,91,0,0,1,12.3,20.1c2.41,5.34,4,11,6.08,16.44C95,85,96.77,89.26,97.17,93.85c0,.42.21.83-.15,1.2-.74.14-.85-.51-1.08-.93a151.72,151.72,0,0,0-8.86-13.56,70.21,70.21,0,0,0-6.66-7.49,19.62,19.62,0,0,1-3.61-4.54,6,6,0,0,0-1.74-1.89c-2.49-2-4.41-4.67-7.2-6.37-1-.61-1.9-1-3-.24a1.37,1.37,0,0,1-1.53.16c-2-1.12-3.05.49-4.15,1.52-1.26,1.18-.42,2.72.14,3.91A8.87,8.87,0,0,0,62,68.82c3,2.31,5.55,5.08,8.31,7.63C76,81.72,80.36,88,84.9,94.11c3.72,5,7.2,10.16,9.58,16a15,15,0,0,1,1.32,7.51C95.4,121.65,95.7,125.77,95.7,130Z"/><path class="c" d="M114.28,723c-.52-4.23.16-8.08.35-12,0-.32.13-.64.13-1a46.58,46.58,0,0,0,0-5.15c-.24-2,2.06-2.45,2.83-4.08a30.27,30.27,0,0,1,7.65-9.91,10.62,10.62,0,0,1,8.48-2.29c2.82.29,6.13,4.32,6.52,7.65a14.85,14.85,0,0,1-6.62,14.85c-5.4,3.76-11,7.17-16.33,11.08A5.12,5.12,0,0,1,114.28,723Z"/><path class="c" d="M89.46,504c-3.81-1.56-7.95-1.69-11.89-2.76a17.88,17.88,0,0,1-12.63-11c-.56-1.4-1.21-2.78-1.63-4.22-.81-2.79,0-4.32,2.72-5.26a16.8,16.8,0,0,1,19.49,6.37c1.21,1.78,2.41,3.58,3.47,5.45A13.37,13.37,0,0,1,89.46,504Z"/></svg>