<svg xmlns="http://www.w3.org/2000/svg" viewBox="0 0 85.04 85.04"><defs><style>.a{fill:#703a58;}.b{fill:none;}.c{fill:#f6c74b;}</style></defs><path class="a" d="M59.07,16.93A18.29,18.29,0,0,1,58,23.32a3.7,3.7,0,0,0-.21,1.26c0,.19.3.45.51.53a1.24,1.24,0,0,0,.83,0c2.51-1.07,5.12-.74,7.71-.48a9.51,9.51,0,0,1,5.44,2.48,15.7,15.7,0,0,1,4.52,6.78,7.58,7.58,0,0,1-.63,6.68,13.6,13.6,0,0,1-3.08,3.6,29.62,29.62,0,0,1-8.31,4.58.88.88,0,0,0-.3,1.09,3.44,3.44,0,0,0,.22.38,3.63,3.63,0,0,0,.53.68c3.66,3.21,3.3,10.45.91,14.62a6.08,6.08,0,0,1-1.41,1.62,13.6,13.6,0,0,1-10.08,3.19,7.75,7.75,0,0,1-2.49-.68A14.89,14.89,0,0,1,47,66.47a.81.81,0,0,0-1.37.35c-.45,1.07-.89,2.14-1.31,3.22a14.57,14.57,0,0,1-2.48,4A9,9,0,0,1,39.57,76a7.58,7.58,0,0,1-5.82.85,9.32,9.32,0,0,1-7.66-6.8A11.21,11.21,0,0,1,25.6,65a33.72,33.72,0,0,1,2.47-9.63,1.11,1.11,0,0,0-1-1.51c-.43,0-.86-.07-1.3-.09s-.86,0-1.3,0c-4.16,0-7.51-1.86-10.41-4.67a9.31,9.31,0,0,1-2.59-5.39,6.93,6.93,0,0,1,4-7.05c1.7-.79,3.51-1.34,5.27-2a.94.94,0,0,0,.3-1.11,11.19,11.19,0,0,0-.66-1.11c-.53-.69-1.1-1.35-1.66-2A8.3,8.3,0,0,1,17,23.49a17.78,17.78,0,0,1,1-3.31c.35-.94.89-1.82,1.27-2.76a6.17,6.17,0,0,1,4.1-3.58,13.54,13.54,0,0,1,6.86-.32,7.93,7.93,0,0,1,3.43,1.79,21,21,0,0,1,3.74,4.2c.12.16.5.16.77.18.06,0,.19-.21.21-.33.26-1.71.56-3.42.75-5.14C39.84,7.9,46.48,4.41,51.59,6A10.46,10.46,0,0,1,59,14.76C59.05,15.48,59,16.21,59.07,16.93Zm6.71,10.72A8.47,8.47,0,0,0,60,29.34a39.27,39.27,0,0,0-5.82,5.78A1.43,1.43,0,0,0,54,36.74a12,12,0,0,1,1.47,5.8c-.05,2.51.18,2.55,2.59,3.07a10.6,10.6,0,0,0,6-.31,18.94,18.94,0,0,0,7.13-4.77,5.45,5.45,0,0,0,1.33-6,16.32,16.32,0,0,0-2.11-4.24A5.83,5.83,0,0,0,65.78,27.65ZM21.64,25a6.31,6.31,0,0,0,1.95,5.28c.88.95,1.71,2,2.62,2.87a6.84,6.84,0,0,0,3.74,2c1.55.29,3.1.64,4.63,1a1.69,1.69,0,0,0,1.59-.39c.77-.65,1.48-1.38,2.21-2.07a2.21,2.21,0,0,0,.56-2.38,10.91,10.91,0,0,0-.6-1.62,67.92,67.92,0,0,0-6.1-10.42,9.78,9.78,0,0,0-.84-1,5.41,5.41,0,0,0-8.71,1.42A11.52,11.52,0,0,0,21.64,25ZM55.3,67.06h.35c3.1.09,6.46-1.39,7.35-5.39a16.46,16.46,0,0,0,.47-4.29A7.62,7.62,0,0,0,60,51.2,15.27,15.27,0,0,0,55.3,49a1.49,1.49,0,0,0-1.59.35,34,34,0,0,1-5.59,4.78C46.06,55.46,46,55.75,47,58c.85,1.83,1.88,3.59,2.88,5.35a18.09,18.09,0,0,0,1.5,2.12,3.68,3.68,0,0,0,3,1.53ZM42.86,22.91a39.26,39.26,0,0,0,.57,6.56c.16.91.6,1.69,1.61,1.78a11.93,11.93,0,0,1,3.71,1.09,1.27,1.27,0,0,0,1.48-.53,48.39,48.39,0,0,0,4.38-13.07A10.28,10.28,0,0,0,53,11.27a4.37,4.37,0,0,0-7-.89,8.31,8.31,0,0,0-2.64,5.3C43.17,17.83,43.06,20,42.86,22.91Zm8.37,20.84c.21-4.6-1.47-7.06-4.56-8.64a2.58,2.58,0,0,0-1.25-.26c-2.2.17-4.27.72-5.75,2.51a13.5,13.5,0,0,0-3.2,7.4,8.22,8.22,0,0,0,2.86,6.9,3.76,3.76,0,0,0,1.1.65,5,5,0,0,0,6-.88c.64-.57,1.33-1.11,1.91-1.74A10.56,10.56,0,0,0,51.23,43.75Zm-10,17.18V60.5c-.07-1.56.32-3.24-.58-4.62-.73-1.13-2.28-1.14-3.35-1.87a21.44,21.44,0,0,0-1.86-1.08,1,1,0,0,0-1.17.2,20.63,20.63,0,0,0-3.06,7.06c-.4,2.26-.57,4.56-.8,6.85a7.62,7.62,0,0,0,1.76,5.19,1.75,1.75,0,0,0,.61.6c2.47,1.28,3.8,1.5,5.66-.8A9.79,9.79,0,0,0,40,69,26.61,26.61,0,0,0,41.18,60.93ZM24.8,50.68c3,0,3.67-.18,6.53-1.86a1.74,1.74,0,0,0,.94-1.37A57.53,57.53,0,0,1,33.2,41a1.61,1.61,0,0,0-1-1.7,32.55,32.55,0,0,0-6.31-1.42,10.9,10.9,0,0,0-5.11.32,6.15,6.15,0,0,0-4,3.63,3.94,3.94,0,0,0-.11,3C17.77,48.25,21.18,51,24.8,50.68Z"/><path class="b" d="M65.78,27.65a5.83,5.83,0,0,1,4.57,2.66,16.32,16.32,0,0,1,2.11,4.24,5.45,5.45,0,0,1-1.33,6A18.94,18.94,0,0,1,64,45.3a10.6,10.6,0,0,1-6,.31c-2.41-.52-2.64-.56-2.59-3.07A12,12,0,0,0,54,36.74a1.43,1.43,0,0,1,.16-1.62A39.27,39.27,0,0,1,60,29.34,8.47,8.47,0,0,1,65.78,27.65Z"/><path class="b" d="M21.64,25a11.52,11.52,0,0,1,1.05-5.26,5.41,5.41,0,0,1,8.71-1.42,9.78,9.78,0,0,1,.84,1,67.92,67.92,0,0,1,6.1,10.42,10.91,10.91,0,0,1,.6,1.62,2.21,2.21,0,0,1-.56,2.38c-.73.69-1.44,1.42-2.21,2.07a1.69,1.69,0,0,1-1.59.39c-1.53-.39-3.08-.74-4.63-1a6.84,6.84,0,0,1-3.74-2c-.91-.92-1.74-1.92-2.62-2.87A6.31,6.31,0,0,1,21.64,25Z"/><path class="b" d="M55.3,67.06l-.95,0a3.68,3.68,0,0,1-3-1.53,18.09,18.09,0,0,1-1.5-2.12c-1-1.76-2-3.52-2.88-5.35-1-2.26-.94-2.55,1.12-3.88a34,34,0,0,0,5.59-4.78A1.49,1.49,0,0,1,55.3,49,15.27,15.27,0,0,1,60,51.2a7.62,7.62,0,0,1,3.48,6.18A16.46,16.46,0,0,1,63,61.67c-.89,4-4.25,5.48-7.35,5.39Z"/><path class="b" d="M42.86,22.91c.2-2.92.31-5.08.5-7.23A8.31,8.31,0,0,1,46,10.38a4.37,4.37,0,0,1,7,.89,10.28,10.28,0,0,1,1.59,7.47,48.39,48.39,0,0,1-4.38,13.07,1.27,1.27,0,0,1-1.48.53A11.93,11.93,0,0,0,45,31.25c-1-.09-1.45-.87-1.61-1.78A39.26,39.26,0,0,1,42.86,22.91Z"/><path class="c" d="M51.23,43.75a10.56,10.56,0,0,1-2.93,5.94c-.58.63-1.27,1.17-1.91,1.74a5,5,0,0,1-6,.88,3.76,3.76,0,0,1-1.1-.65,8.22,8.22,0,0,1-2.86-6.9,13.5,13.5,0,0,1,3.2-7.4c1.48-1.79,3.55-2.34,5.75-2.51a2.58,2.58,0,0,1,1.25.26C49.76,36.69,51.44,39.15,51.23,43.75Z"/><path class="b" d="M41.18,60.93A26.61,26.61,0,0,1,40,69a9.79,9.79,0,0,1-1.62,3c-1.86,2.3-3.19,2.08-5.66.8a1.75,1.75,0,0,1-.61-.6A7.62,7.62,0,0,1,30.36,67c.23-2.29.4-4.59.8-6.85a20.63,20.63,0,0,1,3.06-7.06,1,1,0,0,1,1.17-.2A21.44,21.44,0,0,1,37.25,54c1.07.73,2.62.74,3.35,1.87.9,1.38.51,3.06.58,4.62Z"/><path class="b" d="M24.8,50.68c-3.62.36-7-2.43-8.17-5.85a3.94,3.94,0,0,1,.11-3,6.15,6.15,0,0,1,4-3.63,10.9,10.9,0,0,1,5.11-.32,32.55,32.55,0,0,1,6.31,1.42,1.61,1.61,0,0,1,1,1.7,57.53,57.53,0,0,0-.93,6.41,1.74,1.74,0,0,1-.94,1.37C28.47,50.5,27.78,50.69,24.8,50.68Z"/></svg>