<svg xmlns="http://www.w3.org/2000/svg" viewBox="0 0 141.73 141.73"><defs><style>.a{fill:#703a58;}.b{fill:#6b8f6a;}.c{fill:#fefefe;}</style></defs><path class="a" d="M102.75,89.94a6.05,6.05,0,0,1-.68,4.64,15.9,15.9,0,0,1-1.74,2.57,9.06,9.06,0,0,1-3.56,2.43,2.88,2.88,0,0,1-2.4-.16c-.43-.19-.7,0-.74.36a3.8,3.8,0,0,1-.31,1.6A10.35,10.35,0,0,1,92,103.45a21.3,21.3,0,0,1-4,3.3,4.13,4.13,0,0,1-4.14.29,5.52,5.52,0,0,0-.77-.29c-.1,0-.32,0-.34.11a6.81,6.81,0,0,1-1.72,2.29,5.2,5.2,0,0,1-1.72,1.15,11,11,0,0,1-4,.91A4.09,4.09,0,0,1,72,109.89c-.33-.38-.46-.61-.88-.29a4.19,4.19,0,0,1-1,.77,3.68,3.68,0,0,1-1.93.1,5.12,5.12,0,0,1-1.55-.5c-.91-.64-2.49-.47-3.5-.89a4.39,4.39,0,0,1-2.21-1.79,4.67,4.67,0,0,0-.62-.84.87.87,0,0,0-.53-.24,3.18,3.18,0,0,0-1,.13,3.18,3.18,0,0,1-2.42-.21,9.47,9.47,0,0,1-3.54-2.46c-.13-.16-.27-.31-.41-.46a.82.82,0,0,0-1.1-.26c-.38.15-.75.33-1.14.46a3.7,3.7,0,0,1-3.54-.56,9.38,9.38,0,0,1-2.38-2.28c-.12-.17-.25-.33-.38-.5-.7-.95-1-1.23-2.21-.53a1.66,1.66,0,0,1-1.59.1A12.28,12.28,0,0,1,35.64,97a8.17,8.17,0,0,1-.92-1.12,3,3,0,0,1-.56-2.35,3.18,3.18,0,0,0,.07-.62.78.78,0,0,0-.45-.63l-.58-.19L23.1,89c-.2-.06-.4-.12-.6-.16-.55-.09-.92-.72-1.49-.61a8.52,8.52,0,0,0-1.3.62,2.4,2.4,0,0,1-2.19-.16c-.54-.31-1.09-.6-1.61-.93-1.47-.92-3-1.71-4.53-2.5a50,50,0,0,1-6.44-3.77A3.24,3.24,0,0,1,3.53,79a6,6,0,0,1,.21-2.46,20.34,20.34,0,0,1,1.17-3.1c.4-.8.74-1.63,1.13-2.44a54.53,54.53,0,0,1,4.07-7.22c.11-.17.26-.32.36-.5.34-.6.63-1.23,1-1.8a18,18,0,0,1,1.2-1.42,4.09,4.09,0,0,0,.61-.84,12.06,12.06,0,0,1,2.39-3.1,5.1,5.1,0,0,0,1-1.08c.73-1.43,2.13-2.15,3.18-3.23a1.48,1.48,0,0,1,.53-.31,7.84,7.84,0,0,1,5.48-.2,26.23,26.23,0,0,1,3.08,1.21c1.43.69,2.81,1.47,4.2,2.24a10.76,10.76,0,0,1,3.13,2.69A1.62,1.62,0,0,1,36.55,59c-.11.4-.27.79-.36,1.19a.69.69,0,0,0,.27.73,46.41,46.41,0,0,0,5.42,3.45,57.77,57.77,0,0,0,8.9,3.91c.78.27,1.59.47,2.39.69a5.86,5.86,0,0,0,5.28-1.07,22.58,22.58,0,0,0,2.37-2,53.23,53.23,0,0,1,5.76-4.73,9,9,0,0,1,5-1.75c.49,0,1-.07,1.45-.06a10.83,10.83,0,0,0,2.27,0,13.87,13.87,0,0,0,2.07-.91A7,7,0,0,1,82,58.24c1.73.5,3.44,1,5.15,1.58,1.19.38,2.38.7,3.59,1a13.13,13.13,0,0,0,6.56,0q3.7-1,7.4-2A22.38,22.38,0,0,0,109,57.16c.35-.18.85-.28.94-.72a3,3,0,0,0-.14-1,2.18,2.18,0,0,1,.26-1.39,18.32,18.32,0,0,1,4.86-6.12c.58-.48,1.12-1,1.75-1.46,1-.66,2-1.26,3-1.87a.77.77,0,0,1,.39-.14,6.78,6.78,0,0,1,3.07.17,3.8,3.8,0,0,1,1.07.61,51.8,51.8,0,0,1,9.24,9.18c.54.72,1.12,1.41,1.64,2.13a28,28,0,0,1,3.6,7.44c.38,1.11.66,2.26.94,3.4a5.7,5.7,0,0,1,.15,1.43,2.93,2.93,0,0,1-1.17,2.32,14.06,14.06,0,0,1-2.84,1.68c-1,.48-2.05.84-3.08,1.24a7.19,7.19,0,0,0-.76.32c-1.14.66-2.41,1-3.58,1.62a4.07,4.07,0,0,1-3,.24c-.33-.09-.64-.25-1-.33a1.54,1.54,0,0,0-.6,0,1.4,1.4,0,0,0-.38.16c-2.26,1.19-4.58,2.27-6.8,3.53-1.08.61-2.19,1.18-3.26,1.81-1.79,1-3.63,2-5.33,3.2A37.75,37.75,0,0,0,103,88.13a1.19,1.19,0,0,0-.39,1.45C102.69,89.71,102.72,89.84,102.75,89.94Zm-33.84-3a4.14,4.14,0,0,1-3.55-1.17,1.59,1.59,0,0,1-.49-1.11,7.87,7.87,0,0,1,.18-2c.68-3,1.32-6.09,1.75-9.17.27-2,.54-3.88.79-5.92a1.81,1.81,0,0,1,.66-1.17,57.9,57.9,0,0,0,5.09-4.65.74.74,0,0,0,.23-.33.77.77,0,0,0,0-.39s-.1-.08-.16-.09a8.3,8.3,0,0,0-3.29.29,9.29,9.29,0,0,0-2.17.87,30,30,0,0,0-5.13,4.16,33.5,33.5,0,0,1-3.41,2.88A7.27,7.27,0,0,1,53,70.49c-.6-.18-1.21-.27-1.81-.46a62.45,62.45,0,0,1-7.64-2.71,38.87,38.87,0,0,1-7.65-4.54,3.5,3.5,0,0,0-.53-.31.49.49,0,0,0-.56.11c-.3.54-.29.67-.61,1.2a10.63,10.63,0,0,0-1,2.25,36.51,36.51,0,0,1-1.66,4.24c-1.47,3.06-3.15,6-4.84,8.93-1.28,2.22-2.25,4-3.52,6.27-.21.37-.11.71.25.83.59.2,1.18.39,1.78.55,1.73.48,3.45,1,5.15,1.58,1.43.51,2.87,1,4.31,1.49a1.39,1.39,0,0,0,1.69-.31,4.92,4.92,0,0,1,2.61-1,10.13,10.13,0,0,1,3.9.26,4.34,4.34,0,0,1,2.85,1.54l.51.65a.4.4,0,0,0,.54.07,4.83,4.83,0,0,1,2.9-1.45,7.29,7.29,0,0,1,4.58,1,5.41,5.41,0,0,1,2.25,2.63c0,.12.07.27.12.39.38,1,.38,1.08,1.45,1a5.31,5.31,0,0,1,3.53.91,6,6,0,0,1,1.64,1.57,9,9,0,0,1,1.44,2.51,1,1,0,0,0,.92.69,5.73,5.73,0,0,1,4.52,2.55c.29.43.63.81.88,1.23.48.83,1,1.17,1.58,2.1.19.28.47.8.5.86a7.35,7.35,0,0,0,1.23,1.53,1.41,1.41,0,0,0,1.11.47,9.05,9.05,0,0,0,3.77-1,1.05,1.05,0,0,0,.46-.4,2.36,2.36,0,0,0,.44-2.11,9.18,9.18,0,0,0-1.17-2.86c-.23-.34-.45-.7-.66-1a.6.6,0,0,1,.27-.71,1.58,1.58,0,0,1,1.92.16c1,1,2,1.91,3,2.88a6.11,6.11,0,0,0,2,1.39c.57.24,1.2-.27,1.69-.55a13,13,0,0,0,3.47-2.93,2.17,2.17,0,0,0,.58-2.24,11.2,11.2,0,0,0-2-5.16,1.51,1.51,0,0,1-.09-.18.54.54,0,0,1,.17-.55,1.61,1.61,0,0,1,2.08.22c.35.42.66.89,1,1.3a12.23,12.23,0,0,0,1.55,1.66c1.52,1.21,1.83.88,3.45-.23a4.62,4.62,0,0,0,.5-.37,7.64,7.64,0,0,0,2.73-5A2.46,2.46,0,0,0,99.91,89a44.09,44.09,0,0,0-3.78-3.83c-2.93-2.53-5.89-5-8.83-7.54a12.91,12.91,0,0,0-2.77-1.8,6.94,6.94,0,0,0-3.41-.77,4.69,4.69,0,0,0-2.31.81,2.78,2.78,0,0,0-1,1.54c-.36.89-.68,1.81-1.08,2.69a17.73,17.73,0,0,1-3,4.22A6.91,6.91,0,0,1,68.91,86.94Zm-2.06-3.63v.88a1,1,0,0,0,.68,1,2.26,2.26,0,0,0,.79.21,4.63,4.63,0,0,0,3.08-1,11.37,11.37,0,0,0,3.68-5.17c.34-1,.7-2.09,1-3.14A3.4,3.4,0,0,1,78.4,73.8a9,9,0,0,1,5.5-.08,11.36,11.36,0,0,1,3.35,1.6,44.49,44.49,0,0,1,3.71,3c3.1,2.64,5.81,4.8,8.75,7.63a2,2,0,0,0,.5.37.49.49,0,0,0,.39,0,7.84,7.84,0,0,0,.9-.49c1-.68,2.06-1.39,3.11-2.06,1.75-1.1,3.51-2.2,5.29-3.26,1.42-.85,2.87-1.66,4.32-2.46.78-.44,1.6-.82,2.4-1.23,1.4-.73,2.81-1.47,4.21-2.22a9.87,9.87,0,0,0,.88-.54.51.51,0,0,0,.08-.72c-.17-.22-.34-.44-.52-.65a50.36,50.36,0,0,1-5.87-8.3c-.27-.48-.57-.94-.86-1.41-.65-1.06-1.3-2.12-2-3.17-.3-.46-.65-.89-1-1.32a.66.66,0,0,0-.74-.18c-.38.17-.77.32-1.14.5a25.29,25.29,0,0,1-5.45,1.94c-2.1.45-4.13,1.13-6.19,1.7l-1,.25a10.48,10.48,0,0,1-2.67.31,19.25,19.25,0,0,1-6.89-1.27C85.42,61,83.26,60.53,81.13,60a3.92,3.92,0,0,0-2.62.17,4.53,4.53,0,0,0-1.79,1.36A11.94,11.94,0,0,1,75.28,63c-1.71,1.4-3.21,3-5,4.36a4,4,0,0,0-.3.28,2.07,2.07,0,0,0-.66,1.26,120.36,120.36,0,0,1-2.24,13.06C67,82.47,66.9,83,66.85,83.31ZM23.48,52.8a3.23,3.23,0,0,0-2.3.69A7.34,7.34,0,0,0,19.48,55c-.51.57-1,1.16-1.51,1.71a45.91,45.91,0,0,0-4.89,6.4C11.4,65.62,10,68.3,8.47,70.94c-.17.3-.32.61-.46.92-.57,1.26-1.11,2.53-1.7,3.78a5.22,5.22,0,0,0-.39,3,2.55,2.55,0,0,0,1.23,2c1.07.64,2.12,1.29,3.19,1.92,2.09,1.21,4.28,2.23,6.31,3.54a12.31,12.31,0,0,0,1.67.82.78.78,0,0,0,.79-.08,5.13,5.13,0,0,0,.91-.83,22.2,22.2,0,0,0,2.31-3.67c.41-.87.91-1.7,1.38-2.54.85-1.51,1.71-3,2.56-4.5.37-.66.71-1.34,1.1-2a36,36,0,0,0,3.7-8.29,4.79,4.79,0,0,1,.52-1.35,33.17,33.17,0,0,1,1.82-3.24,1.69,1.69,0,0,0,.3-.54c.54-1.69,1-1.55-.7-2.93a12.29,12.29,0,0,0-1.7-1.18c-1.45-.8-2.91-1.58-4.41-2.28A7,7,0,0,0,23.48,52.8ZM137.36,68.14c0-.16-.09-.5-.14-.84a24.48,24.48,0,0,0-1.73-5.51,20.55,20.55,0,0,0-2.09-4c-.61-.93-1.35-1.74-2-2.62a33.9,33.9,0,0,0-4.59-5.06C125.62,49,124.41,48,123.21,47a4,4,0,0,0-.33-.24,2.25,2.25,0,0,0-2.17-.28,5.53,5.53,0,0,0-.74.35,18,18,0,0,0-7.64,7.36,1.24,1.24,0,0,0-.06,1.18c.25.5.47,1,.76,1.47C115,60,117,63.13,119,66.28a56.75,56.75,0,0,0,6.06,7.6,2.1,2.1,0,0,0,2.76.54c2-1,4-1.78,6.06-2.69a17.14,17.14,0,0,0,1.64-.87,10.27,10.27,0,0,0,1-.72A2.53,2.53,0,0,0,137.36,68.14ZM54.68,94.73a10.3,10.3,0,0,0-.28-1.13A2.44,2.44,0,0,0,52.86,92a7.44,7.44,0,0,0-2.24-.4,1.2,1.2,0,0,0-.6.08,6,6,0,0,0-2.29,1.72,20.64,20.64,0,0,0-2.22,4.43,1.42,1.42,0,0,0,.07,1,5.41,5.41,0,0,0,2.64,2.79,1.56,1.56,0,0,0,1.4.08,6.77,6.77,0,0,0,3-2.5c.62-.91,1.15-1.89,1.71-2.84A3.78,3.78,0,0,0,54.68,94.73ZM62.54,100a4.17,4.17,0,0,0-.26-.8,6.91,6.91,0,0,0-.79-1.2,3.46,3.46,0,0,0-3.62-1.41,3.12,3.12,0,0,0-.61.11,1.46,1.46,0,0,0-.65.45c-.72,1.09-1.42,2.18-2.07,3.32a1.77,1.77,0,0,0,.37,2.56,6.14,6.14,0,0,0,3,1.74,1.41,1.41,0,0,0,.79,0A6.55,6.55,0,0,0,62.32,101,6.46,6.46,0,0,0,62.54,100Zm-18-7.62a9.66,9.66,0,0,0-.47-1,1.94,1.94,0,0,0-1.52-.93,11.79,11.79,0,0,0-3.7.23,1.88,1.88,0,0,0-1.28,1c-.28.55-.52,1.13-.8,1.68a2.2,2.2,0,0,0,.34,2.5,3.28,3.28,0,0,0,.75.69c.57.38,1.19.7,1.77,1.07a1.39,1.39,0,0,0,1.71-.16,9.1,9.1,0,0,0,3.14-4.5A3.74,3.74,0,0,0,44.5,92.39Zm23.78,12.38c0-.34,0-.47,0-.61a1.5,1.5,0,0,0-1.12-1.54,5.61,5.61,0,0,0-1-.32,1.41,1.41,0,0,0-.79.09,3.21,3.21,0,0,0-1,.74c-.48.58-.89,1.22-1.31,1.84-.57.84-.53,1.24.31,1.93a8.93,8.93,0,0,0,1.21.78,1.5,1.5,0,0,0,1.9-.22,6.78,6.78,0,0,0,1.56-1.9A3.31,3.31,0,0,0,68.28,104.77Z"/><path class="b" d="M23.48,52.8a7,7,0,0,1,3.42.76c1.5.7,3,1.48,4.41,2.28A12.29,12.29,0,0,1,33,57c1.74,1.38,1.24,1.24.7,2.93a1.69,1.69,0,0,1-.3.54,33.17,33.17,0,0,0-1.82,3.24,4.79,4.79,0,0,0-.52,1.35,36,36,0,0,1-3.7,8.29c-.39.65-.73,1.33-1.1,2-.85,1.5-1.71,3-2.56,4.5-.47.84-1,1.67-1.38,2.54A22.2,22.2,0,0,1,20,86.07a5.13,5.13,0,0,1-.91.83.78.78,0,0,1-.79.08,12.31,12.31,0,0,1-1.67-.82c-2-1.31-4.22-2.33-6.31-3.54C9.27,82,8.22,81.34,7.15,80.7a2.55,2.55,0,0,1-1.23-2,5.22,5.22,0,0,1,.39-3c.59-1.25,1.13-2.52,1.7-3.78.14-.31.29-.62.46-.92,1.5-2.64,2.93-5.32,4.61-7.85A45.91,45.91,0,0,1,18,56.69c.52-.55,1-1.14,1.51-1.71a7.34,7.34,0,0,1,1.7-1.49A3.23,3.23,0,0,1,23.48,52.8Z"/><path class="b" d="M137.36,68.14a2.53,2.53,0,0,1-.88,2,10.27,10.27,0,0,1-1,.72,17.14,17.14,0,0,1-1.64.87c-2,.91-4.06,1.74-6.06,2.69a2.1,2.1,0,0,1-2.76-.54,56.75,56.75,0,0,1-6.06-7.6c-2-3.15-4-6.32-5.92-9.49-.29-.46-.51-1-.76-1.47a1.24,1.24,0,0,1,.06-1.18A18,18,0,0,1,120,46.78a5.53,5.53,0,0,1,.74-.35,2.25,2.25,0,0,1,2.17.28,4,4,0,0,1,.33.24c1.2,1,2.41,2.07,3.59,3.13a33.9,33.9,0,0,1,4.59,5.06c.66.88,1.4,1.69,2,2.62a20.55,20.55,0,0,1,2.09,4,24.48,24.48,0,0,1,1.73,5.51C137.27,67.64,137.33,68,137.36,68.14Z"/><path class="c" d="M54.68,94.73a3.78,3.78,0,0,1-.38,1.68c-.56,1-1.09,1.93-1.71,2.84a6.77,6.77,0,0,1-3,2.5,1.56,1.56,0,0,1-1.4-.08,5.41,5.41,0,0,1-2.64-2.79,1.42,1.42,0,0,1-.07-1,20.64,20.64,0,0,1,2.22-4.43A6,6,0,0,1,50,91.72a1.2,1.2,0,0,1,.6-.08,7.44,7.44,0,0,1,2.24.4A2.44,2.44,0,0,1,54.4,93.6,10.3,10.3,0,0,1,54.68,94.73Z"/><path class="c" d="M62.54,100a6.46,6.46,0,0,1-.22,1,6.55,6.55,0,0,1-3.63,3.74,1.41,1.41,0,0,1-.79,0,6.14,6.14,0,0,1-3-1.74,1.77,1.77,0,0,1-.37-2.56c.65-1.14,1.35-2.23,2.07-3.32a1.46,1.46,0,0,1,.65-.45,3.12,3.12,0,0,1,.61-.11A3.46,3.46,0,0,1,61.49,98a6.91,6.91,0,0,1,.79,1.2A4.17,4.17,0,0,1,62.54,100Z"/><path class="c" d="M44.5,92.39a3.74,3.74,0,0,1-.06.53,9.1,9.1,0,0,1-3.14,4.5,1.39,1.39,0,0,1-1.71.16c-.58-.37-1.2-.69-1.77-1.07a3.28,3.28,0,0,1-.75-.69,2.2,2.2,0,0,1-.34-2.5c.28-.55.52-1.13.8-1.68a1.88,1.88,0,0,1,1.28-1,11.79,11.79,0,0,1,3.7-.23,1.94,1.94,0,0,1,1.52.93A9.66,9.66,0,0,1,44.5,92.39Z"/><path class="c" d="M68.28,104.77a3.31,3.31,0,0,1-.24.79,6.78,6.78,0,0,1-1.56,1.9,1.5,1.5,0,0,1-1.9.22,8.93,8.93,0,0,1-1.21-.78c-.84-.69-.88-1.09-.31-1.93.42-.62.83-1.26,1.31-1.84a3.21,3.21,0,0,1,1-.74,1.41,1.41,0,0,1,.79-.09,5.61,5.61,0,0,1,1,.32,1.5,1.5,0,0,1,1.12,1.54C68.24,104.3,68.25,104.43,68.28,104.77Z"/></svg>