<svg xmlns="http://www.w3.org/2000/svg" viewBox="0 0 437.36 350.06"><defs><style>.a{fill:#6b8f6a;}.b{fill:#fff;}.c{fill:#703a58;}.d{fill:#f6c74b;}.e{fill:#fefeff;}</style></defs><path class="a" d="M352.77,305.84a13.82,13.82,0,0,0,.38-2,2.65,2.65,0,0,0-.28-1.46,39.47,39.47,0,0,0-2.93-4.17,137.36,137.36,0,0,0-12.58-13.4c-5.93-5.38-11.8-10.81-17.68-16.23q-3.76-3.46-7.46-7a13.42,13.42,0,0,0-8.07-4c-1.35-.14-2.68-.57-4-.62q-12-.42-24-.72c-1.12,0-2.24,0-3.37,0h-5.82c-3.4,0-6.8-.14-10.2-.22-7.32-.19-14.64-.29-22-.62-6.83-.31-13.65-.68-20.48-.68l-3,0c-1.76,0-3.52,0-5.28,0h-.85c-11.74,0-23.49-.12-35.23-.15h-.83c-4.9,0-9.8.11-14.7.11-4.69,0-9.38-.1-14.07-.5-.43,0-.85-.05-1.27-.05a12.83,12.83,0,0,0-10.66,5.63c-1.81,2.48-3.5,5-5.29,7.52q-6,8.3-12,16.54c-4.94,6.75-8.75,14.2-13.06,21.34a13.21,13.21,0,0,0-1.68,4.25c-.28,1.48.09,2.34,1.39,2.87a26,26,0,0,0,7.93,1.8c8.49.61,17,1.18,25.46,1.8,3.06.22,6.1.73,9.16.76l5.32,0q7.56,0,15.1-.2c6.12-.15,12.23-.34,18.34-.34q3.34,0,6.69.09c3.92.1,7.84.27,11.75.27h.5c5.93,0,11.86-.13,17.79-.13,4.62,0,9.25.07,13.87.31.56,0,1.13,0,1.69,0l2.91,0v.05c6.13-.16,12.25-.4,18.38-.46,3.75,0,7.51-.06,11.26-.06,3.91,0,7.82,0,11.72.12,7.28.18,14.56.39,21.85.39,4.62,0,9.26-.09,13.88-.31.68,0,1.37-.05,2.05-.05,3.81,0,7.62-.1,11.42-.1H327a51.92,51.92,0,0,0,13.36-1.95,30.14,30.14,0,0,0,9.33-4A7,7,0,0,0,352.77,305.84Z"/><path class="b" d="M195.5,167.36c-.1,11.8-.19,20.75-.26,29.7-.06,7-.05,14.07-.14,21.1,0,3.67-.1,7.35-.41,11-.42,5-.15,9.9-.24,14.85,0,1.08.65,1.68,1.83,1.75s2.24.1,3.35.09q8.87-.12,17.73-.28c.47,0,.95-.08,1.43-.13a1.49,1.49,0,0,0,1.29-1.2,74.76,74.76,0,0,0,1-13.36c0-.8-.08-1.6-.06-2.4a3.48,3.48,0,0,1,3-3.18,19.64,19.64,0,0,1,2.87,0c5.1.35,10.19.74,15.28,1.13a3.94,3.94,0,0,1,.47.1,2.88,2.88,0,0,1,2.23,2.74c-.06,1.12-.2,2.23-.27,3.35-.23,3.5-.46,7-.66,10.52a3,3,0,0,0,.15,1.41,2.06,2.06,0,0,0,.94.93,3.86,3.86,0,0,0,1.41.22q10.77.39,21.49,1.47a2,2,0,0,0,.94-.07c.27-.09.63-.31.67-.54a12.25,12.25,0,0,0,.27-2.34c.12-5.75,0-11.52.35-17.26.54-9.41.69-18.84.85-28.27.08-4.79-.06-9.59.22-14.37s.38-9.58.56-14.37c.17-4.47.28-8.93.67-13.4.44-4.92.39-9.89.46-14.85.11-8,.12-16,.22-24,0-1.59.27-3.18.4-4.77.08-1,.19-1.9.19-2.86a.9.9,0,0,0-.57-.63c-3.17-.34-6.34-.77-9.52-.92-7.82-.36-15.64-.28-23.47-.12a15.82,15.82,0,0,0-2.39.11,64.83,64.83,0,0,1-10.51.61c-6.23.06-12.46,0-18.69.1-3.19,0-6.38.18-9.57.33a11,11,0,0,0-2.34.43,1.73,1.73,0,0,0-1.25,1.33,14.47,14.47,0,0,0-.32,2.85c0,2.08,0,4.16.13,6.23a70.17,70.17,0,0,1,.35,7.65,82.55,82.55,0,0,0,0,11c.07,1.11,0,2.24,0,3.35,0,1.6-.14,3.2-.14,4.79C195.49,154.87,195.5,162.54,195.5,167.36Z"/><path class="c" d="M228.72,80.52c4.79-.08,9.59-.14,14.38-.25a174.3,174.3,0,0,1,24.38,1.45c1.11.14,2.2.4,3.31.57A3.92,3.92,0,0,1,273.55,84c1,1.45,1.91,2.94,2.82,4.45.82,1.36,1.46,2.86,2.4,4.14,1.73,2.39,2.48,5.15,3.24,7.92a4.43,4.43,0,0,1-.16,2.83,28.81,28.81,0,0,1-2,4.85,15.06,15.06,0,0,0-2.19,8.2c0,9.11,0,18.23-.16,27.34-.13,6.38-.46,12.76-1.21,19.12a84.59,84.59,0,0,0-.75,12.43c.06,2.24-.08,4.48-.13,6.71-.05,1.6-.13,3.2-.16,4.8-.17,9.27-.3,18.54-.5,27.81-.12,5-.43,9.91-.51,14.86s0,9.91,0,14.87a9.9,9.9,0,0,0,.2,1.42,1.8,1.8,0,0,0,1.55,1.55c2.24.12,4.47.23,6.7.31a9.79,9.79,0,0,1,3.76.63,4.91,4.91,0,0,1,1.2.74,1.47,1.47,0,0,1-.23,2.42,7.48,7.48,0,0,1-1.33.52,4.91,4.91,0,0,1-1.43.11c-9.39-.77-18.85-.61-28.21-1.86a68.84,68.84,0,0,0-12.43-.35,48.11,48.11,0,0,1-6.68-.21,96.28,96.28,0,0,0-11-.33c-5.27.09-10.54.28-15.79.65-8.63.62-17.25.24-25.88.21-.31,0-.63,0-.95-.07a2.18,2.18,0,0,1-1.9-2.36,1.72,1.72,0,0,1,1.68-1.94c1.59-.1,3.19-.11,4.78-.18a1.35,1.35,0,0,0,1.25-1.19c.1-1.28.2-2.55.24-3.83.27-7.83.57-15.66.76-23.49.29-11.51.62-23,.72-34.53.15-16,.11-32,.13-48q0-11.52,0-23a1.33,1.33,0,0,0-1-1.43,4.63,4.63,0,0,1-3.29-2.54,7.31,7.31,0,0,1-.92-5.05,29.38,29.38,0,0,1,3.41-9.92c.81-1.37,1.53-2.8,2.32-4.18s1.5-2.46,2.19-3.72a5.57,5.57,0,0,1,5.44-3.13c3.67,0,7.34-.33,11-.49,6.07-.26,12.13-.49,18.2-.74ZM195.5,167.36c-.1,11.8-.19,20.75-.26,29.7-.06,7-.05,14.07-.14,21.1,0,3.67-.1,7.35-.41,11-.42,5-.15,9.9-.24,14.85,0,1.08.65,1.68,1.83,1.75s2.24.1,3.35.09q8.87-.12,17.73-.28c.47,0,.95-.08,1.43-.13a1.49,1.49,0,0,0,1.29-1.2,74.76,74.76,0,0,0,1-13.36c0-.8-.08-1.6-.06-2.4a3.48,3.48,0,0,1,3-3.18,19.64,19.64,0,0,1,2.87,0c5.1.35,10.19.74,15.28,1.13a3.94,3.94,0,0,1,.47.1,2.88,2.88,0,0,1,2.23,2.74c-.06,1.12-.2,2.23-.27,3.35-.23,3.5-.46,7-.66,10.52a3,3,0,0,0,.15,1.41,2.06,2.06,0,0,0,.94.93,3.86,3.86,0,0,0,1.41.22q10.77.39,21.49,1.47a2,2,0,0,0,.94-.07c.27-.09.63-.31.67-.54a12.25,12.25,0,0,0,.27-2.34c.12-5.75,0-11.52.35-17.26.54-9.41.69-18.84.85-28.27.08-4.79-.06-9.59.22-14.37s.38-9.58.56-14.37c.17-4.47.28-8.93.67-13.4.44-4.92.39-9.89.46-14.85.11-8,.12-16,.22-24,0-1.59.27-3.18.4-4.77.08-1,.19-1.9.19-2.86a.9.9,0,0,0-.57-.63c-3.17-.34-6.34-.77-9.52-.92-7.82-.36-15.64-.28-23.47-.12a15.82,15.82,0,0,0-2.39.11,64.83,64.83,0,0,1-10.51.61c-6.23.06-12.46,0-18.69.1-3.19,0-6.38.18-9.57.33a11,11,0,0,0-2.34.43,1.73,1.73,0,0,0-1.25,1.33,14.47,14.47,0,0,0-.32,2.85c0,2.08,0,4.16.13,6.23a70.17,70.17,0,0,1,.35,7.65,82.55,82.55,0,0,0,0,11c.07,1.11,0,2.24,0,3.35,0,1.6-.14,3.2-.14,4.79C195.49,154.87,195.5,162.54,195.5,167.36ZM241.83,94.9c6.39.09,12.29.18,18.2.25,4.3.06,8.61.09,12.92.13.5,0,1.15-.94.93-1.38-1-2-2-4-3.1-5.93a2.85,2.85,0,0,0-1.88-1.37c-.62-.16-1.25-.28-1.88-.38a136.07,136.07,0,0,0-19.53-1.68c-8.76-.17-17.55-.41-26.3.54-.79.09-1.59,0-2.39,0-4.94.18-9.89.05-14.81.73-6.72.94-5,0-8.73,5.91a5.35,5.35,0,0,0-.39.88c-.3.72-1,1.46-.53,2.23.63,1.09,1.71.36,2.58.35,1.28,0,2.55-.13,3.83-.21,2.39-.15,4.79-.17,7.16-.48a95.81,95.81,0,0,1,17.68-.42C231.16,94.44,236.72,95.13,241.83,94.9Zm10.65,9.71c3,.07,6.07.18,9.1.21,2.39,0,4.78,0,7.17.27a65,65,0,0,0,6.7.16,1.11,1.11,0,0,0,.82-.39,4.37,4.37,0,0,0,.8-3.62,2,2,0,0,0-1.66-1.51c-3.82-.12-7.6-1.08-11.45-.51a6.84,6.84,0,0,1-1.43,0c-8.61-.62-17.24-.5-25.86-.42a36.34,36.34,0,0,1-4.78-.22,36.93,36.93,0,0,0-5.25-.34,15.42,15.42,0,0,0-4.29.14c-1.5.44-2.76-.67-4.19-.66l-.48,0c-3.18,0-6.3.92-9.5.69a9.57,9.57,0,0,0-1.89.27,3.7,3.7,0,0,0-.48.08c-2.42,1-5,1-7.53,1.13-1.91.1-3.8.47-5.7.73a2,2,0,0,0-1.59,1.56,8.06,8.06,0,0,0-.28.92c-.38,2,.54,3.16,2.43,3.17a8.68,8.68,0,0,0,1.91,0c3.65-.73,7.32-.4,11-.4,1.27,0,2.55-.09,3.83-.12l7.18-.13c6.07-.1,12.15.06,18.2-.35C241,104.81,246.73,104.79,252.48,104.61ZM232,245.16v0h4.28c1.91,0,2.48-.52,2.64-2.56.19-2.53.29-5.07.4-7.61.18-4.43,0-3.72-3.7-4.4a21,21,0,0,0-4.27-.26c-4.86.11-4.81.31-5.33,4.68-.07.63-.1,1.26-.11,1.9a38.87,38.87,0,0,1-.45,6.64,1.42,1.42,0,0,0,1.31,1.63C228.47,245.18,230.22,245.16,232,245.16Z"/><path class="c" d="M236.08,181.22c2.06-.06,4.13-.2,6.19-.18a2.69,2.69,0,0,1,2.89,3.41,3.78,3.78,0,0,1-.1.46,20.47,20.47,0,0,0-.77,6.13,22.2,22.2,0,0,0,.44,5.68,2.51,2.51,0,0,1-2.44,2.87c-3.46-.41-7,.13-10.41-.91a1.84,1.84,0,0,0-.93-.06,2.53,2.53,0,0,1-2.61-.69,3.42,3.42,0,0,1-.75-2.19c0-.16-.05-.32-.06-.48-.2-3.8-.43-7.61-.6-11.41-.06-1.23.83-2,2-2.29a5,5,0,0,1,.95-.09l6.18-.06Zm3.51,9.78c0-1.92,0-3.18,0-4.45a1.34,1.34,0,0,0-1.41-1c-1.68.47-3.36.95-5,1.46a1.52,1.52,0,0,0-1.08,1.43c-.11,1.57-.17,3.15-.21,4.73a1.53,1.53,0,0,0,1.16,1.34,12.51,12.51,0,0,0,5.64.21,1,1,0,0,0,.64-.62C239.47,192.88,239.54,191.61,239.59,191Z"/><path class="c" d="M235.11,135.28c1.75,0,3.5,0,5.26,0a2.83,2.83,0,0,1,2.09,1,1.94,1.94,0,0,1,.6,1.24,76.78,76.78,0,0,0,.19,11.45c.12,2-1.92,4.54-4.1,4.38a22.23,22.23,0,0,0-7.12.69,2.67,2.67,0,0,1-2.61-.83,7.54,7.54,0,0,1-2.49-5.51c0-1.6-.05-3.2,0-4.79a10.33,10.33,0,0,0-.58-5.16c-.26-.55.49-1.69,1.15-1.9a7,7,0,0,1,1.84-.43c1.91,0,3.82,0,5.74,0Zm3.28,9.2c-.07-.71-.21-2.13-.37-3.54a1.62,1.62,0,0,0-1.41-1.07c-4.69.38-4.93.54-5.06,4.92,0,1,0,1.9.07,2.84a1.43,1.43,0,0,0,1.27,1.19c1.42,0,2.84,0,4.26-.08a1.34,1.34,0,0,0,1.24-1.17C238.4,146.78,238.39,146,238.39,144.48Z"/><path class="c" d="M206.07,181.79c2.94.67,5.92.19,8.91-.34a8.6,8.6,0,0,1,3.78-.07c.65.16,1.53,1,1.51,1.67,0,.95-.07,1.91-.2,2.85a25.55,25.55,0,0,0,0,9,5.49,5.49,0,0,1-.08,1.89c-.18,1.27-1.59,2.42-2.76,1.95-2.1-.83-4.06-.38-6.06.14-1.23.32-2.43.73-3.66,1.06a4.05,4.05,0,0,1-4.73-3,8.34,8.34,0,0,1-.23-1.4q-.31-3.57-.6-7.13c-.2-2.56-.17-2.55.86-5a2.68,2.68,0,0,1,2.21-1.56A9.42,9.42,0,0,1,206.07,181.79Zm8.86,7.93h0c0-.79,0-1.59,0-2.38a1.28,1.28,0,0,0-1.18-1.26,16.39,16.39,0,0,0-6,1.17,1,1,0,0,0-.56.69c-.08,1.9-.1,3.8-.11,5.7,0,.48.85,1.13,1.35,1.12a19,19,0,0,0,5.57-1.17,1.6,1.6,0,0,0,1-1.49C215,191.31,214.93,190.52,214.93,189.72Z"/><path class="c" d="M265.25,192.65c0,2.07,0,4.13,0,6.2a14.75,14.75,0,0,1-.16,1.88c-.12.78-1.43,1.82-2.13,1.56a11.64,11.64,0,0,0-6.56-.33,3,3,0,0,1-.94,0,3.38,3.38,0,0,1-2.45-1.33,34.59,34.59,0,0,1-2.38-4.07,5.59,5.59,0,0,1-.43-2.31c-.08-2.7.09-5.42-.15-8.1-.27-3.22-.1-4.43,3.8-4a64.39,64.39,0,0,0,7.61-.07,9.72,9.72,0,0,1,2.33.29,1.65,1.65,0,0,1,1.25,1.3,9.1,9.1,0,0,1,.21,1.88c0,2.38,0,4.76,0,7.14Zm-4.83-.67h.08c-.09-1.42-.17-2.84-.28-4.26a1,1,0,0,0-1-.79c-.94.1-1.89.18-2.81.37a1.67,1.67,0,0,0-1.27,1.28,17,17,0,0,0,0,7.07c.07.36.59.69,1,.93a1.94,1.94,0,0,0,.91.21c3,.14,3.44.1,3.43-2.91Z"/><path class="c" d="M232.91,158.55c1.39-.11,3.15-.27,4.9-.36,1.59-.08,3.19-.16,4.78-.1a2.55,2.55,0,0,1,2.52,2.87,15.24,15.24,0,0,1-.27,1.9,25,25,0,0,0-.44,6.68c0,.8.15,1.59.14,2.39a2.66,2.66,0,0,1-3,2.89,12.56,12.56,0,0,0-4.77,0c-2.48.7-4.71-.39-7-.67a2.23,2.23,0,0,1-1.91-1.92c-.3-1.89-.53-3.8-.69-5.7s-.21-3.83-.3-5.74a2.29,2.29,0,0,1,1.93-2.36,8.51,8.51,0,0,1,1.43-.07C231,158.36,231.75,158.45,232.91,158.55Zm6.75,7.3c-.11-.76-.22-1.85-.42-2.92,0-.21-.41-.39-.66-.53a.66.66,0,0,0-.46-.06c-1.68.39-3.37.76-5,1.22a1.59,1.59,0,0,0-1,.89,9.43,9.43,0,0,0,0,4.66,1,1,0,0,0,.68.59,14.19,14.19,0,0,0,5.62.14,1.4,1.4,0,0,0,1-.84A24.83,24.83,0,0,0,239.66,165.85Z"/><path class="c" d="M266,143.64c0,1-.07,1.92,0,2.87.4,4.49-.05,3.62-3.15,6.22a2.34,2.34,0,0,1-1.34.41c-1.59.07-3.19.06-4.79.09a7.76,7.76,0,0,1-4.06-1.16,4.78,4.78,0,0,1-2.83-4.56,34.46,34.46,0,0,0-.53-8.11,1.49,1.49,0,0,1,.15-.92c.82-1.64,1.89-3,3.93-3,2.87-.06,5.74-.07,8.62-.07a9.32,9.32,0,0,1,1.89.24,3,3,0,0,1,2.24,2.77c0,1.76-.15,3.51-.23,5.27Zm-4.78.78c0-.35-.14-1.78-.3-3.2a1.58,1.58,0,0,0-1.65-1.36c-1.1.14-2.19.3-3.27.54a1.48,1.48,0,0,0-1.24,1.28c-.11,1.74-.11,3.48-.13,5.22a2,2,0,0,0,1.2,1.35,12.31,12.31,0,0,0,4.72.22.93.93,0,0,0,.64-.61C261.26,147.08,261.21,146.28,261.21,144.42Z"/><path class="c" d="M211.15,158.28c1.91-.05,3.82-.15,5.73-.14a2.25,2.25,0,0,1,2.44,2.37,37.92,37.92,0,0,0,.54,7.14c.16,1.1.22,2.22.27,3.33a4.15,4.15,0,0,1-3.15,3.69,1.93,1.93,0,0,1-.47.08,18.23,18.23,0,0,0-7.08.74c-2.7.67-4.59-.73-6.38-2.38a3.47,3.47,0,0,1-.81-1.69,18.27,18.27,0,0,1-.27-2.37c-.2-2.06-.38-4.12-.6-6.18a3.7,3.7,0,0,1,.57-2.27,3.81,3.81,0,0,1,3.48-2.12h5.73Zm0,4.43v0l-2.33.36c-.16,0-.31.06-.47.09a1.91,1.91,0,0,0-1.74,1.89c0,1.26,0,2.53.12,3.79a1.73,1.73,0,0,0,1.79,1.77c1.73-.09,3.46-.23,5.18-.38a1.46,1.46,0,0,0,1.43-1.55,16.21,16.21,0,0,0-1-5.56,1,1,0,0,0-1.12-.68Z"/><path class="c" d="M209.93,136.1h3.83c.8,0,1.6,0,2.39.07a2.46,2.46,0,0,1,2.39,2.5c0,1.11-.14,2.23-.12,3.35.06,2.56.18,5.1,1.55,7.41a1.48,1.48,0,0,1-.41,1.73,3.11,3.11,0,0,1-2.93,1.28,22,22,0,0,0-8.55.54,6.92,6.92,0,0,1-4.63-.78,2.4,2.4,0,0,1-1.39-1.86c-.42-4-.78-8-1.14-11.92a1.82,1.82,0,0,1,1.38-1.74,9.36,9.36,0,0,1,1.87-.31c1.92-.05,3.84,0,5.76,0Zm-4.08,8.19c.06.63.12,1.42.21,2.21a2.3,2.3,0,0,0,1.57,1.62,10.33,10.33,0,0,0,5.18-.14c.93-.2,1.46-.75,1.36-1.62-.2-1.73-.45-3.46-.71-5.18a1.44,1.44,0,0,0-1.44-1,16.5,16.5,0,0,0-5.12,1,1.64,1.64,0,0,0-.81,1A11.68,11.68,0,0,0,205.85,144.29Z"/><path class="c" d="M265.8,165.94c-.19,3.16-.3,5.24-.46,7.31a5.12,5.12,0,0,1-.35,1.37c-.35,1-1.87,1.74-2.74,1.16a4.2,4.2,0,0,0-4.05-.62,6,6,0,0,1-1.42.18,4.26,4.26,0,0,1-4.14-1.86,10.64,10.64,0,0,1-2.35-5.63,49,49,0,0,1,0-8.13,2.48,2.48,0,0,1,1.82-2,11,11,0,0,1,1.89-.22c2.39-.07,4.78-.1,7.17-.14.48,0,1,0,1.44,0a3.41,3.41,0,0,1,3.25,3,12.16,12.16,0,0,1,.07,1.91C265.9,163.84,265.82,165.43,265.8,165.94Zm-4.66-1c-.11-.61-.19-1.39-.39-2.13a1.06,1.06,0,0,0-.67-.58,6.56,6.56,0,0,0-3.69.3,1.16,1.16,0,0,0-.68.58,8.27,8.27,0,0,0-.06,6.42,1.51,1.51,0,0,0,1.09.75,15.6,15.6,0,0,0,2.81-.12,1.61,1.61,0,0,0,1.22-1.28C260.9,167.6,261,166.35,261.14,164.92Z"/><path class="c" d="M200.68,213.14a22,22,0,0,0-.4-5.67,1.9,1.9,0,0,1,1.66-2,62,62,0,0,0,8.48-1.16,11.1,11.1,0,0,1,4.26,0,2.3,2.3,0,0,1,1.85,1.9,7.55,7.55,0,0,1,.11,1.42,25.3,25.3,0,0,0,.27,5.7,28.36,28.36,0,0,1,.12,3.33,6.28,6.28,0,0,1-2.3,5,4.1,4.1,0,0,1-2.07,1.05c-2.2.25-4.42.35-6.64.39a4.23,4.23,0,0,1-3.94-2.21,7.56,7.56,0,0,1-1.41-4.43C200.74,215.36,200.68,214.25,200.68,213.14Zm11.57,1.64c-.09-1.39-.14-2.33-.2-3.28,0-.47-.09-.94-.15-1.4a1.42,1.42,0,0,0-1.63-1.28c-1.76.24-3.21,1.23-4.77,1.92a1.58,1.58,0,0,0-.58,1.2c-.08,1.57-.06,3.15,0,4.72a2,2,0,0,0,.23.9c.15.26.4.58.65.64a11.5,11.5,0,0,0,5.59.05,1,1,0,0,0,.64-.63C212.14,216.53,212.2,215.44,212.25,214.78Z"/><path class="c" d="M230.54,203.87c2.38.21,4.76.39,7.13.65a2.1,2.1,0,0,1,1.75,2c.25,2.86.61,5.71.68,8.57a5.21,5.21,0,0,1-2.34,4.48,3.05,3.05,0,0,1-1.78.53,16.39,16.39,0,0,0-5.23.31c-2,.56-3.79-.07-5.61-.6A2.05,2.05,0,0,1,223.7,218c-.27-3.18-.45-6.36-.63-9.54,0-1,0-1.9.05-2.85a1.77,1.77,0,0,1,1.22-1.32,9.86,9.86,0,0,1,1.41-.23c1.59,0,3.19,0,4.78,0Zm1.23,11.66v-.09h2.39c.41,0,1-.56.93-.93-.18-1.73-.35-3.46-.56-5.19-.07-.56-.8-1-1.43-1-1.48-.09-2.79.56-4.17.91a1.14,1.14,0,0,0-.77,1.1c-.12,1.27-.17,2.54-.21,3.82a1.47,1.47,0,0,0,1.44,1.54C230.19,215.64,231,215.58,231.77,215.53Z"/><path class="c" d="M232.82,131.33a3.15,3.15,0,0,1-2.92-1.22,5.94,5.94,0,0,1-1.87-4.25c0-3-.13-6.06-.17-9.09a2.05,2.05,0,0,1,1.24-1.88c1.14-.62,2.33-1.24,3.62-.77a23.69,23.69,0,0,0,7.09.95,18.86,18.86,0,0,1,2.37.25,2.25,2.25,0,0,1,2,2.7c-.1.79-.23,1.58-.37,2.37a28.06,28.06,0,0,0-.42,7.15,2.6,2.6,0,0,1-1.69,2.63A7.85,7.85,0,0,1,239,131C237,131.22,234.89,131.24,232.82,131.33Zm6.27-9.62c0,.22,0-.58,0-1.37A1.42,1.42,0,0,0,238,119a10.29,10.29,0,0,0-4.67.51,1.12,1.12,0,0,0-.61.65,12.83,12.83,0,0,0-.16,5.65,1,1,0,0,0,.66.63,8.45,8.45,0,0,0,1.88.19C238.89,126.6,239,126.9,239.09,121.71Z"/><path class="c" d="M247.52,211.53c-.1-1.17-.21-2.29-.29-3.4a2.09,2.09,0,0,1,1.64-2.07,6.85,6.85,0,0,1,1.41-.2c3,.1,6.07.23,9.1.37a5.56,5.56,0,0,1,1.41.25A3,3,0,0,1,263,208.8a7.71,7.71,0,0,1,.2,1.42c0,2.4,0,4.8,0,7.2a5.73,5.73,0,0,1-.77,2.73,2.88,2.88,0,0,1-1.75,1.53,33.14,33.14,0,0,1-8.53,1.08,3,3,0,0,1-2.75-1.64,11.64,11.64,0,0,1-2-7.25C247.49,213.08,247.49,212.27,247.52,211.53Zm10.9,3.12a22.62,22.62,0,0,0-.22-2.92,1.41,1.41,0,0,0-.9-.94,8.29,8.29,0,0,0-4.18.47,1.09,1.09,0,0,0-.58.69,14.39,14.39,0,0,0-.38,2.35c-.23,3.17.25,3.65,3.42,3.49a8.45,8.45,0,0,0,1.89-.27,1.11,1.11,0,0,0,.85-1C258.35,215.86,258.39,215.22,258.42,214.65Z"/><path class="c" d="M258.18,115c1.59,0,3.19,0,4.79,0a3.08,3.08,0,0,1,2.17.85,3.82,3.82,0,0,1,.78,1.16,2.49,2.49,0,0,1,.08,1c0,2.39,0,4.79.05,7.18a6.24,6.24,0,0,1-1.22,4,2.64,2.64,0,0,1-2.39,1.3,12.36,12.36,0,0,0-5.18.7,9.4,9.4,0,0,1-1.39.34,3.91,3.91,0,0,1-4.93-2.69,4.19,4.19,0,0,1-.34-.89,39.21,39.21,0,0,1-.5-10,3.59,3.59,0,0,1,3.29-3c1.6,0,3.19,0,4.79,0Zm-3.42,8.16h-.09c.05.8.1,1.59.16,2.38a1.46,1.46,0,0,0,1.32,1.15c1.27-.08,2.54-.17,3.8-.29a1.37,1.37,0,0,0,1.24-1.22c-.05-1.58-.11-3.17-.23-4.75a1.48,1.48,0,0,0-1.6-1.42,30.39,30.39,0,0,0-3.27.5,1.63,1.63,0,0,0-1.32,1.74C254.74,121.9,254.76,122.54,254.76,123.17Z"/><path class="c" d="M215.34,120.35c-.15,1.7.48,4,.8,6.39a3.42,3.42,0,0,1-3.18,3.92,28.54,28.54,0,0,0-7,1.22,13.3,13.3,0,0,1-1.4.27,3.07,3.07,0,0,1-3.11-1.76,40.13,40.13,0,0,1-2.3-13.07,2.12,2.12,0,0,1,.79-1.65,4.21,4.21,0,0,1,3.89-1.33c2.5.55,5.06.35,7.59.53.79.06,1.58.14,2.36.27a2.28,2.28,0,0,1,1.56,1.64C215.38,117.73,215.34,118.69,215.34,120.35Zm-3.74,4c-.09-1.26-.16-2.53-.27-3.79a2.32,2.32,0,0,0-2.88-2.32,42.24,42.24,0,0,0-4.18.81,1,1,0,0,0-.58.68,14.92,14.92,0,0,0,.72,6.53,1.7,1.7,0,0,0,1.42,1.08,13.91,13.91,0,0,0,5.11-.87,1.14,1.14,0,0,0,.52-.71A8.22,8.22,0,0,0,211.6,124.38Z"/><path class="b" d="M232,245.16v0h4.28c1.91,0,2.48-.52,2.64-2.56.19-2.53.29-5.07.4-7.61.18-4.43,0-3.72-3.7-4.4a21,21,0,0,0-4.27-.26c-4.86.11-4.81.31-5.33,4.68-.07.63-.1,1.26-.11,1.9a38.87,38.87,0,0,1-.45,6.64,1.42,1.42,0,0,0,1.31,1.63C228.47,245.18,230.22,245.16,232,245.16Z"/><path class="c" d="M241.83,94.9c6.39.09,12.29.18,18.2.25,4.3.06,8.61.09,12.92.13.5,0,1.15-.94.93-1.38-1-2-2-4-3.1-5.93a2.85,2.85,0,0,0-1.88-1.37c-.62-.16-1.25-.28-1.88-.38a136.07,136.07,0,0,0-19.53-1.68c-8.76-.17-17.55-.41-26.3.54-.79.09-1.59,0-2.39,0-4.94.18-9.89.05-14.81.73-6.72.94-5,0-8.73,5.91a5.35,5.35,0,0,0-.39.88c-.3.72-1,1.46-.53,2.23.63,1.09,1.71.36,2.58.35,1.28,0,2.55-.13,3.83-.21,2.39-.15,4.79-.17,7.16-.48a95.81,95.81,0,0,1,17.68-.42C231.16,94.44,236.72,95.13,241.83,94.9Z"/><path class="b" d="M63.7,235.81c-.22,7.79-.8,13.84-.75,19.92,0,3.52-.18,7-.25,10.55,0,.79.08,1.58.14,2.38a1.18,1.18,0,0,0,.92,1,7,7,0,0,0,1.88.26c9.1.25,18.2.7,27.31.35,1.12,0,2.23-.12,3.35-.19a1.7,1.7,0,0,0,1.25-1.28c.09-1,.21-1.9.27-2.86a65.23,65.23,0,0,0-.23-9.58,2.87,2.87,0,0,1,1.92-3,6.12,6.12,0,0,1,1.8-.54,33.34,33.34,0,0,1,8.11-.3c1.89.25,3.83.15,5.74.23A23,23,0,0,1,119,253a49.28,49.28,0,0,0,9.54.78,11.59,11.59,0,0,1,1.43.1,3.37,3.37,0,0,1,2.7,2.41c.53,2.82,1.15,5.62.55,8.55a23.52,23.52,0,0,0-.16,4.29,1.59,1.59,0,0,0,1.27,1.23,15.24,15.24,0,0,0,1.9.17c6.55,0,13.09.33,19.64.55,3.67.12,7.34.08,11,.52a48.57,48.57,0,0,0,5.26.18,1.49,1.49,0,0,0,1.54-1.47c0-1-.14-1.91-.13-2.87.08-7.19.39-14.38-.06-21.57a27.54,27.54,0,0,1,.11-2.87c.11-2.4.21-4.79.32-7.19.16-3.67.31-7.35.49-11,.18-4,.47-8,.57-12,.11-4.63,0-9.27.1-13.91,0-2.39.26-4.78.36-7.17q.17-4.56.26-9.1a1.67,1.67,0,0,0-1.81-1.77c-3.19-.13-6.39-.33-9.58-.31-6.86,0-13.71-.55-20.58-.29-1.12,0-2.24,0-3.35-.11a115.52,115.52,0,0,0-19.15.11c-.63.07-1.27.05-1.91.08-3,.13-6.06-.31-9.07-.34-5.1-.07-10.22-.37-15.31.37a27.15,27.15,0,0,1-3.83.1c-5.43,0-10.86,0-16.29,0-2.55,0-5.1.23-7.65.38a1.72,1.72,0,0,0-1.52,1.58c-.21,4.15-1.06,8.25-.9,12.42,0,1.12-.09,2.24-.16,3.36-.49,7-1,14-.88,21.06C63.77,225.39,63.7,231.46,63.7,235.81Z"/><path class="c" d="M58,225c.06-1.12.12-2.24.17-3.35.26-6.07.62-12.14.76-18.21.12-5.44.36-10.86.79-16.28a21.7,21.7,0,0,0-.31-7.62,2.2,2.2,0,0,1,.09-1.84A7.43,7.43,0,0,0,60.2,174q.3-6.47.63-12.94a10.78,10.78,0,0,1,.27-1.88,1.7,1.7,0,0,1,1.28-1.29,6.62,6.62,0,0,1,1.4-.24c5.43-.19,10.85-.45,16.27-.53q11.25-.16,22.52-.09c2.71,0,5.41.29,8.12.46,6.39.38,12.78.23,19.17,0,5.58-.2,11.17-.4,16.76-.42,7.51,0,15-.26,22.52.16,2.39.13,4.79.11,7.19.08a4.71,4.71,0,0,1,4.38,2.41,2.74,2.74,0,0,1,.49,1.78c-.91,4-.18,8-.43,11.93a5.08,5.08,0,0,0,.64,2.74,4.64,4.64,0,0,1,.05,4.59,3.74,3.74,0,0,0-.35,2.33,89.51,89.51,0,0,1,.42,13.4,23,23,0,0,1-.11,2.88c-.59,4.12-.43,8.28-.7,12.42s-.31,8.3-.45,12.45c-.35,10.07-.73,20.13-1,30.19-.09,3.19.05,6.39.11,9.58,0,1,.11,1.92.13,2.88.09,4.75-.37,4.39,4.34,4.69.8.06,1.6.12,2.4.1,1.77-.06,2.55,1.09,3.08,2.51a.91.91,0,0,1-.22.82,11.18,11.18,0,0,1-5.41,1.72c-2.55.09-5.11.26-7.66.24q-10.54-.12-21.08-.39a116.2,116.2,0,0,1-12.91-.69,27.14,27.14,0,0,0-3.83-.12c-4.16,0-8.29-.24-12.43-.6s-8.3-.31-12.45-.39c-5.42-.09-10.84-.14-16.26-.27-4.47-.1-8.94.14-13.41.2-1.27,0-2.54,0-3.82,0-1.11,0-2.23-.13-3.35-.09a22.36,22.36,0,0,1-5.72-.28,3.85,3.85,0,0,0-1-.11c-3.67.12-7.33-.22-11-.31a33.4,33.4,0,0,0-8.57.69c-1.52.36-2.66-.79-2.77-2.52a2.21,2.21,0,0,1,1.5-2.2,20.09,20.09,0,0,1,5.25-.32,1.5,1.5,0,0,0,1.57-1.43c.09-2.08.11-4.16.23-6.23.37-6.86.78-13.72,1.17-20.59q.45-8.13.88-16.27Zm5.75,10.82c-.22,7.79-.8,13.84-.75,19.92,0,3.52-.18,7-.25,10.55,0,.79.08,1.58.14,2.38a1.18,1.18,0,0,0,.92,1,7,7,0,0,0,1.88.26c9.1.25,18.2.7,27.31.35,1.12,0,2.23-.12,3.35-.19a1.7,1.7,0,0,0,1.25-1.28c.09-1,.21-1.9.27-2.86a65.23,65.23,0,0,0-.23-9.58,2.87,2.87,0,0,1,1.92-3,6.12,6.12,0,0,1,1.8-.54,33.34,33.34,0,0,1,8.11-.3c1.89.25,3.83.15,5.74.23A23,23,0,0,1,119,253a49.28,49.28,0,0,0,9.54.78,11.59,11.59,0,0,1,1.43.1,3.37,3.37,0,0,1,2.7,2.41c.53,2.82,1.15,5.62.55,8.55a23.52,23.52,0,0,0-.16,4.29,1.59,1.59,0,0,0,1.27,1.23,15.24,15.24,0,0,0,1.9.17c6.55,0,13.09.33,19.64.55,3.67.12,7.34.08,11,.52a48.57,48.57,0,0,0,5.26.18,1.49,1.49,0,0,0,1.54-1.47c0-1-.14-1.91-.13-2.87.08-7.19.39-14.38-.06-21.57a27.54,27.54,0,0,1,.11-2.87c.11-2.4.21-4.79.32-7.19.16-3.67.31-7.35.49-11,.18-4,.47-8,.57-12,.11-4.63,0-9.27.1-13.91,0-2.39.26-4.78.36-7.17q.17-4.56.26-9.1a1.67,1.67,0,0,0-1.81-1.77c-3.19-.13-6.39-.33-9.58-.31-6.86,0-13.71-.55-20.58-.29-1.12,0-2.24,0-3.35-.11a115.52,115.52,0,0,0-19.15.11c-.63.07-1.27.05-1.91.08-3,.13-6.06-.31-9.07-.34-5.1-.07-10.22-.37-15.31.37a27.15,27.15,0,0,1-3.83.1c-5.43,0-10.86,0-16.29,0-2.55,0-5.1.23-7.65.38a1.72,1.72,0,0,0-1.52,1.58c-.21,4.15-1.06,8.25-.9,12.42,0,1.12-.09,2.24-.16,3.36-.49,7-1,14-.88,21.06C63.77,225.39,63.7,231.46,63.7,235.81ZM124,162.88c-4.77-.29-8.59-.57-12.42-.75-4.78-.22-9.57-.42-14.35-.53-5.75-.13-11.5-.26-17.24-.19a51.07,51.07,0,0,0-11.43.94c-2.23.54-2.41.57-2.49,2.69s-.1,4.14-.09,6.21a1.58,1.58,0,0,0,1.51,1.56c7.34.21,14.68.43,22,.61,1.6,0,3.2,0,4.79-.07,3.83-.09,7.66-.27,11.49-.29q11.73-.06,23.46,0c11.34.06,22.67.17,34,.27,1,0,1.91.12,2.87.18,2.23.14,4.45.33,6.68.41,2.81.09,3-.09,3.1-2.88.07-1.59.07-3.19.06-4.79a3.28,3.28,0,0,0-.3-1.39,1.93,1.93,0,0,0-1-1,8.16,8.16,0,0,0-2.36-.34c-5.1,0-10.2-.32-15.3-.41-3.67-.06-7.35.06-11,.16C138.39,163.53,130.73,163.15,124,162.88Zm-8.7,107.05v.22c1.91,0,3.82,0,5.73,0s4.12.44,6.16-.1c1.32-1.82.61-4,1-6,.2-.94.32-1.89.45-2.83s-.49-1.73-1.64-1.88c-2-.26-4.1-.59-6.15-.78-3.8-.34-7.61-.62-11.42-.87a12.68,12.68,0,0,0-5.18.58c-1.11.4-1.68.94-1.66,2,0,2.71.12,5.41.21,8.12a1.5,1.5,0,0,0,1.49,1.5Z"/><path class="c" d="M160,227.79c1.75,0,3.5,0,5.25,0a2.94,2.94,0,0,1,2.57,1.82,2.89,2.89,0,0,1,.37.87,45.54,45.54,0,0,1,1,10.86,2.64,2.64,0,0,1-1,2.1,15.36,15.36,0,0,0-3.23,2.68,2,2,0,0,1-1.31.45q-4.27.38-8.55.65a2.91,2.91,0,0,1-3-2.5,10,10,0,0,1-.19-1.89c0-1.75.12-3.5.25-5.24.2-2.69.45-5.38.69-8.06a1.83,1.83,0,0,1,1.91-1.71c1.75,0,3.49,0,5.24,0Zm1.59,13.46,2.56.16c.57,0,1-.3.92-.77q-.34-3.28-.7-6.57A1.46,1.46,0,0,0,163,233c-1.25,0-2.51,0-3.77,0a4.33,4.33,0,0,0-.92.2,1.59,1.59,0,0,0-1.21,1.29q-.18,2.59-.3,5.19a1.9,1.9,0,0,0,.14.92c.13.26.4.61.63.63C158.78,241.29,160,241.25,161.55,241.25Z"/><path class="c" d="M137.11,245.29c-1.75,0-3.5.05-5.24,0a2.41,2.41,0,0,1-1.87-1.33,5.59,5.59,0,0,1-.87-3.19c.19-3.33.44-6.66.68-10a4.29,4.29,0,0,1,.2-.93,2.48,2.48,0,0,1,1.6-1.64,5.7,5.7,0,0,1,1.85-.41c3.33,0,6.67,0,10,0a3.09,3.09,0,0,1,2.72,1.66,8.28,8.28,0,0,1,1,2.16,4.62,4.62,0,0,1,.16,2.32,67.42,67.42,0,0,0-2,9.31c-.26,1.65-1.51,2.59-3.47,2.59-.79,0-1.58-.18-2.37-.25s-1.59-.1-2.38-.15Zm-2.7-8.87h-.15c0,.93,0,1.87,0,2.8a1,1,0,0,0,.51.71,11.62,11.62,0,0,0,5.56.18,1,1,0,0,0,.66-.61c.41-1.83.75-3.68,1.11-5.53a1.27,1.27,0,0,0-.75-1.06,18.27,18.27,0,0,0-6.07.6,1.09,1.09,0,0,0-.81,1C134.45,235.17,134.43,235.79,134.41,236.42Z"/><path class="c" d="M161,203.66h-3.83a3.36,3.36,0,0,1-3.23-2.93c0-.63,0-1.27,0-1.9,0-3.67.61-7.31.31-11a2.81,2.81,0,0,1,.82-2.18,2.74,2.74,0,0,1,2-1.12,70.12,70.12,0,0,1,10,.48,4.12,4.12,0,0,1,3.64,4.32c-.1,2.71-.32,5.42-.51,8.13a3.5,3.5,0,0,1-1.92,3.1,1.76,1.76,0,0,0-.91,1c-.39,2.16-1.81,2.34-3.58,2.09-.95-.13-1.91-.12-2.87-.17Zm5.34-9.53c0-.74,0-1.54,0-2.33a1.67,1.67,0,0,0-1.29-1.75,9.31,9.31,0,0,0-5.18-.06,1.66,1.66,0,0,0-1.19,1.33c-.2,1.74-.42,3.48-.62,5.23a1.31,1.31,0,0,0,1,1.4l6.17.55a.56.56,0,0,0,.68-.53C166.08,196.71,166.21,195.45,166.35,194.13Z"/><path class="c" d="M77.08,244.85c-2.32.17-3.9.29-5.49.39a3,3,0,0,1-3-1.91,7.46,7.46,0,0,1-.83-2.72A24.38,24.38,0,0,1,69.81,229a2,2,0,0,1,1.88-1.22c2.86,0,5.73,0,8.59-.08a3.7,3.7,0,0,1,3.17,1.8A7.43,7.43,0,0,1,85,235.3a51.53,51.53,0,0,0-.22,5.71,9.52,9.52,0,0,1-.37,2.32A1.58,1.58,0,0,1,83,244.52C80.79,244.67,78.57,244.77,77.08,244.85Zm3-8.92h0c0-.48,0-1,0-1.42a1.61,1.61,0,0,0-1.78-1.72c-5.07.19-4.88.31-5.56,5.52a1.23,1.23,0,0,0,1.17,1.22c1.57-.05,3.14-.11,4.71-.22a1.42,1.42,0,0,0,1.48-1.49C80.07,237.19,80.06,236.56,80.06,235.93Z"/><path class="c" d="M161.09,206.8c1.92,0,3.83,0,5.75,0a2.38,2.38,0,0,1,2,1.15,6.31,6.31,0,0,1,1.08,4.53q-.33,3.33-.81,6.65a5.89,5.89,0,0,1-.63,1.79A1.79,1.79,0,0,1,167,222a59.47,59.47,0,0,0-9,.94,2.84,2.84,0,0,1-2.62-.81c-2.48-2.37-2.47-1.82-2.93-5.72a34.24,34.24,0,0,1,0-5.73,5.32,5.32,0,0,1,.72-2.25,2.57,2.57,0,0,1,2.26-1.54h5.74Zm-.68,10.42c.87-.09,2-.16,3.09-.32a1.53,1.53,0,0,0,1.33-1.21,18.51,18.51,0,0,0,.25-2.36c0-.38-.51-.89-.91-.93a23.85,23.85,0,0,0-6.2.23,1.52,1.52,0,0,0-1.2,1.32,9.37,9.37,0,0,0,.06,2.37,1.41,1.41,0,0,0,.95.86A17.15,17.15,0,0,0,160.41,217.22Z"/><path class="c" d="M97.79,226.71c1.6,0,3.19,0,4.79,0,2.56.08,4,2.09,3.29,4.64-.12.46-.31.91-.45,1.36a27.34,27.34,0,0,0-1.52,7.48,8.69,8.69,0,0,1-.21,1.42,2.06,2.06,0,0,1-2,1.7c-.79,0-1.59-.14-2.38-.13-1.6,0-3.19.17-4.78.22a27.25,27.25,0,0,1-2.86,0,3.08,3.08,0,0,1-2.54-1.93,4.28,4.28,0,0,1-.48-1.35c-.41-3.16-.83-6.33-1.15-9.51-.17-1.77.47-2.52,2.24-3.17a8.5,8.5,0,0,1,3.27-.56c.8,0,1.6,0,2.4,0s1.59,0,2.39,0ZM97.15,232c-1.4.15-2.65.25-3.9.43a.9.9,0,0,0-.62.58c-.37,5.43-.1,5.33,4.49,5.17.32,0,.63,0,.95-.08a1.7,1.7,0,0,0,1.31-1.19c.26-1.24.49-2.48.7-3.73A1.16,1.16,0,0,0,98.91,232Z"/><path class="c" d="M90.42,189.7c0-1.43,0-2.87,0-4.3a4.19,4.19,0,0,1,.54-1.79c.2-.36.81-.84,1.07-.76,2.49.82,5,.48,7.58.52,1.27,0,2.55.11,3.81.25A3.19,3.19,0,0,1,106,186.1a15.17,15.17,0,0,1,.21,4.75c-.14,1.43-.19,2.86-.33,4.28a4.23,4.23,0,0,0,1.16,3.49,2.64,2.64,0,0,1,.54,2.67,1.86,1.86,0,0,1-1.35,1.21,3.73,3.73,0,0,1-.47,0,42.62,42.62,0,0,0-10.93-.58,2.56,2.56,0,0,1-2.68-1.58,15.24,15.24,0,0,1-1.9-8.26c.07-.79,0-1.6,0-2.39Zm11.27,3.09h-.07v-3.33a1.42,1.42,0,0,0-.91-1,12.83,12.83,0,0,0-5.16.3,1.16,1.16,0,0,0-.69.61,12.49,12.49,0,0,0-.45,6.07,1,1,0,0,0,.57.68,13,13,0,0,0,6.07.61.9.9,0,0,0,.61-.64C101.72,195,101.69,193.9,101.69,192.79Z"/><path class="c" d="M126.88,215.37c0,1.44,0,2.88,0,4.32a3.12,3.12,0,0,1-1.67,2.71,6.66,6.66,0,0,1-4,1.18c-2.06-.13-4.14.14-6.21.21a2.11,2.11,0,0,1-2-1.09,29.72,29.72,0,0,1-1.94-4.36,4.79,4.79,0,0,1,0-2.35,12.14,12.14,0,0,0,0-5.23,2.62,2.62,0,0,1,1-2.95c.51-.38.92-.9,1.45-1.24a2.36,2.36,0,0,1,1.32-.45c2.54.18,5.08.41,7.62.66,2.75.27,4.1,1.85,4.48,4.76a30.58,30.58,0,0,1,0,3.83ZM118,218.14c4.61.13,4.49-.07,4.48-3.9a4,4,0,0,0-.15-1.39c-.16-.41-.47-1-.82-1a12.59,12.59,0,0,0-5.15-.21,1,1,0,0,0-.68.57,13.72,13.72,0,0,0,0,5.15,1,1,0,0,0,.62.65A14.07,14.07,0,0,0,118,218.14Z"/><path class="c" d="M112.37,190.36c-.12-1.27-.32-2.54-.32-3.81a5.09,5.09,0,0,1,.6-1.77,1.33,1.33,0,0,1,1.5-.92,34.26,34.26,0,0,0,8.07.78,17.64,17.64,0,0,1,1.91.19c2.73.33,3.84,1.55,4,4.41,0,.16,0,.32,0,.48.11,2.38.22,4.77.31,7.16a4.33,4.33,0,0,1-1,3.1c-.53.6-1.1,1.15-1.58,1.78a2.57,2.57,0,0,1-2.45,1.13c-1.74-.13-3.5-.15-5.25-.22a11.41,11.41,0,0,1-1.43-.07,4.26,4.26,0,0,1-3.75-3.21,21.33,21.33,0,0,1-.8-5.67c0-1.12,0-2.24,0-3.35Zm4.1,3.12c0,1,0,1.47,0,1.94a1.5,1.5,0,0,0,1.39,1.59l5.63.54a1,1,0,0,0,1.09-1.18c-.12-1.41-.26-2.82-.39-4.23-.18-2-.42-2.45-2.59-2.52-.94,0-1.89,0-2.83,0-1.4.08-2.07.69-2.18,2C116.52,192.43,116.48,193.22,116.47,193.48Z"/><path class="c" d="M140.38,201.88h-5.22a1.61,1.61,0,0,1-1.46-1,7,7,0,0,1-.89-3.66,12.43,12.43,0,0,1,.19-2.37,26.89,26.89,0,0,0,.54-8,1.91,1.91,0,0,1,1.35-1.75,6.17,6.17,0,0,1,1.4-.26c3,0,6,0,9.05,0a7.61,7.61,0,0,1,.95.08,3.42,3.42,0,0,1,2.88,2.78,23.14,23.14,0,0,1,.22,3.32c0,2.07-.17,4.13-.16,6.2a5.26,5.26,0,0,1-1.55,3.85,2.76,2.76,0,0,1-2.06,1c-1.75,0-3.49,0-5.24,0Zm4.82-7.74c0-1.57,0-2.37,0-3.16a1.42,1.42,0,0,0-1.49-1.49,14.22,14.22,0,0,0-4.72.61,1.61,1.61,0,0,0-1.18,1.35c-.14,1.27-.25,2.54-.3,3.81a1,1,0,0,0,.5.76,11.42,11.42,0,0,0,6.09.64,1.44,1.44,0,0,0,.9-.93A6.7,6.7,0,0,0,145.2,194.14Z"/><path class="c" d="M126.35,238c0,1.28.06,2.56,0,3.83a3.86,3.86,0,0,1-.54,1.8,4.59,4.59,0,0,1-1.41,1.2,1.87,1.87,0,0,1-.93.16,30.33,30.33,0,0,0-7.1.87,8.47,8.47,0,0,1-1.43.17,3,3,0,0,1-3.07-1.82,14.9,14.9,0,0,1-1.2-5.58,21.42,21.42,0,0,0,.1-4.3c-.39-2.19.86-3.61,1.89-5.17a2,2,0,0,1,1.64-.85c2.39-.14,4.78-.27,7.17-.35a2.26,2.26,0,0,1,1.37.3,7.56,7.56,0,0,1,3.51,5.44A41.11,41.11,0,0,1,126.35,238Zm-4.46-2.31a8.11,8.11,0,0,0-.18-1.43,1,1,0,0,0-.66-.6,8,8,0,0,0-4.66.27,1.53,1.53,0,0,0-.84,1c-.23,1.24-.31,2.51-.43,3.78a1.31,1.31,0,0,0,1.38,1.51c1.42-.1,2.84-.25,4.25-.4a1.53,1.53,0,0,0,1.14-1.36C121.91,237.89,121.89,237.26,121.89,235.71Z"/><path class="c" d="M68.59,190.33c0-1.24-.06-2.68,0-4.11a2.18,2.18,0,0,1,2-2.27,40.36,40.36,0,0,1,11.92,0,3.55,3.55,0,0,1,2.8,3.42,9.86,9.86,0,0,1,0,1.44,31.93,31.93,0,0,0-.28,9,3.17,3.17,0,0,1-.15.94,1.88,1.88,0,0,1-1.25,1.3,11.35,11.35,0,0,1-1.42.13,48.83,48.83,0,0,0-7.64.37,8.49,8.49,0,0,1-1.43,0A3.26,3.26,0,0,1,70,198.82c-1-2-1.93-4-1.55-6.38A20.55,20.55,0,0,0,68.59,190.33Zm8.84,5.46c.34,0,1.44-.14,2.52-.33a1,1,0,0,0,.66-.62,15.89,15.89,0,0,0,.16-5.67.91.91,0,0,0-.68-.58c-1.74,0-3.48,0-5.21.12a1.51,1.51,0,0,0-1.37,1.18c-.32,1.38-.53,2.8-.72,4.21a1.52,1.52,0,0,0,1.49,1.53C75.07,195.69,75.86,195.72,77.43,195.79Z"/><path class="c" d="M76.25,206.53c1.59-.16,3.17-.35,4.76-.47a3.56,3.56,0,0,1,3.7,2.43c.58,1.8,1.37,3.58,1,5.58a7.32,7.32,0,0,0-.09,2.38c.37,2.94-1.45,4.35-3.67,5.52a2,2,0,0,1-.9.28c-2.71.05-5.41.09-8.12.1a7,7,0,0,1-1.41-.25,2.9,2.9,0,0,1-1.89-1.36,6.42,6.42,0,0,1-1-2.16,25.15,25.15,0,0,1-.24-9,7.33,7.33,0,0,1,.65-1.78,1.83,1.83,0,0,1,1.47-1.09c1.9-.12,3.82-.17,5.72-.26Zm.52,10.82c1-.08,2.11-.13,3.2-.27a1,1,0,0,0,.72-.53,7.57,7.57,0,0,0-.1-4.59c0-.14-.19-.33-.31-.34a15.2,15.2,0,0,0-6.08.29,2,2,0,0,0-1.49,1.68,12.16,12.16,0,0,0-.07,2.34,1.46,1.46,0,0,0,1.21,1.26Z"/><path class="c" d="M138,206.71c1.75.06,3.5.08,5.24.19a3.77,3.77,0,0,1,3.6,3.24,8.57,8.57,0,0,1,.13,3.3,37,37,0,0,0-.76,7.57,2.49,2.49,0,0,1-.09.46,2,2,0,0,1-1.63,1.52c-2.86,0-5.71-.11-8.57-.16a5.55,5.55,0,0,1-2.55-1.16,4.74,4.74,0,0,1-2.52-4.3c-.09-2.06-.18-4.13-.17-6.19a14.22,14.22,0,0,1,.41-2.81,2.05,2.05,0,0,1,1.67-1.5c1.74,0,3.49,0,5.24,0Zm.41,10.65c.91-.05,1.7,0,2.47-.14a1.06,1.06,0,0,0,.7-.53,12.06,12.06,0,0,0,.6-2.27c.25-1.82,0-2.66-2.27-2.54a28.42,28.42,0,0,0-4.18.67,1.14,1.14,0,0,0-.65.61,4.75,4.75,0,0,0,0,3.24,1,1,0,0,0,.64.63C136.61,217.2,137.56,217.27,138.38,217.36Z"/><path class="c" d="M98.33,222.94c-1.72,0-3.31,0-4.9,0a2.26,2.26,0,0,1-1.91-1.25,6.54,6.54,0,0,1-.88-2.18c-.34-2.35-.57-4.73-.84-7.09-.19-1.76.73-3,1.82-4.23a1.36,1.36,0,0,1,.79-.47c3.63-.37,7.26-.89,10.91-.36a3.55,3.55,0,0,1,3.21,3c.39,3,.92,6,.41,9a10.24,10.24,0,0,1-.42,1.84,2.27,2.27,0,0,1-1.69,1.54A30.94,30.94,0,0,1,98.33,222.94Zm.46-5.26v.07c.63,0,1.26.09,1.89.11,1.52.06,2-.38,2.06-1.85a10.25,10.25,0,0,0-.15-2.35,1.5,1.5,0,0,0-.8-1,11.39,11.39,0,0,0-6.51.43,1.23,1.23,0,0,0-.63.64c-.88,2.19,0,3.84,2.24,4C97.52,217.71,98.15,217.68,98.79,217.68Z"/><path class="b" d="M115.32,269.93v.22c1.91,0,3.82,0,5.73,0s4.12.44,6.16-.1c1.32-1.82.61-4,1-6,.2-.94.32-1.89.45-2.83s-.49-1.73-1.64-1.88c-2-.26-4.1-.59-6.15-.78-3.8-.34-7.61-.62-11.42-.87a12.68,12.68,0,0,0-5.18.58c-1.11.4-1.68.94-1.66,2,0,2.71.12,5.41.21,8.12a1.5,1.5,0,0,0,1.49,1.5Z"/><path class="c" d="M124,162.88c-4.77-.29-8.59-.57-12.42-.75-4.78-.22-9.57-.42-14.35-.53-5.75-.13-11.5-.26-17.24-.19a51.07,51.07,0,0,0-11.43.94c-2.23.54-2.41.57-2.49,2.69s-.1,4.14-.09,6.21a1.58,1.58,0,0,0,1.51,1.56c7.34.21,14.68.43,22,.61,1.6,0,3.2,0,4.79-.07,3.83-.09,7.66-.27,11.49-.29q11.73-.06,23.46,0c11.34.06,22.67.17,34,.27,1,0,1.91.12,2.87.18,2.23.14,4.45.33,6.68.41,2.81.09,3-.09,3.1-2.88.07-1.59.07-3.19.06-4.79a3.28,3.28,0,0,0-.3-1.39,1.93,1.93,0,0,0-1-1,8.16,8.16,0,0,0-2.36-.34c-5.1,0-10.2-.32-15.3-.41-3.67-.06-7.35.06-11,.16C138.39,163.53,130.73,163.15,124,162.88Z"/><path class="c" d="M240.59,299.11c-10.89,2-19.51,3.7-28.17,5.23-5.35.94-10.73,1.67-16.11,2.43a16.29,16.29,0,0,1-10.21-1.66,184.19,184.19,0,0,1-19.4-11.45c-4.34-3-8.64-6.05-13.24-8.65a3.1,3.1,0,0,1-1.7-3.16,31.24,31.24,0,0,1,.65-4.74,94.72,94.72,0,0,1,5.32-16.9c.58-1.31,1-2.7,1.53-4a23.51,23.51,0,0,1,8.47-10.77,16.17,16.17,0,0,1,3.3-1.93,51,51,0,0,1,9.64-2.82A118.81,118.81,0,0,1,195,239.59a108.44,108.44,0,0,0,13.82-1.44c3.46-.57,7-1,10.45-1.41,10.33-1.06,20.66-2.11,31-3.06,6.84-.62,13.7-1.11,20.55-1.54,2.87-.17,5.75-.1,8.63,0a22,22,0,0,1,7,1.42,12.74,12.74,0,0,1,7.31,6.53,18,18,0,0,1,1.55,4.53,53.2,53.2,0,0,1,1.1,9.51c.05,4.16.3,8.31.47,12.46.26,6.39.54,12.77.78,19.15.05,1.28,0,2.56,0,3.84a2.43,2.43,0,0,1-2.29,2.58c-3.82.34-7.65.63-11.47,1-3,.27-6,.54-9.06.88-2.7.31-5.38.76-8.08,1.07A261.24,261.24,0,0,0,240.59,299.11Zm3.32-4.17c11.47-2,21.78-3.22,32.08-4.47,4.91-.6,9.82-1.23,14.73-1.85.47-.06.95-.15,1.42-.23a1.42,1.42,0,0,0,1.21-1.27c.09-1.28.21-2.55.2-3.83,0-3.67-.14-7.34-.15-11,0-7.83-.25-15.65-1-23.45a19.22,19.22,0,0,0-1.92-6.88,9.32,9.32,0,0,0-6.14-4.94,29.77,29.77,0,0,0-6.64-.8c-1.44-.06-2.87-.11-4.31-.08-2.87.06-5.75.07-8.61.3-4.45.38-8.89.94-13.33,1.39-9.53,1-19.07,1.91-28.59,2.92-2.38.25-4.76.43-7.15.57a34.52,34.52,0,0,0-7.1,1c-4.68,1.28-9.48,1.24-14.24,1.61-2.06.16-4.14.21-6.2.38-.59,0-1.45.18-1.67.56-.38.65.42,1.07.87,1.48a29.91,29.91,0,0,1,4.14,4.63,34.24,34.24,0,0,1,6.08,16.93,110.85,110.85,0,0,1,0,18.67c-.32,4.78-.57,9.56-.83,14.34-.07,1.37.6,1.92,2.11,1.78.95-.09,1.9-.2,2.85-.34,3.79-.58,7.58-1.12,11.36-1.79C223.79,298.64,234.47,296.66,243.91,294.94Zm-51.29-29.43c-.69-2.41-1.27-4.57-1.91-6.71a25.94,25.94,0,0,0-4.36-7.93,12.66,12.66,0,0,0-4.47-3.53,8,8,0,0,0-6.93-.42,16.45,16.45,0,0,0-4.58,2.54,20.13,20.13,0,0,0-6,7.94,152.66,152.66,0,0,0-7,20.87,17,17,0,0,0-.43,2.35,1.72,1.72,0,0,0,.75,1.66c1.18.81,2.4,1.56,3.62,2.31.44.27,1.07.07,1.14-.35.55-3.46,1.1-6.93,1.63-10.39s1-6.63,1.52-9.93c.27-1.65,1.41-2.26,3.19-2,4.78.65,9.23,2.45,13.74,4,1.6.55,2.16,1.58,2,3.37-.22,2.22-.42,4.45-.76,6.66-.9,5.84-1.36,11.73-1.88,17.62a23.4,23.4,0,0,0,0,3.35,2,2,0,0,0,.95,1.57,36,36,0,0,0,7.28,3.6,1,1,0,0,0,1.3-.94c.29-4.62.59-9.24.86-13.86.23-4,.54-8,.63-12C192.91,272,192.7,268.62,192.62,265.51Zm-17,28.31c.22-.22.58-.4.63-.64a30.13,30.13,0,0,0,.69-3.75q.74-8.07,2-16.08a19.37,19.37,0,0,0,.15-2.85,2,2,0,0,0-1.46-2.19c-1.66-.51-3.36-.93-5-1.39-2.34-.63-3-.55-3.53,2.26-.14.78-.3,1.56-.43,2.34-.82,5.18-1.08,10.44-2.31,15.55a1.48,1.48,0,0,0,.51,1.24c2.6,1.83,5.24,3.6,7.89,5.36A2.54,2.54,0,0,0,175.59,293.82Z"/><path class="a" d="M243.91,294.94c-9.44,1.72-20.12,3.7-30.8,5.62-3.78.67-7.57,1.21-11.36,1.79-.95.14-1.9.25-2.85.34-1.51.14-2.18-.41-2.11-1.78.26-4.78.51-9.56.83-14.34a110.85,110.85,0,0,0,0-18.67A34.24,34.24,0,0,0,191.52,251a29.91,29.91,0,0,0-4.14-4.63c-.45-.41-1.25-.83-.87-1.48.22-.38,1.08-.51,1.67-.56,2.06-.17,4.14-.22,6.2-.38,4.76-.37,9.56-.33,14.24-1.61a34.52,34.52,0,0,1,7.1-1c2.39-.14,4.77-.32,7.15-.57,9.52-1,19.06-1.94,28.59-2.92,4.44-.45,8.88-1,13.33-1.39,2.86-.23,5.74-.24,8.61-.3,1.44,0,2.87,0,4.31.08a29.77,29.77,0,0,1,6.64.8,9.32,9.32,0,0,1,6.14,4.94,19.22,19.22,0,0,1,1.92,6.88c.74,7.8,1,15.62,1,23.45,0,3.67.13,7.34.15,11,0,1.28-.11,2.55-.2,3.83a1.42,1.42,0,0,1-1.21,1.27c-.47.08-.95.17-1.42.23-4.91.62-9.82,1.25-14.73,1.85C265.69,291.72,255.38,292.93,243.91,294.94Z"/><path class="c" d="M192.62,265.51c.08,3.11.29,6.47.23,9.81-.09,4-.4,8-.63,12-.27,4.62-.57,9.24-.86,13.86a1,1,0,0,1-1.3.94,36,36,0,0,1-7.28-3.6,2,2,0,0,1-.95-1.57,23.4,23.4,0,0,1,0-3.35c.52-5.89,1-11.78,1.88-17.62.34-2.21.54-4.44.76-6.66.17-1.79-.39-2.82-2-3.37-4.51-1.57-9-3.37-13.74-4-1.78-.23-2.92.38-3.19,2-.55,3.3-1,6.62-1.52,9.93s-1.08,6.93-1.63,10.39c-.07.42-.7.62-1.14.35-1.22-.75-2.44-1.5-3.62-2.31a1.72,1.72,0,0,1-.75-1.66,17,17,0,0,1,.43-2.35,152.66,152.66,0,0,1,7-20.87,20.13,20.13,0,0,1,6-7.94,16.45,16.45,0,0,1,4.58-2.54,8,8,0,0,1,6.93.42,12.66,12.66,0,0,1,4.47,3.53,25.94,25.94,0,0,1,4.36,7.93C191.35,260.94,191.93,263.1,192.62,265.51Z"/><path class="b" d="M175.59,293.82c.22-.22.58-.4.63-.64a30.13,30.13,0,0,0,.69-3.75q.74-8.07,2-16.08a19.37,19.37,0,0,0,.15-2.85,2,2,0,0,0-1.46-2.19c-1.66-.51-3.36-.93-5-1.39-2.34-.63-3-.55-3.53,2.26-.14.78-.3,1.56-.43,2.34-.82,5.18-1.08,10.44-2.31,15.55a1.48,1.48,0,0,0,.51,1.24c2.6,1.83,5.24,3.6,7.89,5.36A2.54,2.54,0,0,0,175.59,293.82Z"/><path class="b" d="M352.73,299v-.25c4.32,0,8.63,0,12.95,0,1.59,0,3.19-.06,4.79-.12a1.57,1.57,0,0,0,1.51-1.53c.55-6.86,1.11-13.71,1.61-20.56.39-5.27.66-10.54,1-15.8.79-11.64,1.62-23.28,3-34.88.58-4.91,1.13-9.84,1.86-14.74,1-6.32,1.91-12.64,2.57-19,.35-3.49.84-7,1.06-10.49.29-4.47.34-8.95.55-13.42A147,147,0,0,1,385,152a12.35,12.35,0,0,0,0-2.85,1,1,0,0,0-.57-.66,3.62,3.62,0,0,0-1.38-.28,101.22,101.22,0,0,1-12.9-.82c-2.21-.28-4.47-.2-6.7-.26a34,34,0,0,1-5.26-.15,63.31,63.31,0,0,0-7.64-.64c-4-.23-8-.2-12-.73a23.36,23.36,0,0,0-3.35-.09c-3.83,0-7.66-.27-11.48.33a21.26,21.26,0,0,1-2.88,0l-10.06.13c-3,0-6.09.29-9.1.07-2.2-.16-4.08.6-6,1.2a1,1,0,0,0-.58.71c-.87,5.52-1.92,11-2.11,16.63,0,.16,0,.32,0,.48a1.11,1.11,0,0,0,1.23,1.11,16.47,16.47,0,0,1,3.79-.41c5,.59,6.29,1.8,5.88,6.68-.23,2.71-.62,5.4-.86,8.1-.16,1.91-.17,3.83-.26,5.74,0,.64-.1,1.27-.17,1.9a1.64,1.64,0,0,1-1.26,1.27c-1.11,0-2.23.08-3.33,0a26.23,26.23,0,0,0-5.74,0c-.77.12-1.25.5-1.32,1.12a89.42,89.42,0,0,0-.61,13.39c.05,1.14.61,1.68,1.82,1.67s2.56-.12,3.84-.13a31,31,0,0,1,3.34.08,3.45,3.45,0,0,1,3,3.7c-.26,2.86-.56,5.72-.79,8.59-.12,1.43-.13,2.87-.17,4.31a3.66,3.66,0,0,1-1.06,2.58c-2,2.09-2,2.11-4.95,2.25-1,.05-1.92,0-2.87.14-5.15.68-4.65.42-5.29,5a82.2,82.2,0,0,0-1.07,9.53c0,1.73.52,2.37,2.14,2.44s3.52.06,5.27.21a9.4,9.4,0,0,1,2.75.73,2.3,2.3,0,0,1,1.57,2.2c-.05,3.52-.08,7-.2,10.55-.07,2.24-.34,4.46-.46,6.7a4.54,4.54,0,0,1-4.56,4.56c-2.4,0-4.79.14-7.19.23a1.78,1.78,0,0,0-1.75,1.34,42,42,0,0,0-1.24,9.48,92.12,92.12,0,0,1-.41,11c-.21,1.91-.2,3.83-.25,5.75a1.64,1.64,0,0,0,1.39,1.67c1,.1,1.9.2,2.86.24,9.27.39,18.54.31,27.81.07.31,0,.63-.07.94-.11a1.48,1.48,0,0,0,1.2-1.28c.1-2.56.25-5.11.24-7.67a43.89,43.89,0,0,1,.73-8.1,10.47,10.47,0,0,1,.56-1.83,1.68,1.68,0,0,1,1.39-1.17c4.47-.17,8.94-.62,13.41-.17a6.68,6.68,0,0,1,2.23.78,2.23,2.23,0,0,1,1.16,2,5.76,5.76,0,0,1-.18,1.42c-.39,2.2-.91,4.39-1.17,6.6a52.88,52.88,0,0,1-.93,6.63,6,6,0,0,0,.07,1.89,1.06,1.06,0,0,0,.94.94,12.61,12.61,0,0,0,2.38.2Z"/><path class="c" d="M331.13,130.7c10.07.25,20.13.49,30.19.79,2.71.08,5.41.38,8.12.55,1.59.1,3.19.11,4.79.18,1.91.1,3.82.26,5.74.31a9.6,9.6,0,0,1,5.06,1.18,3.93,3.93,0,0,0,1.35.46c1.1.19,2.28.17,3,1.25a5,5,0,0,1,.41,2.8c0,1.28.07,2.55.11,3.83a43.19,43.19,0,0,1-.69,9.06,100.61,100.61,0,0,0-1.66,15.7q-.3,12.47-1.52,24.88c-.72,7.33-1.87,14.58-2.84,21.87-1.34,10-2.59,20-3.24,30-.6,9.09-1.27,18.18-1.93,27.26-.36,4.94-.84,9.88-1.16,14.82-.25,3.83-.35,7.66-.48,11.49a1.44,1.44,0,0,0,1.3,1.69c1.79.3,3.17,1.43,4.73,2.19.26.12.42.47.6.72a1.4,1.4,0,0,1-.4,1.68,10.56,10.56,0,0,1-5.56,1c-3.51-.17-7-.4-10.52-.44s-6.71.11-10.06.19c-.8,0-1.6.13-2.39.14q-11.51.09-23,.16l-13.4,0a6.24,6.24,0,0,1-1.43,0c-2.83-.68-5.72-.12-8.57-.48A25.4,25.4,0,0,0,300,304a7.68,7.68,0,0,1-1.9-.12,34.79,34.79,0,0,0-8.59.24,58.74,58.74,0,0,1-11.93.31,6.85,6.85,0,0,1-3.18-.95,2.52,2.52,0,0,1-1.52-2.25,2.24,2.24,0,0,1,1.32-1.86c.41-.24.85-.62,1.27-.62,1.94,0,2.37-1.13,2.45-2.79q.49-10.53,1.11-21.06c.1-1.92.27-3.83.49-5.73a31.36,31.36,0,0,0,.16-8.6,3.78,3.78,0,0,1,.4-2.3,4,4,0,0,1,3.32-2.42c2.7-.3,5.41-.49,8.11-.75a4.89,4.89,0,0,0,1.37-.32,1.1,1.1,0,0,0,.62-.67c.15-1.26.24-2.54.29-3.81s-.59-2-2-2.1c-1.59-.08-3.19-.07-4.79-.15a12.4,12.4,0,0,1-2.36-.31,2.7,2.7,0,0,1-1.83-1.44,9.07,9.07,0,0,1-1.16-4.11c.09-2.08-.06-4.17.16-6.23.48-4.46.62-8.93.84-13.39a26,26,0,0,1,.78-5.69,2.28,2.28,0,0,1,2-1.78c1.73-.24,3.48-.35,5.23-.54s3.8-.44,5.69-.73a1.59,1.59,0,0,0,1.23-1.32,6,6,0,0,0,.13-.95c.13-1.32-.25-1.88-1.4-2-2.39-.18-4.78-.32-7.17-.52a8.4,8.4,0,0,1-1.86-.37,1.1,1.1,0,0,1-.68-.6c-.57-2.15-1.28-4.3-1-6.56a102.8,102.8,0,0,0,.21-10.53c.05-4,.5-8,.89-11.95a4.54,4.54,0,0,1,4.67-3.92c2.24-.05,4.47-.07,6.7-.14a1.62,1.62,0,0,0,1.51-1.57,17.33,17.33,0,0,0,.12-1.91,1.49,1.49,0,0,0-1.51-1.5,18.87,18.87,0,0,0-2.38.07c-1.27.13-2.53.4-3.8.51a3.63,3.63,0,0,1-3.73-3.55,55.27,55.27,0,0,1,.6-9.08,21.22,21.22,0,0,0,.47-3.8,72.15,72.15,0,0,1,1-9.52,52.21,52.21,0,0,0,1-8.08,11.39,11.39,0,0,1,.46-2.34,2.19,2.19,0,0,1,2-1.78c.95-.16,1.89-.32,2.84-.41,6.84-.65,13.71-.84,20.57-1.1,2.71-.1,5.42,0,8.14-.31a40.77,40.77,0,0,1,5.73.17ZM352.73,299v-.25c4.32,0,8.63,0,12.95,0,1.59,0,3.19-.06,4.79-.12a1.57,1.57,0,0,0,1.51-1.53c.55-6.86,1.11-13.71,1.61-20.56.39-5.27.66-10.54,1-15.8.79-11.64,1.62-23.28,3-34.88.58-4.91,1.13-9.84,1.86-14.74,1-6.32,1.91-12.64,2.57-19,.35-3.49.84-7,1.06-10.49.29-4.47.34-8.95.55-13.42A147,147,0,0,1,385,152a12.35,12.35,0,0,0,0-2.85,1,1,0,0,0-.57-.66,3.62,3.62,0,0,0-1.38-.28,101.22,101.22,0,0,1-12.9-.82c-2.21-.28-4.47-.2-6.7-.26a34,34,0,0,1-5.26-.15,63.31,63.31,0,0,0-7.64-.64c-4-.23-8-.2-12-.73a23.36,23.36,0,0,0-3.35-.09c-3.83,0-7.66-.27-11.48.33a21.26,21.26,0,0,1-2.88,0l-10.06.13c-3,0-6.09.29-9.1.07-2.2-.16-4.08.6-6,1.2a1,1,0,0,0-.58.71c-.87,5.52-1.92,11-2.11,16.63,0,.16,0,.32,0,.48a1.11,1.11,0,0,0,1.23,1.11,16.47,16.47,0,0,1,3.79-.41c5,.59,6.29,1.8,5.88,6.68-.23,2.71-.62,5.4-.86,8.1-.16,1.91-.17,3.83-.26,5.74,0,.64-.1,1.27-.17,1.9a1.64,1.64,0,0,1-1.26,1.27c-1.11,0-2.23.08-3.33,0a26.23,26.23,0,0,0-5.74,0c-.77.12-1.25.5-1.32,1.12a89.42,89.42,0,0,0-.61,13.39c.05,1.14.61,1.68,1.82,1.67s2.56-.12,3.84-.13a31,31,0,0,1,3.34.08,3.45,3.45,0,0,1,3,3.7c-.26,2.86-.56,5.72-.79,8.59-.12,1.43-.13,2.87-.17,4.31a3.66,3.66,0,0,1-1.06,2.58c-2,2.09-2,2.11-4.95,2.25-1,.05-1.92,0-2.87.14-5.15.68-4.65.42-5.29,5a82.2,82.2,0,0,0-1.07,9.53c0,1.73.52,2.37,2.14,2.44s3.52.06,5.27.21a9.4,9.4,0,0,1,2.75.73,2.3,2.3,0,0,1,1.57,2.2c-.05,3.52-.08,7-.2,10.55-.07,2.24-.34,4.46-.46,6.7a4.54,4.54,0,0,1-4.56,4.56c-2.4,0-4.79.14-7.19.23a1.78,1.78,0,0,0-1.75,1.34,42,42,0,0,0-1.24,9.48,92.12,92.12,0,0,1-.41,11c-.21,1.91-.2,3.83-.25,5.75a1.64,1.64,0,0,0,1.39,1.67c1,.1,1.9.2,2.86.24,9.27.39,18.54.31,27.81.07.31,0,.63-.07.94-.11a1.48,1.48,0,0,0,1.2-1.28c.1-2.56.25-5.11.24-7.67a43.89,43.89,0,0,1,.73-8.1,10.47,10.47,0,0,1,.56-1.83,1.68,1.68,0,0,1,1.39-1.17c4.47-.17,8.94-.62,13.41-.17a6.68,6.68,0,0,1,2.23.78,2.23,2.23,0,0,1,1.16,2,5.76,5.76,0,0,1-.18,1.42c-.39,2.2-.91,4.39-1.17,6.6a52.88,52.88,0,0,1-.93,6.63,6,6,0,0,0,.07,1.89,1.06,1.06,0,0,0,.94.94,12.61,12.61,0,0,0,2.38.2Zm27-154.5v-.16c1.44,0,2.88,0,4.31,0a1.12,1.12,0,0,0,1.1-1.25c-.09-1.43-.14-2.87-.37-4.28a2.43,2.43,0,0,0-1.86-2,40.86,40.86,0,0,0-9-1.13c-2.87-.13-5.75,0-8.57-.79a8.93,8.93,0,0,0-2.38-.13q-21.11,0-42.2-.07c-1.12,0-2.24,0-3.35.06-4.79,0-9.56.66-14.36.52a29.84,29.84,0,0,0-5.69.72,2.16,2.16,0,0,0-1.86,1.94c-.15,1.26-.21,2.54-.28,3.81a1.36,1.36,0,0,0,1.22,1.24c.79,0,1.59,0,2.39,0a17.81,17.81,0,0,1,3.33-.15,38.87,38.87,0,0,0,8.14.09c9.1-.5,18.21-.66,27.32-.6,4.95,0,9.91.11,14.86.42s9.88.66,14.84.68c1.91,0,3.82.28,5.73.45C375.32,144.11,377.55,144.33,379.77,144.54ZM322.84,293.48c.08,1.87.11,3.29.23,4.71a.92.92,0,0,0,.6.65c1.41.09,2.84.11,4.25.07a.9.9,0,0,0,.66-.61c.35-2.52.62-5,1-7.56.25-1.88.63-3.76.88-5.64.45-3.52-.34-3.49-3.33-3.23a9.93,9.93,0,0,0-2.26.68,1.58,1.58,0,0,0-1.12,1.4C323.39,287.27,323.1,290.59,322.84,293.48Zm-31.91-69.76v-.1c.79,0,1.59,0,2.38,0a23.47,23.47,0,0,0,2.36-.32,1.63,1.63,0,0,0,1.22-1.28c.06-.95.08-1.9.09-2.85a1.31,1.31,0,0,0-.88-1,26.83,26.83,0,0,0-8.44,1.32c-.34.09-.67.65-.79,1.06a8.42,8.42,0,0,0-.2,1.89,1.29,1.29,0,0,0,1.4,1.48C289,223.88,290,223.79,290.93,223.72Zm-1.55,35.76c-1,0-2.1.1-3.22.19a1.48,1.48,0,0,0-1.58,1.45c0,1.26,0,2.54.08,3.8a.93.93,0,0,0,.6.65,13.1,13.1,0,0,0,7.05-.41,1,1,0,0,0,.54-.71c.1-1.42.14-2.85.13-4.28a.92.92,0,0,0-.61-.66C291.42,259.44,290.46,259.48,289.38,259.48ZM295,180c-1.31.08-2.57.12-3.83.26a.93.93,0,0,0-.66.6c-.14,1.25-.19,2.5-.26,3.76,0,.35.56.89.94.9,1.11,0,2.22.08,3.33.08.94,0,1.89,0,2.84,0a1.4,1.4,0,0,0,1.24-1.21c.07-.79.15-1.58.17-2.37,0-1.51-.42-2-1.91-2Z"/><path class="c" d="M331,243.1l15.35.58a3,3,0,0,1,2.69,1.64,11.4,11.4,0,0,1,1.77,5.86c.08,3.34.44,6.69.61,10a8.48,8.48,0,0,0,.93,3.18,2,2,0,0,1-.51,2.19,3.84,3.84,0,0,1-1.15.76.92.92,0,0,1-.47,0c-7.82-.53-15.62.17-23.42.52-3.51.16-7,.24-10.53.34a12.26,12.26,0,0,1-1.91-.08,2.7,2.7,0,0,1-2.17-1.65,7.26,7.26,0,0,1-.72-3.72c.18-2.39.39-4.78.54-7.17.16-2.55.42-5.1-.31-7.62a6,6,0,0,1,.39-3.28c.27-1,.67-1.26,1.72-1.28Zm6.4,10.67v.08h6.22c.64,0,1.28,0,1.91,0a1.2,1.2,0,0,0,1.24-1.15c0-.95-.05-1.91-.15-2.85a2,2,0,0,0-1.56-1.62,100.61,100.61,0,0,0-11.9-1.09c-4.15-.12-8.25.69-12.4.48a17,17,0,0,0-3.77.6,1.1,1.1,0,0,0-.84,1,15.72,15.72,0,0,0,0,2.38,1.25,1.25,0,0,0,1.2,1.22Zm-6,9.57c4.53-.2,9-.38,13.45-.6a7.43,7.43,0,0,0,1.86-.34,1.18,1.18,0,0,0,.53-.72c.2-.74-.36-1.9-.94-2-1.11-.16-2.21-.33-3.32-.38q-11.94-.58-23.88-1.1a9.36,9.36,0,0,0-2.37.11,1.48,1.48,0,0,0-.95.91,9.26,9.26,0,0,0-.18,2.36,1.61,1.61,0,0,0,1.52,1.54C321.87,263.22,326.65,263.28,331.37,263.34Z"/><path class="c" d="M314.14,221.49a57.5,57.5,0,0,0-.67-10.67,2.6,2.6,0,0,1,1.26-2.84,2.93,2.93,0,0,1,2.62-.73,18.86,18.86,0,0,0,5.71.3,146.69,146.69,0,0,1,19.09.82c2.22.24,4.46.25,6.69.4a2.71,2.71,0,0,1,2.51,1.91,15.59,15.59,0,0,1,.92,4.17c.13,2.87,0,5.74,0,8.61a11.74,11.74,0,0,1-1.15,4.61,2,2,0,0,1-2.23,1.34,30.62,30.62,0,0,0-3.31-.31c-2.7,0-5.41.11-8.11.22-3.18.13-6.36.34-9.53.47-3.5.14-7-.1-10.48.65a4.94,4.94,0,0,1-1.43-.05,2.38,2.38,0,0,1-1.73-1.48,8.73,8.73,0,0,1-.38-3.3C314.05,224,314.1,222.43,314.14,221.49Zm17.89-4.8a86.76,86.76,0,0,1,11.94.18,8,8,0,0,0,3.76-.25,1.33,1.33,0,0,0,.65-.63,2.19,2.19,0,0,0-1.46-3c-1.1-.17-2.2-.28-3.31-.37-2.06-.16-4.14-.17-6.18-.43a83.5,83.5,0,0,0-12.84-.45c-2.06.06-4.12.27-6.16.51-.35,0-.8.58-.9,1a5.63,5.63,0,0,0,0,1.88,1.37,1.37,0,0,0,1.25,1.21C323.35,216.55,327.94,217.07,332,216.69Zm.82,5.53v-.13H322.32a28.61,28.61,0,0,0-3.34.14,1,1,0,0,0-.87,1c-.05.84.18,1.54.65,1.61a15.61,15.61,0,0,0,2.34.3c8.3.1,16.59-.13,24.87-.62a3.42,3.42,0,0,0,1.37-.38,1,1,0,0,0,.34-.79c0-.26-.3-.66-.51-.69a28.49,28.49,0,0,0-3.79-.4C339.87,222.19,336.36,222.22,332.85,222.22Z"/><path class="c" d="M337.94,190.53c-7,0-11.81,0-16.6,0-1,0-1.92,0-2.87-.12a3,3,0,0,1-2.71-2.87,23.55,23.55,0,0,1,0-3.36c.42-4.61.9-9.22,1.38-13.83a10.93,10.93,0,0,1,.51-1.84c.15-.47,1-1.16,1.45-1.09,4.77.84,9.55,0,14.33.12,4,.06,8,.06,12,0,2.4,0,4.79-.08,7.19-.17a2.8,2.8,0,0,1,2.67,1.62,8.26,8.26,0,0,1,1.29,5,13.68,13.68,0,0,0,.24,4.77,1.9,1.9,0,0,1,.14.92c-.73,2.35-.15,4.78-.5,7.15-.07.48-.08,1-.16,1.43a3.25,3.25,0,0,1-2.86,2.8,21,21,0,0,1-2.86,0ZM336.54,177v.15l13.88-.35c.48,0,1-.08,1.43-.13a1.66,1.66,0,0,0,1.23-2.19,7.63,7.63,0,0,0-.57-1.31,2.86,2.86,0,0,0-2.66-1.66c-5.9,0-11.8-.15-17.71-.2-2.07,0-4.15.07-6.22.17a21,21,0,0,0-2.84.38,1.55,1.55,0,0,0-1.32,1.21,10,10,0,0,0-.33,2.35,1.56,1.56,0,0,0,.82,1.05,4.78,4.78,0,0,0,1.84.35C328.24,176.87,332.39,176.91,336.54,177Zm-.93,10.21c3.2,0,5.27,0,7.33,0,2.38-.07,4.77-.18,7.14-.36s2.39-.38,3-2.87c.23-.92-.26-1.73-1.07-1.74-1.59,0-3.17,0-4.75.11a58.74,58.74,0,0,1-12.85,0c-4.3-.61-8.57,0-12.85-.3a.91.91,0,0,0-.46.1c-.26.16-.6.33-.72.58a3.76,3.76,0,0,0-.33,2.77,1.15,1.15,0,0,0,.55.68,6.47,6.47,0,0,0,1.83.41C327.22,186.83,332,187,335.61,187.18Z"/><path class="c" d="M360.8,179.67c.09-1.6.16-3.19.3-4.78a17.89,17.89,0,0,1,.42-2.83c1-4.1,1.21-4.24,5.49-4.34.79,0,1.59-.05,2.39,0a13.67,13.67,0,0,0,6.1-.87,5.42,5.42,0,0,1,1.39-.33,3.51,3.51,0,0,1,2.3.46,2,2,0,0,1,1.23,1.89,30.19,30.19,0,0,1-.38,3.8,27.37,27.37,0,0,0,0,10.93,6,6,0,0,1,.13,1A2.64,2.64,0,0,1,379,187a8.52,8.52,0,0,1-3.47,1.52,26.72,26.72,0,0,1-11.4,0,4.47,4.47,0,0,1-3.49-4C360.61,182.86,360.73,181.26,360.8,179.67Zm14.34-2.14h.08c0-.63,0-1.26,0-1.9s.06-1.26.07-1.9c0-1.44-.5-2-1.86-2.2a17.69,17.69,0,0,0-5.67.17,1.8,1.8,0,0,0-1.71,1.9,42.52,42.52,0,0,1-.75,8.5,5,5,0,0,0-.05.95,1.52,1.52,0,0,0,1.51,1.48l7.08-.69a1.64,1.64,0,0,0,1.47-1.56C375.27,180.69,375.2,179.11,375.14,177.53Z"/><path class="c" d="M366.24,266.25c-2.29,0-3.73.06-5.16,0a8,8,0,0,1-2.3-.54,2.19,2.19,0,0,1-1.51-1.7,28,28,0,0,1-.61-7.13c.32-3.34.66-6.67,1-10a3.65,3.65,0,0,1,1-2.12,2.38,2.38,0,0,1,2.06-1c2.22.17,4.45.39,6.67.37a11.45,11.45,0,0,1,5.41,1.64,1.81,1.81,0,0,1,1,1.57,11.77,11.77,0,0,1-.26,3.31,44.11,44.11,0,0,0-1.78,13.7,1.7,1.7,0,0,1-.16.93,2.73,2.73,0,0,1-1,1,3,3,0,0,1-1.39.25C367.92,266.42,366.65,266.28,366.24,266.25ZM361,257.4c0,3.81.3,4.09,4.1,3.82.16,0,.31-.06.47-.08a1.5,1.5,0,0,0,1.26-1.21c.39-3,.77-6,1.12-9a3.72,3.72,0,0,0-.06-1.41,1,1,0,0,0-.64-.63c-1.26-.1-2.52-.13-3.78-.14a1.4,1.4,0,0,0-1.33,1.11C361.76,252.4,361.39,254.9,361,257.4Z"/><path class="c" d="M356.43,224.9c.08-1.11.15-2.22.26-3.33q.36-3.8.75-7.59a14.17,14.17,0,0,1,.35-2.35,2.63,2.63,0,0,1,1.86-2,11,11,0,0,1,2.32-.5c1.9-.1,3.81-.11,5.72-.11a10,10,0,0,1,1.89.21c3.66.72,5.25,2.71,4.76,6.39a78.89,78.89,0,0,0-.51,11.9,6.13,6.13,0,0,1-.1.94,1.5,1.5,0,0,1-1.28,1.2,26.19,26.19,0,0,1-3.31-.25,14.56,14.56,0,0,0-7.06.26,10,10,0,0,1-3.29.23,2.58,2.58,0,0,1-2.24-2.15c-.05-.95,0-1.9,0-2.86Zm8.78-.78c.27,0,1.21-.07,2.15-.15a1.33,1.33,0,0,0,1.33-1.09c.27-2.66.54-5.32.79-8a1.18,1.18,0,0,0-1.25-1.11c-1.58.06-3.15.13-4.72.21a1.52,1.52,0,0,0-1.3,1.18c-.34,2.5-.69,5-1,7.51-.17,1.48.41,2,1.9,1.79C363.61,224.41,364.07,224.31,365.21,224.12Z"/><path class="b" d="M322.84,293.48c.08,1.87.11,3.29.23,4.71a.92.92,0,0,0,.6.65c1.41.09,2.84.11,4.25.07a.9.9,0,0,0,.66-.61c.35-2.52.62-5,1-7.56.25-1.88.63-3.76.88-5.64.45-3.52-.34-3.49-3.33-3.23a9.93,9.93,0,0,0-2.26.68,1.58,1.58,0,0,0-1.12,1.4C323.39,287.27,323.1,290.59,322.84,293.48Z"/><path class="b" d="M290.93,223.72v-.1c.79,0,1.59,0,2.38,0a23.47,23.47,0,0,0,2.36-.32,1.63,1.63,0,0,0,1.22-1.28c.06-.95.08-1.9.09-2.85a1.31,1.31,0,0,0-.88-1,26.83,26.83,0,0,0-8.44,1.32c-.34.09-.67.65-.79,1.06a8.42,8.42,0,0,0-.2,1.89,1.29,1.29,0,0,0,1.4,1.48C289,223.88,290,223.79,290.93,223.72Z"/><path class="b" d="M289.38,259.48c-1,0-2.1.1-3.22.19a1.48,1.48,0,0,0-1.58,1.45c0,1.26,0,2.54.08,3.8a.93.93,0,0,0,.6.65,13.1,13.1,0,0,0,7.05-.41,1,1,0,0,0,.54-.71c.1-1.42.14-2.85.13-4.28a.92.92,0,0,0-.61-.66C291.42,259.44,290.46,259.48,289.38,259.48Z"/><path class="b" d="M295,180c-1.31.08-2.57.12-3.83.26a.93.93,0,0,0-.66.6c-.14,1.25-.19,2.5-.26,3.76,0,.35.56.89.94.9,1.11,0,2.22.08,3.33.08.94,0,1.89,0,2.84,0a1.4,1.4,0,0,0,1.24-1.21c.07-.79.15-1.58.17-2.37,0-1.51-.42-2-1.91-2Z"/><path class="c" d="M379.77,144.54v-.16c1.44,0,2.88,0,4.31,0a1.12,1.12,0,0,0,1.1-1.25c-.09-1.43-.14-2.87-.37-4.28a2.43,2.43,0,0,0-1.86-2,40.86,40.86,0,0,0-9-1.13c-2.87-.13-5.75,0-8.57-.79a8.93,8.93,0,0,0-2.38-.13q-21.11,0-42.2-.07c-1.12,0-2.24,0-3.35.06-4.79,0-9.56.66-14.36.52a29.84,29.84,0,0,0-5.69.72,2.16,2.16,0,0,0-1.86,1.94c-.15,1.26-.21,2.54-.28,3.81a1.36,1.36,0,0,0,1.22,1.24c.79,0,1.59,0,2.39,0a17.81,17.81,0,0,1,3.33-.15,38.87,38.87,0,0,0,8.14.09c9.1-.5,18.21-.66,27.32-.6,4.95,0,9.91.11,14.86.42s9.88.66,14.84.68c1.91,0,3.82.28,5.73.45C375.32,144.11,377.55,144.33,379.77,144.54Z"/><path class="a" d="M234.54,79.28a84.27,84.27,0,0,1,1.91-10.71c1.07-4.17,2.27-8.29,3.13-12.51.56-2.71,1.17-5.41,1.86-8.09a68.29,68.29,0,0,1,2.23-7.69c.75-2,1.32-4,1.92-6A2.88,2.88,0,0,0,244.41,31a10.18,10.18,0,0,0-1-.63c-.17-.09-.33-.16-.5-.23-1.34-.49-1.87-.18-2.13,1a14,14,0,0,0-.32,1.69c-.35,3-1.06,6-1.63,9-.31,1.69-.57,3.39-.87,5.09-.11.65-.21,1.32-.38,2-1.19,4.42-2.38,8.85-3.62,13.26-1.62,5.8-3.29,11.58-4.94,17.36-.69,2.39-1.4,4.76-2.08,7.15a2.37,2.37,0,0,0,1.17,3,3.3,3.3,0,0,0,.43.19,5.9,5.9,0,0,0,.68.2,2.82,2.82,0,0,0,3-1.38,9.12,9.12,0,0,0,1-2.37A49.86,49.86,0,0,0,234.54,79.28Z"/><path class="c" d="M236.17,87.1a53.86,53.86,0,0,0,1.35-7.47,78.74,78.74,0,0,1,1.84-10.32c.31-1.22.63-2.43,1-3.65.77-2.92,1.57-5.94,2.2-9,.59-2.86,1.18-5.46,1.83-8l.28-1.12a56.19,56.19,0,0,1,1.84-6.24c.69-1.81,1.24-3.65,1.77-5.43l.23-.78a5.87,5.87,0,0,0-2.35-6.6,12.9,12.9,0,0,0-1.29-.81,5.54,5.54,0,0,0-.87-.39,4.79,4.79,0,0,0-4,.07,4.41,4.41,0,0,0-2.12,3.1l0,.12c-.12.56-.26,1.19-.34,1.88-.24,2-.64,4.05-1.07,6.18-.18.88-.36,1.75-.52,2.63-.21,1.09-.39,2.19-.57,3.25-.1.63-.2,1.25-.31,1.87l-.07.39a12.14,12.14,0,0,1-.26,1.31l-.43,1.59c-1,3.82-2.09,7.77-3.18,11.64-1.32,4.72-2.69,9.51-4,14.15l-.92,3.19c-.36,1.26-.72,2.51-1.09,3.76l-1,3.39a5.4,5.4,0,0,0,2.66,6.48,6.56,6.56,0,0,0,.76.35,7.12,7.12,0,0,0,.89.27h.06a2.45,2.45,0,0,0,.39.08,5.79,5.79,0,0,0,6-2.82A12.38,12.38,0,0,0,236.17,87.1Zm-6.93,3a5.9,5.9,0,0,1-.68-.2,3.3,3.3,0,0,1-.43-.19,2.37,2.37,0,0,1-1.17-3c.68-2.39,1.39-4.76,2.08-7.15,1.65-5.78,3.32-11.56,4.94-17.36,1.24-4.41,2.43-8.84,3.62-13.26.17-.64.27-1.31.38-2,.3-1.7.56-3.4.87-5.09.57-3,1.28-6,1.63-9a14,14,0,0,1,.32-1.69c.26-1.19.79-1.5,2.13-1,.17.07.33.14.5.23a10.18,10.18,0,0,1,1,.63,2.88,2.88,0,0,1,1.18,3.27c-.6,2-1.17,4-1.92,6A68.29,68.29,0,0,0,241.44,48c-.69,2.68-1.3,5.38-1.86,8.09-.86,4.22-2.06,8.34-3.13,12.51a84.27,84.27,0,0,0-1.91,10.71,49.86,49.86,0,0,1-1.27,7,9.12,9.12,0,0,1-1,2.37A2.82,2.82,0,0,1,229.24,90.08Z"/><path class="c" d="M241.23,60.27c-.93-1.59-1.84-3.18-2.77-4.77a1.59,1.59,0,0,0-1.5-.25c-1.35,1-2.74,1.83-4,2.84-3.68,2.86-7.91,3.76-12.43,3.6a7.3,7.3,0,0,1-5-2.1c-.26-.25-.56-.47-.84-.71-5-4.23-4-10.38-2-14a33.21,33.21,0,0,1,2.25-3.12,1.5,1.5,0,0,0-.4-2.34c-1.79-1.29-3.56-2.6-5.36-3.87-2.5-1.76-3.34-4.28-3.23-7.19a9.8,9.8,0,0,1,2-5.62,7.51,7.51,0,0,1,3.93-2.87,23.61,23.61,0,0,1,9.27-.75c1.09.11,2.17.37,3.26.47.25,0,.75-.29.77-.49.2-2,.29-4,.49-6a9.87,9.87,0,0,1,7.2-8.18,8.16,8.16,0,0,1,6.31,1.29,14.43,14.43,0,0,1,5.59,6.64c.5,1.18.87,2.42,1.34,3.61.69,1.74,1.5,1.94,2.8.73A12.81,12.81,0,0,0,250,16c3-3.6,7.13-4.27,11.43-4.45a4.61,4.61,0,0,1,2.56.83,10.7,10.7,0,0,1,5.16,8.61,19.45,19.45,0,0,1-1.35,8.62,1,1,0,0,0,.81,1.19,8.05,8.05,0,0,0,1.09.11c3.46.05,5.8,2,7.79,4.56a17.52,17.52,0,0,1,3.06,6.43,9.31,9.31,0,0,1-3.36,9.31,14.74,14.74,0,0,1-9.76,3.14,19,19,0,0,0-2.71.16.57.57,0,0,0-.57.78,18.08,18.08,0,0,0,.78,2.6,15,15,0,0,1,1.16,5.35,8.47,8.47,0,0,1-2.87,6.88,12,12,0,0,1-2.17,1.68,7.43,7.43,0,0,1-2.58.83,21.39,21.39,0,0,1-3.3,0,8,8,0,0,1-5.05-1.92A32,32,0,0,1,244,64.36c-.92-1.36-1.78-2.78-2.67-4.17ZM249.52,45a4.66,4.66,0,0,0,2.22-5.18,7.78,7.78,0,0,0-4-5,33,33,0,0,0-10.58-2.81,10.09,10.09,0,0,0-1.1,0,6.68,6.68,0,0,0-4.51,1.79,4.46,4.46,0,0,0-.86,6,9.53,9.53,0,0,0,2.25,2.36,23,23,0,0,0,6.42,3.13,18,18,0,0,0,7.07.76A7.08,7.08,0,0,0,249.52,45Zm25.77,1.19c1.31-.89,1.82-4.06.26-5.78-.85-.94-1.79-1.8-2.71-2.69a4.26,4.26,0,0,0-3-1.11c-2.77-.11-5.4.68-8.07,1.22-7.28,1.49-5.45.34-6.54,7a1.46,1.46,0,0,0,1,1.71,26.67,26.67,0,0,0,7.86,2.23,19.19,19.19,0,0,0,9.6-1.56A17.33,17.33,0,0,0,275.29,46.23ZM245.63,58.51a59.44,59.44,0,0,0,3.29,5.07,8.44,8.44,0,0,0,8.8,3.23,4.72,4.72,0,0,0,4-5.09,7.81,7.81,0,0,0-2.47-5.35,43.53,43.53,0,0,0-6.54-5,3.34,3.34,0,0,0-3.08-.6,13.71,13.71,0,0,1-4.9.52,9.92,9.92,0,0,0-1.61.18c-.37,0-.78.88-.7,1.32C242.88,55,244.38,56.71,245.63,58.51ZM231,52.92c1.33-1,2.21-1.69,3.06-2.39a1.82,1.82,0,0,0,.1-2.83c-2.19-1.65-4.37-3.31-6.58-4.93a3.14,3.14,0,0,0-2.62-.5,13.36,13.36,0,0,0-7.34,4.54,7.66,7.66,0,0,0-1.9,5,3.43,3.43,0,0,0,3.18,3.77A21,21,0,0,0,231,52.92Zm11-26.19c.17-.32.48-.64.48-1a37.74,37.74,0,0,0-.12-6,11.9,11.9,0,0,0-3.24-6.83,5.84,5.84,0,0,0-6.57-1.31,2.52,2.52,0,0,0-1.24,1,6.85,6.85,0,0,0-1,2.49,22.17,22.17,0,0,0,1.38,10.78,2.2,2.2,0,0,0,1.68,1.24c2.56,0,5.12,0,7.68-.1A4.16,4.16,0,0,0,241.94,26.73Zm16,4.93c1.14-.73,1.92-1.19,2.66-1.71a8.82,8.82,0,0,0,3.63-6.44c.5-3.74-2.41-5.42-5.22-5.49a6.85,6.85,0,0,0-4.62,1.38,22,22,0,0,0-6.55,7.88,1,1,0,0,0,.33,1.36,17.15,17.15,0,0,1,5,3.23c1.41,1.45,1.73,1.42,3.24.62Zm-31.11-4.43a7.84,7.84,0,0,0-1.68-1.39,15.43,15.43,0,0,0-10.62-1.22,6.05,6.05,0,0,0-2.84,1.57,4.14,4.14,0,0,0,.25,6.24,16.88,16.88,0,0,0,8,3.15c1.43.19,3,.52,4.24-.39.8-.6,1.17-1.77,1.73-2.68a17.38,17.38,0,0,1,1.17-1.84C227.94,29.63,227.75,28.66,226.82,27.23Z"/><path class="d" d="M249.52,45a7.08,7.08,0,0,1-3.11,1,18,18,0,0,1-7.07-.76,23,23,0,0,1-6.42-3.13,9.53,9.53,0,0,1-2.25-2.36,4.46,4.46,0,0,1,.86-6A6.68,6.68,0,0,1,236,32.06a10.09,10.09,0,0,1,1.1,0,33,33,0,0,1,10.58,2.81,7.78,7.78,0,0,1,4,5A4.66,4.66,0,0,1,249.52,45Z"/><path class="e" d="M275.29,46.23a17.33,17.33,0,0,1-1.63,1,19.19,19.19,0,0,1-9.6,1.56,26.67,26.67,0,0,1-7.86-2.23,1.46,1.46,0,0,1-1-1.71c1.09-6.68-.74-5.53,6.54-7,2.67-.54,5.3-1.33,8.07-1.22a4.26,4.26,0,0,1,3,1.11c.92.89,1.86,1.75,2.71,2.69C277.11,42.17,276.6,45.34,275.29,46.23Z"/><path class="e" d="M245.63,58.51c-1.25-1.8-2.75-3.47-3.18-5.72-.08-.44.33-1.28.7-1.32a9.92,9.92,0,0,1,1.61-.18,13.71,13.71,0,0,0,4.9-.52,3.34,3.34,0,0,1,3.08.6,43.53,43.53,0,0,1,6.54,5,7.81,7.81,0,0,1,2.47,5.35,4.72,4.72,0,0,1-4,5.09,8.44,8.44,0,0,1-8.8-3.23A59.44,59.44,0,0,1,245.63,58.51Z"/><path class="e" d="M231,52.92a21,21,0,0,1-12.1,2.67,3.43,3.43,0,0,1-3.18-3.77,7.66,7.66,0,0,1,1.9-5,13.36,13.36,0,0,1,7.34-4.54,3.14,3.14,0,0,1,2.62.5c2.21,1.62,4.39,3.28,6.58,4.93a1.82,1.82,0,0,1-.1,2.83C233.17,51.23,232.29,51.88,231,52.92Z"/><path class="e" d="M241.94,26.73a4.16,4.16,0,0,1-1,.3c-2.56.06-5.12.07-7.68.1a2.2,2.2,0,0,1-1.68-1.24,22.17,22.17,0,0,1-1.38-10.78,6.85,6.85,0,0,1,1-2.49,2.52,2.52,0,0,1,1.24-1,5.84,5.84,0,0,1,6.57,1.31,11.9,11.9,0,0,1,3.24,6.83,37.74,37.74,0,0,1,.12,6C242.42,26.09,242.11,26.41,241.94,26.73Z"/><path class="e" d="M257.93,31.66l-1.53.83c-1.51.8-1.83.83-3.24-.62a17.15,17.15,0,0,0-5-3.23,1,1,0,0,1-.33-1.36,22,22,0,0,1,6.55-7.88A6.85,6.85,0,0,1,259,18c2.81.07,5.72,1.75,5.22,5.49A8.82,8.82,0,0,1,260.59,30C259.85,30.47,259.07,30.93,257.93,31.66Z"/><path class="e" d="M226.82,27.23c.93,1.43,1.12,2.4.3,3.44A17.38,17.38,0,0,0,226,32.51c-.56.91-.93,2.08-1.73,2.68-1.21.91-2.81.58-4.24.39a16.88,16.88,0,0,1-8-3.15,4.14,4.14,0,0,1-.25-6.24,6.05,6.05,0,0,1,2.84-1.57,15.43,15.43,0,0,1,10.62,1.22A7.84,7.84,0,0,1,226.82,27.23Z"/><path class="c" d="M258.51,323.51l-2.26-1.38a.77.77,0,0,0-.7.24c-.35.71-.74,1.4-1.06,2.13a8.85,8.85,0,0,1-4.43,4.37,3.57,3.57,0,0,1-2.59.25c-.17-.05-.34-.07-.52-.11a5.31,5.31,0,0,1-4.08-5.47,16.55,16.55,0,0,1,.24-1.84.72.72,0,0,0-.71-.9l-3.15-.41a3.73,3.73,0,0,1-3-2.3,4.7,4.7,0,0,1-.44-2.84,3.6,3.6,0,0,1,1-2.11,11.39,11.39,0,0,1,3.76-2.44c.48-.21,1-.35,1.48-.56a.44.44,0,0,0,.22-.38c-.38-.89-.8-1.77-1.18-2.66a4.77,4.77,0,0,1,1.17-5.12,4,4,0,0,1,3-.9,7,7,0,0,1,3.89,1.53c.48.39.92.82,1.4,1.22.68.58,1.07.48,1.35-.33a6.61,6.61,0,0,0,.22-.76c.44-2.21,2-3.44,3.82-4.5a2.12,2.12,0,0,1,1.27-.24,5.16,5.16,0,0,1,4.16,2.46,9.43,9.43,0,0,1,1.41,4c0,.23.37.4.61.32a4.25,4.25,0,0,0,.49-.21,4.81,4.81,0,0,1,4.34.14,8.79,8.79,0,0,1,2.77,2,4.48,4.48,0,0,1,.71,4.71,7.06,7.06,0,0,1-3.41,3.57,10.75,10.75,0,0,0-1.11.69.27.27,0,0,0-.06.46,8,8,0,0,0,.92.92,7.46,7.46,0,0,1,1.72,2,4.06,4.06,0,0,1,.36,3.57,5.48,5.48,0,0,1-.53,1.21,3.7,3.7,0,0,1-.9.95,11.73,11.73,0,0,1-1.4.75,3.84,3.84,0,0,1-2.58.34,15,15,0,0,1-4-1.26c-.7-.36-1.39-.76-2.09-1.15Zm0-8.34a2.26,2.26,0,0,0-.25-2.71,3.77,3.77,0,0,0-2.84-1.19,15.87,15.87,0,0,0-5.13,1.24c-.16.07-.31.17-.47.25a3.21,3.21,0,0,0-1.49,1.79,2.15,2.15,0,0,0,1,2.73,4.7,4.7,0,0,0,1.5.48,10.7,10.7,0,0,0,3.43-.15,8.55,8.55,0,0,0,3.17-1.3A3.36,3.36,0,0,0,258.53,315.17Zm11.18-5.41a2.1,2.1,0,0,0-1.22-2.51c-.57-.2-1.17-.35-1.76-.51a2,2,0,0,0-1.52.21,16.49,16.49,0,0,0-3.14,2.37c-2.74,2.3-2.23,1.39-1.15,4.47a.68.68,0,0,0,.79.5,12.59,12.59,0,0,0,3.84-.85,9.25,9.25,0,0,0,3.71-2.87A7.07,7.07,0,0,0,269.71,309.76Zm-9.74,12a28.66,28.66,0,0,0,2.55,1.39,4.06,4.06,0,0,0,4.47-.65,2.27,2.27,0,0,0,.54-3.08,3.8,3.8,0,0,0-2.27-1.7,20.77,20.77,0,0,0-3.92-.61,1.6,1.6,0,0,0-1.44.45A6.58,6.58,0,0,1,258,318.9a4.62,4.62,0,0,0-.64.45c-.15.1-.13.55,0,.72A7.59,7.59,0,0,0,260,321.76Zm-7.49,1c.33-.75.55-1.23.75-1.72a.89.89,0,0,0-.61-1.22c-1.3-.2-2.61-.4-3.92-.58a1.55,1.55,0,0,0-1.22.39,6.38,6.38,0,0,0-2.06,3.61,3.67,3.67,0,0,0,.34,2.56,1.66,1.66,0,0,0,2.21.86A10.15,10.15,0,0,0,252.48,322.76Zm-1.36-13.61c0-.17.06-.38,0-.51a18.29,18.29,0,0,0-1.44-2.52,5.68,5.68,0,0,0-2.93-2.15,2.8,2.8,0,0,0-3.08.95,1.19,1.19,0,0,0-.3.71,3.25,3.25,0,0,0,.13,1.29,10.72,10.72,0,0,0,3.06,4.25,1,1,0,0,0,1,.14c1.08-.6,2.16-1.19,3.23-1.8A2,2,0,0,0,251.12,309.15Zm7.9-1.58c.31-.56.54-.94.73-1.33a4.26,4.26,0,0,0,.06-3.56c-.64-1.7-2.26-1.74-3.46-1.12a3.24,3.24,0,0,0-1.64,1.64,10.56,10.56,0,0,0-1,4.83.49.49,0,0,0,.45.5,8.38,8.38,0,0,1,2.86.23c.93.29,1.06.2,1.51-.48Zm-14.19,5.26a3.7,3.7,0,0,0-1-.2,7.45,7.45,0,0,0-4.78,1.92,2.91,2.91,0,0,0-.84,1.31,2,2,0,0,0,1.54,2.59,8.06,8.06,0,0,0,4.12-.52,2.68,2.68,0,0,0,1.71-1.13,4.52,4.52,0,0,0,.12-1.53,9.1,9.1,0,0,1,.07-1C245.86,313.59,245.56,313.22,244.83,312.83Z"/><path class="d" d="M258.53,315.17a3.36,3.36,0,0,1-1.08,1.14,8.55,8.55,0,0,1-3.17,1.3,10.7,10.7,0,0,1-3.43.15,4.7,4.7,0,0,1-1.5-.48,2.15,2.15,0,0,1-1-2.73,3.21,3.21,0,0,1,1.49-1.79c.16-.08.31-.18.47-.25a15.87,15.87,0,0,1,5.13-1.24,3.77,3.77,0,0,1,2.84,1.19A2.26,2.26,0,0,1,258.53,315.17Z"/><path class="c" d="M269.71,309.76a7.07,7.07,0,0,1-.45.81,9.25,9.25,0,0,1-3.71,2.87,12.59,12.59,0,0,1-3.84.85.68.68,0,0,1-.79-.5c-1.08-3.08-1.59-2.17,1.15-4.47a16.49,16.49,0,0,1,3.14-2.37,2,2,0,0,1,1.52-.21c.59.16,1.19.31,1.76.51A2.1,2.1,0,0,1,269.71,309.76Z"/><path class="c" d="M260,321.76a7.59,7.59,0,0,1-2.66-1.69c-.13-.17-.15-.62,0-.72a4.62,4.62,0,0,1,.64-.45,6.58,6.58,0,0,0,1.95-1.34,1.6,1.6,0,0,1,1.44-.45,20.77,20.77,0,0,1,3.92.61,3.8,3.8,0,0,1,2.27,1.7,2.27,2.27,0,0,1-.54,3.08,4.06,4.06,0,0,1-4.47.65A28.66,28.66,0,0,1,260,321.76Z"/><path class="c" d="M252.48,322.76a10.15,10.15,0,0,1-4.51,3.9,1.66,1.66,0,0,1-2.21-.86,3.67,3.67,0,0,1-.34-2.56,6.38,6.38,0,0,1,2.06-3.61,1.55,1.55,0,0,1,1.22-.39c1.31.18,2.62.38,3.92.58a.89.89,0,0,1,.61,1.22C253,321.53,252.81,322,252.48,322.76Z"/><path class="c" d="M251.12,309.15a2,2,0,0,1-.35.36c-1.07.61-2.15,1.2-3.23,1.8a1,1,0,0,1-1-.14,10.72,10.72,0,0,1-3.06-4.25,3.25,3.25,0,0,1-.13-1.29,1.19,1.19,0,0,1,.3-.71,2.8,2.8,0,0,1,3.08-.95,5.68,5.68,0,0,1,2.93,2.15,18.29,18.29,0,0,1,1.44,2.52C251.18,308.77,251.12,309,251.12,309.15Z"/><path class="c" d="M259,307.57l-.46.71c-.45.68-.58.77-1.51.48a8.38,8.38,0,0,0-2.86-.23.49.49,0,0,1-.45-.5,10.56,10.56,0,0,1,1-4.83,3.24,3.24,0,0,1,1.64-1.64c1.2-.62,2.82-.58,3.46,1.12a4.26,4.26,0,0,1-.06,3.56C259.56,306.63,259.33,307,259,307.57Z"/><path class="c" d="M244.83,312.83c.73.39,1,.76.92,1.39a9.1,9.1,0,0,0-.07,1,4.52,4.52,0,0,1-.12,1.53,2.68,2.68,0,0,1-1.71,1.13,8.06,8.06,0,0,1-4.12.52,2,2,0,0,1-1.54-2.59,2.91,2.91,0,0,1,.84-1.31,7.45,7.45,0,0,1,4.78-1.92A3.7,3.7,0,0,1,244.83,312.83Z"/><path class="d" d="M102.81,285.43a3.36,3.36,0,0,1,2,.51l1,.6a.25.25,0,0,0,.31-.12c.09-.29.19-.58.27-.87a6.76,6.76,0,0,1,.72-1.68,3.19,3.19,0,0,1,4.65-1,4,4,0,0,1,1.82,3l.06.65a.27.27,0,0,0,.31.16l1.34-.82a3,3,0,0,1,1.74-.43,2.75,2.75,0,0,1,2.63,1.82,7.32,7.32,0,0,1,.33,1.4,1.76,1.76,0,0,1-.12.9,7.69,7.69,0,0,1-1.06,1.95l-.6.85a.25.25,0,0,0,.14.31l1,.24a4,4,0,0,1,2.61,2,3.44,3.44,0,0,1,.37,2.29,1.06,1.06,0,0,1-.19.48,3.54,3.54,0,0,1-1.38,1.36,6.1,6.1,0,0,1-3.93.64l-.39-.07c-1.32-.21-1.31-.21-1.37-.08a3.49,3.49,0,0,0-.19,1.28,6.58,6.58,0,0,1-1,2.83,2.63,2.63,0,0,1-1.36,1.18,9.09,9.09,0,0,1-1.24.43,2.37,2.37,0,0,1-2.9-1.41,5.19,5.19,0,0,1-.37-1.78c-.05-.61-.07-1.22-.11-1.83,0,0-.11-.12-.19-.14a.44.44,0,0,0-.25,0,2.86,2.86,0,0,0-.47.22,8.54,8.54,0,0,1-4,1.19,3.63,3.63,0,0,1-3.24-1.37,1.74,1.74,0,0,1-.36-1.48,5.6,5.6,0,0,1,2.41-3.61c.54-.37,1.1-.71,1.65-1.06a.24.24,0,0,0,0-.33l-.84-.63a4.63,4.63,0,0,1-1.49-1.79,8.56,8.56,0,0,1-.82-2.75,3.51,3.51,0,0,1,.18-1.67,2,2,0,0,1,1.85-1.43A3.34,3.34,0,0,1,102.81,285.43Zm-.55,14.9,1.4-.19a9.29,9.29,0,0,0,3.45-1.48,1.8,1.8,0,0,0,.37-.36c.37-.43.72-.87,1.07-1.32a.32.32,0,0,0,0-.46l-1.07-.95a8.81,8.81,0,0,0-1.18-1c-.6,0-1,.38-1.56.58a9.3,9.3,0,0,0-2.13,1.25,3.71,3.71,0,0,0-1.46,2.25,2.24,2.24,0,0,0,0,1,.65.65,0,0,0,.5.55A6,6,0,0,0,102.26,300.33Zm9.89-13.55c0-.45.07-.71.07-1a6.48,6.48,0,0,0-.07-.77,1,1,0,0,0-.29-.58,2.25,2.25,0,0,0-2.63-.51,2.68,2.68,0,0,0-1.21,1.32,6,6,0,0,0-.41,2.55,2.39,2.39,0,0,0,.66,1.66c.15.16.3.32.43.49a.77.77,0,0,0,.56.29l1.16.18c.6.09.68,0,1-.44a5.73,5.73,0,0,0,.52-1.34A7.59,7.59,0,0,0,112.15,286.78Zm-4.56,3.77a29.86,29.86,0,0,0-1.8-2.39l-.17-.19a3.72,3.72,0,0,0-1.9-1.09,3.86,3.86,0,0,0-.9-.05,1,1,0,0,0-.77.44,1.82,1.82,0,0,0-.26,1.73,5.12,5.12,0,0,1,.29.86,6.48,6.48,0,0,0,.67,1.69,1.77,1.77,0,0,0,1.07.9,5.78,5.78,0,0,0,1.65.35c.55,0,.62,0,.8-.45a4,4,0,0,1,1-1.48C107.4,290.78,107.48,290.67,107.59,290.55Zm9.59-3.71a2.77,2.77,0,0,0-1.34.36,7.5,7.5,0,0,0-3.2,3.84.59.59,0,0,0,.14.71l1.3,1.28c.33.33.4.34.77.08a14.27,14.27,0,0,0,2.63-2.34,5.86,5.86,0,0,0,1.1-1.76,2.44,2.44,0,0,0,.15-.76,1.25,1.25,0,0,0-1.13-1.36Zm.23,11.56a11,11,0,0,0,1.17-.09,3.25,3.25,0,0,0,2.2-1.27,1.55,1.55,0,0,0-.09-2,1.78,1.78,0,0,0-.87-.54,11.27,11.27,0,0,0-1.28-.29,3.66,3.66,0,0,0-2,.22c-.4.17-.81.32-1.21.5a.5.5,0,0,0-.25.27,4.85,4.85,0,0,1-1,2.1.16.16,0,0,0,0,.23,3.18,3.18,0,0,0,1.89.8Zm-7.93,2.92c0,.57.06,1.13.1,1.69a1.76,1.76,0,0,0,.06.39.69.69,0,0,0,.74.59,2.85,2.85,0,0,0,2.46-1.46,4.4,4.4,0,0,0,.63-2.36,3.52,3.52,0,0,0-.48-1.73,1.16,1.16,0,0,0-1.12-.71,4.13,4.13,0,0,1-.77-.13,4.66,4.66,0,0,0-.64-.08.43.43,0,0,0-.43.24,2.18,2.18,0,0,0-.25.59A13.49,13.49,0,0,0,109.48,301.32Zm2.23-4.93.91-.15a1.47,1.47,0,0,0,.85-2.35l-.08-.1a7.11,7.11,0,0,0-3-2A1.48,1.48,0,0,0,109,292c-.36.25-.72.48-1.08.74a.69.69,0,0,0-.23.3c-.32.72-.34.88.17,1.41a6.1,6.1,0,0,0,3.1,1.82Z"/><path class="d" d="M102.26,300.33a6,6,0,0,1-.66-.12.65.65,0,0,1-.5-.55,2.24,2.24,0,0,1,0-1,3.71,3.71,0,0,1,1.46-2.25,9.3,9.3,0,0,1,2.13-1.25c.52-.2,1-.61,1.56-.58a8.81,8.81,0,0,1,1.18,1l1.07.95a.32.32,0,0,1,0,.46c-.35.45-.7.89-1.07,1.32a1.8,1.8,0,0,1-.37.36,9.29,9.29,0,0,1-3.45,1.48Z"/><path class="d" d="M112.15,286.78a7.59,7.59,0,0,1-.26,1.87,5.73,5.73,0,0,1-.52,1.34c-.27.48-.35.53-1,.44l-1.16-.18a.77.77,0,0,1-.56-.29c-.13-.17-.28-.33-.43-.49a2.39,2.39,0,0,1-.66-1.66,6,6,0,0,1,.41-2.55,2.68,2.68,0,0,1,1.21-1.32,2.25,2.25,0,0,1,2.63.51,1,1,0,0,1,.29.58,6.48,6.48,0,0,1,.07.77C112.22,286.07,112.18,286.33,112.15,286.78Z"/><path class="d" d="M107.59,290.55c-.11.12-.19.23-.29.32a4,4,0,0,0-1,1.48c-.18.47-.25.46-.8.45a5.78,5.78,0,0,1-1.65-.35,1.77,1.77,0,0,1-1.07-.9,6.48,6.48,0,0,1-.67-1.69,5.12,5.12,0,0,0-.29-.86,1.82,1.82,0,0,1,.26-1.73,1,1,0,0,1,.77-.44,3.86,3.86,0,0,1,.9.05,3.72,3.72,0,0,1,1.9,1.09l.17.19A29.86,29.86,0,0,1,107.59,290.55Z"/><path class="d" d="M117.18,286.84l.42.05a1.25,1.25,0,0,1,1.13,1.36,2.44,2.44,0,0,1-.15.76,5.86,5.86,0,0,1-1.1,1.76,14.27,14.27,0,0,1-2.63,2.34c-.37.26-.44.25-.77-.08l-1.3-1.28a.59.59,0,0,1-.14-.71,7.5,7.5,0,0,1,3.2-3.84A2.77,2.77,0,0,1,117.18,286.84Z"/><path class="d" d="M117.41,298.4l-1.43-.1a3.18,3.18,0,0,1-1.89-.8.16.16,0,0,1,0-.23,4.85,4.85,0,0,0,1-2.1.5.5,0,0,1,.25-.27c.4-.18.81-.33,1.21-.5a3.66,3.66,0,0,1,2-.22,11.27,11.27,0,0,1,1.28.29,1.78,1.78,0,0,1,.87.54,1.55,1.55,0,0,1,.09,2,3.25,3.25,0,0,1-2.2,1.27A11,11,0,0,1,117.41,298.4Z"/><path class="d" d="M109.48,301.32a13.49,13.49,0,0,1,.3-3,2.18,2.18,0,0,1,.25-.59.43.43,0,0,1,.43-.24,4.66,4.66,0,0,1,.64.08,4.13,4.13,0,0,0,.77.13,1.16,1.16,0,0,1,1.12.71,3.52,3.52,0,0,1,.48,1.73,4.4,4.4,0,0,1-.63,2.36,2.85,2.85,0,0,1-2.46,1.46.69.69,0,0,1-.74-.59,1.76,1.76,0,0,1-.06-.39C109.54,302.45,109.51,301.89,109.48,301.32Z"/><path class="c" d="M111.71,296.39l-.77-.17a6.1,6.1,0,0,1-3.1-1.82c-.51-.53-.49-.69-.17-1.41a.69.69,0,0,1,.23-.3c.36-.26.72-.49,1.08-.74a1.48,1.48,0,0,1,1.38-.14,7.11,7.11,0,0,1,3,2l.08.1a1.47,1.47,0,0,1-.85,2.35Z"/><path class="c" d="M154.51,300.66c3.18.2,6.37.35,9.55.62A26.7,26.7,0,0,1,172,303a15.17,15.17,0,0,1,5.17,3.37,30,30,0,0,1,7.4,12.15c.44,1.37.72,2.79,1.22,4.13a19.38,19.38,0,0,1,1,6.12,6,6,0,0,1-2.07,5.14,11.17,11.17,0,0,0-2.88,4.32c-1.95,4.54-5.54,6.83-10.45,7.06-.8,0-1.6.1-2.4.09a10.12,10.12,0,0,1-9.29-5.69c-.51-1-.56-2.29-1.71-2.73a16.1,16.1,0,0,0-2.82-.41c-6-1.05-12.1-.66-18.16-.73a2.28,2.28,0,0,0-2.26,1.46c-.06.14-.15.28-.21.43-1.41,3.13-4.1,4.8-7.07,6.11a5.7,5.7,0,0,1-7-1.49,31.75,31.75,0,0,1-2.78-3.88,22.47,22.47,0,0,1-1.07-2.14,1.65,1.65,0,0,0-1.52-1c-1.12,0-2.23.09-3.35.07a3.61,3.61,0,0,1-2.57-1.11,3,3,0,0,1-1-2.58c.46-3,1-6,1.44-9a17.66,17.66,0,0,1,1.67-5,4.21,4.21,0,0,1,2.84-2.37,27.55,27.55,0,0,1,6.64-.8c1.75,0,3.51-.08,5.27,0a4.06,4.06,0,0,0,3.32-1.59c1.16-1.32,2.24-2.71,3.42-4,1.61-1.77,3.3-3.46,4.93-5.22a9.07,9.07,0,0,1,6.3-3A67.3,67.3,0,0,1,154.51,300.66Zm-30.23,18h0c-1.28,0-2.56-.06-3.83,0a19.49,19.49,0,0,0-2.82.46,2.74,2.74,0,0,0-1.85,1.4c-1.64,3-2.19,6.29-2.69,9.6,0,.24.22.6.44.79a2.17,2.17,0,0,0,2.61-.32,36.21,36.21,0,0,1,1.69-3.42c1.67-2.54,3.89-4.12,7.16-3.94a18.68,18.68,0,0,1,7.35,1.85,5.78,5.78,0,0,1,3.57,4.2,3.36,3.36,0,0,0,.53,1.31,2.07,2.07,0,0,0,1.05.86,10.45,10.45,0,0,0,2.37.2c5.75,0,11.49.14,17.22.6a2.11,2.11,0,0,0,.94-.07,2.41,2.41,0,0,0,1.13-.74c.49-.82.74-1.77,1.22-2.59a12.58,12.58,0,0,1,4.59-4.77,6.19,6.19,0,0,1,3.63-1c3.71.27,7.25,1.07,10.32,3.34a6.87,6.87,0,0,0,1.23.65c.39.17.66,0,.65-.44a14.69,14.69,0,0,0-.18-2.82c-.37-1.54-.94-3-1.4-4.57A23.48,23.48,0,0,0,173,309.16a10.36,10.36,0,0,0-5.33-3,48.05,48.05,0,0,0-6.62-1c-4-.23-8-.23-12-.31-.8,0-1.6.08-2.4.06a7.7,7.7,0,0,0-5.24,2,32.51,32.51,0,0,0-2.7,2.68c-2.18,2.34-4.3,4.72-6.48,7.05a5.76,5.76,0,0,1-4.69,2C126.52,318.56,125.4,318.62,124.28,318.62Zm47.61,9.65c-.42.05-.58,0-.74.08a9.53,9.53,0,0,0-5.45,3.58,4.26,4.26,0,0,0-.87,4c.15.45.21.93.34,1.39a3.73,3.73,0,0,0,2,2.5A17.51,17.51,0,0,0,170.3,341a3.3,3.3,0,0,0,3.42-1.17,18.09,18.09,0,0,0,1.8-2.78,3.51,3.51,0,0,0,.23-2.78,16,16,0,0,0-2.51-5.09A4.72,4.72,0,0,0,171.89,328.27Zm-41.17,3.87a4.56,4.56,0,0,0-2.74-4.58,2.83,2.83,0,0,0-3.12.24,18.86,18.86,0,0,0-2.91,2.4,4.14,4.14,0,0,0-1.08,3.94,15.44,15.44,0,0,0,2.14,4.71,2,2,0,0,0,2,.93,5.08,5.08,0,0,0,2.19-.73A8.23,8.23,0,0,0,130.72,332.14Z"/><path class="e" d="M124.28,318.62c1.12,0,2.24-.06,3.35,0a5.76,5.76,0,0,0,4.69-2c2.18-2.33,4.3-4.71,6.48-7.05a32.51,32.51,0,0,1,2.7-2.68,7.7,7.7,0,0,1,5.24-2c.8,0,1.6-.08,2.4-.06,4,.08,8,.08,12,.31a48.05,48.05,0,0,1,6.62,1,10.36,10.36,0,0,1,5.33,3,23.48,23.48,0,0,1,6.17,10.09c.46,1.53,1,3,1.4,4.57a14.69,14.69,0,0,1,.18,2.82c0,.44-.26.61-.65.44a6.87,6.87,0,0,1-1.23-.65c-3.07-2.27-6.61-3.07-10.32-3.34a6.19,6.19,0,0,0-3.63,1,12.58,12.58,0,0,0-4.59,4.77c-.48.82-.73,1.77-1.22,2.59a2.41,2.41,0,0,1-1.13.74,2.11,2.11,0,0,1-.94.07c-5.73-.46-11.47-.59-17.22-.6a10.45,10.45,0,0,1-2.37-.2,2.07,2.07,0,0,1-1.05-.86,3.36,3.36,0,0,1-.53-1.31,5.78,5.78,0,0,0-3.57-4.2,18.68,18.68,0,0,0-7.35-1.85c-3.27-.18-5.49,1.4-7.16,3.94a36.21,36.21,0,0,0-1.69,3.42,2.17,2.17,0,0,1-2.61.32c-.22-.19-.48-.55-.44-.79.5-3.31,1-6.61,2.69-9.6a2.74,2.74,0,0,1,1.85-1.4,19.49,19.49,0,0,1,2.82-.46c1.27-.08,2.55,0,3.83,0Z"/><path class="e" d="M171.89,328.27a4.72,4.72,0,0,1,1.35.91,16,16,0,0,1,2.51,5.09,3.51,3.51,0,0,1-.23,2.78,18.09,18.09,0,0,1-1.8,2.78A3.3,3.3,0,0,1,170.3,341a17.51,17.51,0,0,1-3.09-1.17,3.73,3.73,0,0,1-2-2.5c-.13-.46-.19-.94-.34-1.39a4.26,4.26,0,0,1,.87-4,9.53,9.53,0,0,1,5.45-3.58C171.31,328.31,171.47,328.32,171.89,328.27Z"/><path class="e" d="M130.72,332.14a8.23,8.23,0,0,1-3.48,6.91,5.08,5.08,0,0,1-2.19.73,2,2,0,0,1-2-.93,15.44,15.44,0,0,1-2.14-4.71A4.14,4.14,0,0,1,122,330.2a18.86,18.86,0,0,1,2.91-2.4,2.83,2.83,0,0,1,3.12-.24A4.56,4.56,0,0,1,130.72,332.14Z"/></svg>