<svg xmlns="http://www.w3.org/2000/svg" viewBox="0 0 141.73 141.73"><defs><style>.a{fill:#703c59;}.b{fill:none;}.c{fill:#6c8f6a;}</style></defs><path class="a" d="M103.34,114.39v15.19h-1.8l-87.92.07c-3,0-3.19-.14-3.19-3.16,0-4,0-8,0-12.1Z"/><path class="a" d="M105.34,127.14c0-4.43,0-8.6,0-12.77a3.64,3.64,0,0,1,.54-1.58q13.8-25.37,27.64-50.73a2.22,2.22,0,0,1,.95-1c0,1,0,2,0,3.05,0,3.77.09,7.53.08,11.29a4.17,4.17,0,0,1-.5,2q-14,24.42-28.16,48.83c-.13.23-.3.46-.58.88"/><path class="a" d="M26.57,78.31c1.08,3.36,2,6.35,3,9.29a4.21,4.21,0,0,1-.13,3.47c-.93,1.94-1.62,4-2.43,6a1.89,1.89,0,0,1-.62.7c-.5.35-1,.64-1.56.95-2.09,1.22-2.73,2.92-1.75,5.1a2.69,2.69,0,0,1,0,2.5q-1.16,2.49-2.15,5a1.49,1.49,0,0,1-1.64,1.15c-2.53-.06-5.07,0-7.88,0,5.05-11.39,10-22.6,15.16-34.18"/><path class="a" d="M36.88,58.54c.63,3.69,1.21,7,1.77,10.4a1.56,1.56,0,0,1-.13.82c-1.3,3.11-2.63,6.22-4.05,9.59-.22-.54-.38-.84-.47-1.16-.84-2.74-1.69-5.47-2.45-8.23a2.52,2.52,0,0,1,.15-1.69c1.43-2.85,2.94-5.67,4.43-8.49.17-.32.38-.62.75-1.24"/><path class="a" d="M54.14,77.4a14.34,14.34,0,0,0-1.8,8.54c.1,1.39.51,2.76.65,4.15.29,1.81-1.25,2.07-1.66.52C50.09,85.86,50,81.27,52.4,76.85c1.17-2.3,2.66-.87,1.74.55"/><path class="a" d="M58,81.46a29.49,29.49,0,0,0,4.23,11.9c.22.37.42,1.26,0,1.49a1.24,1.24,0,0,1-1.41-.45c-2.49-3.8-4.6-7.82-4.6-12.48,0-2.16,1.65-1.39,1.76-.46"/><path class="a" d="M43.94,84.6c1.06-3.33,2-6.61,3.18-9.81a6.08,6.08,0,0,1,1.66-2.59c1.34-1.19,2.44-.55,1.4,1-2.61,3.41-3,7.09-3.94,10.77-.09.31-.11.67-.19,1-.22.75-.53,1.17-1.15,1.13-.88,0-1.16-.51-1-1.4"/><path class="b" d="M66.75,107.57h0a4.15,4.15,0,0,0,.71.32c-.23-.1-.47-.2-.71-.32Z"/><path class="b" d="M61.06,103.42a3.33,3.33,0,0,0,.72.75A3.93,3.93,0,0,1,61.06,103.42Z"/><polygon class="b" points="61.13 100.61 61.13 100.61 61.13 100.61 61.13 100.61"/><path class="a" d="M73.64,99.43a6.06,6.06,0,0,0-1.94.79c-1.27.78-2.49,1.66-3.84,2.57A19.88,19.88,0,0,0,65,100.48,15.5,15.5,0,0,0,61,99a2,2,0,0,0-1.67.89c-.7,1.66-.85,3.5.5,4.9a17.5,17.5,0,0,0,8.89,5.4A4.22,4.22,0,0,0,72.87,109a14.83,14.83,0,0,0,3.87-6.3C77.4,100.31,76.08,98.91,73.64,99.43Zm-6.16,8.47a4.15,4.15,0,0,1-.71-.32h0a31.76,31.76,0,0,1-5-3.39h0a3.33,3.33,0,0,1-.72-.75c-.68-.94-.87-2.14.07-2.81h0c1.34-.64,3.72,1.56,5.85,4a.69.69,0,0,0,.11.13c.25.3.5.59.74.89l.1.12c.78,1,1.49,1.9,2.07,2.67A4.74,4.74,0,0,1,67.48,107.9Zm4.14-.18c-.69-1-1.31-1.79-1.86-2.66-.18-.29-.62-.84-.21-1,1.55-1,3.15-1.9,4.76-2.8.15-.09.86-.57.79.11C74.78,104,73.18,105.75,71.62,107.72Z"/><path class="c" d="M67.83,105.65c-.24-.3-.49-.59-.74-.89l-.11-.13c-2.13-2.46-4.51-4.66-5.85-4h0c-.94.67-.75,1.87-.07,2.81a3.93,3.93,0,0,0,.72.75h0a31.76,31.76,0,0,0,5,3.39h0c.24.12.48.22.71.32a4.74,4.74,0,0,0,2.52.54c-.58-.77-1.29-1.71-2.07-2.67Z"/><path class="c" d="M74.31,101.22c-1.61.9-3.21,1.81-4.76,2.8-.41.2,0,.75.21,1,.55.87,1.17,1.68,1.86,2.66,1.56-2,3.16-3.77,3.48-6.39C75.17,100.65,74.46,101.13,74.31,101.22Z"/><path class="a" d="M99.91,97.18a3.34,3.34,0,0,0-2.34-3.33,3.23,3.23,0,0,0-3.64,1.5,12.46,12.46,0,0,0-2.83,8.1,8,8,0,0,0-1.23-1A14.3,14.3,0,0,0,86.59,101a2.79,2.79,0,0,0-3.38,1.37,3.25,3.25,0,0,0,1,3.7c2.47,2.41,5.52,2.12,8.5,1.63a5,5,0,0,0,2.89-1.74,52.39,52.39,0,0,0,4-6.29A4.9,4.9,0,0,0,99.91,97.18Zm-13.92,8-.12-.12-.09-.08,0,0a1.86,1.86,0,0,1-.79-1.83c.34-.72,1.46-.45,1.93-.19a28.18,28.18,0,0,1,4.65,3.2C89.78,106.19,87.4,106.55,86,105.16Zm12.13-7.08c-.15,1.31-1.6,3.86-3.14,5.68a9.46,9.46,0,0,1-1.76,1.66c0-1.65-.38-3.14,0-4.42a21.17,21.17,0,0,1,2.39-4.72,1.65,1.65,0,0,1,1.14-.61.7.7,0,0,1,.25,0,.67.67,0,0,1,.25.13,2.83,2.83,0,0,1,.78,1,1.29,1.29,0,0,1,.12.53A3.35,3.35,0,0,1,98.12,98.08Z"/><path class="c" d="M98.14,97.37a1.29,1.29,0,0,0-.12-.53,2.83,2.83,0,0,0-.78-1,.67.67,0,0,0-.25-.13.7.7,0,0,0-.25,0,1.65,1.65,0,0,0-1.14.61A21.17,21.17,0,0,0,93.21,101c-.37,1.28,0,2.77,0,4.42A9.46,9.46,0,0,0,95,103.76c1.54-1.82,3-4.37,3.14-5.68A3.35,3.35,0,0,0,98.14,97.37Z"/><path class="c" d="M85,103.09a1.86,1.86,0,0,0,.79,1.83l.12.12.12.12c1.41,1.39,3.79,1,5.55.94a28.18,28.18,0,0,0-4.65-3.2C86.42,102.64,85.3,102.37,85,103.09Z"/><path class="a" d="M87.24,84a35.21,35.21,0,0,0-4.47.31c-.86.12-1.35,0-1.75-.85a13.82,13.82,0,0,0-2-3.24c-.48-.58-1.43-1.23-2-1.11a3,3,0,0,0-1.79,1.67A11.17,11.17,0,0,0,80,94.07a2.76,2.76,0,0,0,3.6-.32,34.59,34.59,0,0,0,3.84-4.1A8.93,8.93,0,0,0,89.18,86C89.18,84.67,88.46,84,87.24,84ZM81.18,92.4c-3.91-1.48-5.94-7.75-3.88-11.6l0,.06C80.1,84.43,81,88.5,82,92.64A4.76,4.76,0,0,1,81.18,92.4Zm2.47-1.19c-.51-1.76-.94-3.27-1.48-5.12L87,85.62C86.94,88.29,85.18,89.53,83.65,91.21Z"/><path class="c" d="M77.3,80.8c-2.06,3.85,0,10.12,3.88,11.6a4.76,4.76,0,0,0,.84.24c-1-4.14-1.92-8.21-4.68-11.78Z"/><path class="c" d="M83.65,91.21c1.53-1.68,3.29-2.92,3.39-5.59l-4.87.47C82.71,87.94,83.14,89.45,83.65,91.21Z"/><path class="a" d="M114.06,76.59a4.48,4.48,0,0,0-3.13-.58c-2.49.7-5.69,5.5-6,8.31a1.82,1.82,0,0,0,1.22,1.83,3.13,3.13,0,0,0,2.46-.07A12.1,12.1,0,0,0,114.26,79C114.5,78.26,114.48,76.84,114.06,76.59Zm-6.93,8c-.12-2.22,2.56-6.3,4.46-6.92.74-.24,1.09,0,1,.8C112.3,80.43,109.17,84,107.13,84.6Z"/><path class="c" d="M111.59,77.68c-1.9.62-4.58,4.7-4.46,6.92,2-.59,5.17-4.17,5.44-6.12C112.68,77.67,112.33,77.44,111.59,77.68Z"/><path class="c" d="M37.37,95.31a4.18,4.18,0,0,1-.88.86,3.77,3.77,0,0,1-2.84.58,2,2,0,0,0-1.06,0l-.72.37c-1.91,1-3.8,2-5.69,3l-.69.37a1.66,1.66,0,0,0-.94,2,2.68,2.68,0,0,0,.14.43,8.23,8.23,0,0,0,1,1.64l.19.27c1.81,2.27,3.63,4.55,5.55,6.74a3.07,3.07,0,0,0,1.31.81,2.54,2.54,0,0,0,.68.13l5.19,0c3.82,0,7.63,0,11.44,0l.48,0,.81-.06c0-.35,0-.66,0-1s0-.45,0-.66c-.24-2.24-.43-4.49-.69-6.72-.14-1.22-.31-2.43-.53-3.63-.1-.52-.23-1-.36-1.54-.27-1-.61-2.07-1-3.1s-.65-1.8-1-2.7a2,2,0,0,0-3-1.21c-1.91.77-3.83,1.52-5.72,2.34l-.21.09A3.79,3.79,0,0,0,37.37,95.31Z"/><path class="c" d="M32.45,90.58c.36,1.09.72,2.19,1.11,3.27h0c.27.75,2.14.16,2.36-.42a3.07,3.07,0,0,0,0-1.67c-.43-1.87-.89-3.74-1.44-5.57q-7-23.34-14-46.66a5,5,0,0,1-.27-1.26,1,1,0,0,1,.52-1,9.06,9.06,0,0,1,.93-.5l2.75-1.28L26,34.78c-.36-.93-.71-1.83-1.05-2.74l-.55-1.41-14,4.68-3.59,1.2h0c2,4.37,2,4.37,6.44,3.3l.4-.09h0c2.34-.53,2.46-.46,3.19,1.85.41,1.28.82,2.57,1.22,3.85q6.35,20,12.68,39.88Q31.57,87.94,32.45,90.58Z"/><path class="a" d="M136.27,58.79c0-2.13-.77-2.9-2.85-3-3.66-.17-7.33-.35-11-.54-.35,0-.84-.06-1.28-.13l-.08.1-2.15,2.54c-2.13,2.45-4.2,4.94-6.3,7.41L110,68.35l-1.86,2.09a1.78,1.78,0,0,1,.68-.07q8.74.06,17.5.16c.08,0,.16.07.34.15a7.88,7.88,0,0,1-.33.85q-10.86,19.93-21.71,39.87a1.75,1.75,0,0,1-1.76,1q-24.14,0-48.27,0c-1.08,0-1.29-.38-1.41-1.36-.55-4.66-1.14-9.32-1.87-14a16.07,16.07,0,0,0-1.5-4.23c-1.52-3.2-3.07-3.77-6.36-2.55-.93.34-1.86.65-2.77,1s-1.78.8-2.55,1.14c-.88-3.15-1.76-6.2-2.57-9.26a3,3,0,0,1,0-1.75q2.16-5.35,4.5-10.63A1.83,1.83,0,0,1,41.38,70c8.33-.07,16.66-.09,25-.11a7.09,7.09,0,0,1,.72.09c1.6-1,3.14-2.17,3.59-2.5a3.61,3.61,0,0,1-1.82.52c-9,.08-18,.1-26.95.18-1.08,0-1.58-.23-1.75-1.39-.46-3.16-1.06-6.29-1.65-9.61H40c12.14.1,24.27.18,36.41.36a3,3,0,0,1,1.4.51A3.08,3.08,0,0,1,77,56.35l-1.45-.69H73.18c-11.62-.11-23.24-.2-34.86-.34a2.59,2.59,0,0,0-2.79,1.63c-.66,1.5-1.5,2.92-2.27,4.37-.86,1.65-1.73,3.28-2.64,5a2.81,2.81,0,0,1-.28-.38q-4-13.29-8-26.57A1.41,1.41,0,0,1,23,38.24a38.87,38.87,0,0,1,3.7-1.73,1.6,1.6,0,0,0,1-2.37c-.51-1.31-1-2.64-1.49-3.95-.62-1.63-.94-1.78-2.65-1.21L7,34.53C5.07,35.16,4.78,36.22,5.6,38c.59,1.34,1,2.47,1.49,3.53.62,1.33,1.74,1.25,3.06.89,1.52-.42,3.07-.74,4.64-1.11.19.57.33,1,.46,1.36,3.29,10.34,6.55,20.68,9.9,31A4.84,4.84,0,0,1,25,77.52C19.79,89,14.71,100.5,9.62,112a8.3,8.3,0,0,0-1,3c-.1,4.18-.06,8.37,0,12.56,0,2.8,1.22,3.88,4,3.88q45.24,0,90.47,0c1.53,0,5.85-.59,6.55-1.82,6.43-11.21,23.19-44.86,26.9-51.34V73.58C136.51,72.89,136.31,63,136.27,58.79ZM37.37,95.31a3.79,3.79,0,0,1,1.49-1l.21-.09c1.89-.82,3.81-1.57,5.72-2.34a2,2,0,0,1,3,1.21c.33.9.66,1.8,1,2.7s.7,2.06,1,3.1c.13.51.26,1,.36,1.54.22,1.2.39,2.41.53,3.63.27,2.23.45,4.48.69,6.72,0,.21,0,.43,0,.66s0,.61,0,1h0l-.81.06-.48,0c-3.81,0-7.62,0-11.44,0l-5.19,0a2.54,2.54,0,0,1-.68-.13,3.07,3.07,0,0,1-1.31-.81c-1.92-2.19-3.74-4.47-5.55-6.74l-.19-.27a8.23,8.23,0,0,1-1-1.64,2.68,2.68,0,0,1-.14-.43,1.66,1.66,0,0,1,.94-2l.69-.37c1.89-1,3.78-2,5.69-3l.72-.37a2,2,0,0,1,1.06,0,3.77,3.77,0,0,0,2.84-.58A4.18,4.18,0,0,0,37.37,95.31Zm-7.62,17H22.49c.83-2,1.59-3.75,2.48-5.86C26.59,108.5,28.08,110.32,29.75,112.36ZM29.1,96.6c.67-1.62,1.18-2.84,1.82-4.4.4,1.06.68,1.81,1,2.75Zm2.6-28.33c1.43-2.85,2.94-5.67,4.43-8.49.17-.32.38-.62.75-1.24.63,3.69,1.21,7,1.77,10.4a1.56,1.56,0,0,1-.13.82c-1.3,3.11-2.63,6.22-4.05,9.59-.22-.54-.38-.84-.47-1.16-.84-2.74-1.69-5.47-2.45-8.23A2.52,2.52,0,0,1,31.7,68.27ZM18.05,45.42c-.4-1.28-.81-2.57-1.22-3.85-.73-2.31-.85-2.38-3.19-1.84h0l-.4.09c-4.44,1.07-4.44,1.07-6.44-3.3h0l3.59-1.2,14-4.68h0L24.91,32c.34.91.69,1.81,1.05,2.74h0l-1.55.72-2.75,1.28a9.06,9.06,0,0,0-.93.5,1,1,0,0,0-.52,1,5,5,0,0,0,.27,1.26q7,23.32,14,46.66c.55,1.83,1,3.7,1.44,5.57a3.07,3.07,0,0,1,0,1.67c-.22.58-2.09,1.17-2.36.42h0c-.39-1.08-.75-2.18-1.11-3.27q-.89-2.64-1.72-5.28Q24.39,65.37,18.05,45.42Zm8.52,32.89c1.09,3.36,2,6.35,3,9.29a4.21,4.21,0,0,1-.13,3.47c-.93,1.94-1.61,4-2.43,6a1.89,1.89,0,0,1-.62.7c-.5.35-1,.64-1.56.95-2.09,1.22-2.73,2.92-1.75,5.1a2.69,2.69,0,0,1,0,2.5q-1.16,2.49-2.15,5a1.49,1.49,0,0,1-1.64,1.15c-2.53-.06-5.07,0-7.88,0C16.46,101.1,21.44,89.89,26.57,78.31Zm76.77,51.27h-1.8l-87.92.07c-3,0-3.19-.14-3.19-3.16,0-4,0-8,0-12.1h92.92Zm7.2-61.05a2.88,2.88,0,0,1-.55-.18c.93-1.11,1.79-2.14,2.66-3.16,2.09-2.48,4.17-5,6.3-7.42A2.06,2.06,0,0,1,120.3,57c4.22.15,8.45.38,12.67.6a6,6,0,0,1,.82.17c-1.94,3.56-3.81,7-5.72,10.45a1.2,1.2,0,0,1-.89.47C121.64,68.67,116.09,68.6,110.54,68.53Zm23.54,8.9q-14,24.42-28.16,48.83c-.13.23-.3.46-.58.88,0-4.43,0-8.6,0-12.77a3.64,3.64,0,0,1,.54-1.58q13.8-25.37,27.64-50.73a2.22,2.22,0,0,1,.95-1c0,1,0,2,0,3.06,0,3.76.09,7.52.08,11.28A4.17,4.17,0,0,1,134.08,77.43Z"/><path class="a" d="M70.76,67.42c3.21-2.22,6.35-4.53,9.53-6.8a8.17,8.17,0,0,1,1-.51c-1.06-.62-1.7-1-2.36-1.37a4.49,4.49,0,0,1-1.1-.67h0a3,3,0,0,0-1.4-.51C64.29,57.38,52.16,57.3,40,57.2H38.5c.59,3.32,1.19,6.45,1.65,9.61.17,1.16.67,1.4,1.75,1.39,9-.08,18-.1,26.95-.18a3.64,3.64,0,0,0,1.81-.51h0Z"/><path class="c" d="M121,44.5c-2.16-1.8-2.47-3.45-1.71-6.09,1.24-4.35,1.49-8.93-.83-13a43.18,43.18,0,0,0-5.91-8.22,21.44,21.44,0,0,0-16.75-6.89l-1.34.06c-7.68.53-14.3,3.37-19.34,9.37s-8.67,12.82-7.49,21.23c.79,5.64,2.19,10.89,7.18,14.4l.72.34,1.45.69a3.08,3.08,0,0,0,.82,1.72h0a4.49,4.49,0,0,0,1.1.67c.66.35,1.3.75,2.36,1.37a8.17,8.17,0,0,0-1,.51c-3.18,2.27-6.32,4.58-9.53,6.8l-.09.07h0c-.45.32-2,1.47-3.58,2.49s-3,1.78-3.71,1.73h0a20.75,20.75,0,0,0-2.09-.06c-.72,0-1.43,0-2.14,0-1.52,0-2.26,1-1.72,2.43.85,2.28,1.8,4.54,2.77,6.77.28.64.68.92,1.15.86a1.76,1.76,0,0,0,.88-.48c1.12-1,2.28-2,3.33-3.05a7.1,7.1,0,0,1,3.89-2q14.1-2.8,28.17-5.77a4,4,0,0,1,.89-.1,4.49,4.49,0,0,1,2.29.73,7.13,7.13,0,0,0,3.64,1.14,5.1,5.1,0,0,0,3.48-1.51L110,68.35l2.65-3.17c2.1-2.47,4.17-5,6.3-7.41.14-.15,2.63-3.11,2.63-3.11a1,1,0,0,1,.11-.17C124.46,51,124.4,47.31,121,44.5Zm-48.7,5.6c-2-3.43-2.63-7.16-3-11.05-.48-5.11,1.27-9.53,3.85-13.7a29.76,29.76,0,0,1,8.75-9.26,25.25,25.25,0,0,1,12.35-3.93l1.48-.06A20.08,20.08,0,0,1,113.42,21c1.85,2.63,4.16,5.05,4.59,8.44a21.83,21.83,0,0,1-1.15,11v0c-.83-1-1.84-1.28-1.64-2.84,1-7.72-4.22-16.28-9.84-19.32A15.88,15.88,0,0,0,97,16.36c-.43,0-.87,0-1.31.09-4.13.44-8.22,1.13-11.57,3.58C77.3,25,72.5,31.44,72.79,40.42a17.49,17.49,0,0,0,3.58,10.64c.6.73.55,2,.6,3.07v0A9.65,9.65,0,0,1,72.33,50.1Zm5.19-.58v0a22.33,22.33,0,0,1-1.4-2.43c-2.78-6.91-1.77-13.35,2.62-19.28,2.85-3.84,6.21-7.09,11-8.38a31.41,31.41,0,0,1,8-1.36,12.41,12.41,0,0,1,7.61,2.36,18.67,18.67,0,0,1,8.14,16.75v0c-3.7-3.49-7.17-6.65-10.5-9.95a3.5,3.5,0,0,0-2.67-1.14,5.48,5.48,0,0,0-1,.13c-3.55.76-6.45,2.72-9.19,5A39.77,39.77,0,0,0,77.52,49.52Zm1.33,6.81h0l0,0c0-1.21-.07-2.3,0-3.37.36-4.41,2.42-8.18,4.72-11.79A34.6,34.6,0,0,1,95.9,29.47a31.35,31.35,0,0,1,3.93-1.59h0l.27.49C97.27,40.77,90.19,50,78.85,56.33Zm9.63,14.14c-6.94,1.42-13.89,2.82-20.83,4.29a5.57,5.57,0,0,0-2.2,1.13c-1.3,1-2.5,2.23-3.9,3.51h0L59.1,73.55h0c.82,0,1.59,0,2.33,0a15.29,15.29,0,0,0,2.16-.09,7.29,7.29,0,0,0,3.23-1c5.06-3.51,10.05-7.12,15-10.75a1.93,1.93,0,0,1,1.06-.44A2,2,0,0,1,84,61.6c3.69,2.16,7.43,4.24,11.14,6.36.36.2.69.45,1.31.85ZM120,53.6c-4.29,5-8.57,10.12-12.88,15.15a3.73,3.73,0,0,1-2.91,1.66,4.46,4.46,0,0,1-2.06-.67Q91.72,63.89,81.3,58c-.16-.09-.29-.22-.72-.55A43.06,43.06,0,0,0,101.87,29l0,0c.4.32.71.53,1,.79q8.41,7.94,16.82,15.87C122.41,48.22,122.48,50.69,120,53.6Z"/><path class="a" d="M100.11,28.37l-.27-.49h0a31.35,31.35,0,0,0-3.93,1.59A34.6,34.6,0,0,0,83.55,41.19c-2.3,3.61-4.36,7.38-4.72,11.79-.08,1.07,0,2.16,0,3.37l0,0h0C90.19,50,97.27,40.77,100.11,28.37Z"/><path class="a" d="M110.54,68.53a2.88,2.88,0,0,1-.55-.18c.93-1.11,1.79-2.14,2.66-3.16,2.09-2.48,4.17-5,6.3-7.42A2.06,2.06,0,0,1,120.3,57c4.22.15,8.45.38,12.67.6a6,6,0,0,1,.82.17c-1.94,3.56-3.81,7-5.72,10.45a1.2,1.2,0,0,1-.89.47C121.64,68.67,116.09,68.6,110.54,68.53Z"/></svg>