<svg xmlns="http://www.w3.org/2000/svg" viewBox="0 0 141.73 141.73"><defs><style>.a{fill:#703a58;}.b{fill:#6b8f6a;}.c{fill:none;}.d{fill:#fff;}</style></defs><path class="a" d="M123.52,71.91a1.24,1.24,0,0,1-.18-.22,7,7,0,0,0-1.85-1.5,2.5,2.5,0,0,1-.54-.35,10.47,10.47,0,0,0-1.72-1.39c-1.41-1.09-2.94-2-4.37-3.07l-.38-.27c-1.49-1-3-2-4.43-3s-2.93-2.25-4.33-3.44c-.66-.56-1.31-1.13-2-1.64-.93-.7-1.88-1.38-2.74-2.17-.57-.52-1.21-1-1.76-1.5a.85.85,0,0,0-.38-.24,2.33,2.33,0,0,1-.7-.45,17.13,17.13,0,0,0-1.43-1.15,10.84,10.84,0,0,1-1.57-1.11c-1.14-1-2.51-1.76-3.71-2.72-.53-.42-1.11-.78-1.67-1.17-.27-.19-.58-.3-.85-.52-.66-.55-1.41-1-2.09-1.51a27.1,27.1,0,0,0-2.76-1.85c-.65-.4-1.22-.92-1.88-1.33A29.55,29.55,0,0,1,78.73,39a37.72,37.72,0,0,0-3.55-2.49,2.69,2.69,0,0,0-.29-.16,3.8,3.8,0,0,0-.42-4.32,18,18,0,0,0-2.28-2.26,8.19,8.19,0,0,1-1.26-1.57.65.65,0,0,1,.08-.85,1.89,1.89,0,0,1,1.55-.67,8.73,8.73,0,0,1,3.08.93A13.49,13.49,0,0,1,78,29.06a4.22,4.22,0,0,0,3,.74,1.89,1.89,0,0,0,.62-.16,7.37,7.37,0,0,0,2.06-1.38c.47-.48.92-1,1.34-1.51A1.07,1.07,0,0,0,84.79,25a7.2,7.2,0,0,1-1.34-1,7.48,7.48,0,0,0-.89-.8c-.72-.53-1.44-1.06-2.13-1.62a14,14,0,0,0-3.92-2.22c-.58-.21-1.17-.41-1.76-.58a15.21,15.21,0,0,0-2.33-.56c-1.16-.13-2.33-.09-3.5-.13a6.58,6.58,0,0,0-1.65.19,16.93,16.93,0,0,0-3.59,1.17L62,20.36a13.9,13.9,0,0,0-2.79,2c-.58.6-1.2,1.15-1.81,1.72a22.71,22.71,0,0,0-2.66,2.8,24,24,0,0,0-2.85,4.53,2.61,2.61,0,0,0-.18,2.2,4.53,4.53,0,0,0,1.31,2c.65.53,1.26,1.09,1.88,1.64a2.47,2.47,0,0,1,.42.49c.31.48.24.75-.24,1.08a.51.51,0,0,1-.6,0c-.49-.32-.95-.68-1.47-1-1-.53-2-1-2.95-1.52a1.33,1.33,0,0,0-.44-.14c-.45-.06-.91-.13-1.37-.15a1.21,1.21,0,0,0-1.44,1,3.41,3.41,0,0,1-.41,1,20.25,20.25,0,0,0-1.59,3.11,1,1,0,0,0,0,1.06,10.4,10.4,0,0,0,.73,1.05c.79.9,1.63,1.73,2.5,2.55.65.61,1.33,1.18,2,1.75.92.76,1.86,1.5,2.8,2.25a22.22,22.22,0,0,0,1.88,1.48c1.11.72,2.17,1.52,3.3,2.2.72.43,1.47.78,2.19,1.19a.78.78,0,0,0,.63.09,5,5,0,0,0,2-1.13A11.55,11.55,0,0,0,65,50.43a2.12,2.12,0,0,0,.18-1.71A7,7,0,0,0,64,46.77a5.4,5.4,0,0,0-1.55-1.3c-.66-.36-1.1-1-1.71-1.39a.49.49,0,0,1-.16-.58.68.68,0,0,1,.78-.5,3,3,0,0,1,1,.33c1,.45,2,1,3,1.34,1.68.59,2.33.48,3.55-.77a.91.91,0,0,0,.25.34,10.22,10.22,0,0,0,1.12.95c.91.63,1.79,1.3,2.7,1.93.43.3.87.58,1.32.85.83.47,1.68.9,2.49,1.41a22.24,22.24,0,0,1,2,1.3c.74.56,1.52,1,2.28,1.58s1.63,1.09,2.42,1.67c1,.75,2,1.53,3,2.31.44.34.85.71,1.26,1.08.65.57,1.26,1.18,1.93,1.72,1.27,1,2.47,2.13,3.67,3.23.57.52,1.1,1.08,1.67,1.6,1,1,2.07,1.93,3.14,2.85.91.78,1.74,1.66,2.61,2.49,1.24,1.19,2.5,2.37,3.69,3.62s2.15,2.29,3.34,3.32,2.25,1.9,3.38,2.85a11,11,0,0,0,4,2.35c1.2.34,2.41.62,3.28-.06s1.59-.94,2.24-1.36a3.91,3.91,0,0,0,.67-.62c.19-.2.34-.44.52-.65a12.14,12.14,0,0,0,2.25-4C124.4,73.69,124.51,72.65,123.52,71.91ZM67.05,42.4a.81.81,0,0,1-1.08.15c-.79-.41-1.63-.7-2.43-1.12a8,8,0,0,0-2.72-.84,1.39,1.39,0,0,0-1.3.55,5.57,5.57,0,0,0-1,1.72,2.24,2.24,0,0,0-.13.73A12.75,12.75,0,0,0,58.42,45,1.6,1.6,0,0,0,59,46a29.25,29.25,0,0,0,2.26,1.91,4.37,4.37,0,0,1,1.18,1.28,1,1,0,0,1,0,1.2c-.2.27-.39.55-.59.83a1,1,0,0,1-.9.55.34.34,0,0,0-.18,0c-.51.43-1,.1-1.43-.11a6.46,6.46,0,0,1-.95-.57l-3.17-2.23a1.14,1.14,0,0,1-.23-.15,32,32,0,0,0-2.71-2.22c-.92-.77-1.86-1.51-2.77-2.29A30.39,30.39,0,0,1,47.21,42a3.74,3.74,0,0,1-.49-.79.39.39,0,0,1,0-.35,11.1,11.1,0,0,1,.92-1.9.78.78,0,0,1,.86-.41,7.85,7.85,0,0,1,2.36.71c.54.36,1.09.69,1.62,1.06a6.09,6.09,0,0,0,2,.95,1.49,1.49,0,0,0,1.7-.6c.37-.49.8-.93,1.19-1.4a2,2,0,0,0,.53-1.06,1.91,1.91,0,0,0-.61-1.58c-.54-.55-1.13-1.05-1.67-1.59a7.87,7.87,0,0,0-1.38-1.2,1.31,1.31,0,0,1-.4-.5.63.63,0,0,1-.06-.62c.23-.5.43-1,.69-1.51a19.51,19.51,0,0,1,2-3c.63-.77,1.39-1.39,2.05-2.13.34-.39.75-.72,1.12-1.09a16.09,16.09,0,0,1,1.44-1.3c.52-.4,1.06-.74,1.6-1.09A15.28,15.28,0,0,1,66,21.08c.52-.18,1.06-.34,1.59-.49a4.48,4.48,0,0,1,1.46-.2c1.1.05,2.21.09,3.31.15a4.45,4.45,0,0,1,.73.12A17,17,0,0,1,77,22a8,8,0,0,1,1.17.74l4,3,.21.18a.33.33,0,0,1,0,.49A2.91,2.91,0,0,1,80,27.51a1.86,1.86,0,0,1-.85-.31,14.61,14.61,0,0,0-3.74-2,14.44,14.44,0,0,0-2.69-.64,3.61,3.61,0,0,0-2.65.79,4.74,4.74,0,0,0-1.46,2.09,1.26,1.26,0,0,0,.13,1.23,11.16,11.16,0,0,0,1.64,2.11c.43.4.81.84,1.26,1.22A5.76,5.76,0,0,1,73,33.87a1.14,1.14,0,0,1,.06,1,5.71,5.71,0,0,1-1,1.77L70.9,38c-.46.54-1,1.05-1.41,1.58s-.72.89-1.06,1.34-.74.82-1.12,1.21Zm54.78,32.39a12.05,12.05,0,0,1-.8,1.56,5.55,5.55,0,0,1-2.62,2.4c-.24.13-.47.28-.72.4a2.3,2.3,0,0,1-2.22,0c-.6-.36-1.25-.63-1.84-1-.82-.55-1.5-1.26-2.28-1.87-.21-.17-.42-.35-.62-.54-.85-.75-1.73-1.47-2.56-2.25-.58-.55-1.07-1.18-1.67-1.71-1.2-1-2.32-2.2-3.49-3.28-1.32-1.2-2.62-2.43-3.93-3.63l-4.36-4a8.08,8.08,0,0,1-.66-.65,20.17,20.17,0,0,0-2.07-2c-.19-.16-.36-.34-.53-.51a4.4,4.4,0,0,0-.77-.66,2,2,0,0,1-.56-.48,11.8,11.8,0,0,0-2.91-2.4,14.38,14.38,0,0,1-1.21-1c-1.26-1-2.58-1.87-3.9-2.77-.76-.52-1.49-1.09-2.25-1.6s-1.34-.88-2-1.28a8.11,8.11,0,0,1-1.68-1.1c-.19-.17-.46-.18-.67-.3A21.63,21.63,0,0,1,72.28,44a2.81,2.81,0,0,0-.55-.32,3,3,0,0,1-1.08-1c-.19-.28-.2-.38,0-.67s.63-.83,1-1.24c.61-.77,1.39-1.37,1.95-2.19.18-.27.33-.28.64-.1a25.21,25.21,0,0,1,3.29,2.21c1.31,1.09,2.76,2,4.15,2.92C83.28,44.75,85,45.77,86.52,47c.91.69,1.91,1.25,2.84,1.9,1.47,1,2.93,2,4.33,3.14s2.75,2,4.11,3c.45.33.85.71,1.29,1,.89.71,1.77,1.43,2.68,2.12,1.55,1.17,3,2.45,4.52,3.65A47.88,47.88,0,0,0,111,65.21c1,.58,1.89,1.27,2.83,1.91s1.64,1.09,2.43,1.67c1.52,1.11,3,2.24,4.52,3.37.24.19.43.44.66.64A1.51,1.51,0,0,1,121.83,74.79Z"/><path class="b" d="M62.69,22.52A15.28,15.28,0,0,1,66,21.08c.52-.18,1.06-.34,1.59-.49a4.48,4.48,0,0,1,1.46-.2c1.1.05,2.21.09,3.31.15a4.45,4.45,0,0,1,.73.12A17,17,0,0,1,77,22a8,8,0,0,1,1.17.74l4,3,.21.18a.33.33,0,0,1,0,.49A2.91,2.91,0,0,1,80,27.51a1.86,1.86,0,0,1-.85-.31,14.61,14.61,0,0,0-3.74-2,14.44,14.44,0,0,0-2.69-.64,3.61,3.61,0,0,0-2.65.79,4.74,4.74,0,0,0-1.46,2.09,1.26,1.26,0,0,0,.13,1.23,11.16,11.16,0,0,0,1.64,2.11c.43.4.81.84,1.26,1.22A5.76,5.76,0,0,1,73,33.87a1.14,1.14,0,0,1,.06,1,5.71,5.71,0,0,1-1,1.77c-1.55,1.87-3,3.78-4.74,5.53l-.26.26a.81.81,0,0,1-1.08.15c-.79-.41-1.63-.7-2.43-1.12a8,8,0,0,0-2.72-.84,1.39,1.39,0,0,0-1.3.55,5.57,5.57,0,0,0-1,1.72,2.24,2.24,0,0,0-.13.73A12.75,12.75,0,0,0,58.42,45,1.6,1.6,0,0,0,59,46a29.25,29.25,0,0,0,2.26,1.91,4.37,4.37,0,0,1,1.18,1.28,1,1,0,0,1,0,1.2c-.2.27-.39.55-.59.83a1,1,0,0,1-.9.55.34.34,0,0,0-.18,0c-.51.43-1,.1-1.43-.11a6.46,6.46,0,0,1-.95-.57l-3.17-2.23a1.14,1.14,0,0,1-.23-.15,32,32,0,0,0-2.71-2.22c-.92-.77-1.86-1.51-2.77-2.29A30.39,30.39,0,0,1,47.21,42a3.74,3.74,0,0,1-.49-.79.39.39,0,0,1,0-.35,11.1,11.1,0,0,1,.92-1.9.78.78,0,0,1,.86-.41,7.85,7.85,0,0,1,2.36.71c.54.36,1.09.69,1.62,1.06a6.09,6.09,0,0,0,2,.95,1.49,1.49,0,0,0,1.7-.6c.37-.49.8-.93,1.19-1.4a2,2,0,0,0,.53-1.06,1.91,1.91,0,0,0-.61-1.58c-.54-.55-1.13-1.05-1.67-1.59a7.87,7.87,0,0,0-1.38-1.2,1.31,1.31,0,0,1-.4-.5.63.63,0,0,1-.06-.62c.23-.5.43-1,.69-1.51a19.51,19.51,0,0,1,2-3c.63-.77,1.39-1.39,2.05-2.13.34-.39.75-.72,1.12-1.09a16.09,16.09,0,0,1,1.44-1.3C61.61,23.21,62.15,22.87,62.69,22.52Z"/><path class="c" d="M118.41,78.75c-.24.13-.47.28-.72.4a2.3,2.3,0,0,1-2.22,0c-.6-.36-1.25-.63-1.84-1-.82-.55-1.5-1.26-2.28-1.87-.21-.17-.42-.35-.62-.54-.85-.75-1.73-1.47-2.56-2.25-.58-.55-1.07-1.18-1.67-1.71-1.2-1-2.32-2.2-3.49-3.28-1.32-1.2-2.62-2.43-3.93-3.63l-4.36-4a8.08,8.08,0,0,1-.66-.65,20.17,20.17,0,0,0-2.07-2c-.19-.16-.36-.34-.53-.51a4.4,4.4,0,0,0-.77-.66,2,2,0,0,1-.56-.48,11.8,11.8,0,0,0-2.91-2.4,14.38,14.38,0,0,1-1.21-1c-1.26-1-2.58-1.87-3.9-2.77-.76-.52-1.49-1.09-2.25-1.6s-1.34-.88-2-1.28a8.11,8.11,0,0,1-1.68-1.1c-.19-.17-.46-.18-.67-.3A21.63,21.63,0,0,1,72.28,44a2.81,2.81,0,0,0-.55-.32,3,3,0,0,1-1.08-1c-.19-.28-.2-.38,0-.67s.63-.83,1-1.24c.61-.77,1.39-1.37,1.95-2.19.18-.27.33-.28.64-.1a25.21,25.21,0,0,1,3.29,2.21c1.31,1.09,2.76,2,4.15,2.92C83.28,44.75,85,45.77,86.53,47c.9.69,1.9,1.25,2.83,1.9,1.47,1,2.93,2,4.33,3.14s2.75,2,4.11,3c.45.33.85.71,1.29,1,.89.71,1.77,1.43,2.68,2.12,1.55,1.17,3,2.45,4.52,3.65A47.88,47.88,0,0,0,111,65.21c1,.58,1.89,1.27,2.83,1.91s1.64,1.09,2.43,1.67c1.52,1.11,3,2.24,4.52,3.37.24.19.43.44.66.64a1.51,1.51,0,0,1,.37,2,12.05,12.05,0,0,1-.8,1.56A5.55,5.55,0,0,1,118.41,78.75Z"/><path class="a" d="M34.28,104.16c-.69-.27-1.47-.6-2.27-.87-1.07-.37-2.06-.92-3.09-1.38a1.65,1.65,0,0,1-1.1-1.84,11.91,11.91,0,0,0,0-1.69,2.63,2.63,0,0,1,.83-2,7.44,7.44,0,0,1,1.52-.93c.24-.14.5-.25.73-.4s.24-.4-.05-.57-.68-.38-1-.56a6,6,0,0,1-1.2-.86,1.55,1.55,0,0,1-.53-1.12,5,5,0,0,1,0-1,34.4,34.4,0,0,1,1.33-6.5,8.34,8.34,0,0,1,.47-1.06,1.54,1.54,0,0,1,1.73-.86,11.51,11.51,0,0,0,2.42,0,33.91,33.91,0,0,1,3.49,0c2.61.06,5.2.36,7.81.46,2,.07,3.93.19,5.9.28,2.53.13,5.06.35,7.59.55,1.89.15,3.79.32,5.68.51,1.37.13,2.74.16,4.11.33.71.09,1.47,0,2.21.08,1.86.12,3.72.1,5.58.33,1.46.18,3,.18,4.42.36,2.06.26,4.14.42,6.2.69,1.64.21,3.27.53,4.91.77s3.35.44,5,.68c1,.15,2,.33,3,.52s2.09.3,3.14.4c1.26.12,2.52.29,3.78.44.56.07,1.12.15,1.68.2a35.93,35.93,0,0,1,5.7,1.13,1.55,1.55,0,0,1,1.24,1.39,19.91,19.91,0,0,1,0,4.63c-.06.35-.07.7-.1,1.05s0,.5,0,.74a2.45,2.45,0,0,1-1.75,2.28l-2.09.77c-.69.25-1.39.48-2.08.75-.43.17-.45.35-.07.66a13.78,13.78,0,0,0,1.62,1.19c.9.55,1.77,1.15,2.65,1.73a.66.66,0,0,1,.32.41,5.32,5.32,0,0,1,.19,1c0,2.4.1,4.79.25,7.19a3.78,3.78,0,0,1,0,.95,5.66,5.66,0,0,0,0,1.79,21.17,21.17,0,0,1,0,3.9,1.15,1.15,0,0,1-.16.6,3.15,3.15,0,0,0-.36,1.64,8.52,8.52,0,0,1-.38,2.18,1.41,1.41,0,0,1-1.07,1.05,2.73,2.73,0,0,1-.94.12,9.61,9.61,0,0,1-2.59-.47,9,9,0,0,0-1.94-.49c-2.3-.34-4.62-.49-6.94-.7-1.37-.13-2.74-.24-4.09-.44s-2.81-.21-4.21-.35q-3.21-.3-6.42-.57a31.72,31.72,0,0,0-3.9-.17,24.06,24.06,0,0,1-4.32-.27c-.84-.12-1.68-.08-2.52-.15-1.51-.13-3-.23-4.52-.31-2.32-.11-4.65-.2-7-.3-.7,0-1.41,0-2.11-.07a38.32,38.32,0,0,0-4,0l-1.9,0c-1.16,0-2.33-.11-3.49-.14-.38,0-.77.06-1.15,0l-5.28-.16a5.75,5.75,0,0,1-.83-.14,1.26,1.26,0,0,0-.42-.06,16.74,16.74,0,0,1-3.87-.26,4.21,4.21,0,0,0-.94,0,1.81,1.81,0,0,1-.52,0c-1.69-.14-3.37-.32-5-.42-1.09-.07-2.19-.06-3.28,0a12.29,12.29,0,0,1-1.36-.15.55.55,0,0,1-.57-.5,4.86,4.86,0,0,0-.51-1.59,5,5,0,0,1-.28-.91,31.76,31.76,0,0,1-.62-3.32,2.63,2.63,0,0,1,0-.74,5.08,5.08,0,0,0-.09-1.78c-.13-.87-.23-1.74-.33-2.61a.78.78,0,0,1,.06-.4c.23-.66.48-1.32.71-2a1.33,1.33,0,0,1,.94-.9,22.53,22.53,0,0,1,4.42-1c.64,0,1.27-.14,1.9-.23.09,0,.21,0,.22-.16s-.07-.18-.17-.23Zm3.41-.8c.55.28.92.49,1.3.66a1.43,1.43,0,0,1,.64.69.88.88,0,0,1-.3,1.2,2.66,2.66,0,0,1-1.15.51,14.24,14.24,0,0,0-1.44.32,13.38,13.38,0,0,1-2.82.45,7.45,7.45,0,0,0-2.29.31c-.56.21-1.14.39-1.7.58s-.68.32-.66.93a31.42,31.42,0,0,0,.33,4.21.79.79,0,0,0,.54.7,6,6,0,0,0,.91.28,37.53,37.53,0,0,0,4.7.7c1.9.13,3.79.29,5.69.38,1.62.07,3.23.11,4.85.15l6.24.2c1.27.05,2.53.13,3.8.18,1.09,0,2.18,0,3.27.13,1.47.11,2.94.2,4.42.22,1.66,0,3.31.12,5,.19s3.45.12,5.17.24a50.85,50.85,0,0,0,5.92.2,19.48,19.48,0,0,1,2.53.06c1.79.16,3.58.44,5.38.46a8.81,8.81,0,0,1,1.26,0,27.28,27.28,0,0,0,3.38.23,37.78,37.78,0,0,1,4.74.43,12.2,12.2,0,0,0,2.42.14,9.16,9.16,0,0,1,1.48.06,26.12,26.12,0,0,0,4.41.41,1.62,1.62,0,0,1,.31,0l2.92.52c1,.18,1.93.37,2.9.54.28,0,.43-.06.44-.32,0-.52.06-1,0-1.58,0-1.26-.11-2.53-.13-3.8a10.55,10.55,0,0,0-.12-1.68A4.5,4.5,0,0,1,112,111c.12-1.17-.32-2.3-.16-3.47,0-.31-.14-.49-.42-.66a19.86,19.86,0,0,1-1.66-1.1q-1.8-1.31-3.58-2.63a8.43,8.43,0,0,1-.69-.65.89.89,0,0,1-.23-.78,1.85,1.85,0,0,1,1.47-1.61c1.66-.59,3.33-1.15,5-1.71a5,5,0,0,0,1.06-.47.4.4,0,0,0,.24-.42,9.37,9.37,0,0,1,.22-2.42,9.21,9.21,0,0,0,0-2.1.84.84,0,0,0-.69-.81,20.37,20.37,0,0,0-2.89-.62c-.94-.09-1.87-.25-2.82-.35s-1.81-.24-2.71-.3c-1.7-.11-3.36-.42-5-.62-1.47-.17-2.9-.56-4.39-.62-.24,0-.49-.09-.73-.12-.83-.1-1.67-.24-2.51-.29a13.7,13.7,0,0,1-1.57-.17c-1.56-.26-3.11-.57-4.68-.73-1.76-.17-3.51-.3-5.26-.49-1.23-.14-2.46-.11-3.69-.31a10.61,10.61,0,0,0-1.78-.16c-2,0-4-.16-6-.23-2.79-.11-5.54-.49-8.32-.67-1.19-.08-2.38-.23-3.57-.29-2.32-.11-4.63-.46-7-.44-.45,0-.9-.16-1.35-.16a41.75,41.75,0,0,1-5.59-.23h-.21c-1.43-.09-2.88-.05-4.31-.26a9.59,9.59,0,0,0-2.21-.08c-1.09.09-2.18.09-3.27.09a.74.74,0,0,0-.8.54,11.2,11.2,0,0,0-.62,2.12,9.12,9.12,0,0,1-.34,1.55,6,6,0,0,0-.22,1.57.79.79,0,0,0,.4.78,18.93,18.93,0,0,0,2.26,1.34,1.51,1.51,0,0,1,.82,1.76,4.46,4.46,0,0,1-1.76,2.32,12.37,12.37,0,0,1-1.33.84,1.34,1.34,0,0,0-.79,1.46.82.82,0,0,0,.39.69,11.65,11.65,0,0,0,2.52,1.32C34.76,102.09,36.31,102.77,37.69,103.36Zm-7.21,14.88c.15,0,.32,0,.49,0,1,0,2,0,3,.11,1.48.08,3,.26,4.43.29,2,0,4,.35,6,.41,1.13,0,2.26.12,3.38.15,2.08,0,4.16-.06,6.23,0,2.29.1,4.59.07,6.88.17s4.51.12,6.76.31c2.07.17,4.15.22,6.22.33,1.24.06,2.47.05,3.7.22a16.2,16.2,0,0,0,2.21.19c1.13,0,2.26,0,3.38.11,1.48.09,3,.2,4.43.34q3.63.33,7.26.71c2.11.21,4.21.44,6.31.66l1.48.14a29,29,0,0,1,7.39,1.2,3.3,3.3,0,0,0,1.25.1c.09,0,.23-.1.24-.17a8.49,8.49,0,0,0,.21-1.14.42.42,0,0,0-.33-.48,22.62,22.62,0,0,0-2.8-.53,14.78,14.78,0,0,1-1.77-.25,5,5,0,0,0-1.88-.17,3.62,3.62,0,0,1-1.26-.14,16.37,16.37,0,0,0-3.76-.43,21.41,21.41,0,0,1-2.53-.1,37.93,37.93,0,0,0-4-.38c-1.72,0-3.43-.32-5.16-.34-1.55,0-3.09-.16-4.64-.32-.94-.1-1.89-.19-2.84-.21-1.44,0-2.89,0-4.33,0-2.21-.09-4.42-.26-6.63-.39-.71,0-1.42,0-2.11-.11-1-.12-2-.12-3-.16l-5.17-.22a25,25,0,0,0-2.74-.05,6,6,0,0,1-.85,0,46.39,46.39,0,0,0-5.27-.27c-1,0-1.9,0-2.84,0q-3.27-.12-6.54-.3c-1.16-.06-2.31-.23-3.47-.29-1.44-.08-2.85-.37-4.28-.55-1-.13-2-.34-3-.42-.81-.06-.76.08-.69.72a3.42,3.42,0,0,0,.47,1C30.33,118.13,30.4,118.17,30.48,118.24Z"/><path class="b" d="M37.69,103.36c-1.38-.59-2.93-1.27-4.5-1.92a11.65,11.65,0,0,1-2.52-1.32.82.82,0,0,1-.39-.69A1.34,1.34,0,0,1,31.07,98a12.37,12.37,0,0,0,1.33-.84,4.46,4.46,0,0,0,1.76-2.32,1.51,1.51,0,0,0-.82-1.76,18.93,18.93,0,0,1-2.26-1.34.79.79,0,0,1-.4-.78,6,6,0,0,1,.22-1.57,9.12,9.12,0,0,0,.34-1.55,11.2,11.2,0,0,1,.62-2.12.74.74,0,0,1,.8-.54c1.09,0,2.18,0,3.27-.09a9.59,9.59,0,0,1,2.21.08c1.43.21,2.88.17,4.31.26h.21a41.75,41.75,0,0,0,5.59.23c.45,0,.9.16,1.35.16,2.33,0,4.64.33,7,.44,1.19.06,2.38.21,3.57.29,2.78.18,5.53.56,8.32.67,2,.07,4,.27,6,.23a10.61,10.61,0,0,1,1.78.16c1.23.2,2.46.17,3.69.31,1.75.19,3.5.32,5.26.49,1.57.16,3.12.47,4.68.73a13.7,13.7,0,0,0,1.57.17c.84,0,1.68.19,2.51.29.24,0,.49.11.73.12,1.49.06,2.92.45,4.39.62,1.68.2,3.34.51,5,.62.9.06,1.81.21,2.71.3s1.88.26,2.82.35a20.37,20.37,0,0,1,2.89.62.84.84,0,0,1,.69.81,9.21,9.21,0,0,1,0,2.1,9.37,9.37,0,0,0-.22,2.42.4.4,0,0,1-.24.42,5,5,0,0,1-1.06.47c-1.67.56-3.34,1.12-5,1.71a1.85,1.85,0,0,0-1.47,1.61.89.89,0,0,0,.23.78,8.43,8.43,0,0,0,.69.65q1.78,1.32,3.58,2.63a19.86,19.86,0,0,0,1.66,1.1c.28.17.46.35.42.66-.16,1.17.28,2.3.16,3.47a4.5,4.5,0,0,0,.1,1.26,10.55,10.55,0,0,1,.12,1.68c0,1.27.1,2.54.13,3.8,0,.53,0,1.06,0,1.58,0,.26-.16.37-.44.32-1-.17-1.93-.36-2.9-.54l-2.92-.52a1.62,1.62,0,0,0-.31,0,26.12,26.12,0,0,1-4.41-.41,9.16,9.16,0,0,0-1.48-.06,12.2,12.2,0,0,1-2.42-.14,37.78,37.78,0,0,0-4.74-.43,27.28,27.28,0,0,1-3.38-.23,8.81,8.81,0,0,0-1.26,0c-1.8,0-3.59-.3-5.38-.46a19.48,19.48,0,0,0-2.53-.06,50.85,50.85,0,0,1-5.92-.2c-1.72-.12-3.44-.16-5.17-.24s-3.31-.16-5-.19c-1.48,0-2.95-.11-4.42-.22-1.09-.08-2.18-.08-3.27-.13-1.27,0-2.53-.13-3.8-.18l-6.24-.2c-1.62,0-3.23-.08-4.85-.15-1.9-.09-3.79-.25-5.69-.38a37.53,37.53,0,0,1-4.7-.7,6,6,0,0,1-.91-.28.79.79,0,0,1-.54-.7,31.42,31.42,0,0,1-.33-4.21c0-.61.11-.74.66-.93s1.14-.37,1.7-.58a7.45,7.45,0,0,1,2.29-.31,13.38,13.38,0,0,0,2.82-.45,14.24,14.24,0,0,1,1.44-.32,2.66,2.66,0,0,0,1.15-.51.88.88,0,0,0,.3-1.2A1.43,1.43,0,0,0,39,104C38.61,103.85,38.24,103.64,37.69,103.36Zm42-8.9a7.16,7.16,0,0,0,.74.19c.46.06.92.07,1.37.13,1.71.2,3.45.12,5.16.38s3.29.39,4.94.5c1,.07,2,.25,3,.27,1.17,0,2.32.21,3.48.29a20.86,20.86,0,0,1,2.19.37,10.62,10.62,0,0,0,1.35.24,20.44,20.44,0,0,1,3.64.58,2.53,2.53,0,0,0,2.16-.55.6.6,0,0,0,.07-.86,2.11,2.11,0,0,0-1.19-.77c-1.32-.27-2.65-.36-4-.59-2.29-.41-4.58-.75-6.9-1l-6-.51c-2.25-.19-4.48-.56-6.74-.6-.77,0-1.54-.16-2.31-.23a1.39,1.39,0,0,0-1.53,1A.82.82,0,0,0,79.67,94.46Zm-31.82,2a1.32,1.32,0,0,0,.61.16,11,11,0,0,1,1.15.17,7.75,7.75,0,0,0,2.3.27,1.84,1.84,0,0,1,.41,0c1.28.23,2.5.8,3.84.61a.51.51,0,0,1,.21,0A16.78,16.78,0,0,0,60,98c1,.11,2.11,0,3.16.16s2,.07,3,.14c.28,0,.56,0,.84.07.63.08,1.26.19,1.89.26a2.28,2.28,0,0,0,.73-.08.74.74,0,0,0,.5-.62c.06-.27-.18-.35-.34-.47a3,3,0,0,0-1.12-.56,22.4,22.4,0,0,0-2.92-.45c-1.22-.14-2.46-.14-3.68-.3a42,42,0,0,0-5.37-.36A8,8,0,0,1,55,95.62a56.73,56.73,0,0,0-5.95-1,2.29,2.29,0,0,0-.94.06,1,1,0,0,0-.72,1A.69.69,0,0,0,47.85,96.41Zm16.51,16c0-.22,0-.41,0-.61,0-.46-.14-.68-.55-.73-1.5-.19-3-.59-4.49-.69-.81,0-1.62-.17-2.42-.28-1.85-.26-3.72-.42-5.58-.54-2.08-.12-4.15-.23-6.23-.33a3.94,3.94,0,0,0-.84,0c-.36.06-.72.2-.8.59a.93.93,0,0,0,.46.89,1.09,1.09,0,0,0,.37.19,5.69,5.69,0,0,0,2,.38,7.52,7.52,0,0,1,1.06,0c2,.17,3.92.36,5.88.52.77.06,1.55,0,2.32.11,1.4.12,2.8.29,4.2.4a19.08,19.08,0,0,1,2.62.28,2,2,0,0,0,.73,0C63.49,112.61,63.93,112.51,64.36,112.42Zm27.86-11.77.22.08a13.64,13.64,0,0,0,3.9.77,12.38,12.38,0,0,1,2.19.19,2.55,2.55,0,0,0,1.54-.14.76.76,0,0,0,.54-.78.94.94,0,0,0-.82-1.1,19.63,19.63,0,0,0-3.15-.29,17.6,17.6,0,0,1-2.51-.14l-1.36-.11a1.87,1.87,0,0,0-.53,0c-.36.07-.71.41-.71.68a.83.83,0,0,0,.52.73Zm-28.13,1.2a3.73,3.73,0,0,0,.82.17,17.46,17.46,0,0,1,2.4.28,10.57,10.57,0,0,0,1.66.25,2.32,2.32,0,0,1,.53,0,12.65,12.65,0,0,0,3.25.28,3.06,3.06,0,0,0,1-.16.54.54,0,0,0,.42-.53.75.75,0,0,0-.65-.91,4.52,4.52,0,0,0-.63-.08l-3.27-.29c-.94-.08-1.89-.18-2.83-.28a10.16,10.16,0,0,0-2.52.23,1,1,0,0,0-.39.15.34.34,0,0,0-.17.35A.55.55,0,0,0,64.09,101.85Z"/><path class="a" d="M30.48,118.24c-.08-.07-.15-.11-.18-.17a3.42,3.42,0,0,1-.47-1c-.07-.64-.12-.78.69-.72,1,.08,2,.29,3,.42,1.43.18,2.84.47,4.28.55,1.16.06,2.31.23,3.47.29q3.27.18,6.54.3c.94,0,1.89,0,2.84,0a46.39,46.39,0,0,1,5.27.27,6,6,0,0,0,.85,0,25,25,0,0,1,2.74.05l5.17.22c1,0,2,0,3,.16.69.09,1.4.06,2.11.11,2.21.13,4.42.3,6.63.39,1.44.06,2.89,0,4.33,0,1,0,1.9.11,2.84.21,1.55.16,3.09.3,4.64.32,1.73,0,3.44.33,5.16.34a37.93,37.93,0,0,1,4,.38,21.41,21.41,0,0,0,2.53.1,16.37,16.37,0,0,1,3.76.43,3.62,3.62,0,0,0,1.26.14,5,5,0,0,1,1.88.17,14.78,14.78,0,0,0,1.77.25,22.62,22.62,0,0,1,2.8.53.42.42,0,0,1,.33.48,8.49,8.49,0,0,1-.21,1.14c0,.07-.15.16-.24.17a3.3,3.3,0,0,1-1.25-.1,29,29,0,0,0-7.39-1.2l-1.48-.14c-2.1-.22-4.2-.45-6.31-.66q-3.63-.37-7.26-.71c-1.47-.14-3-.25-4.43-.34-1.12-.07-2.25-.1-3.38-.11a16.2,16.2,0,0,1-2.21-.19c-1.23-.17-2.46-.16-3.7-.22-2.07-.11-4.15-.16-6.22-.33-2.25-.19-4.51-.22-6.76-.31s-4.59-.07-6.88-.17c-2.07-.09-4.15,0-6.23,0-1.12,0-2.25-.12-3.38-.15-2-.06-4-.36-6-.41-1.48,0-3-.21-4.43-.29-1-.06-2-.07-3-.11C30.8,118.27,30.63,118.25,30.48,118.24Z"/><path class="a" d="M79.67,94.46a.82.82,0,0,1-.5-1.09,1.39,1.39,0,0,1,1.53-1c.77.07,1.54.22,2.31.23,2.26,0,4.49.41,6.74.6l6,.51c2.32.21,4.61.55,6.9,1,1.32.23,2.65.32,4,.59a2.11,2.11,0,0,1,1.19.77.6.6,0,0,1-.07.86,2.53,2.53,0,0,1-2.16.55,20.44,20.44,0,0,0-3.64-.58,10.62,10.62,0,0,1-1.35-.24,20.86,20.86,0,0,0-2.19-.37c-1.16-.08-2.31-.27-3.48-.29-1,0-2-.2-3-.27-1.65-.11-3.31-.25-4.94-.5s-3.45-.18-5.16-.38c-.45-.06-.91-.07-1.37-.13A7.16,7.16,0,0,1,79.67,94.46Z"/><path class="a" d="M47.85,96.41a.69.69,0,0,1-.45-.75,1,1,0,0,1,.72-1,2.29,2.29,0,0,1,.94-.06,56.73,56.73,0,0,1,5.95,1,8,8,0,0,0,1.67.21,42,42,0,0,1,5.37.36c1.22.16,2.46.16,3.68.3a22.4,22.4,0,0,1,2.92.45,3,3,0,0,1,1.12.56c.16.12.4.2.34.47a.74.74,0,0,1-.5.62,2.28,2.28,0,0,1-.73.08c-.63-.07-1.26-.18-1.89-.26-.28,0-.56-.06-.84-.07-1-.07-2,0-3-.14s-2.12,0-3.16-.16a16.78,16.78,0,0,1-3.67-.34.51.51,0,0,0-.21,0c-1.34.19-2.56-.38-3.84-.61a1.84,1.84,0,0,0-.41,0,7.75,7.75,0,0,1-2.3-.27,11,11,0,0,0-1.15-.17A1.32,1.32,0,0,1,47.85,96.41Z"/><path class="a" d="M64.36,112.42c-.43.09-.87.19-1.32.26a2,2,0,0,1-.73,0,19.08,19.08,0,0,0-2.62-.28c-1.4-.11-2.8-.28-4.2-.4-.77-.06-1.55,0-2.32-.11-2-.16-3.92-.35-5.88-.52a7.52,7.52,0,0,0-1.06,0,5.69,5.69,0,0,1-2-.38,1.09,1.09,0,0,1-.37-.19.93.93,0,0,1-.46-.89c.08-.39.44-.53.8-.59a3.94,3.94,0,0,1,.84,0c2.08.1,4.15.21,6.23.33,1.86.12,3.73.28,5.58.54.8.11,1.61.23,2.42.28,1.52.1,3,.5,4.49.69.41,0,.55.27.55.73C64.36,112,64.36,112.2,64.36,112.42Z"/><path class="a" d="M92.22,100.65l-.17-.08a.83.83,0,0,1-.52-.73c0-.27.35-.61.71-.68a1.87,1.87,0,0,1,.53,0l1.36.11a17.6,17.6,0,0,0,2.51.14,19.63,19.63,0,0,1,3.15.29.94.94,0,0,1,.82,1.1.76.76,0,0,1-.54.78,2.55,2.55,0,0,1-1.54.14,12.38,12.38,0,0,0-2.19-.19,13.64,13.64,0,0,1-3.9-.77Z"/><path class="a" d="M64.09,101.85a.55.55,0,0,1-.34-.49.34.34,0,0,1,.17-.35,1,1,0,0,1,.39-.15,10.16,10.16,0,0,1,2.52-.23c.94.1,1.89.2,2.83.28l3.27.29a4.52,4.52,0,0,1,.63.08.75.75,0,0,1,.65.91.54.54,0,0,1-.42.53,3.06,3.06,0,0,1-1,.16,12.65,12.65,0,0,1-3.25-.28,2.32,2.32,0,0,0-.53,0,10.57,10.57,0,0,1-1.66-.25,17.46,17.46,0,0,0-2.4-.28A3.73,3.73,0,0,1,64.09,101.85Z"/><path class="a" d="M57.81,78.5a6.67,6.67,0,0,1-1.69.32A11.5,11.5,0,0,1,55,78.9c-.65,0-1.09.23-1.16.94a37.19,37.19,0,0,1-2.72,5,3.43,3.43,0,0,0-.41.61,26.18,26.18,0,0,1-1.54,2.8,5.27,5.27,0,0,0-.72,1.87,2.12,2.12,0,0,1-.13.51c-.33.89-.61,1-1.53.84a1.11,1.11,0,0,1-.77-.67,2.55,2.55,0,0,1-.24-1,19.92,19.92,0,0,0-.42-3.26,2,2,0,0,1-.06-.42c-.1-1.84-.56-3.64-.66-5.47-.06-1.14-.36-2.24-.38-3.37,0-.24-.15-.35-.39-.44a22.31,22.31,0,0,1-4.37-2.38A12.15,12.15,0,0,1,38,73.29a2.28,2.28,0,0,1-.76-2.21,2.88,2.88,0,0,1,1.67-2.29,8.93,8.93,0,0,1,3.18-.8,31.45,31.45,0,0,1,7.32.05,17.84,17.84,0,0,1,1.78.29,19.15,19.15,0,0,1,5.09,1.79c.46.26,1,.45,1.43.7a2.39,2.39,0,0,1,1.4,1.37c.07.26.32.37.51.51a3,3,0,0,1,1,1.2,2.93,2.93,0,0,1,0,2.18,2.57,2.57,0,0,1-.64,1.2,5.27,5.27,0,0,1-1.59,1ZM41.57,70.42a2.48,2.48,0,0,0-1.53.66.37.37,0,0,0,0,.63,16.64,16.64,0,0,0,4.81,2.87c1.67.59,3.37,1.07,5.08,1.5.48.13,1,.17,1.46.28a13,13,0,0,0,5.27,0,3.52,3.52,0,0,0,1.84-1c.24-.24.26-.4,0-.64a6,6,0,0,1-1.35-1.88.58.58,0,0,0-.39-.31l-2.06-.86a26.65,26.65,0,0,0-4.27-1.31,14.3,14.3,0,0,0-2.63-.25,27.25,27.25,0,0,0-4.14,0A6.74,6.74,0,0,0,41.57,70.42Zm9.94,8.45a8.93,8.93,0,0,0-2.25-.4A17.82,17.82,0,0,0,47,77.92c.11,2.45.74,4.78.85,7.17a1.57,1.57,0,0,0,.08.31.18.18,0,0,0,.06.09.59.59,0,0,0,.14,0,10.5,10.5,0,0,0,1-1.7,2.72,2.72,0,0,1,.27-.57,18.11,18.11,0,0,0,2-3.62A1.07,1.07,0,0,0,51.51,78.87Z"/><path class="d" d="M41.57,70.42a6.74,6.74,0,0,1,2.09-.31,27.25,27.25,0,0,1,4.14,0,14.3,14.3,0,0,1,2.63.25,26.65,26.65,0,0,1,4.27,1.31l2.06.86a.58.58,0,0,1,.39.31,6,6,0,0,0,1.35,1.88c.24.24.22.4,0,.64a3.52,3.52,0,0,1-1.84,1,13,13,0,0,1-5.27,0c-.48-.11-1-.15-1.46-.28-1.71-.43-3.41-.91-5.08-1.5A16.64,16.64,0,0,1,40,71.71a.37.37,0,0,1,0-.63A2.48,2.48,0,0,1,41.57,70.42Zm8.15,3a.85.85,0,0,0,.61.67,4.79,4.79,0,0,0,.9.31,7,7,0,0,0,2.19.28.93.93,0,0,0,.87-.9c0-.64-.2-.92-.83-1a25.51,25.51,0,0,0-3.27-.08C49.76,72.71,49.59,73,49.72,73.46Z"/><path class="d" d="M51.51,78.87a1.07,1.07,0,0,1-.19.73,18.11,18.11,0,0,1-2,3.62,2.72,2.72,0,0,0-.27.57,10.5,10.5,0,0,1-1,1.7.59.59,0,0,1-.14,0,.18.18,0,0,1-.06-.09,1.57,1.57,0,0,1-.08-.31c-.11-2.39-.74-4.72-.85-7.17a17.82,17.82,0,0,1,2.29.55A8.93,8.93,0,0,1,51.51,78.87Z"/><path class="a" d="M49.72,73.46c-.13-.45,0-.75.47-.74a25.51,25.51,0,0,1,3.27.08c.63.1.82.38.83,1a.93.93,0,0,1-.87.9,7,7,0,0,1-2.19-.28,4.79,4.79,0,0,1-.9-.31A.85.85,0,0,1,49.72,73.46Z"/></svg>