<svg xmlns="http://www.w3.org/2000/svg" viewBox="0 0 141.73 141.73"><defs><style>.a{fill:#6c8f6a;}.b{fill:#703c59;}</style></defs><path class="a" d="M62.59,62.84a4.38,4.38,0,0,1-.3-.48c-.28-.51-.36-.62-.83-.48-1.05.32-2.13.53-3.18.74l-.8.16c-1,.2-2,.43-3,.66a46.45,46.45,0,0,1-7,1.25c-4.1.3-8.29.31-12.33.32H31.6a34.41,34.41,0,0,1-14.15-2.65,1.63,1.63,0,0,0-.46-.09l-.18.3a4.67,4.67,0,0,0-.84,2c0,.58.72.91,1.33,1.09l.58.14.11,0c5.57,1,11.33,2,15.91,1.67,10.9.31,17.88-.33,25.78-2.34A7.93,7.93,0,0,0,61.86,64l.59-.38h0a.58.58,0,0,0,.28-.36A.56.56,0,0,0,62.59,62.84Z"/><path class="a" d="M20.25,68.74l2.55,6.7Q26.91,86.17,31,96.91c.16.42.3.47.86.48h.61c5.14.07,10.45.14,15.68.27.7,0,.92-.13,1.16-.79q4-10.68,8-21.33l3-7.86,0-.08C48.41,70.42,35.63,70.79,20.25,68.74Z"/><path class="b" d="M64.77,61.79a9.87,9.87,0,0,0-3.15-3.34c-3.93-2.79-9.34-3.77-22.25-4-10.82-.21-16.09,1.65-21,3.75a8.57,8.57,0,0,0-4.06,3.48,4.42,4.42,0,0,0-.71,3.83A4.62,4.62,0,0,0,16.79,68a1.25,1.25,0,0,1,.93.86q3.48,9.21,7,18.41L27,93.11l.24.69L27,94a7.59,7.59,0,0,1-1,.61,8.88,8.88,0,0,0-4,6.2,3.69,3.69,0,0,0,1.14,3.37c2.09,1.79,6.52,2.46,8.83,2.47l6.38,0H51.19a13.05,13.05,0,0,0,4-.54,5.84,5.84,0,0,0,3.94-4.8c.54-2.74-.16-4.73-2.15-6.1a8.74,8.74,0,0,0-3.79-1.66c.16-.53.39-1.26.47-1.46L60,75.24l.84-2.15c.66-1.7,1.35-3.46,1.91-5.24A5.64,5.64,0,0,1,64.41,65,2.52,2.52,0,0,0,64.77,61.79Zm-2.32,1.84h0l-.59.38a7.93,7.93,0,0,1-2.18,1.12c-7.9,2-14.88,2.65-25.78,2.34-4.58.32-10.34-.69-15.91-1.67l-.11,0-.58-.14c-.61-.18-1.34-.51-1.33-1.09a4.67,4.67,0,0,1,.84-2l.18-.3a1.63,1.63,0,0,1,.46.09A34.41,34.41,0,0,0,31.6,65h3.53c4,0,8.23,0,12.33-.32a46.45,46.45,0,0,0,7-1.25c1-.23,2-.46,3-.66l.8-.16c1-.21,2.13-.42,3.18-.74.47-.14.55,0,.83.48a4.38,4.38,0,0,0,.3.48.56.56,0,0,1,.14.43A.58.58,0,0,1,62.45,63.63ZM30,57.25c4.3-.42,18.84-1.43,29.3,2.64l-1.39.32c-1,.2-1.94.43-2.91.65-2.21.51-4.5,1-6.77,1.34a68.92,68.92,0,0,1-9.84.53c-4.89,0-9.18-.28-13.14-.68A25.71,25.71,0,0,1,20.52,61c-.48-.15-1-.29-1.45-.42C23.79,58.66,27.73,57.46,30,57.25Zm26.65,41a3.12,3.12,0,0,1,.22,2.61,4.29,4.29,0,0,1-2.12,2.81,6.89,6.89,0,0,1-2.56.52c-5.69,0-11.48,0-17.07,0H32.15c-2.69,0-4.7-.4-5.66-1.1-1.64-1.19-1.77-2.67-.43-4.93a5.92,5.92,0,0,1,2-2l.12.31c.27.66.51,1.28.74,1.92a2,2,0,0,0,2,1.44q9.12.12,18.25.28a1.9,1.9,0,0,0,2-1.36c.35-1,.53-1.42.79-2.11l.29-.76C54.86,96.44,55.55,96.85,56.61,98.28Zm3.69-30.6-3,7.86q-4,10.67-8,21.33c-.24.66-.46.81-1.16.79-5.23-.13-10.54-.2-15.68-.27h-.61c-.56,0-.7-.06-.86-.48Q26.92,86.17,22.8,75.44l-2.55-6.7c15.38,2.05,28.16,1.68,40.08-1.14Z"/><path class="b" d="M70.09,42.68a7,7,0,0,0-4.52-5.56A33.15,33.15,0,0,0,61.64,36l-.33-.08A3,3,0,0,0,63,33.78a2.3,2.3,0,0,0-.77-2.05c-2.66-2.53-6.63-2.27-7.81-2.13a18.87,18.87,0,0,0-11.86,5.61,39.1,39.1,0,0,0-7.17,8.95l-.57-.73c-.75-1-1.49-1.89-2.2-2.83a32.12,32.12,0,0,0-10.15-9.29,3.09,3.09,0,0,0-3.06-.21A3,3,0,0,0,18,33.75a22.67,22.67,0,0,0,.24,4.34c.51,3.44,2.4,6.46,5.79,9.24,2.71,2.23,5.65,4.25,8.68,6.29a6.25,6.25,0,0,1,2.6,3.26c.22.64.51,1.27.78,1.87s.49,1.08.69,1.62a2,2,0,0,0,2.11,1.46,7.3,7.3,0,0,0,.86-.07c1.17-.14,1.73-.94,1.66-2.36-.08-1.66-.15-3.31-.26-5a3.35,3.35,0,0,1,2-2.94l1.81-.67a63.34,63.34,0,0,0,6.36-2.6,25.26,25.26,0,0,1,13.86-2.72,18.82,18.82,0,0,0,2.69,0,2.14,2.14,0,0,0,2.24-2.87ZM56.28,31.47a9.86,9.86,0,0,1,3,.48,2.84,2.84,0,0,1,1.26,1.17.82.82,0,0,1,.15.61.93.93,0,0,1-.55.48c-.44.18-.88.38-1.31.58A36.48,36.48,0,0,0,44.05,46.37c-.94,1.27-2,2.5-3,3.68l-.91,1.07-.43-.69a31.7,31.7,0,0,0-1.94-2.89,2.46,2.46,0,0,1,0-3.36c2.07-2.66,4.12-5.25,6.41-7.67a16.13,16.13,0,0,1,12-5Z"/><path class="a" d="M127.79,17.61A9.5,9.5,0,0,0,121.3,12c-9.21-2.51-22.48.48-28.66,9.61a6.62,6.62,0,0,1-.74.87A51.82,51.82,0,0,0,82.29,13c-4.56-3.35-10-2.7-15.3-2.22-3.48.31-5.9,2.44-7.65,5.3-2.36,3.86-.79,7.6,3.57,8.61a14,14,0,0,0,3.63.41c5.14-.2,10.27-.63,15.4-.72a10.55,10.55,0,0,1,9.34,4.93,20.28,20.28,0,0,1,2.66,6.43c.47,2.57,1,12.12,1.12,14.83-4.12,0-8,.06-11.81,0a4,4,0,0,0-3.82,2c-2.57,3.92-5.34,7.7-8,11.6a2.62,2.62,0,0,0-.21,2q5.8,19.24,11.68,38.47a2.52,2.52,0,0,0,2.69,2q3.27,0,6.56.14c2.67.09,3.21,1,1.72,3.34-1.28,2-2.8,3.85-4.24,5.75-1.32,1.74-2.73,3.42-3.94,5.24a1.21,1.21,0,0,0,.37,1.78,1.34,1.34,0,0,0,1.67-.29l.71-.89,7.42-9.19a23.15,23.15,0,0,0,1.52,1.85c2.21,2.19,2.45,4.61,1.21,7.42-1,2.23-1.71,4.58-2.49,6.9-.34,1-.7,2.2.6,2.66s1.65-.82,2-1.78c.75-2.06,1.3-4.2,2.23-6.17,2-4.16,1.62-7.83-1.72-11.14a10.36,10.36,0,0,0-1.58-1.41c.17-.16.78-1.7,1-1.86a26.46,26.46,0,0,1,3.08,2.7c1.64,1.44,3.13,3.06,4.66,4.62,1.81,1.86,3.94,2.73,6.46,1.88.74-.25,1.8-1.16,1.78-1.73,0-1.33-1.3-1.27-2.23-1a3,3,0,0,1-3.57-.75c-2.81-2.37-5.37-5-8-7.52,2.51,0,5.24,0,8,0,2.89.07,3.2-.11,3.83-2.85,2.89-12.62,5.83-25.24,8.58-37.89a8.16,8.16,0,0,0-.63-4.78c-1.4-3.1-3.28-6-4.8-9-.93-1.87-1.68-2.32-3.74-2.27-4.36.1-9.33.29-13.83.29a61.9,61.9,0,0,1-.34-6.68A51.83,51.83,0,0,0,97,37.08h0c0-.07,0-.14,0-.21s0-.17,0-.24h0c-.34-1.68-.71-3.35-1.2-5-.43-1.45-.22-2.11.86-2.82a17.06,17.06,0,0,1,9.17-2.56c3.8-.09,7.6,0,11.39-.08,3.23-.09,6.44-.4,9.12-2.57C128.3,21.94,128.84,20.05,127.79,17.61Zm-38,6.92c-5-2.52-11.92-2.49-17-2.32A66.69,66.69,0,0,1,64,22c-2.89-.29-3.73-2.38-2.1-4.85C63.31,15,65.24,13.43,68,13.39c4.52-.06,9.27-.93,13.2,2.09,2.65,2,6.81,5.92,9.24,8.23C90.25,23.92,89.79,24.53,89.79,24.53ZM114.4,86.39c-1.25,5.43-2.54,11-3.76,16.56a2,2,0,0,1-2.28,1.92h-.15c-3-.09-5.92-.16-8.88-.23-4-.09-8.22-.19-12.33-.33a2.82,2.82,0,0,1-2.21-1.58c-3.24-10.44-6.47-21.07-9.59-31.35L74,67.26a2.57,2.57,0,0,1-.08-.54c0-.12,0-.26,0-.45l0-.55h45.38Zm-16-29a27.67,27.67,0,0,0,.07-4.33c4.68,0,9.23,0,13.77,0a1.26,1.26,0,0,1,.93.53c1.69,3,3.34,6.05,5.2,9.46H75.83c2-3.1,4-6.11,6-9.08a1.77,1.77,0,0,1,1.26-.69c4-.05,8,0,12.27,0a21.56,21.56,0,0,0,.07,4.12c.15.73.13,2,1.6,2C98.2,59.5,98.25,58.14,98.37,57.43ZM125.52,19.9c-.13,1.45-2.61,3.1-5.43,3.27-4,.24-8,.24-11.94.36a54.24,54.24,0,0,0-5.57.29,16.46,16.46,0,0,0-8.77,3.63c-.17-.09-1-1.17-1.18-1.17.67-1,1-1.28,1.7-2.24,2.92-3.91,6.29-6.91,10.87-8.49a25.46,25.46,0,0,1,15.15-1c.12,0,.25.06.37.09C123.3,15.48,125.68,18.07,125.52,19.9Z"/><path class="b" d="M73.83,66.27c0,.19,0,.33,0,.45a2.57,2.57,0,0,0,.08.54l1.25,4.12c3.12,10.28,6.35,20.91,9.59,31.35A2.82,2.82,0,0,0,87,104.31c4.11.14,8.29.24,12.33.33,3,.07,5.92.14,8.88.23h.15a2,2,0,0,0,2.28-1.92c1.22-5.53,2.51-11.13,3.76-16.56l4.76-20.67H73.78Z"/></svg>