<svg xmlns="http://www.w3.org/2000/svg" viewBox="0 0 437.36 350.06"><defs><style>.a{fill:#6b8f6a;}.b{fill:#f6c74b;}.c{fill:#703a58;}.d{fill:#fff;}.e{fill:#fefeff;}</style></defs><path class="a" d="M324.22,246c-1-.23-1.85-.41-2.72-.68-.48-.14-.89-.08-1.1.45-.34.83-.6,1.7-.89,2.55-.78,2.28-2.39,3.48-4.62,3.13a46.56,46.56,0,0,1-5.29-1.34,2.28,2.28,0,0,1-1.23-2.27c1.29-4.39,2.29-8.9,4-13.12,3.45-8.47,7.11-16.88,12.29-24.51a70.07,70.07,0,0,1,8.56-10.71,17.15,17.15,0,0,1,5.56-4,6.46,6.46,0,0,1,2.67-.29,2.14,2.14,0,0,1,1.45,3.15,18.53,18.53,0,0,1-1.78,2.06,55.5,55.5,0,0,0-12.25,17.25q-1.9,4-3.56,8.18a10.08,10.08,0,0,0-.31,2.67c1.13.14,1.19-1,1.7-1.52a10.31,10.31,0,0,0,1.58-2.24c2.93-5.45,7.62-9.07,12.69-12.28a17.42,17.42,0,0,1,4.36-1.95,8.53,8.53,0,0,1,3.38,0,2.75,2.75,0,0,1,2.1,1.6,2.82,2.82,0,0,1-.77,3.11c-1.58,1.33-3.19,2.62-4.79,3.91-2.14,1.72-4.34,3.36-6.43,5.14A37.24,37.24,0,0,0,327,242.47a8.44,8.44,0,0,1-1.17,2.46A6,6,0,0,1,324.22,246Z"/><path class="a" d="M107.51,232.45c1-.23,1.85-.41,2.72-.67.49-.15.89-.09,1.11.44.33.84.6,1.7.89,2.55.77,2.28,2.38,3.48,4.61,3.13a44.54,44.54,0,0,0,5.29-1.34,2.3,2.3,0,0,0,1.24-2.27c-1.3-4.38-2.3-8.9-4-13.11-3.45-8.48-7.12-16.89-12.3-24.51A69.48,69.48,0,0,0,98.51,186,17,17,0,0,0,92.94,182a6.25,6.25,0,0,0-2.66-.3,2.15,2.15,0,0,0-1.46,3.15,18.58,18.58,0,0,0,1.79,2.07,55.52,55.52,0,0,1,12.24,17.25c1.27,2.68,2.46,5.42,3.57,8.18a10.05,10.05,0,0,1,.3,2.66c-1.13.14-1.19-1-1.7-1.52a10.66,10.66,0,0,1-1.58-2.24c-2.92-5.45-7.62-9.07-12.69-12.27a16.94,16.94,0,0,0-4.36-2A8.72,8.72,0,0,0,83,197a2.71,2.71,0,0,0-2.09,1.6,2.79,2.79,0,0,0,.77,3.11c1.57,1.33,3.18,2.62,4.79,3.91,2.14,1.72,4.34,3.36,6.42,5.15a37.25,37.25,0,0,1,11.8,18.14,7.91,7.91,0,0,0,1.17,2.45A6.12,6.12,0,0,0,107.51,232.45Z"/><path class="b" d="M317.43,72.63l-1.15,1.72a1.44,1.44,0,0,1-1.1.64c-.88.11-1.76.24-2.62.42-1.52.32-3.05.64-4.55,1s-2.76.84-4.14,1.26a1.78,1.78,0,0,1-1.58-.29,6.76,6.76,0,0,1-2-2.22c-1.13-1.88-.8-2.54,1.13-3.73a3.38,3.38,0,0,1,.62-.26c3.09-.93,6-2.21,9.06-3.36.83-.32,1.69-.56,2.54-.83a1.45,1.45,0,0,1,1.53.36,7.46,7.46,0,0,1,2.31,4.69A2.68,2.68,0,0,1,317.43,72.63Z"/><path class="b" d="M296.06,69.87c-.91-.63-1.84-1.24-2.73-1.89a1.25,1.25,0,0,1-.31-1.51,28.14,28.14,0,0,1,4.57-5.74c.86-.86,1.75-1.7,2.62-2.56a10.34,10.34,0,0,1,2.88-1.66.73.73,0,0,1,.63.06,10.68,10.68,0,0,1,4.39,5.69,1,1,0,0,1-.38,1.16c-.78.43-1.56.88-2.36,1.25a21.59,21.59,0,0,0-6,4.17,4.52,4.52,0,0,1-1,.85A2.48,2.48,0,0,1,296.06,69.87Z"/><path class="b" d="M155.73,138.51c.55-.51,1-1,1.52-1.4a1.45,1.45,0,0,1,1.22-.36c.88.1,1.77.18,2.65.21,1.55,0,3.11.1,4.66.07s2.89-.17,4.33-.25a1.77,1.77,0,0,1,1.46.65,6.81,6.81,0,0,1,1.42,2.63c.65,2.09.18,2.65-2,3.35a2.46,2.46,0,0,1-.66.11c-3.23.17-6.41.73-9.6,1.13-.89.12-1.78.14-2.67.21a1.45,1.45,0,0,1-1.4-.72,7.39,7.39,0,0,1-1.13-5.1A2.48,2.48,0,0,1,155.73,138.51Z"/><path class="b" d="M175.84,146.24c.74.82,1.5,1.63,2.21,2.48a1.25,1.25,0,0,1-.06,1.54,28,28,0,0,1-5.79,4.5c-1,.64-2.11,1.24-3.16,1.86a9.88,9.88,0,0,1-3.18.94.73.73,0,0,1-.6-.2c-1.59-1.92-2.86-4-2.92-6.57a1,1,0,0,1,.64-1c.86-.23,1.72-.49,2.59-.66a21.52,21.52,0,0,0,6.83-2.63,4.37,4.37,0,0,1,1.19-.58A2.44,2.44,0,0,1,175.84,146.24Z"/><path class="a" d="M327.53,159.79c-.17-.66-.34-1.32-.52-2a.57.57,0,0,0-.51-.23c-.58.2-1.16.38-1.73.62a6.78,6.78,0,0,1-4.8.06A2.72,2.72,0,0,1,318.4,157c-.07-.12-.16-.23-.23-.34a4.07,4.07,0,0,1,.65-5.22,10.89,10.89,0,0,1,1.11-.9.56.56,0,0,0,.08-.88c-.51-.64-1-1.28-1.53-1.91a2.86,2.86,0,0,1-.45-2.89,3.68,3.68,0,0,1,1.26-1.82,2.83,2.83,0,0,1,1.69-.64,8.74,8.74,0,0,1,3.39.65c.38.14.74.34,1.12.48a.37.37,0,0,0,.33-.09c.27-.7.49-1.42.76-2.12a3.69,3.69,0,0,1,3.38-2.22,3,3,0,0,1,2.13,1.08,5.33,5.33,0,0,1,1.35,2.93c.07.47.08,1,.13,1.42.07.69.34.84.93.54a5.64,5.64,0,0,0,.53-.31c1.42-1,3-.82,4.52-.47a1.67,1.67,0,0,1,.84.55,4,4,0,0,1,1,3.59,7.12,7.12,0,0,1-1.33,2.95.38.38,0,0,0,.18.51,2.46,2.46,0,0,0,.38.14,3.73,3.73,0,0,1,2.34,2.4,6.61,6.61,0,0,1,.46,2.6,3.45,3.45,0,0,1-2.11,3,5.47,5.47,0,0,1-3.8.17,6.71,6.71,0,0,0-1-.21c-.17,0-.28,0-.28.22a6.79,6.79,0,0,0,0,1,5.55,5.55,0,0,1-.11,2,3.14,3.14,0,0,1-1.7,2.18,5.05,5.05,0,0,1-.94.39,2.86,2.86,0,0,1-1,0,8.29,8.29,0,0,1-1.18-.33,3,3,0,0,1-1.62-1.18,12,12,0,0,1-1.57-2.85c-.2-.58-.36-1.17-.55-1.76Zm4.46-4.64a1.71,1.71,0,0,0,1.31-1.63,2.91,2.91,0,0,0-.95-2.18,12.12,12.12,0,0,0-3.51-2,1.82,1.82,0,0,0-.4-.11,2.4,2.4,0,0,0-1.78.2,1.65,1.65,0,0,0-.9,2.05,3.65,3.65,0,0,0,.58,1.06,8.32,8.32,0,0,0,2,1.75,6.59,6.59,0,0,0,2.45,1A2.59,2.59,0,0,0,332,155.15Zm9.11,3a1.61,1.61,0,0,0,.66-2c-.21-.42-.46-.82-.7-1.23a1.56,1.56,0,0,0-1-.69,12.65,12.65,0,0,0-3-.36c-2.74-.18-2-.41-3,1.87a.55.55,0,0,0,.17.71,9.86,9.86,0,0,0,2.6,1.57,7.18,7.18,0,0,0,3.59.38A5.72,5.72,0,0,0,341.1,158.11Zm-11.82,1.48a21.34,21.34,0,0,0,.68,2.14,3.13,3.13,0,0,0,2.83,2,1.76,1.76,0,0,0,1.95-1.43,2.93,2.93,0,0,0-.36-2.15,15.19,15.19,0,0,0-1.86-2.43,1.22,1.22,0,0,0-1-.52,5.07,5.07,0,0,1-1.8-.29,3,3,0,0,0-.59-.1c-.14,0-.37.24-.38.4A5.65,5.65,0,0,0,329.28,159.59Zm-4.7-3.44c.58-.24,1-.38,1.33-.55a.69.69,0,0,0,.32-1l-1.88-2.41a1.17,1.17,0,0,0-.89-.43,4.93,4.93,0,0,0-3.07.91,2.82,2.82,0,0,0-1.17,1.6,1.27,1.27,0,0,0,.77,1.66A7.73,7.73,0,0,0,324.58,156.15Zm6.5-8.29c.09-.1.23-.18.27-.3a13.65,13.65,0,0,0,.54-2.16,4.48,4.48,0,0,0-.48-2.77,2.19,2.19,0,0,0-2.23-1.11.89.89,0,0,0-.54.24,2.61,2.61,0,0,0-.62.79,8.25,8.25,0,0,0-.56,4,.8.8,0,0,0,.48.61c.92.24,1.83.49,2.75.72A1.71,1.71,0,0,0,331.08,147.86Zm5.24,3.33c.48-.15.8-.23,1.12-.35a3.26,3.26,0,0,0,1.93-2,1.77,1.77,0,0,0-1.33-2.47,2.51,2.51,0,0,0-1.79,0,8.18,8.18,0,0,0-3.12,2.17.38.38,0,0,0,0,.52,6.62,6.62,0,0,1,1.47,1.65c.36.66.48.68,1.1.54Zm-10.7-4.64a3.21,3.21,0,0,0-.46-.66,5.74,5.74,0,0,0-3.69-1.48,2.31,2.31,0,0,0-1.17.29,1.53,1.53,0,0,0-.52,2.25,6.25,6.25,0,0,0,2.57,1.92,2.12,2.12,0,0,0,1.56.28c.34-.14.59-.52.88-.79a6.2,6.2,0,0,1,.6-.55C325.78,147.52,325.81,147.16,325.62,146.55Z"/><path class="b" d="M332,155.15a2.59,2.59,0,0,1-1.21.07,6.59,6.59,0,0,1-2.45-1,8.32,8.32,0,0,1-2-1.75,3.65,3.65,0,0,1-.58-1.06,1.65,1.65,0,0,1,.9-2.05,2.4,2.4,0,0,1,1.78-.2,1.82,1.82,0,0,1,.4.11,12.12,12.12,0,0,1,3.51,2,2.91,2.91,0,0,1,.95,2.18A1.71,1.71,0,0,1,332,155.15Z"/><path class="a" d="M341.1,158.11a5.72,5.72,0,0,1-.68.21,7.18,7.18,0,0,1-3.59-.38,9.86,9.86,0,0,1-2.6-1.57.55.55,0,0,1-.17-.71c1-2.28.28-2,3-1.87a12.65,12.65,0,0,1,3,.36,1.56,1.56,0,0,1,1,.69c.24.41.49.81.7,1.23A1.61,1.61,0,0,1,341.1,158.11Z"/><path class="a" d="M329.28,159.59a5.65,5.65,0,0,1-.57-2.36c0-.16.24-.42.38-.4a3,3,0,0,1,.59.1,5.07,5.07,0,0,0,1.8.29,1.22,1.22,0,0,1,1,.52,15.19,15.19,0,0,1,1.86,2.43,2.93,2.93,0,0,1,.36,2.15,1.76,1.76,0,0,1-1.95,1.43,3.13,3.13,0,0,1-2.83-2A21.34,21.34,0,0,1,329.28,159.59Z"/><path class="a" d="M324.58,156.15a7.73,7.73,0,0,1-4.59-.23,1.27,1.27,0,0,1-.77-1.66,2.82,2.82,0,0,1,1.17-1.6,4.93,4.93,0,0,1,3.07-.91,1.17,1.17,0,0,1,.89.43l1.88,2.41a.69.69,0,0,1-.32,1C325.54,155.77,325.16,155.91,324.58,156.15Z"/><path class="a" d="M331.08,147.86a1.71,1.71,0,0,1-.39,0c-.92-.23-1.83-.48-2.75-.72a.8.8,0,0,1-.48-.61,8.25,8.25,0,0,1,.56-4,2.61,2.61,0,0,1,.62-.79.89.89,0,0,1,.54-.24,2.19,2.19,0,0,1,2.23,1.11,4.48,4.48,0,0,1,.48,2.77,13.65,13.65,0,0,1-.54,2.16C331.31,147.68,331.17,147.76,331.08,147.86Z"/><path class="a" d="M336.32,151.19l-.63.15c-.62.14-.74.12-1.1-.54a6.62,6.62,0,0,0-1.47-1.65.38.38,0,0,1,0-.52,8.18,8.18,0,0,1,3.12-2.17,2.51,2.51,0,0,1,1.79,0,1.77,1.77,0,0,1,1.33,2.47,3.26,3.26,0,0,1-1.93,2C337.12,151,336.8,151,336.32,151.19Z"/><path class="a" d="M325.62,146.55c.19.61.16,1-.23,1.26a6.2,6.2,0,0,0-.6.55c-.29.27-.54.65-.88.79a2.12,2.12,0,0,1-1.56-.28,6.25,6.25,0,0,1-2.57-1.92,1.53,1.53,0,0,1,.52-2.25,2.31,2.31,0,0,1,1.17-.29,5.74,5.74,0,0,1,3.69,1.48A3.21,3.21,0,0,1,325.62,146.55Z"/><path class="a" d="M234.66,291.69c-2.54,0-5.09.14-7.62.09-17.51-.35-35,.21-52.51.47-6.77.1-13.54,0-20.32,0-13.84-.05-27.66.39-41.49.78q-16.92.48-33.86.6c-5.07,0-10.13-.43-15.19-.6-14.08-.46-28.17-.87-42.25-1.33A66.1,66.1,0,0,1,8.25,290c-2.16-.52-2.78-1.4-2.33-2.92a11.14,11.14,0,0,1,2.72-4.43c7.06-7.44,13.27-15.19,21.39-22.25q9.9-8.61,19.68-17.28c2.94-2.6,5.7-5.28,8.67-7.86,4.84-4.21,11.59-6.32,19.72-6,16.37.65,32.72,0,49.08-.21q29.22-.31,58.42-.57,5.09,0,10.16-.17c13-.31,26,0,38.94.2,12.13.19,24.27.13,36.4.18,5.65,0,11.29,0,16.93,0,5.08,0,10.16-.17,15.23-.15q19.9.07,39.79.25c2.24,0,4.45.45,6.69.56a29.12,29.12,0,0,1,13.44,3.95q6.17,3.57,12.45,7.05c9.82,5.47,19.63,10.95,29.53,16.36a202.69,202.69,0,0,1,21,13.55,47.52,47.52,0,0,1,4.91,4.24,1.88,1.88,0,0,1,.49,1.49,10,10,0,0,1-.59,2.08c-.65,2-2.47,3.51-5.15,4.68a68.78,68.78,0,0,1-15.42,4.32,135.17,135.17,0,0,1-22.54,2.29c-7.33.06-14.67.24-22,.37-1.13,0-2.26.05-3.39.1-19.75.84-39.5.71-59.25.65-12.7,0-25.41.18-38.11.41-10.16.18-20.32.56-30.47.85Z"/><path class="c" d="M240.14,267.31c-15.62,2.91-28,5.32-40.43,7.51-7.67,1.34-15.4,2.4-23.11,3.49a23.51,23.51,0,0,1-14.67-2.38,270,270,0,0,1-27.84-16.43c-6.23-4.3-12.4-8.7-19-12.43a4.41,4.41,0,0,1-2.43-4.53,44.13,44.13,0,0,1,.92-6.8c2-8.26,4.14-16.46,7.64-24.25.84-1.88,1.41-3.88,2.2-5.79a33.7,33.7,0,0,1,12.15-15.46,22.62,22.62,0,0,1,4.74-2.76,73.22,73.22,0,0,1,13.83-4.06,173.14,173.14,0,0,1,20.58-1.54,153.23,153.23,0,0,0,19.82-2.06c5-.82,10-1.5,15-2,14.83-1.53,29.66-3,44.5-4.39,9.82-.89,19.66-1.59,29.49-2.21,4.12-.25,8.26-.15,12.38,0a31.9,31.9,0,0,1,10.08,2,18.28,18.28,0,0,1,10.5,9.39,25.8,25.8,0,0,1,2.22,6.49,76.23,76.23,0,0,1,1.57,13.65c.08,6,.44,11.93.68,17.89.38,9.16.78,18.32,1.13,27.48.07,1.83,0,3.67,0,5.5a3.51,3.51,0,0,1-3.29,3.72c-5.48.48-11,.9-16.45,1.39-4.34.38-8.68.77-13,1.26-3.87.44-7.72,1.08-11.6,1.53C264,263.08,250.38,265,240.14,267.31Zm4.76-6c16.47-2.89,31.26-4.62,46-6.42,7.05-.86,14.1-1.77,21.14-2.66.68-.08,1.36-.2,2-.33a2,2,0,0,0,1.74-1.82c.13-1.83.29-3.66.28-5.48,0-5.27-.2-10.54-.21-15.81,0-11.24-.36-22.46-1.42-33.66a27.62,27.62,0,0,0-2.76-9.87,13.3,13.3,0,0,0-8.82-7.09,42.46,42.46,0,0,0-9.52-1.16c-2.06-.08-4.12-.15-6.18-.11-4.12.09-8.26.1-12.36.44-6.39.53-12.76,1.34-19.14,2-13.67,1.4-27.36,2.74-41,4.18-3.42.36-6.83.63-10.27.83a49.66,49.66,0,0,0-10.18,1.43c-6.72,1.84-13.6,1.78-20.44,2.31-3,.23-5.94.3-8.9.55-.85.07-2.08.25-2.4.81-.54.93.61,1.53,1.26,2.12a43.1,43.1,0,0,1,5.93,6.64c5.24,7.29,7.84,15.5,8.73,24.31a158.6,158.6,0,0,1,0,26.78c-.47,6.86-.82,13.73-1.19,20.59-.11,2,.84,2.75,3,2.55,1.37-.12,2.74-.28,4.1-.49,5.43-.83,10.89-1.6,16.3-2.57C216,266.64,231.36,263.8,244.9,261.33Zm-73.61-42.24c-1-3.46-1.82-6.55-2.74-9.63a37.2,37.2,0,0,0-6.25-11.38,18.24,18.24,0,0,0-6.43-5.07,11.45,11.45,0,0,0-9.94-.59,23.45,23.45,0,0,0-6.56,3.64,28.74,28.74,0,0,0-8.62,11.39,220.83,220.83,0,0,0-10,30,24.19,24.19,0,0,0-.61,3.38,2.46,2.46,0,0,0,1.07,2.38c1.7,1.16,3.45,2.24,5.2,3.32A1.08,1.08,0,0,0,128,246q1.19-7.46,2.35-14.91c.73-4.75,1.38-9.51,2.17-14.25.4-2.37,2-3.25,4.58-2.91,6.87.92,13.25,3.51,19.73,5.76,2.29.8,3.09,2.27,2.84,4.84-.3,3.19-.6,6.39-1.08,9.56-1.29,8.39-2,16.84-2.7,25.28a33.58,33.58,0,0,0-.07,4.81,2.83,2.83,0,0,0,1.37,2.27,51.44,51.44,0,0,0,10.44,5.15,1.42,1.42,0,0,0,1.87-1.35q.63-9.95,1.23-19.89c.34-5.71.78-11.43.9-17.15C171.72,228.37,171.41,223.56,171.29,219.09Zm-24.44,40.63c.32-.31.83-.57.91-.92a43.29,43.29,0,0,0,1-5.37q1.06-11.6,2.87-23.09a29.26,29.26,0,0,0,.22-4.09,2.87,2.87,0,0,0-2.1-3.15c-2.39-.73-4.82-1.33-7.24-2-3.35-.91-4.35-.8-5.06,3.23-.2,1.13-.44,2.24-.62,3.37-1.18,7.43-1.55,15-3.31,22.32a2.13,2.13,0,0,0,.73,1.78c3.73,2.62,7.52,5.16,11.32,7.68A3.49,3.49,0,0,0,146.85,259.72Z"/><path class="a" d="M244.9,261.33c-13.54,2.47-28.86,5.31-44.2,8.06-5.41,1-10.87,1.74-16.3,2.57-1.36.21-2.73.37-4.1.49-2.17.2-3.12-.59-3-2.55.37-6.86.72-13.73,1.19-20.59a158.6,158.6,0,0,0,0-26.78c-.89-8.81-3.49-17-8.73-24.31a43.1,43.1,0,0,0-5.93-6.64c-.65-.59-1.8-1.19-1.26-2.12.32-.56,1.55-.74,2.4-.81,3-.25,5.94-.32,8.9-.55,6.84-.53,13.72-.47,20.44-2.31a49.66,49.66,0,0,1,10.18-1.43c3.44-.2,6.85-.47,10.27-.83,13.67-1.44,27.36-2.78,41-4.18,6.38-.65,12.75-1.46,19.14-2,4.1-.34,8.24-.35,12.36-.44,2.06,0,4.12,0,6.18.11a42.46,42.46,0,0,1,9.52,1.16,13.3,13.3,0,0,1,8.82,7.09,27.62,27.62,0,0,1,2.76,9.87c1.06,11.2,1.42,22.42,1.42,33.66,0,5.27.18,10.54.21,15.81,0,1.82-.15,3.65-.28,5.48a2,2,0,0,1-1.74,1.82c-.68.13-1.36.25-2,.33-7,.89-14.09,1.8-21.14,2.66C276.16,256.71,261.37,258.44,244.9,261.33Z"/><path class="c" d="M171.29,219.09c.12,4.47.43,9.28.33,14.09-.12,5.72-.56,11.44-.9,17.15q-.58,9.94-1.23,19.89a1.42,1.42,0,0,1-1.87,1.35,51.44,51.44,0,0,1-10.44-5.15,2.83,2.83,0,0,1-1.37-2.27,33.58,33.58,0,0,1,.07-4.81c.75-8.44,1.41-16.89,2.7-25.28.48-3.17.78-6.37,1.08-9.56.25-2.57-.55-4-2.84-4.84-6.48-2.25-12.86-4.84-19.73-5.76-2.55-.34-4.18.54-4.58,2.91-.79,4.74-1.44,9.5-2.17,14.25Q129.19,238.52,128,246a1.08,1.08,0,0,1-1.63.51c-1.75-1.08-3.5-2.16-5.2-3.32a2.46,2.46,0,0,1-1.07-2.38,24.19,24.19,0,0,1,.61-3.38,220.83,220.83,0,0,1,10-30,28.74,28.74,0,0,1,8.62-11.39,23.45,23.45,0,0,1,6.56-3.64,11.45,11.45,0,0,1,9.94.59,18.24,18.24,0,0,1,6.43,5.07,37.2,37.2,0,0,1,6.25,11.38C169.47,212.54,170.31,215.63,171.29,219.09Z"/><path class="d" d="M146.85,259.72c.32-.31.83-.57.91-.92a43.29,43.29,0,0,0,1-5.37q1.06-11.6,2.87-23.09a29.26,29.26,0,0,0,.22-4.09,2.87,2.87,0,0,0-2.1-3.15c-2.39-.73-4.82-1.33-7.24-2-3.35-.91-4.35-.8-5.06,3.23-.2,1.13-.44,2.24-.62,3.37-1.18,7.43-1.55,15-3.31,22.32a2.13,2.13,0,0,0,.73,1.78c3.73,2.62,7.52,5.16,11.32,7.68A3.49,3.49,0,0,0,146.85,259.72Z"/><path class="c" d="M337.07,245.39c1.35.16,2.57-.41,3.84-.67a7.9,7.9,0,0,1,4.54.44,3.21,3.21,0,0,1,2.17,3.33,5.86,5.86,0,0,1-3.38,5.1,38.24,38.24,0,0,1-3.65,1.41c-.29.11-.36.3-.14.55.79.88,1.62,1.73,2.39,2.62a4.62,4.62,0,0,1,1.13,2.58c.37,3.32-.86,4.48-3.38,5.47a2.87,2.87,0,0,1-1.74,0c-1.25-.37-2.46-.87-3.69-1.33-.62-.23-1.12.18-1.07.88,0,.47.1.95.14,1.42a13.57,13.57,0,0,1,.11,1.42,8,8,0,0,1-1.09,4.09,2.56,2.56,0,0,1-2,1.33,8.62,8.62,0,0,1-3.88-.39,6.76,6.76,0,0,1-3.71-3.17,26.22,26.22,0,0,1-1.58-4.34.63.63,0,0,0-.86-.24,6,6,0,0,0-.51.5,6,6,0,0,1-5.48,1.95l-.71-.07c-2-.19-2.74-.81-3.36-2.6a5.55,5.55,0,0,1,.46-4.8c.53-.92,1.14-1.79,1.67-2.71.08-.14,0-.58-.16-.63a21,21,0,0,0-2-.71,10.69,10.69,0,0,1-3.15-1.66,5.5,5.5,0,0,1-1.23-1.27,4.41,4.41,0,0,1,.7-6.1,3.63,3.63,0,0,1,1.24-.67,7.67,7.67,0,0,1,3.53-.25c.82.1,1.64.26,2.46.39.28.05.68-.37.65-.66,0-.12,0-.24-.06-.36-.81-3,.21-5.61,1.93-8a6.3,6.3,0,0,1,1-1,3.19,3.19,0,0,1,3.33-.64,8.08,8.08,0,0,1,2.76,1.61c.26.24.5.51.76.75.77.69,1.2.65,1.65-.15s.82-1.44,1.24-2.17a4.67,4.67,0,0,1,.38-.6,3.89,3.89,0,0,1,4.1-1.51,7.71,7.71,0,0,1,2.64,1,6.48,6.48,0,0,1,2.45,7.26,18.73,18.73,0,0,1-.87,2c-.22.21-.53.46-.28.77S336.84,245.66,337.07,245.39Zm-8.34,25.92.83.13a1.48,1.48,0,0,0,1.74-1.34,11.15,11.15,0,0,0-.7-5.57,29,29,0,0,0-2.64-5,24.54,24.54,0,0,0-1.59-2.33c-.16-.2-.64-.22-1-.2a.8.8,0,0,0-.78.61,21.76,21.76,0,0,0,.15,9.83,7.81,7.81,0,0,0,.53,1.31A4.42,4.42,0,0,0,328.73,271.31Zm9.83-7.89c.23,0,.58.06.93.07a1.51,1.51,0,0,0,1.48-1.65,5.38,5.38,0,0,0-2.92-4.59c-1.58-.83-3.16-1.65-4.76-2.45a.92.92,0,0,0-1,.09c-.48.35-.94.73-1.44,1.05-1.11.71-.93,1.2-.18,2,1.17,1.18,2.41,2.3,3.66,3.39A11.56,11.56,0,0,0,338.56,263.42Zm-10.15-20.56c-.16,1.22-.31,2.28-.42,3.34a1.23,1.23,0,0,0,.19.66,1.82,1.82,0,0,0,2.47.53c1.23-1.12,2.45-2.25,3.6-3.45a3.53,3.53,0,0,0,.81-1.57,4.82,4.82,0,0,0-2.41-5.13,1.63,1.63,0,0,0-1.7.1,3,3,0,0,0-1,1A9.2,9.2,0,0,0,328.41,242.86Zm7.14,9.54a13.32,13.32,0,0,0,1.39.32,11,11,0,0,0,6.28-.87A3,3,0,0,0,345,249a1.78,1.78,0,0,0-2-2,39.21,39.21,0,0,0-9.62,2.63,3.15,3.15,0,0,0-.56.42,1.22,1.22,0,0,0,.05,1.3A5.37,5.37,0,0,0,335.55,252.4Zm-17.43-9.74a6.57,6.57,0,0,0,1.56,5.9c.13.15.49.29.61.22a19.35,19.35,0,0,1,4.17-1.83.76.76,0,0,0,.39-.55,5.91,5.91,0,0,0-1.44-5.24c-2.57-2.47-3.51-2.67-5,.83C318.27,242.21,318.2,242.43,318.12,242.66Zm-3.14,23a3.51,3.51,0,0,0,3.86-1.14c.79-1,1.51-2.12,2.21-3.22a6.92,6.92,0,0,0,.86-3.06c.07-.74-.7-1.47-1.35-1.24a11.86,11.86,0,0,0-6.54,5.18,4.72,4.72,0,0,0-.46,1.34A1.85,1.85,0,0,0,315,265.61Zm-1.91-15.87c-.71-.11-1.41-.23-2.12-.3a3.82,3.82,0,0,0-1.06.11,1.71,1.71,0,0,0-1,2.79,4.36,4.36,0,0,0,1.65,1.32,12.49,12.49,0,0,0,7.67.84,3.11,3.11,0,0,0,.64-.3.92.92,0,0,0,.38-1.21,3.58,3.58,0,0,0-.92-1A20.74,20.74,0,0,0,313.07,249.74Zm14.46.51a6.33,6.33,0,0,0-3.62-.09,3.68,3.68,0,0,0-.91.5,1.4,1.4,0,0,0-.28,2.14,5.75,5.75,0,0,0,7.08.83,2.85,2.85,0,0,0,.26-.23,1.13,1.13,0,0,0,.14-1.26A4,4,0,0,0,327.53,250.25Z"/><path class="c" d="M328.73,271.31a4.42,4.42,0,0,1-3.43-2.58,7.81,7.81,0,0,1-.53-1.31,21.76,21.76,0,0,1-.15-9.83.8.8,0,0,1,.78-.61c.33,0,.81,0,1,.2a24.54,24.54,0,0,1,1.59,2.33,29,29,0,0,1,2.64,5,11.15,11.15,0,0,1,.7,5.57,1.48,1.48,0,0,1-1.74,1.34Z"/><path class="c" d="M338.56,263.42a11.56,11.56,0,0,1-4.23-2.13c-1.25-1.09-2.49-2.21-3.66-3.39-.75-.76-.93-1.25.18-2,.5-.32,1-.7,1.44-1.05a.92.92,0,0,1,1-.09c1.6.8,3.18,1.62,4.76,2.45a5.38,5.38,0,0,1,2.92,4.59,1.51,1.51,0,0,1-1.48,1.65C339.14,263.48,338.79,263.44,338.56,263.42Z"/><path class="c" d="M328.41,242.86a9.2,9.2,0,0,1,1.56-4.52,3,3,0,0,1,1-1,1.63,1.63,0,0,1,1.7-.1,4.82,4.82,0,0,1,2.41,5.13,3.53,3.53,0,0,1-.81,1.57c-1.15,1.2-2.37,2.33-3.6,3.45a1.82,1.82,0,0,1-2.47-.53,1.23,1.23,0,0,1-.19-.66C328.1,245.14,328.25,244.08,328.41,242.86Z"/><path class="c" d="M335.55,252.4a5.37,5.37,0,0,1-2.62-1.05,1.22,1.22,0,0,1-.05-1.3,3.15,3.15,0,0,1,.56-.42,39.21,39.21,0,0,1,9.62-2.63,1.78,1.78,0,0,1,2,2,3,3,0,0,1-1.8,2.86,11,11,0,0,1-6.28.87A13.32,13.32,0,0,1,335.55,252.4Z"/><path class="c" d="M318.12,242.66c.08-.23.15-.45.25-.67,1.53-3.5,2.47-3.3,5-.83a5.91,5.91,0,0,1,1.44,5.24.76.76,0,0,1-.39.55,19.35,19.35,0,0,0-4.17,1.83c-.12.07-.48-.07-.61-.22A6.57,6.57,0,0,1,318.12,242.66Z"/><path class="c" d="M315,265.61a1.85,1.85,0,0,1-1.42-2.14,4.72,4.72,0,0,1,.46-1.34,11.86,11.86,0,0,1,6.54-5.18c.65-.23,1.42.5,1.35,1.24a6.92,6.92,0,0,1-.86,3.06c-.7,1.1-1.42,2.19-2.21,3.22A3.51,3.51,0,0,1,315,265.61Z"/><path class="c" d="M313.07,249.74a20.74,20.74,0,0,1,5.25,2.21,3.58,3.58,0,0,1,.92,1,.92.92,0,0,1-.38,1.21,3.11,3.11,0,0,1-.64.3,12.49,12.49,0,0,1-7.67-.84,4.36,4.36,0,0,1-1.65-1.32,1.71,1.71,0,0,1,1-2.79,3.82,3.82,0,0,1,1.06-.11C311.66,249.51,312.36,249.63,313.07,249.74Z"/><path class="d" d="M330.59,250.38a6.56,6.56,0,0,1,3.58,4.77,2.82,2.82,0,0,1-1,2.5,5.39,5.39,0,0,1-.6.37,9,9,0,0,1-11.95-4.27,3.33,3.33,0,0,1,1.74-4.21,6.72,6.72,0,0,1,1.9-.66C326.28,248.6,328.11,249,330.59,250.38Z"/><path class="b" d="M370.18,182.8c.05-.34.1-.68.13-1a16.66,16.66,0,0,1,.75-3.5,5,5,0,0,1,1.32-2.17c.43-.41.88-.8,1.33-1.2a3,3,0,0,1,.87-.53,2,2,0,0,1,1.73-.13,2.16,2.16,0,0,1,1.11.6,4.58,4.58,0,0,1,1.36,2.7,6.51,6.51,0,0,1-.35,3.65,2,2,0,0,0-.09.37.15.15,0,0,0,.12.19s.09,0,.11,0c.39-.27.78-.52,1.15-.81a7.09,7.09,0,0,1,3.26-1.42,4.23,4.23,0,0,1,1.77.1,2.62,2.62,0,0,1,.81.38,4.23,4.23,0,0,1,1.59,2.11,4.66,4.66,0,0,1,.31,2,4.5,4.5,0,0,1-1,2.44c-.33.39-.68.77-1,1.16,0,0,0,.2.09.2.38.06.76.1,1.14.14a4.7,4.7,0,0,1,2.26.83,2.54,2.54,0,0,1,.57.51,5.21,5.21,0,0,1,1.14,4,3.66,3.66,0,0,1-1.49,2.6,7,7,0,0,1-2.75,1.32,12.59,12.59,0,0,1-3.18.32l-.77,0c-.26,0-.41.18-.31.39a11,11,0,0,0,.52,1,3.78,3.78,0,0,1,.49,1.45,10,10,0,0,1,.14,2,5.56,5.56,0,0,1-.38,1.61,3.84,3.84,0,0,1-2.06,2.18,2.66,2.66,0,0,1-2.58,0,10.09,10.09,0,0,1-2.47-1.8,22.82,22.82,0,0,1-2.63-3.78,7.6,7.6,0,0,1-.49-1c0-.09-.27-.1-.33,0a11.35,11.35,0,0,0-1.18,1.66,8.31,8.31,0,0,1-2,2,4.87,4.87,0,0,0-.83.6,4.42,4.42,0,0,1-1.58.82,2.39,2.39,0,0,1-1.52,0c-.28-.08-.56-.2-.84-.3a1.56,1.56,0,0,1-.72-.52c-.19-.23-.38-.46-.55-.71a3,3,0,0,1-.53-1.56,6.39,6.39,0,0,1,.67-3.35c.14-.26.25-.54.38-.81,0-.1,0-.17-.07-.2s-.08,0-.11,0a15.28,15.28,0,0,1-1.89.34,4.2,4.2,0,0,1-2.94-.59,3.47,3.47,0,0,1-1.76-2.54c0-.25,0-.51-.05-.76a4.21,4.21,0,0,1,2.78-4.19,8.28,8.28,0,0,1,2.86-.7l.89,0c.19,0,.34-.11.31-.18s0-.16-.1-.21a11.55,11.55,0,0,1-1.6-2.15,7.62,7.62,0,0,1-1.13-3,9.45,9.45,0,0,1-.07-1.41,3.41,3.41,0,0,1,1.6-2.78,3.79,3.79,0,0,1,2.79-.73,2.62,2.62,0,0,1,1,.28,5.37,5.37,0,0,1,1.75,1.47c.65.89,1.35,1.75,2,2.63,0,.07,0,.2.06.21C370.18,183.06,370.18,182.92,370.18,182.8Zm-2,10.77a6.9,6.9,0,0,0,4.4,1.65,1.13,1.13,0,0,0,.26,0,12.29,12.29,0,0,0,3.2-.84,2.81,2.81,0,0,0,.93-.66,1.07,1.07,0,0,0,.31-.69,4.3,4.3,0,0,0-.37-2.12c-.15-.3-.28-.62-.45-.92a2.91,2.91,0,0,0-1.35-1.31,14.53,14.53,0,0,0-3.41-1,3.34,3.34,0,0,0-1.88.18c-.63.25-1.22.59-1.83.9a1,1,0,0,0-.28.26c-.24.29-.48.6-.71.9a1.18,1.18,0,0,0-.24.72,3.21,3.21,0,0,0,.77,2.24Zm20.77.66a7.27,7.27,0,0,0,.54-1.29,1.2,1.2,0,0,0,0-.38A3.53,3.53,0,0,0,389,191a2.27,2.27,0,0,0-.91-.88,4.06,4.06,0,0,0-1.57-.49,7.11,7.11,0,0,0-1.53,0,14.19,14.19,0,0,0-2.5.5,24.3,24.3,0,0,0-3.68,1.46.61.61,0,0,0-.41.59,6.56,6.56,0,0,1-.3,1.76.44.44,0,0,0,.2.43c.85.4,1.68.83,2.55,1.17a7,7,0,0,0,1.85.5,9.53,9.53,0,0,0,3.79-.34,7.09,7.09,0,0,0,2.12-1.17A1.94,1.94,0,0,0,388.92,194.23Zm-11.58-9h0c-.31.36-.62.71-.92,1.07-.14.16-.26.33-.39.5a.41.41,0,0,0,.05.47,7.3,7.3,0,0,1,1.66,2.24,1.59,1.59,0,0,0,.13.22.41.41,0,0,0,.55.18,18.09,18.09,0,0,0,4.43-2.24,4.86,4.86,0,0,1,.54-.33,9.64,9.64,0,0,0,1.72-1.33,4.77,4.77,0,0,0,.75-.86,1.35,1.35,0,0,0,.29-.69,4.87,4.87,0,0,0-.23-2.14,1.73,1.73,0,0,0-.93-1,2.85,2.85,0,0,0-1.61-.29,5.09,5.09,0,0,0-2.16.73,13.89,13.89,0,0,0-3.23,2.69ZM379.09,197l-1.41-1.12c-.24-.18-.47-.44-.77-.41a2.13,2.13,0,0,0-.71.29,10.34,10.34,0,0,1-2.3.76,3.09,3.09,0,0,0-.61.19.26.26,0,0,0-.12.21,7.64,7.64,0,0,0,1.08,3.38,32.13,32.13,0,0,0,2,2.65,8.58,8.58,0,0,0,2.41,1.88,1.6,1.6,0,0,0,1.71,0,7.44,7.44,0,0,0,.73-.52,1.33,1.33,0,0,0,.34-.37,3.64,3.64,0,0,0,.11-4c-.19-.29-.33-.6-.51-.89a3.19,3.19,0,0,0-.39-.5Zm-6-19.51a5.69,5.69,0,0,0-1.11,2,14.15,14.15,0,0,0-.48,5.82.41.41,0,0,0,.4.42,11.47,11.47,0,0,1,2,.37.5.5,0,0,0,.63-.29c.27-.43.5-.89.79-1.31a14.48,14.48,0,0,0,1.69-3.15c.13-.35.29-.7.45-1.05a4.27,4.27,0,0,0,.22-2.64,2.63,2.63,0,0,0-1.08-1.67,1.37,1.37,0,0,0-.72-.26,2,2,0,0,0-1.21.31A20.09,20.09,0,0,0,373.13,177.46ZM365,187.73c.36.3.72.59,1.09.87a.29.29,0,0,0,.24,0,.58.58,0,0,0,.19-.16,7.42,7.42,0,0,1,3.05-2.26A1.38,1.38,0,0,0,370,186a.29.29,0,0,0,.08-.22.89.89,0,0,0-.11-.36,26.81,26.81,0,0,0-3.07-4.54,2.33,2.33,0,0,0-1.41-.83,2.7,2.7,0,0,0-2.92,1.1,2.23,2.23,0,0,0-.48,1.43,4,4,0,0,0,.38,1.73A9.76,9.76,0,0,0,365,187.73Zm4.45,13.46a18,18,0,0,0,1.3-1.69,7.53,7.53,0,0,0,.87-1.54,3,3,0,0,0,.2-.74.41.41,0,0,0-.28-.49,10.08,10.08,0,0,1-3.25-1.1.42.42,0,0,0-.48,0,11.07,11.07,0,0,0-2.68,2.52,6.52,6.52,0,0,0-1.09,2.15,4.11,4.11,0,0,0-.15,1.52,1.21,1.21,0,0,0,.19.59,2.13,2.13,0,0,0,2.59.79,5.61,5.61,0,0,0,2.13-1.37C369,201.67,369.19,201.49,369.49,201.19Zm-10.85-5.88a3.41,3.41,0,0,0,1.23.66,3.45,3.45,0,0,0,1.75.2,13.74,13.74,0,0,0,4.57-1.55,1.05,1.05,0,0,0,.28-.24.28.28,0,0,0,.06-.23,1.45,1.45,0,0,0-.18-.32,4.43,4.43,0,0,1-.88-3,.3.3,0,0,0-.29-.34,13.53,13.53,0,0,0-3.81.21,8.34,8.34,0,0,0-.85.26,4.46,4.46,0,0,0-1.41.86,2.84,2.84,0,0,0-1,2.38A1.51,1.51,0,0,0,358.64,195.31Z"/><path class="c" d="M368.15,193.57l-.65-.7a3.21,3.21,0,0,1-.77-2.24,1.18,1.18,0,0,1,.24-.72c.23-.3.47-.61.71-.9a1,1,0,0,1,.28-.26c.61-.31,1.2-.65,1.83-.9a3.34,3.34,0,0,1,1.88-.18,14.53,14.53,0,0,1,3.41,1,2.91,2.91,0,0,1,1.35,1.31c.17.3.3.62.45.92a4.3,4.3,0,0,1,.37,2.12,1.07,1.07,0,0,1-.31.69,2.81,2.81,0,0,1-.93.66,12.29,12.29,0,0,1-3.2.84,1.13,1.13,0,0,1-.26,0A6.9,6.9,0,0,1,368.15,193.57Z"/><path class="b" d="M388.92,194.23a1.94,1.94,0,0,1-.28.27,7.09,7.09,0,0,1-2.12,1.17,9.53,9.53,0,0,1-3.79.34,7,7,0,0,1-1.85-.5c-.87-.34-1.7-.77-2.55-1.17a.44.44,0,0,1-.2-.43,6.56,6.56,0,0,0,.3-1.76.61.61,0,0,1,.41-.59,24.3,24.3,0,0,1,3.68-1.46,14.19,14.19,0,0,1,2.5-.5,7.11,7.11,0,0,1,1.53,0,4.06,4.06,0,0,1,1.57.49,2.27,2.27,0,0,1,.91.88,3.53,3.53,0,0,1,.46,1.58,1.2,1.2,0,0,1,0,.38A7.27,7.27,0,0,1,388.92,194.23Z"/><path class="b" d="M377.34,185.2l.67-.77a13.89,13.89,0,0,1,3.23-2.69,5.09,5.09,0,0,1,2.16-.73,2.85,2.85,0,0,1,1.61.29,1.73,1.73,0,0,1,.93,1,4.87,4.87,0,0,1,.23,2.14,1.35,1.35,0,0,1-.29.69,4.77,4.77,0,0,1-.75.86,9.64,9.64,0,0,1-1.72,1.33,4.86,4.86,0,0,0-.54.33,18.09,18.09,0,0,1-4.43,2.24.41.41,0,0,1-.55-.18,1.59,1.59,0,0,1-.13-.22,7.3,7.3,0,0,0-1.66-2.24.41.41,0,0,1-.05-.47c.13-.17.25-.34.39-.5.3-.36.61-.71.92-1.07Z"/><path class="b" d="M379.09,197l1.55,1.52a3.19,3.19,0,0,1,.39.5c.18.29.32.6.51.89a3.64,3.64,0,0,1-.11,4,1.33,1.33,0,0,1-.34.37,7.44,7.44,0,0,1-.73.52,1.6,1.6,0,0,1-1.71,0,8.58,8.58,0,0,1-2.41-1.88,32.13,32.13,0,0,1-2-2.65,7.64,7.64,0,0,1-1.08-3.38.26.26,0,0,1,.12-.21,3.09,3.09,0,0,1,.61-.19,10.34,10.34,0,0,0,2.3-.76,2.13,2.13,0,0,1,.71-.29c.3,0,.53.23.77.41Z"/><path class="b" d="M373.13,177.46a20.09,20.09,0,0,1,1.59-1.4,2,2,0,0,1,1.21-.31,1.37,1.37,0,0,1,.72.26,2.63,2.63,0,0,1,1.08,1.67,4.27,4.27,0,0,1-.22,2.64c-.16.35-.32.7-.45,1.05a14.48,14.48,0,0,1-1.69,3.15c-.29.42-.52.88-.79,1.31a.5.5,0,0,1-.63.29,11.47,11.47,0,0,0-2-.37.41.41,0,0,1-.4-.42,14.15,14.15,0,0,1,.48-5.82A5.69,5.69,0,0,1,373.13,177.46Z"/><path class="b" d="M365,187.73a9.76,9.76,0,0,1-2.62-3.42,4,4,0,0,1-.38-1.73,2.23,2.23,0,0,1,.48-1.43,2.7,2.7,0,0,1,2.92-1.1,2.33,2.33,0,0,1,1.41.83,26.81,26.81,0,0,1,3.07,4.54.89.89,0,0,1,.11.36.29.29,0,0,1-.08.22,1.38,1.38,0,0,1-.34.18,7.42,7.42,0,0,0-3.05,2.26.58.58,0,0,1-.19.16.29.29,0,0,1-.24,0C365.76,188.32,365.4,188,365,187.73Z"/><path class="b" d="M369.49,201.19c-.3.3-.48.48-.65.67a5.61,5.61,0,0,1-2.13,1.37,2.13,2.13,0,0,1-2.59-.79,1.21,1.21,0,0,1-.19-.59,4.11,4.11,0,0,1,.15-1.52,6.52,6.52,0,0,1,1.09-2.15,11.07,11.07,0,0,1,2.68-2.52.42.42,0,0,1,.48,0,10.08,10.08,0,0,0,3.25,1.1.41.41,0,0,1,.28.49,3,3,0,0,1-.2.74,7.53,7.53,0,0,1-.87,1.54A18,18,0,0,1,369.49,201.19Z"/><path class="b" d="M358.64,195.31a1.51,1.51,0,0,1-.53-1.11,2.84,2.84,0,0,1,1-2.38,4.46,4.46,0,0,1,1.41-.86,8.34,8.34,0,0,1,.85-.26,13.53,13.53,0,0,1,3.81-.21.3.3,0,0,1,.29.34,4.43,4.43,0,0,0,.88,3,1.45,1.45,0,0,1,.18.32.28.28,0,0,1-.06.23,1.05,1.05,0,0,1-.28.24,13.74,13.74,0,0,1-4.57,1.55,3.45,3.45,0,0,1-1.75-.2A3.41,3.41,0,0,1,358.64,195.31Z"/><path class="a" d="M233.29,163.26a119.63,119.63,0,0,1-.36-15.61c.31-6.16.82-12.3.84-18.48,0-4,.1-7.95.31-11.92A97.82,97.82,0,0,1,235,105.8c.49-3,.73-6,1-9a4.15,4.15,0,0,0-2.59-4.27,15,15,0,0,0-1.57-.61,6.6,6.6,0,0,0-.77-.17c-2-.31-2.67.27-2.71,2,0,.82,0,1.65,0,2.47.38,4.38.23,8.77.29,13.16,0,2.46.16,4.93.23,7.39,0,1,.08,1.92,0,2.87-.42,6.57-.83,13.13-1.31,19.69-.64,8.61-1.33,17.22-2,25.83-.28,3.55-.6,7.1-.89,10.65a3.42,3.42,0,0,0,2.52,3.89,5.65,5.65,0,0,0,.65.15c.4.06.82.06,1,.08a4,4,0,0,0,3.89-2.82,13,13,0,0,0,.71-3.61A72,72,0,0,0,233.29,163.26Z"/><path class="c" d="M237.81,173.8a76,76,0,0,0-.23-10.89,115.12,115.12,0,0,1-.35-15c.09-1.81.2-3.61.31-5.4.26-4.33.52-8.81.54-13.29,0-4.18.11-8,.3-11.7l.08-1.67a78.66,78.66,0,0,1,.81-9.3c.45-2.75.7-5.49.93-8.15l.11-1.16a8.43,8.43,0,0,0-5.19-8.61,17.91,17.91,0,0,0-2-.77,10.4,10.4,0,0,0-1.35-.31,6.87,6.87,0,0,0-5.56,1.24,6.3,6.3,0,0,0-2.1,5v.18a25.79,25.79,0,0,0,0,2.75c.26,2.93.26,5.88.26,9,0,1.28,0,2.56,0,3.85,0,1.59.08,3.19.13,4.73,0,.91.07,1.82.09,2.72l0,.57c0,.69.05,1.35,0,1.91l-.15,2.37c-.36,5.66-.73,11.53-1.16,17.28-.51,7-1.08,14.14-1.63,21l-.38,4.76c-.15,1.86-.31,3.73-.46,5.59-.15,1.69-.29,3.37-.43,5.05a7.73,7.73,0,0,0,5.58,8.36,7.51,7.51,0,0,0,1.18.27,10.6,10.6,0,0,0,1.32.13h.09a3.62,3.62,0,0,0,.57,0,8.32,8.32,0,0,0,7.69-5.7A17.56,17.56,0,0,0,237.81,173.8Zm-8.9,6.17c-.19,0-.61,0-1-.08a5.65,5.65,0,0,1-.65-.15,3.42,3.42,0,0,1-2.52-3.89c.29-3.55.61-7.1.89-10.65.69-8.61,1.38-17.22,2-25.83.48-6.56.89-13.12,1.31-19.69.06-1,0-1.91,0-2.87-.07-2.46-.19-4.93-.23-7.39-.06-4.39.09-8.78-.29-13.16-.07-.82,0-1.65,0-2.47,0-1.75.69-2.33,2.71-2a6.6,6.6,0,0,1,.77.17,15,15,0,0,1,1.57.61A4.15,4.15,0,0,1,236,96.82c-.27,3-.51,6-1,9a97.82,97.82,0,0,0-.94,11.45c-.21,4-.3,8-.31,11.92,0,6.18-.53,12.32-.84,18.48a119.63,119.63,0,0,0,.36,15.61,72,72,0,0,1,.22,10.28,13,13,0,0,1-.71,3.61A4,4,0,0,1,228.91,180Z"/><path class="c" d="M237.28,134.61,232,128.7a2.23,2.23,0,0,0-2.18.08c-1.63,1.71-3.34,3.35-4.88,5.14-4.36,5.07-10.05,7.54-16.46,8.6a10.48,10.48,0,0,1-7.58-1.53c-.45-.28-.93-.5-1.39-.76-8.23-4.53-8.64-13.46-6.87-19.17a47.1,47.1,0,0,1,2.28-5,2.16,2.16,0,0,0-1.24-3.18c-2.87-1.31-5.74-2.64-8.63-3.91-4-1.77-5.93-5.07-6.6-9.2a14.13,14.13,0,0,1,1.21-8.48,10.86,10.86,0,0,1,4.71-5.15,33.78,33.78,0,0,1,12.83-3.69c1.57-.17,3.16-.11,4.72-.28.36,0,1-.62,1-.9-.29-2.88-.75-5.75-1-8.63a14.18,14.18,0,0,1,7.8-13.56,11.72,11.72,0,0,1,9.24,0,20.61,20.61,0,0,1,9.75,7.75c1,1.52,1.92,3.15,2.92,4.7,1.46,2.24,2.66,2.3,4.14.23a18.84,18.84,0,0,0,1.31-2c3.17-5.91,8.81-8,14.8-9.51a6.65,6.65,0,0,1,3.85.42c4.84,2,8.31,5.33,9.71,10.66A27.86,27.86,0,0,1,266,83.85c-.13.68.72,1.48,1.47,1.44a11.93,11.93,0,0,0,1.57-.16c4.88-.92,8.74,1.21,12.25,4.19a25.38,25.38,0,0,1,6.14,8.17,13.4,13.4,0,0,1-2.07,14.06c-3.5,3.79-7.6,6.47-12.84,7.19a28,28,0,0,0-3.77,1,.82.82,0,0,0-.58,1.25,26.92,26.92,0,0,0,1.83,3.44,21.59,21.59,0,0,1,3.17,7.2A12.14,12.14,0,0,1,271,142.13a16.76,16.76,0,0,1-2.57,3,10.91,10.91,0,0,1-3.39,1.9,31.35,31.35,0,0,1-4.65.92,11.51,11.51,0,0,1-7.65-1.26,45.53,45.53,0,0,1-10.39-7.1c-1.69-1.66-3.3-3.4-4.95-5.11Zm7.32-23.78a6.67,6.67,0,0,0,1.65-7.92A11.12,11.12,0,0,0,239.18,97a47.59,47.59,0,0,0-15.69-.94,14.17,14.17,0,0,0-1.55.31,9.59,9.59,0,0,0-5.82,3.81,6.4,6.4,0,0,0,.48,8.63,13.84,13.84,0,0,0,3.85,2.69,32.86,32.86,0,0,0,9.91,2.57,25.69,25.69,0,0,0,10.17-1A10,10,0,0,0,244.6,110.83Zm36.6-5.66c1.59-1.63,1.4-6.24-1.28-8.21-1.47-1.08-3-2-4.58-3a6.15,6.15,0,0,0-4.52-.71c-3.94.64-7.4,2.5-11,4-9.82,4.16-7.57,2-7.19,11.73a2.07,2.07,0,0,0,1.84,2.13,37.93,37.93,0,0,0,11.68.9,27.5,27.5,0,0,0,13.06-4.93A24,24,0,0,0,281.2,105.17ZM243,130.88a80.8,80.8,0,0,0,6.07,6.2,12.08,12.08,0,0,0,13.3,2c3-1.32,5.33-4.21,4.23-8.32a11.3,11.3,0,0,0-5-6.82,64.09,64.09,0,0,0-10.64-5.16,4.79,4.79,0,0,0-4.49,0A19.67,19.67,0,0,1,239.7,121a14,14,0,0,0-2.22.71c-.51.17-.85,1.46-.61,2.06C238.12,126.78,240.71,128.71,243,130.88Zm-22.22-3.68c1.58-1.83,2.63-3,3.62-4.23a2.64,2.64,0,0,0-.66-4c-3.55-1.69-7.1-3.4-10.67-5a4.54,4.54,0,0,0-3.83,0,19.09,19.09,0,0,0-9,8.49,10.94,10.94,0,0,0-1.26,7.58c.52,2.9,2.71,4.75,5.55,4.4A30.13,30.13,0,0,0,220.75,127.2Zm8-40c.14-.49.49-1,.4-1.48a53.92,53.92,0,0,0-1.89-8.43,17,17,0,0,0-6.49-8.69c-3.28-2.17-6.45-1.85-9.62,0a3.59,3.59,0,0,0-1.46,1.78,9.92,9.92,0,0,0-.75,3.79,32,32,0,0,0,5,14.78,3.18,3.18,0,0,0,2.71,1.26c3.6-.77,7.19-1.52,10.78-2.33A5.26,5.26,0,0,0,228.73,87.23Zm23.89,2.38c1.4-1.34,2.37-2.22,3.27-3.16a12.74,12.74,0,0,0,3.27-10.09c-.37-5.41-5-7-8.91-6.24a9.89,9.89,0,0,0-6.11,3.25c-3.16,3.86-5.84,8-7,12.95a1.46,1.46,0,0,0,.85,1.82c2.77.75,5.51,1.45,7.95,3.13s2.85,1.5,4.74,0C251.51,90.56,252.31,89.88,252.62,89.61Zm-45,2.63a11.74,11.74,0,0,0-2.76-1.47,22.13,22.13,0,0,0-15.29,1.31,8.68,8.68,0,0,0-3.54,3,5.94,5.94,0,0,0,2.13,8.71,24.14,24.14,0,0,0,12.21,2.14c2.08-.14,4.41-.13,5.86-1.76.95-1.07,1.14-2.82,1.67-4.26A26.27,26.27,0,0,1,209,97C209.86,95.31,209.32,94,207.6,92.24Z"/><path class="b" d="M244.6,110.83a10,10,0,0,1-4.07,2.33,25.69,25.69,0,0,1-10.17,1,32.86,32.86,0,0,1-9.91-2.57,13.84,13.84,0,0,1-3.85-2.69,6.4,6.4,0,0,1-.48-8.63,9.59,9.59,0,0,1,5.82-3.81,14.17,14.17,0,0,1,1.55-.31,47.59,47.59,0,0,1,15.69.94,11.12,11.12,0,0,1,7.07,5.87A6.67,6.67,0,0,1,244.6,110.83Z"/><path class="e" d="M281.2,105.17a24,24,0,0,1-2,1.92A27.5,27.5,0,0,1,266.14,112a37.93,37.93,0,0,1-11.68-.9,2.07,2.07,0,0,1-1.84-2.13c-.38-9.71-2.63-7.57,7.19-11.73,3.61-1.53,7.07-3.39,11-4a6.15,6.15,0,0,1,4.52.71c1.54,1,3.11,1.94,4.58,3C282.6,98.93,282.79,103.54,281.2,105.17Z"/><path class="e" d="M243,130.88c-2.26-2.17-4.85-4.1-6.1-7.13-.24-.6.1-1.89.61-2.06a14,14,0,0,1,2.22-.71,19.67,19.67,0,0,0,6.74-2.13,4.79,4.79,0,0,1,4.49,0A64.09,64.09,0,0,1,261.57,124a11.3,11.3,0,0,1,5,6.82c1.1,4.11-1.2,7-4.23,8.32a12.08,12.08,0,0,1-13.3-2A80.8,80.8,0,0,1,243,130.88Z"/><path class="e" d="M220.75,127.2a30.13,30.13,0,0,1-16.27,7.21c-2.84.35-5-1.5-5.55-4.4a10.94,10.94,0,0,1,1.26-7.58,19.09,19.09,0,0,1,9-8.49,4.54,4.54,0,0,1,3.83,0c3.57,1.65,7.12,3.36,10.67,5a2.64,2.64,0,0,1,.66,4C223.38,124.19,222.33,125.37,220.75,127.2Z"/><path class="e" d="M228.73,87.23a5.26,5.26,0,0,1-1.31.71c-3.59.81-7.18,1.56-10.78,2.33A3.18,3.18,0,0,1,213.93,89a32,32,0,0,1-5-14.78,9.92,9.92,0,0,1,.75-3.79,3.59,3.59,0,0,1,1.46-1.78c3.17-1.88,6.34-2.2,9.62,0a17,17,0,0,1,6.49,8.69,53.92,53.92,0,0,1,1.89,8.43C229.22,86.2,228.87,86.74,228.73,87.23Z"/><path class="e" d="M252.62,89.61c-.31.27-1.11,1-1.91,1.61-1.89,1.55-2.34,1.69-4.74,0s-5.18-2.38-7.95-3.13a1.46,1.46,0,0,1-.85-1.82c1.13-5,3.81-9.09,7-12.95a9.89,9.89,0,0,1,6.11-3.25c4-.71,8.54.83,8.91,6.24a12.74,12.74,0,0,1-3.27,10.09C255,87.39,254,88.27,252.62,89.61Z"/><path class="e" d="M207.6,92.24c1.72,1.75,2.26,3.07,1.4,4.76a26.27,26.27,0,0,0-1.12,2.92c-.53,1.44-.72,3.19-1.67,4.26-1.45,1.63-3.78,1.62-5.86,1.76a24.14,24.14,0,0,1-12.21-2.14A5.94,5.94,0,0,1,186,95.09a8.68,8.68,0,0,1,3.54-3,22.13,22.13,0,0,1,15.29-1.31A11.74,11.74,0,0,1,207.6,92.24Z"/><path class="b" d="M108,231c1.47-.21,2.59-1.17,3.86-1.81a8.65,8.65,0,0,1,4.92-.84,3.49,3.49,0,0,1,3.24,2.89,6.4,6.4,0,0,1-2.1,6.35c-1.06.95-2.29,1.7-3.44,2.54-.27.2-.3.42,0,.62,1.08.7,2.2,1.36,3.27,2.08a5,5,0,0,1,1.93,2.39c1.35,3.4.39,5-2,6.75a3.23,3.23,0,0,1-1.83.52c-1.42,0-2.85-.21-4.27-.34-.72-.07-1.14.5-.88,1.23.18.49.38,1,.56,1.46s.38,1,.52,1.47a8.87,8.87,0,0,1,0,4.63,2.82,2.82,0,0,1-1.74,2,9.57,9.57,0,0,1-4.21.7,7.45,7.45,0,0,1-4.83-2.28,29,29,0,0,1-2.91-4.13.67.67,0,0,0-1,0c-.14.22-.28.43-.4.66a6.57,6.57,0,0,1-5.22,3.64l-.77.13c-2.16.38-3.13-.07-4.3-1.77a6.11,6.11,0,0,1-.89-5.2c.3-1.13.7-2.22,1-3.35,0-.17-.21-.59-.36-.61a22.61,22.61,0,0,0-2.33-.17,11.79,11.79,0,0,1-3.8-.85,5.85,5.85,0,0,1-1.66-1,4.82,4.82,0,0,1-1-6.63A3.78,3.78,0,0,1,78.51,241a8.32,8.32,0,0,1,3.65-1.28c.9-.13,1.8-.2,2.71-.3a.76.76,0,0,0,.49-.88,2.32,2.32,0,0,0-.16-.36c-1.73-3-1.4-6-.27-9a7.2,7.2,0,0,1,.71-1.38A3.52,3.52,0,0,1,89,226.16a8.81,8.81,0,0,1,3.37.91c.35.17.68.39,1,.57,1,.51,1.45.34,1.71-.63s.44-1.76.67-2.64a4.37,4.37,0,0,1,.23-.75,4.27,4.27,0,0,1,3.9-2.77,8.69,8.69,0,0,1,3.08.33,7.09,7.09,0,0,1,4.67,7,16.41,16.41,0,0,1-.36,2.3c-.17.29-.42.64-.07.9S107.81,231.34,108,231Zm-1.35,29.74.92-.1a1.6,1.6,0,0,0,1.44-1.91,12,12,0,0,0-2.34-5.67,31.28,31.28,0,0,0-4.22-4.54,27.89,27.89,0,0,0-2.35-2c-.23-.17-.74,0-1.08.06a.89.89,0,0,0-.65.87,23.6,23.6,0,0,0,3,10.33,7.86,7.86,0,0,0,.94,1.23A4.8,4.8,0,0,0,106.63,260.73Zm8.11-11.15c.24,0,.63-.1,1-.19a1.64,1.64,0,0,0,1.09-2.16,5.91,5.91,0,0,0-4.41-4c-1.9-.41-3.81-.83-5.72-1.21a1,1,0,0,0-1,.38c-.4.51-.77,1-1.21,1.52-1,1.06-.64,1.54.38,2.12,1.57.91,3.19,1.73,4.83,2.53A12.63,12.63,0,0,0,114.74,249.58ZM98.11,230.81c.19,1.33.33,2.5.53,3.65a1.29,1.29,0,0,0,.38.64,2,2,0,0,0,2.76-.15c1-1.54,1.94-3.09,2.81-4.68a3.82,3.82,0,0,0,.4-1.88,5.27,5.27,0,0,0-4-4.73,1.76,1.76,0,0,0-1.76.59,3.27,3.27,0,0,0-.75,1.35A10,10,0,0,0,98.11,230.81Zm10.28,8c.52,0,1,0,1.56-.06a12,12,0,0,0,6.37-2.73,3.28,3.28,0,0,0,1.08-3.52,1.94,1.94,0,0,0-2.64-1.54,42.49,42.49,0,0,0-9.39,5.54,3.56,3.56,0,0,0-.47.6c-.21.28.1,1.19.43,1.36A5.82,5.82,0,0,0,108.39,238.82ZM87.2,233.56a7.17,7.17,0,0,0,3.34,5.77c.18.12.6.17.71.06a21.21,21.21,0,0,1,3.88-3.13.86.86,0,0,0,.24-.69c-.3-2.12-1.1-4.06-3-5.11-3.42-1.87-4.47-1.81-5.08,2.32C87.23,233,87.22,233.3,87.2,233.56Zm3.29,25.12a3.82,3.82,0,0,0,3.73-2.32c.55-1.31,1-2.67,1.41-4a7.4,7.4,0,0,0,0-3.47,1.25,1.25,0,0,0-1.77-.93,13,13,0,0,0-5.41,7.36,4.92,4.92,0,0,0-.11,1.54A2,2,0,0,0,90.49,258.68Zm-6.59-16.2c-.77.09-1.55.16-2.31.3a3.91,3.91,0,0,0-1.09.42,1.87,1.87,0,0,0-.25,3.22,4.81,4.81,0,0,0,2.12.92A13.59,13.59,0,0,0,90.71,246a3.07,3.07,0,0,0,.59-.5,1,1,0,0,0,0-1.38,3.9,3.9,0,0,0-1.27-.84A22.56,22.56,0,0,0,83.9,242.48Zm15.42-3.62a6.86,6.86,0,0,0-3.85.95,3.61,3.61,0,0,0-.82.79,1.52,1.52,0,0,0,.32,2.33,6.28,6.28,0,0,0,7.71-1.15c.08-.1.14-.22.21-.32a1.27,1.27,0,0,0-.22-1.38A4.41,4.41,0,0,0,99.32,238.86Z"/><path class="b" d="M106.63,260.73a4.8,4.8,0,0,1-4.35-1.73,7.86,7.86,0,0,1-.94-1.23,23.6,23.6,0,0,1-3-10.33.89.89,0,0,1,.65-.87c.34-.11.85-.23,1.08-.06a27.89,27.89,0,0,1,2.35,2,31.28,31.28,0,0,1,4.22,4.54,12,12,0,0,1,2.34,5.67,1.6,1.6,0,0,1-1.44,1.91Z"/><path class="b" d="M114.74,249.58a12.63,12.63,0,0,1-5.08-1c-1.64-.8-3.26-1.62-4.83-2.53-1-.58-1.35-1.06-.38-2.12.44-.48.81-1,1.21-1.52a1,1,0,0,1,1-.38c1.91.38,3.82.8,5.72,1.21a5.91,5.91,0,0,1,4.41,4,1.64,1.64,0,0,1-1.09,2.16C115.37,249.48,115,249.54,114.74,249.58Z"/><path class="b" d="M98.11,230.81a10,10,0,0,1,.35-5.21,3.27,3.27,0,0,1,.75-1.35,1.76,1.76,0,0,1,1.76-.59,5.27,5.27,0,0,1,4,4.73,3.82,3.82,0,0,1-.4,1.88c-.87,1.59-1.84,3.14-2.81,4.68a2,2,0,0,1-2.76.15,1.29,1.29,0,0,1-.38-.64C98.44,233.31,98.3,232.14,98.11,230.81Z"/><path class="b" d="M108.39,238.82a5.82,5.82,0,0,1-3.06-.35c-.33-.17-.64-1.08-.43-1.36a3.56,3.56,0,0,1,.47-.6,42.49,42.49,0,0,1,9.39-5.54,1.94,1.94,0,0,1,2.64,1.54,3.28,3.28,0,0,1-1.08,3.52,12,12,0,0,1-6.37,2.73C109.44,238.83,108.91,238.8,108.39,238.82Z"/><path class="b" d="M87.2,233.56c0-.26,0-.52.07-.78.61-4.13,1.66-4.19,5.08-2.32,1.92,1,2.72,3,3,5.11a.86.86,0,0,1-.24.69,21.21,21.21,0,0,0-3.88,3.13c-.11.11-.53.06-.71-.06A7.17,7.17,0,0,1,87.2,233.56Z"/><path class="b" d="M90.49,258.68a2,2,0,0,1-2.12-1.85,4.92,4.92,0,0,1,.11-1.54,13,13,0,0,1,5.41-7.36,1.25,1.25,0,0,1,1.77.93,7.4,7.4,0,0,1,0,3.47c-.42,1.36-.86,2.72-1.41,4A3.82,3.82,0,0,1,90.49,258.68Z"/><path class="b" d="M83.9,242.48a22.56,22.56,0,0,1,6.18.82,3.9,3.9,0,0,1,1.27.84,1,1,0,0,1,0,1.38,3.07,3.07,0,0,1-.59.5,13.59,13.59,0,0,1-8.34,1.32,4.81,4.81,0,0,1-2.12-.92,1.87,1.87,0,0,1,.25-3.22,3.91,3.91,0,0,1,1.09-.42C82.35,242.64,83.13,242.57,83.9,242.48Z"/><path class="c" d="M100.39,238a7.27,7.27,0,0,1,5.52,2,2.08,2.08,0,0,1,.36,2.26,6.06,6.06,0,0,1-.35.53,10.33,10.33,0,0,1-12.69,1.9,2.52,2.52,0,0,1-.53-3.85,6.59,6.59,0,0,1,1.35-1.29A11.34,11.34,0,0,1,100.39,238Z"/><path class="c" d="M282.16,156.38a15.74,15.74,0,0,0,.94-2c1-3,5.07-3.6,7.26-2.35,2.44,1.39,4.41,3.15,5.18,6,.21.77.52,1.51.79,2.26a.71.71,0,0,0,1.08.43c.65-.47,1.29-.95,1.92-1.43a9,9,0,0,1,4.43-1.67c4.07-.52,6.65,2.23,6.13,6.42a1.74,1.74,0,0,1-.32.88c-2.46,3.15-5,6.15-8.66,8.1a15.72,15.72,0,0,1-10.13,1.93,7.92,7.92,0,0,1-5.27-3,12.74,12.74,0,0,1-2.49-5.12c-.44-2-.87-4.05-1.34-6.07A8.19,8.19,0,0,1,282.16,156.38Zm5.61,13.77c.19-.11.52.64.62-.09l-.72.18c.23-.21.64-.4.65-.62.06-.94,0-1.89,0-2.83a3.91,3.91,0,0,1,.9-2.64,1.25,1.25,0,0,1,.79-.37,1.1,1.1,0,0,1,.83.3,4.3,4.3,0,0,1,.56,1.3c.16.59.24,1.21.38,1.81,0,.14.22.23.33.34.18-.19.5-.38.53-.59.11-1.1.17-2.21.2-3.32a13.08,13.08,0,0,0-1.08-5.08,6.52,6.52,0,0,0-3.08-3.48,2.29,2.29,0,0,0-2.58.58,5.81,5.81,0,0,0-1.11,4.48C285.69,163.53,286.22,167,287.77,170.15ZM298,165.33a4.93,4.93,0,0,0-.25.65,1.48,1.48,0,0,0,0,.47c0,.31.28.36.62,0,.91-.88,1.8-1.79,2.7-2.68.57-.55,1.31-.67,1.7-.28a1.18,1.18,0,0,1,.31,1.27c-.23.77-.45,1.53-.66,2.3,0,0,.19.16.3.19s.35.1.45,0a10.14,10.14,0,0,0,3.18-3.49,2.42,2.42,0,0,0-.46-2.67,1.82,1.82,0,0,0-1.74-.52,6,6,0,0,0-3.37,1.68C299.75,163.34,298.81,164.43,298,165.33Z"/><path class="a" d="M287.77,170.15c.19-.11.52.64.62-.09l-.72.18c.23-.21.64-.4.65-.62.06-.94,0-1.89,0-2.83a3.91,3.91,0,0,1,.9-2.64,1.25,1.25,0,0,1,.79-.37,1.1,1.1,0,0,1,.83.3,4.3,4.3,0,0,1,.56,1.3c.16.59.24,1.21.38,1.81,0,.14.22.23.33.34.18-.19.5-.38.53-.59.11-1.1.17-2.21.2-3.32a13.08,13.08,0,0,0-1.08-5.08,6.52,6.52,0,0,0-3.08-3.48,2.29,2.29,0,0,0-2.58.58,5.81,5.81,0,0,0-1.11,4.48C285.69,163.53,286.22,167,287.77,170.15Z"/><path class="a" d="M298,165.33a4.93,4.93,0,0,0-.25.65,1.48,1.48,0,0,0,0,.47c0,.31.28.36.62,0,.91-.88,1.8-1.79,2.7-2.68.57-.55,1.31-.67,1.7-.28a1.18,1.18,0,0,1,.31,1.27c-.23.77-.45,1.53-.66,2.3,0,0,.19.16.3.19s.35.1.45,0a10.14,10.14,0,0,0,3.18-3.49,2.42,2.42,0,0,0-.46-2.67,1.82,1.82,0,0,0-1.74-.52,6,6,0,0,0-3.37,1.68C299.75,163.34,298.81,164.43,298,165.33Z"/></svg>