<svg xmlns="http://www.w3.org/2000/svg" viewBox="0 0 85.04 85.04"><defs><style>.a{fill:#703a58;}.b{fill:#f6c74b;}.c{fill:none;}</style></defs><path class="a" d="M63.84,55.83c-2.08-.18-3-.28-4-.35C58.58,55.39,58,55.89,58,57a19.44,19.44,0,0,0,.18,2.86A31.16,31.16,0,0,1,58.1,68a8,8,0,0,1-1.49,4c-.55.78-1.18,1.5-1.8,2.23a5.88,5.88,0,0,1-5.49,2.31,7.45,7.45,0,0,0-1-.07c-3.62,0-6.57-1.19-8.44-4.47a5.11,5.11,0,0,0-.59-.75,1,1,0,0,0-1.25-.15q-1.53,1.52-3,3c-2.85,2.93-6.43,3.42-10.19,2.75A6.17,6.17,0,0,1,20.32,73a9.77,9.77,0,0,1-.73-6.08,32.71,32.71,0,0,1,2.62-7.7A14.78,14.78,0,0,0,23.1,57a.86.86,0,0,0-.37-.75c-1.05-.36-2.13-.66-3.21-.92a9.4,9.4,0,0,1-5.71-4.1,25.36,25.36,0,0,1-1.47-2.46,7.48,7.48,0,0,1,1.83-9.53,8.41,8.41,0,0,1,5.12-2.36,31.25,31.25,0,0,1,6.7-.1,22.51,22.51,0,0,0,2.85.07c.35,0,.72-.78.52-1.1-1.28-2-2.56-4-3.83-6.08A19,19,0,0,1,23.09,21a9,9,0,0,1,1.71-6.36c2.16-2.85,2.7-2.86,5.66-1.85a11.53,11.53,0,0,1,4.44,2.73c2.39,2.37,4.75,4.74,6.2,7.86a5.82,5.82,0,0,0,.54.79c.29.43.92.69,1.18.47s.53-.37.64-.63c.73-1.77,1.39-3.56,2.12-5.33a14.23,14.23,0,0,1,5.23-6.11,11.66,11.66,0,0,1,4.83-2A5.79,5.79,0,0,1,61.53,13,11.75,11.75,0,0,1,64,18.6a19.13,19.13,0,0,1-2,12.55,6,6,0,0,0-.62,1.76c0,.21.23.57.46.72a1.57,1.57,0,0,0,.91.24c3.06-.1,5.48,1.5,7.93,3a4.55,4.55,0,0,1,1.39,1.3c1,1.59,2,3.25,3,4.89a2.11,2.11,0,0,1,.17.44c1.77,5-.23,8.59-4.19,11a8.24,8.24,0,0,1-4.56,1.29C65.27,55.8,64,55.83,63.84,55.83ZM50.75,42.11c-.18-1.75-.29-3.18-.47-4.59a2.3,2.3,0,0,0-2.38-1.9,4.73,4.73,0,0,0-1.85.29c-2.29,1.11-4.52,2.34-5.82,4.7A4.43,4.43,0,0,1,39.1,42.1a4.3,4.3,0,0,0-1.57,2.3A33.79,33.79,0,0,0,36.35,48a20.61,20.61,0,0,0-.28,3.77,4.15,4.15,0,0,0,1.06,2.6c1.48,1.85,5.25,3,7.72,1.07,1-.79,2-1.55,2.93-2.43a4.93,4.93,0,0,0,1.33-1.92A27,27,0,0,0,50.75,42.11ZM54,46.65c0-.06-.14.56-.25,1.18-.35,2,0,2.62,1.8,3.19a22.78,22.78,0,0,0,8.94,1.19A9.2,9.2,0,0,0,71,48.7,6,6,0,0,0,69.58,40a10.39,10.39,0,0,0-6.35-1.62,9.78,9.78,0,0,0-5.33,1.85c-1.13.85-2.76,1.2-3.39,2.5C54.05,43.61,54.21,44.85,54,46.65Zm6.76-27a8.78,8.78,0,0,0-1-3.59A2.58,2.58,0,0,0,57,14.68a5.54,5.54,0,0,0-1.81.51,14.82,14.82,0,0,0-7.09,8.07c-.74,2.08-1.19,4.28-1.73,6.43a2,2,0,0,0,.84,2.08,20.14,20.14,0,0,1,5.17,3.38A1.1,1.1,0,0,0,53.66,35c1.86-1.8,2.69-4.31,4.31-6.28C60.11,26.11,60.45,22.94,60.78,19.69ZM27.27,24.22a6.83,6.83,0,0,0,.19,1.56c1.17,4.46,3.38,8.24,7.33,10.82a1.55,1.55,0,0,0,1.74-.34,36.37,36.37,0,0,1,3-3.07,2.9,2.9,0,0,0,1-3.76c-.55-1.33-1-2.7-1.54-4a17.92,17.92,0,0,0-6-7.91,10,10,0,0,0-2.1-1.09,2,2,0,0,0-2.45.95A15.91,15.91,0,0,0,27.27,24.22Zm.82,28.33.47,0,3.22-.33c.77-1,.37-2.14.5-3.21l.6-4.7a5.28,5.28,0,0,0,.16-1.4,1.89,1.89,0,0,0-.62-1.19,6,6,0,0,0-2.16-.94,29.06,29.06,0,0,0-7.57-.37,7.26,7.26,0,0,0-6.47,4.83,2.46,2.46,0,0,0-.2,1.38A5.53,5.53,0,0,0,19.29,51,18.18,18.18,0,0,0,28.09,52.55Zm26.58,9.13c-.12-1.41-.24-3.32-.48-5.2a6.41,6.41,0,0,0-.77-1.72.73.73,0,0,0-1.18,0c-.69.87-1.33,1.78-2.05,2.63a8.75,8.75,0,0,1-6,3.51,8.44,8.44,0,0,0-1.39.31,1.92,1.92,0,0,0-1,1.48,24.4,24.4,0,0,0,1,6.58c.79,3,5.27,4.5,7.86,2.62a8.13,8.13,0,0,0,3.73-6.33C54.43,64.39,54.54,63.29,54.67,61.68ZM23.55,69.39c.05.44.06.6.08.76a2.91,2.91,0,0,0,3.2,2.79A8,8,0,0,0,32,70.82c2.07-2,4-4.1,4.69-7,.22-.92.7-1.77,1-2.67a1.48,1.48,0,0,0-.51-1.68c-.84-.73-1.66-1.47-2.51-2.19a1.63,1.63,0,0,0-1.77-.19A18.23,18.23,0,0,0,27,61a6,6,0,0,0-1.37,1.92c-.7,1.59-1.3,3.24-1.86,4.89A7.37,7.37,0,0,0,23.55,69.39Z"/><path class="b" d="M50.75,42.11a27,27,0,0,1-1.64,9A4.93,4.93,0,0,1,47.78,53c-.91.88-1.94,1.64-2.93,2.43-2.47,2-6.24.78-7.72-1.07a4.15,4.15,0,0,1-1.06-2.6A20.61,20.61,0,0,1,36.35,48a33.79,33.79,0,0,1,1.18-3.61,4.3,4.3,0,0,1,1.57-2.3,4.43,4.43,0,0,0,1.13-1.49c1.3-2.36,3.53-3.59,5.82-4.7a4.73,4.73,0,0,1,1.85-.29,2.3,2.3,0,0,1,2.38,1.9C50.46,38.93,50.57,40.36,50.75,42.11Z"/><path class="c" d="M54,46.65c.19-1.8,0-3,.49-4,.63-1.3,2.26-1.65,3.39-2.5a9.78,9.78,0,0,1,5.33-1.85A10.39,10.39,0,0,1,69.58,40,6,6,0,0,1,71,48.7a9.2,9.2,0,0,1-6.53,3.51A22.78,22.78,0,0,1,55.57,51c-1.8-.57-2.15-1.19-1.8-3.19C53.88,47.21,54,46.59,54,46.65Z"/><path class="c" d="M60.78,19.69c-.33,3.25-.67,6.42-2.81,9-1.62,2-2.45,4.48-4.31,6.28a1.1,1.1,0,0,1-1.26.15,20.14,20.14,0,0,0-5.17-3.38,2,2,0,0,1-.84-2.08c.54-2.15,1-4.35,1.73-6.43a14.82,14.82,0,0,1,7.09-8.07A5.54,5.54,0,0,1,57,14.68a2.58,2.58,0,0,1,2.77,1.42A8.78,8.78,0,0,1,60.78,19.69Z"/><path class="c" d="M27.27,24.22a15.91,15.91,0,0,1,1.21-6.86,2,2,0,0,1,2.45-.95A10,10,0,0,1,33,17.5a17.92,17.92,0,0,1,6,7.91c.55,1.32,1,2.69,1.54,4a2.9,2.9,0,0,1-1,3.76,36.37,36.37,0,0,0-3,3.07,1.55,1.55,0,0,1-1.74.34c-3.95-2.58-6.16-6.36-7.33-10.82A6.83,6.83,0,0,1,27.27,24.22Z"/><path class="c" d="M28.09,52.55A18.18,18.18,0,0,1,19.29,51,5.53,5.53,0,0,1,16,46.59a2.46,2.46,0,0,1,.2-1.38,7.26,7.26,0,0,1,6.47-4.83,29.06,29.06,0,0,1,7.57.37,6,6,0,0,1,2.16.94A1.89,1.89,0,0,1,33,42.88a5.28,5.28,0,0,1-.16,1.4l-.6,4.7c-.13,1.07.27,2.23-.5,3.21l-3.22.33Z"/><path class="c" d="M54.67,61.68c-.13,1.61-.24,2.71-.3,3.83a8.13,8.13,0,0,1-3.73,6.33c-2.59,1.88-7.07.43-7.86-2.62a24.4,24.4,0,0,1-1-6.58,1.92,1.92,0,0,1,1-1.48,8.44,8.44,0,0,1,1.39-.31,8.75,8.75,0,0,0,6-3.51c.72-.85,1.36-1.76,2.05-2.63a.73.73,0,0,1,1.18,0,6.41,6.41,0,0,1,.77,1.72C54.43,58.36,54.55,60.27,54.67,61.68Z"/><path class="c" d="M23.55,69.39a7.37,7.37,0,0,1,.23-1.59c.56-1.65,1.16-3.3,1.86-4.89A6,6,0,0,1,27,61a18.23,18.23,0,0,1,5.9-3.92,1.63,1.63,0,0,1,1.77.19c.85.72,1.67,1.46,2.51,2.19a1.48,1.48,0,0,1,.51,1.68c-.31.9-.79,1.75-1,2.67-.73,2.92-2.62,5-4.69,7a8,8,0,0,1-5.17,2.12,2.91,2.91,0,0,1-3.2-2.79C23.61,70,23.6,69.83,23.55,69.39Z"/></svg>